<?xml version="1.0" standalone="no"?>
<!DOCTYPE svg PUBLIC "-//W3C//DTD SVG 1.0//EN" "http://www.w3.org/TR/2001/REC-SVG-20010904/DTD/svg10.dtd">
<svg xmlns="http://www.w3.org/2000/svg" xmlns:xlink="http://www.w3.org/1999/xlink" id="body_1" width="397" height="201">

<defs>
    <clipPath  id="1">

    <path id=""  clip-rule="evenodd" transform="matrix(1 0 0 1 0 0)"  d="M0 151L0 -0.9168701L0 -0.9168701L298.7531 -0.9168701L298.7531 -0.9168701L298.7531 151L298.7531 151L0 151z" />    </clipPath>
    <clipPath  id="2">

    <path id=""  clip-rule="evenodd" transform="matrix(1 0 0 1 0 0)"  d="M48.59063 115.0031L215.9906 115.0031L215.9906 115.0031L215.9906 6.283127L215.9906 6.283127L48.59063 6.283127z" />    </clipPath>
    <clipPath  id="3">

    <path id=""  clip-rule="evenodd" transform="matrix(1 0 0 1 0 0)"  d="M48.59063 115.0031L215.9906 115.0031L215.9906 115.0031L215.9906 6.283127L215.9906 6.283127L48.59063 6.283127z" />    </clipPath>
    <clipPath  id="4">

    <path id=""  clip-rule="evenodd" transform="matrix(1 0 0 1 0 0)"  d="M48.59063 115.0031L215.9906 115.0031L215.9906 115.0031L215.9906 6.283127L215.9906 6.283127L48.59063 6.283127z" />    </clipPath>
    <clipPath  id="5">

    <path id=""  clip-rule="evenodd" transform="matrix(1 0 0 1 0 0)"  d="M48.59063 115.0031L215.9906 115.0031L215.9906 115.0031L215.9906 6.283127L215.9906 6.283127L48.59063 6.283127z" />    </clipPath>
    <clipPath  id="6">

    <path id=""  clip-rule="evenodd" transform="matrix(1 0 0 1 0 0)"  d="M48.59063 115.0031L215.9906 115.0031L215.9906 115.0031L215.9906 6.283127L215.9906 6.283127L48.59063 6.283127z" />    </clipPath>
    <clipPath  id="7">

    <path id=""  clip-rule="evenodd" transform="matrix(1 0 0 1 0 0)"  d="M48.59063 115.0031L215.9906 115.0031L215.9906 115.0031L215.9906 6.283127L215.9906 6.283127L48.59063 6.283127z" />    </clipPath>
    <clipPath  id="8">

    <path id=""  clip-rule="evenodd" transform="matrix(1 0 0 1 0 0)"  d="M48.59063 115.0031L215.9906 115.0031L215.9906 115.0031L215.9906 6.283127L215.9906 6.283127L48.59063 6.283127z" />    </clipPath>
    <clipPath  id="9">

    <path id=""  clip-rule="evenodd" transform="matrix(1 0 0 1 0 0)"  d="M48.59063 115.0031L215.9906 115.0031L215.9906 115.0031L215.9906 6.283127L215.9906 6.283127L48.59063 6.283127z" />    </clipPath>
    <clipPath  id="10">

    <path id=""  clip-rule="evenodd" transform="matrix(1 0 0 1 0 0)"  d="M48.59063 115.0031L215.9906 115.0031L215.9906 115.0031L215.9906 6.283127L215.9906 6.283127L48.59063 6.283127z" />    </clipPath>
    <clipPath  id="11">

    <path id=""  clip-rule="evenodd" transform="matrix(1 0 0 1 0 0)"  d="M48.59063 115.0031L215.9906 115.0031L215.9906 115.0031L215.9906 6.283127L215.9906 6.283127L48.59063 6.283127z" />    </clipPath>
    <clipPath  id="12">

    <path id=""  clip-rule="evenodd" transform="matrix(1 0 0 1 0 0)"  d="M48.59063 115.0031L215.9906 115.0031L215.9906 115.0031L215.9906 6.283127L215.9906 6.283127L48.59063 6.283127z" />    </clipPath>
    <clipPath  id="13">

    <path id=""  clip-rule="evenodd" transform="matrix(1 0 0 1 0 0)"  d="M48.59063 115.0031L215.9906 115.0031L215.9906 115.0031L215.9906 6.283127L215.9906 6.283127L48.59063 6.283127z" />    </clipPath>
    <clipPath  id="14">

    <path id=""  clip-rule="evenodd" transform="matrix(1 0 0 1 0 0)"  d="M48.59063 115.0031L215.9906 115.0031L215.9906 115.0031L215.9906 6.283127L215.9906 6.283127L48.59063 6.283127z" />    </clipPath>
    <clipPath  id="15">

    <path id=""  clip-rule="evenodd" transform="matrix(1 0 0 1 0 0)"  d="M48.59063 115.0031L215.9906 115.0031L215.9906 115.0031L215.9906 6.283127L215.9906 6.283127L48.59063 6.283127z" />    </clipPath>
    <clipPath  id="16">

    <path id=""  clip-rule="evenodd" transform="matrix(1 0 0 1 0 0)"  d="M48.59063 115.0031L215.9906 115.0031L215.9906 115.0031L215.9906 6.283127L215.9906 6.283127L48.59063 6.283127z" />    </clipPath>
</defs>

<g transform="matrix(1.3333 0 0 1.3333 0 0)">
	<g clip-path="url(#1)" >
    <path id=""  transform="matrix(1 0 0 -1 0 151)"  d="M48.59063 35.99688L215.9906 35.99688L215.9906 35.99688L215.9906 144.7169L215.9906 144.7169L48.59063 144.7169z" stroke="none" fill="#EEEEEE" fill-rule="nonzero" />
		<g clip-path="url(#2)" >
    <path id=""  transform="matrix(1 0 0 -1 0 151)"  d="M56.19971 35.99688L56.19971 144.7169" stroke="#B2B2B2" stroke-width="0.5" stroke-linejoin="round" stroke-dasharray="1.85000002384186,0.800000011920929" fill="none" />
		</g>
    <path id=""  transform="matrix(1 0 0 -1 0 151)"  d="M56.19971 35.99688L56.19971 39.49688" stroke="#000000" stroke-width="0.8" stroke-linejoin="miter" fill="#000000" fill-rule="nonzero" />
    <path id=""  transform="matrix(1 0 0 -1 0 151)"  d="M48.2469 32.32313C 49.0569 32.32313 49.6769 31.99313 50.1169 31.35313C 50.5469 30.70313 50.7669 29.76313 50.7669 28.54313C 50.7669 27.31313 50.5469 26.37313 50.1169 25.73313C 49.6769 25.09313 49.0569 24.77313 48.2469 24.77313C 47.4269 24.77313 46.7969 25.09313 46.3669 25.73313C 45.9369 26.37313 45.7269 27.31313 45.7269 28.54313C 45.7269 29.76313 45.9369 30.70313 46.3669 31.35313C 46.7969 31.99313 47.4269 32.32313 48.2469 32.32313M48.2469 31.54313C 47.7369 31.54313 47.3569 31.29313 47.0969 30.79313C 46.8369 30.29313 46.7169 29.54313 46.7169 28.54313C 46.7169 27.54313 46.8369 26.79313 47.0969 26.29313C 47.3569 25.79313 47.7369 25.54313 48.2469 25.54313C 48.7569 25.54313 49.1369 25.79313 49.3969 26.29313C 49.6469 26.79313 49.7769 27.54313 49.7769 28.54313C 49.7769 29.54313 49.6469 30.29313 49.3969 30.79313C 49.1369 31.29313 48.7569 31.54313 48.2469 31.54313" stroke="none" fill="#000000" fill-rule="nonzero" />
    <path id=""  transform="matrix(1 0 0 -1 0 151)"  d="M52.4969 26.14313L53.5269 26.14313L53.5269 26.14313L53.5269 24.90313L53.5269 24.90313L52.4969 24.90313L52.4969 24.90313L52.4969 26.14313" stroke="none" fill="#000000" fill-rule="nonzero" />
    <path id=""  transform="matrix(1 0 0 -1 0 151)"  d="M57.7869 32.32313C 58.5969 32.32313 59.2169 31.99313 59.6569 31.35313C 60.0869 30.70313 60.3069 29.76313 60.3069 28.54313C 60.3069 27.31313 60.0869 26.37313 59.6569 25.73313C 59.2169 25.09313 58.5969 24.77313 57.7869 24.77313C 56.9669 24.77313 56.3369 25.09313 55.9069 25.73313C 55.4769 26.37313 55.2669 27.31313 55.2669 28.54313C 55.2669 29.76313 55.4769 30.70313 55.9069 31.35313C 56.3369 31.99313 56.9669 32.32313 57.7869 32.32313M57.7869 31.54313C 57.2769 31.54313 56.8969 31.29313 56.6369 30.79313C 56.3769 30.29313 56.2569 29.54313 56.2569 28.54313C 56.2569 27.54313 56.3769 26.79313 56.6369 26.29313C 56.8969 25.79313 57.2769 25.54313 57.7869 25.54313C 58.2969 25.54313 58.6769 25.79313 58.9369 26.29313C 59.1869 26.79313 59.3169 27.54313 59.3169 28.54313C 59.3169 29.54313 59.1869 30.29313 58.9369 30.79313C 58.6769 31.29313 58.2969 31.54313 57.7869 31.54313" stroke="none" fill="#000000" fill-rule="nonzero" />
    <path id=""  transform="matrix(1 0 0 -1 0 151)"  d="M64.1469 32.32313C 64.9569 32.32313 65.5769 31.99313 66.01691 31.35313C 66.44691 30.70313 66.6669 29.76313 66.6669 28.54313C 66.6669 27.31313 66.44691 26.37313 66.01691 25.73313C 65.5769 25.09313 64.9569 24.77313 64.1469 24.77313C 63.3269 24.77313 62.6969 25.09313 62.2669 25.73313C 61.8369 26.37313 61.6269 27.31313 61.6269 28.54313C 61.6269 29.76313 61.8369 30.70313 62.2669 31.35313C 62.6969 31.99313 63.3269 32.32313 64.1469 32.32313M64.1469 31.54313C 63.6369 31.54313 63.2569 31.29313 62.9969 30.79313C 62.7369 30.29313 62.61691 29.54313 62.61691 28.54313C 62.61691 27.54313 62.7369 26.79313 62.9969 26.29313C 63.2569 25.79313 63.6369 25.54313 64.1469 25.54313C 64.65691 25.54313 65.0369 25.79313 65.29691 26.29313C 65.54691 26.79313 65.6769 27.54313 65.6769 28.54313C 65.6769 29.54313 65.54691 30.29313 65.29691 30.79313C 65.0369 31.29313 64.65691 31.54313 64.1469 31.54313" stroke="none" fill="#000000" fill-rule="nonzero" />
		<g clip-path="url(#3)" >
    <path id=""  transform="matrix(1 0 0 -1 0 151)"  d="M94.24517 35.99688L94.24517 144.7169" stroke="#B2B2B2" stroke-width="0.5" stroke-linejoin="round" stroke-dasharray="1.85000002384186,0.800000011920929" fill="none" />
		</g>
    <path id=""  transform="matrix(1 0 0 -1 0 151)"  d="M94.24517 35.99688L94.24517 39.49688" stroke="#000000" stroke-width="0.8" stroke-linejoin="miter" fill="#000000" fill-rule="nonzero" />
    <path id=""  transform="matrix(1 0 0 -1 0 151)"  d="M86.29236 32.32313C 87.10236 32.32313 87.72236 31.99313 88.16236 31.35313C 88.59236 30.70313 88.81236 29.76313 88.81236 28.54313C 88.81236 27.31313 88.59236 26.37313 88.16236 25.73313C 87.72236 25.09313 87.10236 24.77313 86.29236 24.77313C 85.47236 24.77313 84.84236 25.09313 84.41236 25.73313C 83.98236 26.37313 83.77236 27.31313 83.77236 28.54313C 83.77236 29.76313 83.98236 30.70313 84.41236 31.35313C 84.84236 31.99313 85.47236 32.32313 86.29236 32.32313M86.29236 31.54313C 85.78236 31.54313 85.40236 31.29313 85.14236 30.79313C 84.88235 30.29313 84.76236 29.54313 84.76236 28.54313C 84.76236 27.54313 84.88235 26.79313 85.14236 26.29313C 85.40236 25.79313 85.78236 25.54313 86.29236 25.54313C 86.80236 25.54313 87.18236 25.79313 87.44236 26.29313C 87.69236 26.79313 87.82236 27.54313 87.82236 28.54313C 87.82236 29.54313 87.69236 30.29313 87.44236 30.79313C 87.18236 31.29313 86.80236 31.54313 86.29236 31.54313" stroke="none" fill="#000000" fill-rule="nonzero" />
    <path id=""  transform="matrix(1 0 0 -1 0 151)"  d="M90.54236 26.14313L91.57236 26.14313L91.57236 26.14313L91.57236 24.90313L91.57236 24.90313L90.54236 24.90313L90.54236 24.90313L90.54236 26.14313" stroke="none" fill="#000000" fill-rule="nonzero" />
    <path id=""  transform="matrix(1 0 0 -1 0 151)"  d="M94.57236 25.73313L98.01236 25.73313L98.01236 25.73313L98.01236 24.90313L98.01236 24.90313L93.38236 24.90313L93.38236 24.90313L93.38236 25.73313C 93.75236 26.11312 94.26236 26.63313 94.91236 27.29313C 95.55236 27.94313 95.96236 28.36313 96.13236 28.55313C 96.45236 28.90313 96.67236 29.20313 96.79236 29.45313C 96.91236 29.69313 96.98236 29.94313 96.98236 30.18313C 96.98236 30.56313 96.84236 30.88313 96.57236 31.12313C 96.30236 31.36313 95.95236 31.49313 95.51236 31.49313C 95.20236 31.49313 94.87236 31.43313 94.53236 31.33313C 94.19236 31.22313 93.82236 31.06313 93.43236 30.84313L93.43236 30.84313L93.43236 31.84313C 93.83236 32.00313 94.20236 32.12313 94.54236 32.20313C 94.88236 32.28313 95.20236 32.32313 95.49236 32.32313C 96.24236 32.32313 96.84236 32.13313 97.29236 31.75313C 97.74236 31.37313 97.97236 30.87313 97.97236 30.24313C 97.97236 29.94313 97.91236 29.65313 97.80236 29.39313C 97.69236 29.12313 97.49236 28.80313 97.19236 28.44313C 97.11236 28.34313 96.85236 28.07313 96.41236 27.62313C 95.97236 27.17313 95.36236 26.54313 94.57236 25.73313" stroke="none" fill="#000000" fill-rule="nonzero" />
    <path id=""  transform="matrix(1 0 0 -1 0 151)"  d="M100.0924 32.19313L103.9624 32.19313L103.9624 32.19313L103.9624 31.36313L103.9624 31.36313L100.9924 31.36313L100.9924 31.36313L100.9924 29.57313C 101.1324 29.62313 101.2824 29.66313 101.4224 29.68313C 101.5624 29.70313 101.7124 29.72313 101.8524 29.72313C 102.6624 29.72313 103.3024 29.49313 103.7824 29.05313C 104.2624 28.60313 104.5024 28.00313 104.5024 27.24313C 104.5024 26.45313 104.2524 25.84313 103.7624 25.41313C 103.2724 24.98313 102.5824 24.77313 101.7024 24.77313C 101.3924 24.77313 101.0824 24.80313 100.7624 24.84313C 100.4424 24.89313 100.1224 24.96313 99.78236 25.07313L99.78236 25.07313L99.78236 26.06313C 100.0724 25.90313 100.3724 25.78312 100.6924 25.70313C 101.0024 25.62313 101.3324 25.59313 101.6824 25.59313C 102.2424 25.59313 102.6924 25.73313 103.0224 26.03313C 103.3424 26.33313 103.5124 26.73313 103.5124 27.24313C 103.5124 27.74313 103.3424 28.14313 103.0224 28.44313C 102.6924 28.74313 102.2424 28.89313 101.6824 28.89313C 101.4224 28.89313 101.1524 28.86313 100.8924 28.80313C 100.6324 28.74313 100.3624 28.65313 100.0924 28.53313L100.0924 28.53313L100.0924 32.19313" stroke="none" fill="#000000" fill-rule="nonzero" />
		<g clip-path="url(#4)" >
    <path id=""  transform="matrix(1 0 0 -1 0 151)"  d="M132.2906 35.99688L132.2906 144.7169" stroke="#B2B2B2" stroke-width="0.5" stroke-linejoin="round" stroke-dasharray="1.85000002384186,0.800000011920929" fill="none" />
		</g>
    <path id=""  transform="matrix(1 0 0 -1 0 151)"  d="M132.2906 35.99688L132.2906 39.49688" stroke="#000000" stroke-width="0.8" stroke-linejoin="miter" fill="#000000" fill-rule="nonzero" />
    <path id=""  transform="matrix(1 0 0 -1 0 151)"  d="M124.3378 32.32313C 125.1478 32.32313 125.7678 31.99313 126.2078 31.35313C 126.6378 30.70313 126.8578 29.76313 126.8578 28.54313C 126.8578 27.31313 126.6378 26.37313 126.2078 25.73313C 125.7678 25.09313 125.1478 24.77313 124.3378 24.77313C 123.5178 24.77313 122.8878 25.09313 122.4578 25.73313C 122.0278 26.37313 121.8178 27.31313 121.8178 28.54313C 121.8178 29.76313 122.0278 30.70313 122.4578 31.35313C 122.8878 31.99313 123.5178 32.32313 124.3378 32.32313M124.3378 31.54313C 123.8278 31.54313 123.4478 31.29313 123.1878 30.79313C 122.9278 30.29313 122.8078 29.54313 122.8078 28.54313C 122.8078 27.54313 122.9278 26.79313 123.1878 26.29313C 123.4478 25.79313 123.8278 25.54313 124.3378 25.54313C 124.8478 25.54313 125.2278 25.79313 125.4878 26.29313C 125.7378 26.79313 125.8678 27.54313 125.8678 28.54313C 125.8678 29.54313 125.7378 30.29313 125.4878 30.79313C 125.2278 31.29313 124.8478 31.54313 124.3378 31.54313" stroke="none" fill="#000000" fill-rule="nonzero" />
    <path id=""  transform="matrix(1 0 0 -1 0 151)"  d="M128.5878 26.14313L129.6178 26.14313L129.6178 26.14313L129.6178 24.90313L129.6178 24.90313L128.5878 24.90313L128.5878 24.90313L128.5878 26.14313" stroke="none" fill="#000000" fill-rule="nonzero" />
    <path id=""  transform="matrix(1 0 0 -1 0 151)"  d="M131.7778 32.19313L135.6478 32.19313L135.6478 32.19313L135.6478 31.36313L135.6478 31.36313L132.6778 31.36313L132.6778 31.36313L132.6778 29.57313C 132.8178 29.62313 132.9678 29.66313 133.1078 29.68313C 133.2478 29.70313 133.3978 29.72313 133.5378 29.72313C 134.3478 29.72313 134.9878 29.49313 135.4678 29.05313C 135.9478 28.60313 136.1878 28.00313 136.1878 27.24313C 136.1878 26.45313 135.9378 25.84313 135.4478 25.41313C 134.9578 24.98313 134.2678 24.77313 133.3878 24.77313C 133.0778 24.77313 132.7678 24.80313 132.4478 24.84313C 132.1278 24.89313 131.8078 24.96313 131.4678 25.07313L131.4678 25.07313L131.4678 26.06313C 131.7578 25.90313 132.0578 25.78312 132.3778 25.70313C 132.6878 25.62313 133.0178 25.59313 133.3678 25.59313C 133.9278 25.59313 134.3778 25.73313 134.7078 26.03313C 135.0278 26.33313 135.1978 26.73313 135.1978 27.24313C 135.1978 27.74313 135.0278 28.14313 134.7078 28.44313C 134.3778 28.74313 133.9278 28.89313 133.3678 28.89313C 133.1078 28.89313 132.8378 28.86313 132.5778 28.80313C 132.3178 28.74313 132.0478 28.65313 131.7778 28.53313L131.7778 28.53313L131.7778 32.19313" stroke="none" fill="#000000" fill-rule="nonzero" />
    <path id=""  transform="matrix(1 0 0 -1 0 151)"  d="M140.2378 32.32313C 141.0478 32.32313 141.6678 31.99313 142.1078 31.35313C 142.5378 30.70313 142.7578 29.76313 142.7578 28.54313C 142.7578 27.31313 142.5378 26.37313 142.1078 25.73313C 141.6678 25.09313 141.0478 24.77313 140.2378 24.77313C 139.4178 24.77313 138.7878 25.09313 138.3578 25.73313C 137.9278 26.37313 137.7178 27.31313 137.7178 28.54313C 137.7178 29.76313 137.9278 30.70313 138.3578 31.35313C 138.7878 31.99313 139.4178 32.32313 140.2378 32.32313M140.2378 31.54313C 139.7278 31.54313 139.3478 31.29313 139.0878 30.79313C 138.8278 30.29313 138.7078 29.54313 138.7078 28.54313C 138.7078 27.54313 138.8278 26.79313 139.0878 26.29313C 139.3478 25.79313 139.7278 25.54313 140.2378 25.54313C 140.7478 25.54313 141.1278 25.79313 141.3878 26.29313C 141.6378 26.79313 141.7678 27.54313 141.7678 28.54313C 141.7678 29.54313 141.6378 30.29313 141.3878 30.79313C 141.1278 31.29313 140.7478 31.54313 140.2378 31.54313" stroke="none" fill="#000000" fill-rule="nonzero" />
		<g clip-path="url(#5)" >
    <path id=""  transform="matrix(1 0 0 -1 0 151)"  d="M170.3361 35.99688L170.3361 144.7169" stroke="#B2B2B2" stroke-width="0.5" stroke-linejoin="round" stroke-dasharray="1.85000002384186,0.800000011920929" fill="none" />
		</g>
    <path id=""  transform="matrix(1 0 0 -1 0 151)"  d="M170.3361 35.99688L170.3361 39.49688" stroke="#000000" stroke-width="0.8" stroke-linejoin="miter" fill="#000000" fill-rule="nonzero" />
    <path id=""  transform="matrix(1 0 0 -1 0 151)"  d="M162.3833 32.32313C 163.1933 32.32313 163.8133 31.99313 164.2533 31.35313C 164.6833 30.70313 164.9033 29.76313 164.9033 28.54313C 164.9033 27.31313 164.6833 26.37313 164.2533 25.73313C 163.8133 25.09313 163.1933 24.77313 162.3833 24.77313C 161.5633 24.77313 160.9333 25.09313 160.5033 25.73313C 160.0733 26.37313 159.8633 27.31313 159.8633 28.54313C 159.8633 29.76313 160.0733 30.70313 160.5033 31.35313C 160.9333 31.99313 161.5633 32.32313 162.3833 32.32313M162.3833 31.54313C 161.8733 31.54313 161.4933 31.29313 161.2333 30.79313C 160.9733 30.29313 160.8533 29.54313 160.8533 28.54313C 160.8533 27.54313 160.9733 26.79313 161.2333 26.29313C 161.4933 25.79313 161.8733 25.54313 162.3833 25.54313C 162.8933 25.54313 163.2733 25.79313 163.5333 26.29313C 163.7833 26.79313 163.9133 27.54313 163.9133 28.54313C 163.9133 29.54313 163.7833 30.29313 163.5333 30.79313C 163.2733 31.29313 162.8933 31.54313 162.3833 31.54313" stroke="none" fill="#000000" fill-rule="nonzero" />
    <path id=""  transform="matrix(1 0 0 -1 0 151)"  d="M166.6333 26.14313L167.6633 26.14313L167.6633 26.14313L167.6633 24.90313L167.6633 24.90313L166.6333 24.90313L166.6333 24.90313L166.6333 26.14313" stroke="none" fill="#000000" fill-rule="nonzero" />
    <path id=""  transform="matrix(1 0 0 -1 0 151)"  d="M169.5633 32.19313L174.2533 32.19313L174.2533 32.19313L174.2533 31.77313L174.2533 31.77313L171.6033 24.90313L171.6033 24.90313L170.5733 24.90313L170.5733 24.90313L173.0633 31.36313L173.0633 31.36313L169.5633 31.36313L169.5633 31.36313L169.5633 32.19313" stroke="none" fill="#000000" fill-rule="nonzero" />
    <path id=""  transform="matrix(1 0 0 -1 0 151)"  d="M176.1833 32.19313L180.0533 32.19313L180.0533 32.19313L180.0533 31.36313L180.0533 31.36313L177.0833 31.36313L177.0833 31.36313L177.0833 29.57313C 177.2233 29.62313 177.3733 29.66313 177.5133 29.68313C 177.6533 29.70313 177.8033 29.72313 177.9433 29.72313C 178.7533 29.72313 179.3932 29.49313 179.8733 29.05313C 180.3533 28.60313 180.5933 28.00313 180.5933 27.24313C 180.5933 26.45313 180.3433 25.84313 179.8533 25.41313C 179.3633 24.98313 178.6733 24.77313 177.7933 24.77313C 177.4833 24.77313 177.1733 24.80313 176.8533 24.84313C 176.5332 24.89313 176.2133 24.96313 175.8733 25.07313L175.8733 25.07313L175.8733 26.06313C 176.1633 25.90313 176.4633 25.78312 176.7832 25.70313C 177.0933 25.62313 177.4233 25.59313 177.7733 25.59313C 178.3333 25.59313 178.7833 25.73313 179.1133 26.03313C 179.4333 26.33313 179.6033 26.73313 179.6033 27.24313C 179.6033 27.74313 179.4333 28.14313 179.1133 28.44313C 178.7833 28.74313 178.3333 28.89313 177.7733 28.89313C 177.5133 28.89313 177.2433 28.86313 176.9833 28.80313C 176.7233 28.74313 176.4533 28.65313 176.1833 28.53313L176.1833 28.53313L176.1833 32.19313" stroke="none" fill="#000000" fill-rule="nonzero" />
		<g clip-path="url(#6)" >
    <path id=""  transform="matrix(1 0 0 -1 0 151)"  d="M208.3815 35.99688L208.3815 144.7169" stroke="#B2B2B2" stroke-width="0.5" stroke-linejoin="round" stroke-dasharray="1.85000002384186,0.800000011920929" fill="none" />
		</g>
    <path id=""  transform="matrix(1 0 0 -1 0 151)"  d="M208.3815 35.99688L208.3815 39.49688" stroke="#000000" stroke-width="0.8" stroke-linejoin="miter" fill="#000000" fill-rule="nonzero" />
    <path id=""  transform="matrix(1 0 0 -1 0 151)"  d="M198.4887 25.73313L200.0987 25.73313L200.0987 25.73313L200.0987 31.29313L200.0987 31.29313L198.3487 30.94313L198.3487 30.94313L198.3487 31.84313L198.3487 31.84313L200.0887 32.19313L200.0887 32.19313L201.0787 32.19313L201.0787 32.19313L201.0787 25.73313L201.0787 25.73313L202.6887 25.73313L202.6887 25.73313L202.6887 24.90313L202.6887 24.90313L198.4887 24.90313L198.4887 24.90313L198.4887 25.73313" stroke="none" fill="#000000" fill-rule="nonzero" />
    <path id=""  transform="matrix(1 0 0 -1 0 151)"  d="M204.6787 26.14313L205.7087 26.14313L205.7087 26.14313L205.7087 24.90313L205.7087 24.90313L204.6787 24.90313L204.6787 24.90313L204.6787 26.14313" stroke="none" fill="#000000" fill-rule="nonzero" />
    <path id=""  transform="matrix(1 0 0 -1 0 151)"  d="M209.9687 32.32313C 210.7787 32.32313 211.3987 31.99313 211.8387 31.35313C 212.2687 30.70313 212.4887 29.76313 212.4887 28.54313C 212.4887 27.31313 212.2687 26.37313 211.8387 25.73313C 211.3987 25.09313 210.7787 24.77313 209.9687 24.77313C 209.1487 24.77313 208.5187 25.09313 208.0887 25.73313C 207.6587 26.37313 207.4487 27.31313 207.4487 28.54313C 207.4487 29.76313 207.6587 30.70313 208.0887 31.35313C 208.5187 31.99313 209.1487 32.32313 209.9687 32.32313M209.9687 31.54313C 209.4587 31.54313 209.0787 31.29313 208.8187 30.79313C 208.5587 30.29313 208.4387 29.54313 208.4387 28.54313C 208.4387 27.54313 208.5587 26.79313 208.8187 26.29313C 209.0787 25.79313 209.4587 25.54313 209.9687 25.54313C 210.4787 25.54313 210.8587 25.79313 211.1187 26.29313C 211.3687 26.79313 211.4987 27.54313 211.4987 28.54313C 211.4987 29.54313 211.3687 30.29313 211.1187 30.79313C 210.8587 31.29313 210.4787 31.54313 209.9687 31.54313" stroke="none" fill="#000000" fill-rule="nonzero" />
    <path id=""  transform="matrix(1 0 0 -1 0 151)"  d="M216.3287 32.32313C 217.1387 32.32313 217.7587 31.99313 218.1987 31.35313C 218.6287 30.70313 218.8487 29.76313 218.8487 28.54313C 218.8487 27.31313 218.6287 26.37313 218.1987 25.73313C 217.7587 25.09313 217.1387 24.77313 216.3287 24.77313C 215.5087 24.77313 214.8787 25.09313 214.4487 25.73313C 214.0187 26.37313 213.8087 27.31313 213.8087 28.54313C 213.8087 29.76313 214.0187 30.70313 214.4487 31.35313C 214.8787 31.99313 215.5087 32.32313 216.3287 32.32313M216.3287 31.54313C 215.8187 31.54313 215.4387 31.29313 215.1787 30.79313C 214.9187 30.29313 214.7987 29.54313 214.7987 28.54313C 214.7987 27.54313 214.9187 26.79313 215.1787 26.29313C 215.4387 25.79313 215.8187 25.54313 216.3287 25.54313C 216.8387 25.54313 217.2187 25.79313 217.4787 26.29313C 217.7287 26.79313 217.8587 27.54313 217.8587 28.54313C 217.8587 29.54313 217.7287 30.29313 217.4787 30.79313C 217.2187 31.29313 216.8387 31.54313 216.3287 31.54313" stroke="none" fill="#000000" fill-rule="nonzero" />
    <path id=""  transform="matrix(1 0 0 -1 0 151)"  d="M135.3239 16.264L132.9479 13.072L132.9479 13.072L135.4439 9.7L135.4439 9.7L134.1719 9.7L134.1719 9.7L132.2639 12.28L132.2639 12.28L130.3559 9.7L130.3559 9.7L129.0839 9.7L129.0839 9.7L131.6279 13.132L131.6279 13.132L129.2999 16.264L129.2999 16.264L130.5719 16.264L130.5719 16.264L132.3119 13.924L132.3119 13.924L134.0519 16.264L134.0519 16.264L135.3239 16.264" stroke="none" fill="#000000" fill-rule="nonzero" />
		<g clip-path="url(#7)" >
    <path id=""  transform="matrix(1 0 0 -1 0 151)"  d="M48.59063 40.93869L215.9906 40.93869" stroke="#B2B2B2" stroke-width="0.5" stroke-linejoin="round" stroke-dasharray="1.85000002384186,0.800000011920929" fill="none" />
		</g>
    <path id=""  transform="matrix(1 0 0 -1 0 151)"  d="M48.59063 40.93869L52.09063 40.93869" stroke="#000000" stroke-width="0.8" stroke-linejoin="miter" fill="#000000" fill-rule="nonzero" />
    <path id=""  transform="matrix(1 0 0 -1 0 151)"  d="M26.005 44.56182C 26.815 44.56182 27.435 44.23182 27.875 43.59182C 28.305 42.94182 28.525 42.00182 28.525 40.78182C 28.525 39.55182 28.305 38.61182 27.875 37.97182C 27.435 37.33182 26.815 37.01182 26.005 37.01182C 25.185 37.01182 24.555 37.33182 24.125 37.97182C 23.695 38.61182 23.485 39.55182 23.485 40.78182C 23.485 42.00182 23.695 42.94182 24.125 43.59182C 24.555 44.23182 25.185 44.56182 26.005 44.56182M26.005 43.78182C 25.495 43.78182 25.115 43.53182 24.855 43.03182C 24.595 42.53182 24.475 41.78182 24.475 40.78182C 24.475 39.78182 24.595 39.03182 24.855 38.53182C 25.115 38.03182 25.495 37.78182 26.005 37.78182C 26.515 37.78182 26.895 38.03182 27.155 38.53182C 27.405 39.03182 27.535 39.78182 27.535 40.78182C 27.535 41.78182 27.405 42.53182 27.155 43.03182C 26.895 43.53182 26.515 43.78182 26.005 43.78182" stroke="none" fill="#000000" fill-rule="nonzero" />
    <path id=""  transform="matrix(1 0 0 -1 0 151)"  d="M30.255 38.38182L31.285 38.38182L31.285 38.38182L31.285 37.14182L31.285 37.14182L30.255 37.14182L30.255 37.14182L30.255 38.38182" stroke="none" fill="#000000" fill-rule="nonzero" />
    <path id=""  transform="matrix(1 0 0 -1 0 151)"  d="M35.545 44.56182C 36.355 44.56182 36.975 44.23182 37.415 43.59182C 37.845 42.94182 38.065 42.00182 38.065 40.78182C 38.065 39.55182 37.845 38.61182 37.415 37.97182C 36.975 37.33182 36.355 37.01182 35.545 37.01182C 34.725 37.01182 34.095 37.33182 33.665 37.97182C 33.235 38.61182 33.025 39.55182 33.025 40.78182C 33.025 42.00182 33.235 42.94182 33.665 43.59182C 34.095 44.23182 34.725 44.56182 35.545 44.56182M35.545 43.78182C 35.035 43.78182 34.655 43.53182 34.395 43.03182C 34.135 42.53182 34.015 41.78182 34.015 40.78182C 34.015 39.78182 34.135 39.03182 34.395 38.53182C 34.655 38.03182 35.035 37.78182 35.545 37.78182C 36.055 37.78182 36.435 38.03182 36.695 38.53182C 36.945 39.03182 37.075 39.78182 37.075 40.78182C 37.075 41.78182 36.945 42.53182 36.695 43.03182C 36.435 43.53182 36.055 43.78182 35.545 43.78182" stroke="none" fill="#000000" fill-rule="nonzero" />
    <path id=""  transform="matrix(1 0 0 -1 0 151)"  d="M41.905 44.56182C 42.715 44.56182 43.335 44.23182 43.775 43.59182C 44.205 42.94182 44.425 42.00182 44.425 40.78182C 44.425 39.55182 44.205 38.61182 43.775 37.97182C 43.335 37.33182 42.715 37.01182 41.905 37.01182C 41.085 37.01182 40.455 37.33182 40.025 37.97182C 39.595 38.61182 39.385 39.55182 39.385 40.78182C 39.385 42.00182 39.595 42.94182 40.025 43.59182C 40.455 44.23182 41.085 44.56182 41.905 44.56182M41.905 43.78182C 41.395 43.78182 41.015 43.53182 40.755 43.03182C 40.495 42.53182 40.375 41.78182 40.375 40.78182C 40.375 39.78182 40.495 39.03182 40.755 38.53182C 41.015 38.03182 41.395 37.78182 41.905 37.78182C 42.415 37.78182 42.795 38.03182 43.055 38.53182C 43.305 39.03182 43.435 39.78182 43.435 40.78182C 43.435 41.78182 43.305 42.53182 43.055 43.03182C 42.795 43.53182 42.415 43.78182 41.905 43.78182" stroke="none" fill="#000000" fill-rule="nonzero" />
		<g clip-path="url(#8)" >
    <path id=""  transform="matrix(1 0 0 -1 0 151)"  d="M48.59063 65.7091L215.9906 65.7091" stroke="#B2B2B2" stroke-width="0.5" stroke-linejoin="round" stroke-dasharray="1.85000002384186,0.800000011920929" fill="none" />
		</g>
    <path id=""  transform="matrix(1 0 0 -1 0 151)"  d="M48.59063 65.7091L52.09063 65.7091" stroke="#000000" stroke-width="0.8" stroke-linejoin="miter" fill="#000000" fill-rule="nonzero" />
    <path id=""  transform="matrix(1 0 0 -1 0 151)"  d="M26.005 69.33222C 26.815 69.33222 27.435 69.00223 27.875 68.36222C 28.305 67.71223 28.525 66.77222 28.525 65.55222C 28.525 64.32223 28.305 63.38223 27.875 62.74223C 27.435 62.10222 26.815 61.78222 26.005 61.78222C 25.185 61.78222 24.555 62.10222 24.125 62.74223C 23.695 63.38223 23.485 64.32223 23.485 65.55222C 23.485 66.77222 23.695 67.71223 24.125 68.36222C 24.555 69.00223 25.185 69.33222 26.005 69.33222M26.005 68.55222C 25.495 68.55222 25.115 68.30222 24.855 67.80222C 24.595 67.30222 24.475 66.55222 24.475 65.55222C 24.475 64.55222 24.595 63.80222 24.855 63.30222C 25.115 62.80222 25.495 62.55222 26.005 62.55222C 26.515 62.55222 26.895 62.80222 27.155 63.30222C 27.405 63.80222 27.535 64.55222 27.535 65.55222C 27.535 66.55222 27.405 67.30222 27.155 67.80222C 26.895 68.30222 26.515 68.55222 26.005 68.55222" stroke="none" fill="#000000" fill-rule="nonzero" />
    <path id=""  transform="matrix(1 0 0 -1 0 151)"  d="M30.255 63.15223L31.285 63.15223L31.285 63.15223L31.285 61.91222L31.285 61.91222L30.255 61.91222L30.255 61.91222L30.255 63.15223" stroke="none" fill="#000000" fill-rule="nonzero" />
    <path id=""  transform="matrix(1 0 0 -1 0 151)"  d="M34.285 62.74223L37.725 62.74223L37.725 62.74223L37.725 61.91222L37.725 61.91222L33.095 61.91222L33.095 61.91222L33.095 62.74223C 33.465 63.12222 33.975 63.64222 34.625 64.30222C 35.265 64.95222 35.675 65.37222 35.845 65.56223C 36.165 65.91222 36.385 66.21223 36.505 66.46223C 36.625 66.70222 36.695 66.95222 36.695 67.19222C 36.695 67.57223 36.555 67.89223 36.285 68.13223C 36.015 68.37222 35.665 68.50223 35.225 68.50223C 34.915 68.50223 34.585 68.44222 34.245 68.34222C 33.905 68.23222 33.535 68.07223 33.145 67.85223L33.145 67.85223L33.145 68.85223C 33.545 69.01222 33.915 69.13223 34.255 69.21223C 34.595 69.29222 34.915 69.33222 35.205 69.33222C 35.955 69.33222 36.555 69.14223 37.005 68.76222C 37.455 68.38223 37.685 67.88223 37.685 67.25223C 37.685 66.95222 37.625 66.66222 37.515 66.40222C 37.405 66.13223 37.205 65.81223 36.905 65.45222C 36.825 65.35223 36.565 65.08222 36.125 64.63223C 35.685 64.18222 35.075 63.55222 34.285 62.74223" stroke="none" fill="#000000" fill-rule="nonzero" />
    <path id=""  transform="matrix(1 0 0 -1 0 151)"  d="M39.805 69.20222L43.675 69.20222L43.675 69.20222L43.675 68.37222L43.675 68.37222L40.705 68.37222L40.705 68.37222L40.705 66.58222C 40.845 66.63223 40.995 66.67223 41.135 66.69222C 41.275 66.71223 41.425 66.73222 41.565 66.73222C 42.375 66.73222 43.015 66.50223 43.495 66.06223C 43.975 65.61222 44.215 65.01222 44.215 64.25223C 44.215 63.46222 43.965 62.85222 43.475 62.42222C 42.985 61.99223 42.295 61.78222 41.415 61.78222C 41.105 61.78222 40.795 61.81223 40.475 61.85222C 40.155 61.90223 39.835 61.97223 39.495 62.08222L39.495 62.08222L39.495 63.07222C 39.785 62.91222 40.085 62.79222 40.405 62.71222C 40.715 62.63223 41.045 62.60222 41.395 62.60222C 41.955 62.60222 42.405 62.74223 42.735 63.04222C 43.055 63.34222 43.225 63.74223 43.225 64.25223C 43.225 64.75223 43.055 65.15222 42.735 65.45222C 42.405 65.75223 41.955 65.90222 41.395 65.90222C 41.135 65.90222 40.865 65.87222 40.605 65.81223C 40.345 65.75223 40.075 65.66222 39.805 65.54222L39.805 65.54222L39.805 69.20222" stroke="none" fill="#000000" fill-rule="nonzero" />
		<g clip-path="url(#9)" >
    <path id=""  transform="matrix(1 0 0 -1 0 151)"  d="M48.59063 90.47951L215.9906 90.47951" stroke="#B2B2B2" stroke-width="0.5" stroke-linejoin="round" stroke-dasharray="1.85000002384186,0.800000011920929" fill="none" />
		</g>
    <path id=""  transform="matrix(1 0 0 -1 0 151)"  d="M48.59063 90.47951L52.09063 90.47951" stroke="#000000" stroke-width="0.8" stroke-linejoin="miter" fill="#000000" fill-rule="nonzero" />
    <path id=""  transform="matrix(1 0 0 -1 0 151)"  d="M26.005 94.10263C 26.815 94.10263 27.435 93.77264 27.875 93.13263C 28.305 92.48264 28.525 91.54263 28.525 90.32263C 28.525 89.09264 28.305 88.15263 27.875 87.51263C 27.435 86.87263 26.815 86.55264 26.005 86.55264C 25.185 86.55264 24.555 86.87263 24.125 87.51263C 23.695 88.15263 23.485 89.09264 23.485 90.32263C 23.485 91.54263 23.695 92.48264 24.125 93.13263C 24.555 93.77264 25.185 94.10263 26.005 94.10263M26.005 93.32263C 25.495 93.32263 25.115 93.07263 24.855 92.57263C 24.595 92.07263 24.475 91.32263 24.475 90.32263C 24.475 89.32263 24.595 88.57263 24.855 88.07263C 25.115 87.57263 25.495 87.32263 26.005 87.32263C 26.515 87.32263 26.895 87.57263 27.155 88.07263C 27.405 88.57263 27.535 89.32263 27.535 90.32263C 27.535 91.32263 27.405 92.07263 27.155 92.57263C 26.895 93.07263 26.515 93.32263 26.005 93.32263" stroke="none" fill="#000000" fill-rule="nonzero" />
    <path id=""  transform="matrix(1 0 0 -1 0 151)"  d="M30.255 87.92263L31.285 87.92263L31.285 87.92263L31.285 86.68263L31.285 86.68263L30.255 86.68263L30.255 86.68263L30.255 87.92263" stroke="none" fill="#000000" fill-rule="nonzero" />
    <path id=""  transform="matrix(1 0 0 -1 0 151)"  d="M33.445 93.97263L37.315 93.97263L37.315 93.97263L37.315 93.14263L37.315 93.14263L34.345 93.14263L34.345 93.14263L34.345 91.35263C 34.485 91.40263 34.635 91.44263 34.775 91.46263C 34.915 91.48264 35.065 91.50263 35.205 91.50263C 36.015 91.50263 36.655 91.27263 37.135 90.83263C 37.615 90.38263 37.855 89.78263 37.855 89.02263C 37.855 88.23264 37.605 87.62263 37.115 87.19263C 36.625 86.76263 35.935 86.55264 35.055 86.55264C 34.745 86.55264 34.435 86.58263 34.115 86.62263C 33.795 86.67263 33.475 86.74263 33.135 86.85263L33.135 86.85263L33.135 87.84264C 33.425 87.68263 33.725 87.56263 34.045 87.48264C 34.355 87.40263 34.685 87.37263 35.035 87.37263C 35.595 87.37263 36.045 87.51263 36.375 87.81263C 36.695 88.11263 36.865 88.51263 36.865 89.02263C 36.865 89.52263 36.695 89.92263 36.375 90.22263C 36.045 90.52263 35.595 90.67263 35.035 90.67263C 34.775 90.67263 34.505 90.64263 34.245 90.58263C 33.985 90.52263 33.715 90.43263 33.445 90.31263L33.445 90.31263L33.445 93.97263" stroke="none" fill="#000000" fill-rule="nonzero" />
    <path id=""  transform="matrix(1 0 0 -1 0 151)"  d="M41.905 94.10263C 42.715 94.10263 43.335 93.77264 43.775 93.13263C 44.205 92.48264 44.425 91.54263 44.425 90.32263C 44.425 89.09264 44.205 88.15263 43.775 87.51263C 43.335 86.87263 42.715 86.55264 41.905 86.55264C 41.085 86.55264 40.455 86.87263 40.025 87.51263C 39.595 88.15263 39.385 89.09264 39.385 90.32263C 39.385 91.54263 39.595 92.48264 40.025 93.13263C 40.455 93.77264 41.085 94.10263 41.905 94.10263M41.905 93.32263C 41.395 93.32263 41.015 93.07263 40.755 92.57263C 40.495 92.07263 40.375 91.32263 40.375 90.32263C 40.375 89.32263 40.495 88.57263 40.755 88.07263C 41.015 87.57263 41.395 87.32263 41.905 87.32263C 42.415 87.32263 42.795 87.57263 43.055 88.07263C 43.305 88.57263 43.435 89.32263 43.435 90.32263C 43.435 91.32263 43.305 92.07263 43.055 92.57263C 42.795 93.07263 42.415 93.32263 41.905 93.32263" stroke="none" fill="#000000" fill-rule="nonzero" />
		<g clip-path="url(#10)" >
    <path id=""  transform="matrix(1 0 0 -1 0 151)"  d="M48.59063 115.2499L215.9906 115.2499" stroke="#B2B2B2" stroke-width="0.5" stroke-linejoin="round" stroke-dasharray="1.85000002384186,0.800000011920929" fill="none" />
		</g>
    <path id=""  transform="matrix(1 0 0 -1 0 151)"  d="M48.59063 115.2499L52.09063 115.2499" stroke="#000000" stroke-width="0.8" stroke-linejoin="miter" fill="#000000" fill-rule="nonzero" />
    <path id=""  transform="matrix(1 0 0 -1 0 151)"  d="M26.005 118.873C 26.815 118.873 27.435 118.543 27.875 117.903C 28.305 117.253 28.525 116.313 28.525 115.093C 28.525 113.863 28.305 112.923 27.875 112.283C 27.435 111.643 26.815 111.323 26.005 111.323C 25.185 111.323 24.555 111.643 24.125 112.283C 23.695 112.923 23.485 113.863 23.485 115.093C 23.485 116.313 23.695 117.253 24.125 117.903C 24.555 118.543 25.185 118.873 26.005 118.873M26.005 118.093C 25.495 118.093 25.115 117.843 24.855 117.343C 24.595 116.843 24.475 116.093 24.475 115.093C 24.475 114.093 24.595 113.343 24.855 112.843C 25.115 112.343 25.495 112.093 26.005 112.093C 26.515 112.093 26.895 112.343 27.155 112.843C 27.405 113.343 27.535 114.093 27.535 115.093C 27.535 116.093 27.405 116.843 27.155 117.343C 26.895 117.843 26.515 118.093 26.005 118.093" stroke="none" fill="#000000" fill-rule="nonzero" />
    <path id=""  transform="matrix(1 0 0 -1 0 151)"  d="M30.255 112.693L31.285 112.693L31.285 112.693L31.285 111.453L31.285 111.453L30.255 111.453L30.255 111.453L30.255 112.693" stroke="none" fill="#000000" fill-rule="nonzero" />
    <path id=""  transform="matrix(1 0 0 -1 0 151)"  d="M33.185 118.743L37.875 118.743L37.875 118.743L37.875 118.323L37.875 118.323L35.225 111.453L35.225 111.453L34.195 111.453L34.195 111.453L36.685 117.913L36.685 117.913L33.185 117.913L33.185 117.913L33.185 118.743" stroke="none" fill="#000000" fill-rule="nonzero" />
    <path id=""  transform="matrix(1 0 0 -1 0 151)"  d="M39.805 118.743L43.675 118.743L43.675 118.743L43.675 117.913L43.675 117.913L40.705 117.913L40.705 117.913L40.705 116.123C 40.845 116.173 40.995 116.213 41.135 116.233C 41.275 116.253 41.425 116.273 41.565 116.273C 42.375 116.273 43.015 116.043 43.495 115.603C 43.975 115.153 44.215 114.553 44.215 113.793C 44.215 113.003 43.965 112.393 43.475 111.963C 42.985 111.533 42.295 111.323 41.415 111.323C 41.105 111.323 40.795 111.353 40.475 111.393C 40.155 111.443 39.835 111.513 39.495 111.623L39.495 111.623L39.495 112.613C 39.785 112.453 40.085 112.333 40.405 112.253C 40.715 112.173 41.045 112.143 41.395 112.143C 41.955 112.143 42.405 112.283 42.735 112.583C 43.055 112.883 43.225 113.283 43.225 113.793C 43.225 114.293 43.055 114.693 42.735 114.993C 42.405 115.293 41.955 115.443 41.395 115.443C 41.135 115.443 40.865 115.413 40.605 115.353C 40.345 115.293 40.075 115.203 39.805 115.083L39.805 115.083L39.805 118.743" stroke="none" fill="#000000" fill-rule="nonzero" />
		<g clip-path="url(#11)" >
    <path id=""  transform="matrix(1 0 0 -1 0 151)"  d="M48.59063 140.0203L215.9906 140.0203" stroke="#B2B2B2" stroke-width="0.5" stroke-linejoin="round" stroke-dasharray="1.85000002384186,0.800000011920929" fill="none" />
		</g>
    <path id=""  transform="matrix(1 0 0 -1 0 151)"  d="M48.59063 140.0203L52.09063 140.0203" stroke="#000000" stroke-width="0.8" stroke-linejoin="miter" fill="#000000" fill-rule="nonzero" />
    <path id=""  transform="matrix(1 0 0 -1 0 151)"  d="M24.065 137.0535L25.675 137.0535L25.675 137.0535L25.675 142.6134L25.675 142.6134L23.925 142.2634L23.925 142.2634L23.925 143.1635L23.925 143.1635L25.665 143.5134L25.665 143.5134L26.655 143.5134L26.655 143.5134L26.655 137.0535L26.655 137.0535L28.265 137.0535L28.265 137.0535L28.265 136.2234L28.265 136.2234L24.065 136.2234L24.065 136.2234L24.065 137.0535" stroke="none" fill="#000000" fill-rule="nonzero" />
    <path id=""  transform="matrix(1 0 0 -1 0 151)"  d="M30.255 137.4635L31.285 137.4635L31.285 137.4635L31.285 136.2234L31.285 136.2234L30.255 136.2234L30.255 136.2234L30.255 137.4635" stroke="none" fill="#000000" fill-rule="nonzero" />
    <path id=""  transform="matrix(1 0 0 -1 0 151)"  d="M35.545 143.6434C 36.355 143.6434 36.975 143.3134 37.415 142.6734C 37.845 142.0235 38.065 141.0835 38.065 139.8634C 38.065 138.6335 37.845 137.6935 37.415 137.0535C 36.975 136.4135 36.355 136.0934 35.545 136.0934C 34.725 136.0934 34.095 136.4135 33.665 137.0535C 33.235 137.6935 33.025 138.6335 33.025 139.8634C 33.025 141.0835 33.235 142.0235 33.665 142.6734C 34.095 143.3134 34.725 143.6434 35.545 143.6434M35.545 142.8634C 35.035 142.8634 34.655 142.6134 34.395 142.1134C 34.135 141.6134 34.015 140.8634 34.015 139.8634C 34.015 138.8634 34.135 138.1134 34.395 137.6134C 34.655 137.1134 35.035 136.8634 35.545 136.8634C 36.055 136.8634 36.435 137.1134 36.695 137.6134C 36.945 138.1134 37.075 138.8634 37.075 139.8634C 37.075 140.8634 36.945 141.6134 36.695 142.1134C 36.435 142.6134 36.055 142.8634 35.545 142.8634" stroke="none" fill="#000000" fill-rule="nonzero" />
    <path id=""  transform="matrix(1 0 0 -1 0 151)"  d="M41.905 143.6434C 42.715 143.6434 43.335 143.3134 43.775 142.6734C 44.205 142.0235 44.425 141.0835 44.425 139.8634C 44.425 138.6335 44.205 137.6935 43.775 137.0535C 43.335 136.4135 42.715 136.0934 41.905 136.0934C 41.085 136.0934 40.455 136.4135 40.025 137.0535C 39.595 137.6935 39.385 138.6335 39.385 139.8634C 39.385 141.0835 39.595 142.0235 40.025 142.6734C 40.455 143.3134 41.085 143.6434 41.905 143.6434M41.905 142.8634C 41.395 142.8634 41.015 142.6134 40.755 142.1134C 40.495 141.6134 40.375 140.8634 40.375 139.8634C 40.375 138.8634 40.495 138.1134 40.755 137.6134C 41.015 137.1134 41.395 136.8634 41.905 136.8634C 42.415 136.8634 42.795 137.1134 43.055 137.6134C 43.305 138.1134 43.435 138.8634 43.435 139.8634C 43.435 140.8634 43.305 141.6134 43.055 142.1134C 42.795 142.6134 42.415 142.8634 41.905 142.8634" stroke="none" fill="#000000" fill-rule="nonzero" />
    <path id=""  transform="matrix(1 0 0 -1 0 151)"  d="M9.605 90.28419L9.605 90.28419M13.733 87.57218L9.761001 87.57218L9.761001 87.57218L9.761001 88.65218L9.761001 88.65218L13.697 88.65218C 14.321 88.65218 14.777 88.77219 15.089 89.01218C 15.401 89.25218 15.557 89.61218 15.557 90.10419C 15.557 90.68018 15.377 91.14819 15.005 91.48418C 14.633 91.82018 14.129 91.98818 13.481 91.98818L13.481 91.98818L9.761001 91.98818L9.761001 91.98818L9.761001 93.06818L9.761001 93.06818L16.325 93.06818L16.325 93.06818L16.325 91.98818L16.325 91.98818L15.317 91.98818C 15.725 91.72418 16.013 91.41219 16.205 91.07619C 16.385 90.72819 16.481 90.33218 16.481 89.87618C 16.481 89.12019 16.253 88.54418 15.785 88.16019C 15.329 87.76418 14.645 87.57218 13.733 87.57218" stroke="none" fill="#000000" fill-rule="nonzero" />
		<g clip-path="url(#12)" >
    <path id=""  transform="matrix(1 0 0 -1 0 151)"  d="M56.19971 40.93869L57.72153 40.93927L57.72153 40.93927L59.24335 40.93972L59.24335 40.93972L60.76517 40.94036L60.76517 40.94036L62.28699 40.94135L62.28699 40.94135L63.80881 40.94286L63.80881 40.94286L65.33063 40.94519L65.33063 40.94519L66.85244 40.9487L66.85244 40.9487L68.37426 40.95397L68.37426 40.95397L69.89608 40.96177L69.89608 40.96177L71.4179 40.97322L71.4179 40.97322L72.93971 40.98985L72.93971 40.98985L74.46153 41.01371L74.46153 41.01371L75.98335 41.04763L75.98335 41.04763L77.50517 41.09533L77.50517 41.09533L79.02699 41.16167L79.02699 41.16167L80.54881 41.25298L80.54881 41.25298L82.07063 41.37729L82.07063 41.37729L83.59245 41.54471L83.59245 41.54471L85.11426 41.76776L85.11426 41.76776L86.63608 42.06168L86.63608 42.06168L88.1579 42.44474L88.1579 42.44474L89.67972 42.93848L89.67972 42.93848L91.20153 43.56781L91.20153 43.56781L92.72335 44.36097L92.72335 44.36097L94.24517 45.34933L94.24517 45.34933L95.76699 46.56687L95.76699 46.56687L97.28881 48.04942L97.28881 48.04942L98.81062 49.83357L98.81062 49.83357L100.3324 51.95525L100.3324 51.95525L101.8543 54.44794L101.8543 54.44794L103.3761 57.34066L103.3761 57.34066L104.8979 60.65566L104.8979 60.65566L106.4197 64.40601L106.4197 64.40601L107.9415 68.5932L107.9415 68.5932L109.4633 73.20487L109.4633 73.20487L110.9852 78.21288L110.9852 78.21288L112.507 83.57186L112.507 83.57186L114.0288 89.21854L114.0288 89.21854L115.5506 95.07181L115.5506 95.07181L117.0724 101.0338L117.0724 101.0338L118.5943 106.9918L118.5943 106.9918L120.1161 112.8217L120.1161 112.8217L121.6379 118.3917L121.6379 118.3917L123.1597 123.5669L123.1597 123.5669L124.6815 128.2151L124.6815 128.2151L126.2034 132.2121L126.2034 132.2121L127.7252 135.4469L127.7252 135.4469L129.247 137.8275L129.247 137.8275L130.7688 139.2845L130.7688 139.2845L132.2906 139.7751L132.2906 139.7751L133.8124 139.2845L133.8124 139.2845L135.3343 137.8275L135.3343 137.8275L136.8561 135.4469L136.8561 135.4469L138.3779 132.2121L138.3779 132.2121L139.8997 128.2151L139.8997 128.2151L141.4215 123.5669L141.4215 123.5669L142.9434 118.3917L142.9434 118.3917L144.4652 112.8217L144.4652 112.8217L145.987 106.9918L145.987 106.9918L147.5088 101.0338L147.5088 101.0338L149.0306 95.07181L149.0306 95.07181L150.5524 89.21854L150.5524 89.21854L152.0743 83.57186L152.0743 83.57186L153.5961 78.21288L153.5961 78.21288L155.1179 73.20487L155.1179 73.20487L156.6397 68.5932L156.6397 68.5932L158.1615 64.40601L158.1615 64.40601L159.6833 60.65566L159.6833 60.65566L161.2052 57.34066L161.2052 57.34066L162.727 54.44794L162.727 54.44794L164.2488 51.95525L164.2488 51.95525L165.7706 49.83357L165.7706 49.83357L167.2924 48.04942L167.2924 48.04942L168.8143 46.56687L168.8143 46.56687L170.3361 45.34933L170.3361 45.34933L171.8579 44.36097L171.8579 44.36097L173.3797 43.56781L173.3797 43.56781L174.9015 42.93848L174.9015 42.93848L176.4234 42.44474L176.4234 42.44474L177.9452 42.06168L177.9452 42.06168L179.467 41.76776L179.467 41.76776L180.9888 41.54471L180.9888 41.54471L182.5106 41.37729L182.5106 41.37729L184.0324 41.25298L184.0324 41.25298L185.5543 41.16167L185.5543 41.16167L187.0761 41.09533L187.0761 41.09533L188.5979 41.04763L188.5979 41.04763L190.1197 41.01371L190.1197 41.01371L191.6415 40.98985L191.6415 40.98985L193.1633 40.97322L193.1633 40.97322L194.6852 40.96177L194.6852 40.96177L196.207 40.95397L196.207 40.95397L197.7288 40.9487L197.7288 40.9487L199.2506 40.94519L199.2506 40.94519L200.7724 40.94286L200.7724 40.94286L202.2943 40.94135L202.2943 40.94135L203.8161 40.94036L203.8161 40.94036L205.3379 40.93972L205.3379 40.93972L206.8597 40.93927L206.8597 40.93927L208.3815 40.93869" stroke="#348ABD" stroke-width="2" stroke-linecap="square" stroke-linejoin="round" fill="none" />
		</g>
		<g clip-path="url(#13)" >
    <path id=""  transform="matrix(1 0 0 -1 0 151)"  d="M56.19971 40.93869L57.72153 41.05468L57.72153 41.05468L59.24335 41.17477L59.24335 41.17477L60.76517 41.30313L60.76517 41.30313L62.28699 41.44403L62.28699 41.44403L63.80881 41.60192L63.80881 41.60192L65.33063 41.78149L65.33063 41.78149L66.85244 41.98767L66.85244 41.98767L68.37426 42.22574L68.37426 42.22574L69.89608 42.50126L69.89608 42.50126L71.4179 42.82016L71.4179 42.82016L72.93971 43.18872L72.93971 43.18872L74.46153 43.61354L74.46153 43.61354L75.98335 44.10152L75.98335 44.10152L77.50517 44.6598L77.50517 44.6598L79.02699 45.29572L79.02699 45.29572L80.54881 46.01667L80.54881 46.01667L82.07063 46.83004L82.07063 46.83004L83.59245 47.74305L83.59245 47.74305L85.11426 48.76259L85.11426 48.76259L86.63608 49.89507L86.63608 49.89507L88.1579 51.14621L88.1579 51.14621L89.67972 52.52086L89.67972 52.52086L91.20153 54.02276L91.20153 54.02276L92.72335 55.65435L92.72335 55.65435L94.24517 57.41654L94.24517 57.41654L95.76699 59.30848L95.76699 59.30848L97.28881 61.32743L97.28881 61.32743L98.81062 63.46852L98.81062 63.46852L100.3324 65.72467L100.3324 65.72467L101.8543 68.08644L101.8543 68.08644L103.3761 70.54198L103.3761 70.54198L104.8979 73.07706L104.8979 73.07706L106.4197 75.67505L106.4197 75.67505L107.9415 78.31706L107.9415 78.31706L109.4633 80.98214L109.4633 80.98214L110.9852 83.64742L110.9852 83.64742L112.507 86.28845L112.507 86.28845L114.0288 88.87958L114.0288 88.87958L115.5506 91.39426L115.5506 91.39426L117.0724 93.80554L117.0724 93.80554L118.5943 96.08654L118.5943 96.08654L120.1161 98.21091L120.1161 98.21091L121.6379 100.1534L121.6379 100.1534L123.1597 101.8901L123.1597 101.8901L124.6815 103.3995L124.6815 103.3995L126.2034 104.6623L126.2034 104.6623L127.7252 105.6621L127.7252 105.6621L129.247 106.3859L129.247 106.3859L130.7688 106.824L130.7688 106.824L132.2906 106.9707L132.2906 106.9707L133.8124 106.824L133.8124 106.824L135.3343 106.3859L135.3343 106.3859L136.8561 105.6621L136.8561 105.6621L138.3779 104.6623L138.3779 104.6623L139.8997 103.3995L139.8997 103.3995L141.4215 101.8901L141.4215 101.8901L142.9434 100.1534L142.9434 100.1534L144.4652 98.21091L144.4652 98.21091L145.987 96.08654L145.987 96.08654L147.5088 93.80554L147.5088 93.80554L149.0306 91.39426L149.0306 91.39426L150.5524 88.87958L150.5524 88.87958L152.0743 86.28845L152.0743 86.28845L153.5961 83.64742L153.5961 83.64742L155.1179 80.98214L155.1179 80.98214L156.6397 78.31706L156.6397 78.31706L158.1615 75.67505L158.1615 75.67505L159.6833 73.07706L159.6833 73.07706L161.2052 70.54198L161.2052 70.54198L162.727 68.08644L162.727 68.08644L164.2488 65.72467L164.2488 65.72467L165.7706 63.46852L165.7706 63.46852L167.2924 61.32743L167.2924 61.32743L168.8143 59.30848L168.8143 59.30848L170.3361 57.41654L170.3361 57.41654L171.8579 55.65435L171.8579 55.65435L173.3797 54.02276L173.3797 54.02276L174.9015 52.52086L174.9015 52.52086L176.4234 51.14621L176.4234 51.14621L177.9452 49.89507L177.9452 49.89507L179.467 48.76259L179.467 48.76259L180.9888 47.74305L180.9888 47.74305L182.5106 46.83004L182.5106 46.83004L184.0324 46.01667L184.0324 46.01667L185.5543 45.29572L185.5543 45.29572L187.0761 44.6598L187.0761 44.6598L188.5979 44.10152L188.5979 44.10152L190.1197 43.61354L190.1197 43.61354L191.6415 43.18872L191.6415 43.18872L193.1633 42.82016L193.1633 42.82016L194.6852 42.50126L194.6852 42.50126L196.207 42.22574L196.207 42.22574L197.7288 41.98767L197.7288 41.98767L199.2506 41.78149L199.2506 41.78149L200.7724 41.60192L200.7724 41.60192L202.2943 41.44403L202.2943 41.44403L203.8161 41.30313L203.8161 41.30313L205.3379 41.17477L205.3379 41.17477L206.8597 41.05468L206.8597 41.05468L208.3815 40.93869" stroke="#A60628" stroke-width="2" stroke-linecap="square" stroke-linejoin="round" fill="none" />
		</g>
		<g clip-path="url(#14)" >
    <path id=""  transform="matrix(1 0 0 -1 0 151)"  d="M56.19971 40.93869L57.72153 41.36574L57.72153 41.36574L59.24335 41.79779L59.24335 41.79779L60.76517 42.23985L60.76517 42.23985L62.28699 42.69687L62.28699 42.69687L63.80881 43.17373L63.80881 43.17373L65.33063 43.67527L65.33063 43.67527L66.85244 44.20618L66.85244 44.20618L68.37426 44.77105L68.37426 44.77105L69.89608 45.37429L69.89608 45.37429L71.4179 46.02013L71.4179 46.02013L72.93971 46.71255L72.93971 46.71255L74.46153 47.45528L74.46153 47.45528L75.98335 48.25171L75.98335 48.25171L77.50517 49.10489L77.50517 49.10489L79.02699 50.01745L79.02699 50.01745L80.54881 50.99158L80.54881 50.99158L82.07063 52.02894L82.07063 52.02894L83.59245 53.13064L83.59245 53.13064L85.11426 54.29719L85.11426 54.29719L86.63608 55.52844L86.63608 55.52844L88.1579 56.82353L88.1579 56.82353L89.67972 58.18089L89.67972 58.18089L91.20153 59.59815L91.20153 59.59815L92.72335 61.07215L92.72335 61.07215L94.24517 62.59892L94.24517 62.59892L95.76699 64.17365L95.76699 64.17365L97.28881 65.79073L97.28881 65.79073L98.81062 67.44371L98.81062 67.44371L100.3324 69.12538L100.3324 69.12538L101.8543 70.82776L101.8543 70.82776L103.3761 72.54218L103.3761 72.54218L104.8979 74.25934L104.8979 74.25934L106.4197 75.96937L106.4197 75.96937L107.9415 77.66194L107.9415 77.66194L109.4633 79.32633L109.4633 79.32633L110.9852 80.95157L110.9852 80.95157L112.507 82.52654L112.507 82.52654L114.0288 84.0401L114.0288 84.0401L115.5506 85.48122L115.5506 85.48122L117.0724 86.8391L117.0724 86.8391L118.5943 88.10332L118.5943 88.10332L120.1161 89.26398L120.1161 89.26398L121.6379 90.31183L121.6379 90.31183L123.1597 91.23834L123.1597 91.23834L124.6815 92.0359L124.6815 92.0359L126.2034 92.69785L126.2034 92.69785L127.7252 93.21864L127.7252 93.21864L129.247 93.59383L129.247 93.59383L130.7688 93.82024L130.7688 93.82024L132.2906 93.89594L132.2906 93.89594L133.8124 93.82024L133.8124 93.82024L135.3343 93.59383L135.3343 93.59383L136.8561 93.21864L136.8561 93.21864L138.3779 92.69785L138.3779 92.69785L139.8997 92.0359L139.8997 92.0359L141.4215 91.23834L141.4215 91.23834L142.9434 90.31183L142.9434 90.31183L144.4652 89.26398L144.4652 89.26398L145.987 88.10332L145.987 88.10332L147.5088 86.8391L147.5088 86.8391L149.0306 85.48122L149.0306 85.48122L150.5524 84.0401L150.5524 84.0401L152.0743 82.52654L152.0743 82.52654L153.5961 80.95157L153.5961 80.95157L155.1179 79.32633L155.1179 79.32633L156.6397 77.66194L156.6397 77.66194L158.1615 75.96937L158.1615 75.96937L159.6833 74.25934L159.6833 74.25934L161.2052 72.54218L161.2052 72.54218L162.727 70.82776L162.727 70.82776L164.2488 69.12538L164.2488 69.12538L165.7706 67.44371L165.7706 67.44371L167.2924 65.79073L167.2924 65.79073L168.8143 64.17365L168.8143 64.17365L170.3361 62.59892L170.3361 62.59892L171.8579 61.07215L171.8579 61.07215L173.3797 59.59815L173.3797 59.59815L174.9015 58.18089L174.9015 58.18089L176.4234 56.82353L176.4234 56.82353L177.9452 55.52844L177.9452 55.52844L179.467 54.29719L179.467 54.29719L180.9888 53.13064L180.9888 53.13064L182.5106 52.02894L182.5106 52.02894L184.0324 50.99158L184.0324 50.99158L185.5543 50.01745L185.5543 50.01745L187.0761 49.10489L187.0761 49.10489L188.5979 48.25171L188.5979 48.25171L190.1197 47.45528L190.1197 47.45528L191.6415 46.71255L191.6415 46.71255L193.1633 46.02013L193.1633 46.02013L194.6852 45.37429L194.6852 45.37429L196.207 44.77105L196.207 44.77105L197.7288 44.20618L197.7288 44.20618L199.2506 43.67527L199.2506 43.67527L200.7724 43.17373L200.7724 43.17373L202.2943 42.69687L202.2943 42.69687L203.8161 42.23985L203.8161 42.23985L205.3379 41.79779L205.3379 41.79779L206.8597 41.36574L206.8597 41.36574L208.3815 40.93869" stroke="#7A68A6" stroke-width="2" stroke-linecap="square" stroke-linejoin="round" fill="none" />
		</g>
		<g clip-path="url(#15)" >
    <path id=""  transform="matrix(1 0 0 -1 0 151)"  d="M56.19971 40.93869L57.72153 41.62764L57.72153 41.62764L59.24335 42.31987L59.24335 42.31987L60.76517 43.0186L60.76517 43.0186L62.28699 43.72701L62.28699 43.72701L63.80881 44.44821L63.80881 44.44821L65.33063 45.18515L65.33063 45.18515L66.85244 45.94066L66.85244 45.94066L68.37426 46.71738L68.37426 46.71738L69.89608 47.51774L69.89608 47.51774L71.4179 48.34395L71.4179 48.34395L72.93971 49.19796L72.93971 49.19796L74.46153 50.0814L74.46153 50.0814L75.98335 50.99564L75.98335 50.99564L77.50517 51.94168L77.50517 51.94168L79.02699 52.92019L79.02699 52.92019L80.54881 53.93144L80.54881 53.93144L82.07063 54.97533L82.07063 54.97533L83.59245 56.05135L83.59245 56.05135L85.11426 57.15858L85.11426 57.15858L86.63608 58.29567L86.63608 58.29567L88.1579 59.46085L88.1579 59.46085L89.67972 60.65191L89.67972 60.65191L91.20153 61.86622L91.20153 61.86622L92.72335 63.10075L92.72335 63.10075L94.24517 64.35204L94.24517 64.35204L95.76699 65.61625L95.76699 65.61625L97.28881 66.88917L97.28881 66.88917L98.81062 68.16624L98.81062 68.16624L100.3324 69.4426L100.3324 69.4426L101.8543 70.71308L101.8543 70.71308L103.3761 71.9723L103.3761 71.9723L104.8979 73.21464L104.8979 73.21464L106.4197 74.43435L106.4197 74.43435L107.9415 75.62556L107.9415 75.62556L109.4633 76.78232L109.4633 76.78232L110.9852 77.8987L110.9852 77.8987L112.507 78.96882L112.507 78.96882L114.0288 79.98685L114.0288 79.98685L115.5506 80.94717L115.5506 80.94717L117.0724 81.84435L117.0724 81.84435L118.5943 82.67322L118.5943 82.67322L120.1161 83.42891L120.1161 83.42891L121.6379 84.10695L121.6379 84.10695L123.1597 84.70325L123.1597 84.70325L124.6815 85.2142L124.6815 85.2142L126.2034 85.63664L126.2034 85.63664L127.7252 85.96797L127.7252 85.96797L129.247 86.20612L129.247 86.20612L130.7688 86.34962L130.7688 86.34962L132.2906 86.39755L132.2906 86.39755L133.8124 86.34962L133.8124 86.34962L135.3343 86.20612L135.3343 86.20612L136.8561 85.96797L136.8561 85.96797L138.3779 85.63664L138.3779 85.63664L139.8997 85.2142L139.8997 85.2142L141.4215 84.70325L141.4215 84.70325L142.9434 84.10695L142.9434 84.10695L144.4652 83.42891L144.4652 83.42891L145.987 82.67322L145.987 82.67322L147.5088 81.84435L147.5088 81.84435L149.0306 80.94717L149.0306 80.94717L150.5524 79.98685L150.5524 79.98685L152.0743 78.96882L152.0743 78.96882L153.5961 77.8987L153.5961 77.8987L155.1179 76.78232L155.1179 76.78232L156.6397 75.62556L156.6397 75.62556L158.1615 74.43435L158.1615 74.43435L159.6833 73.21464L159.6833 73.21464L161.2052 71.9723L161.2052 71.9723L162.727 70.71308L162.727 70.71308L164.2488 69.4426L164.2488 69.4426L165.7706 68.16624L165.7706 68.16624L167.2924 66.88917L167.2924 66.88917L168.8143 65.61625L168.8143 65.61625L170.3361 64.35204L170.3361 64.35204L171.8579 63.10075L171.8579 63.10075L173.3797 61.86622L173.3797 61.86622L174.9015 60.65191L174.9015 60.65191L176.4234 59.46085L176.4234 59.46085L177.9452 58.29567L177.9452 58.29567L179.467 57.15858L179.467 57.15858L180.9888 56.05135L180.9888 56.05135L182.5106 54.97533L182.5106 54.97533L184.0324 53.93144L184.0324 53.93144L185.5543 52.92019L185.5543 52.92019L187.0761 51.94168L187.0761 51.94168L188.5979 50.99564L188.5979 50.99564L190.1197 50.0814L190.1197 50.0814L191.6415 49.19796L191.6415 49.19796L193.1633 48.34395L193.1633 48.34395L194.6852 47.51774L194.6852 47.51774L196.207 46.71738L196.207 46.71738L197.7288 45.94066L197.7288 45.94066L199.2506 45.18515L199.2506 45.18515L200.7724 44.44821L200.7724 44.44821L202.2943 43.72701L202.2943 43.72701L203.8161 43.0186L203.8161 43.0186L205.3379 42.31987L205.3379 42.31987L206.8597 41.62764L206.8597 41.62764L208.3815 40.93869" stroke="#467821" stroke-width="2" stroke-linecap="square" stroke-linejoin="round" fill="none" />
		</g>
		<g clip-path="url(#16)" >
    <path id=""  transform="matrix(1 0 0 -1 0 151)"  d="M56.19971 40.93869L57.72153 41.77768L57.72153 41.77768L59.24335 42.61829L59.24335 42.61829L60.76517 43.46214L60.76517 43.46214L62.28699 44.3108L62.28699 44.3108L63.80881 45.16576L63.80881 45.16576L65.33063 46.02843L65.33063 46.02843L66.85244 46.90013L66.85244 46.90013L68.37426 47.78205L68.37426 47.78205L69.89608 48.67523L69.89608 48.67523L71.4179 49.58055L71.4179 49.58055L72.93971 50.49872L72.93971 50.49872L74.46153 51.43026L74.46153 51.43026L75.98335 52.37547L75.98335 52.37547L77.50517 53.33446L77.50517 53.33446L79.02699 54.30709L79.02699 54.30709L80.54881 55.29301L80.54881 55.29301L82.07063 56.2916L82.07063 56.2916L83.59245 57.30203L83.59245 57.30203L85.11426 58.32319L85.11426 58.32319L86.63608 59.35376L86.63608 59.35376L88.1579 60.39214L88.1579 60.39214L89.67972 61.43653L89.67972 61.43653L91.20153 62.48486L91.20153 62.48486L92.72335 63.53487L92.72335 63.53487L94.24517 64.58406L94.24517 64.58406L95.76699 65.62977L95.76699 65.62977L97.28881 66.66912L97.28881 66.66912L98.81062 67.6991L98.81062 67.6991L100.3324 68.71653L100.3324 68.71653L101.8543 69.71812L101.8543 69.71812L103.3761 70.70051L103.3761 70.70051L104.8979 71.6602L104.8979 71.6602L106.4197 72.5937L106.4197 72.5937L107.9415 73.49747L107.9415 73.49747L109.4633 74.368L109.4633 74.368L110.9852 75.20178L110.9852 75.20178L112.507 75.99538L112.507 75.99538L114.0288 76.74546L114.0288 76.74546L115.5506 77.44879L115.5506 77.44879L117.0724 78.1023L117.0724 78.1023L118.5943 78.70307L118.5943 78.70307L120.1161 79.24837L120.1161 79.24837L121.6379 79.73573L121.6379 79.73573L123.1597 80.16286L123.1597 80.16286L124.6815 80.52778L124.6815 80.52778L126.2034 80.82875L126.2034 80.82875L127.7252 81.06435L127.7252 81.06435L129.247 81.23345L129.247 81.23345L130.7688 81.33524L130.7688 81.33524L132.2906 81.36922L132.2906 81.36922L133.8124 81.33524L133.8124 81.33524L135.3343 81.23345L135.3343 81.23345L136.8561 81.06435L136.8561 81.06435L138.3779 80.82875L138.3779 80.82875L139.8997 80.52778L139.8997 80.52778L141.4215 80.16286L141.4215 80.16286L142.9434 79.73573L142.9434 79.73573L144.4652 79.24837L144.4652 79.24837L145.987 78.70307L145.987 78.70307L147.5088 78.1023L147.5088 78.1023L149.0306 77.44879L149.0306 77.44879L150.5524 76.74546L150.5524 76.74546L152.0743 75.99538L152.0743 75.99538L153.5961 75.20178L153.5961 75.20178L155.1179 74.368L155.1179 74.368L156.6397 73.49747L156.6397 73.49747L158.1615 72.5937L158.1615 72.5937L159.6833 71.6602L159.6833 71.6602L161.2052 70.70051L161.2052 70.70051L162.727 69.71812L162.727 69.71812L164.2488 68.71653L164.2488 68.71653L165.7706 67.6991L165.7706 67.6991L167.2924 66.66912L167.2924 66.66912L168.8143 65.62977L168.8143 65.62977L170.3361 64.58406L170.3361 64.58406L171.8579 63.53487L171.8579 63.53487L173.3797 62.48486L173.3797 62.48486L174.9015 61.43653L174.9015 61.43653L176.4234 60.39214L176.4234 60.39214L177.9452 59.35376L177.9452 59.35376L179.467 58.32319L179.467 58.32319L180.9888 57.30203L180.9888 57.30203L182.5106 56.2916L182.5106 56.2916L184.0324 55.29301L184.0324 55.29301L185.5543 54.30709L185.5543 54.30709L187.0761 53.33446L187.0761 53.33446L188.5979 52.37547L188.5979 52.37547L190.1197 51.43026L190.1197 51.43026L191.6415 50.49872L191.6415 50.49872L193.1633 49.58055L193.1633 49.58055L194.6852 48.67523L194.6852 48.67523L196.207 47.78205L196.207 47.78205L197.7288 46.90013L197.7288 46.90013L199.2506 46.02843L199.2506 46.02843L200.7724 45.16576L200.7724 45.16576L202.2943 44.3108L202.2943 44.3108L203.8161 43.46214L203.8161 43.46214L205.3379 42.61829L205.3379 42.61829L206.8597 41.77768L206.8597 41.77768L208.3815 40.93869" stroke="#D55E00" stroke-width="2" stroke-linecap="square" stroke-linejoin="round" fill="none" />
		</g>
    <path id=""  transform="matrix(1 0 0 -1 0 151)"  d="M48.59063 35.99688L48.59063 144.7169" stroke="#BCBCBC" stroke-width="0.8" stroke-linecap="square" stroke-linejoin="miter" fill="none" />
    <path id=""  transform="matrix(1 0 0 -1 0 151)"  d="M215.9906 35.99688L215.9906 144.7169" stroke="#BCBCBC" stroke-width="0.8" stroke-linecap="square" stroke-linejoin="miter" fill="none" />
    <path id=""  transform="matrix(1 0 0 -1 0 151)"  d="M48.59063 35.99688L215.9906 35.99688" stroke="#BCBCBC" stroke-width="0.8" stroke-linecap="square" stroke-linejoin="miter" fill="none" />
    <path id=""  transform="matrix(1 0 0 -1 0 151)"  d="M48.59063 144.7169L215.9906 144.7169" stroke="#BCBCBC" stroke-width="0.8" stroke-linecap="square" stroke-linejoin="miter" fill="none" />
    <path id=""  transform="matrix(1 0 0 -1 0 151)"  d="M222.9906 52.17719L289.5531 52.17719C 290.8864 52.17719 291.5531 52.84385 291.5531 54.17719L291.5531 54.17719L291.5531 126.5366C 291.5531 127.8699 290.8864 128.5366 289.5531 128.5366L289.5531 128.5366L222.9906 128.5366C 221.6573 128.5366 220.9906 127.8699 220.9906 126.5366L220.9906 126.5366L220.9906 54.17719C 220.9906 52.84385 221.6573 52.17719 222.9906 52.17719z" stroke="#CCCCCC" stroke-width="0.5" stroke-linejoin="miter" fill="#EEEEEE" fill-rule="nonzero" fill-opacity="0.8" />
    <path id=""  transform="matrix(1 0 0 -1 0 151)"  d="M224.9906 120.4428L244.9906 120.4428" stroke="#348ABD" stroke-width="2" stroke-linecap="square" stroke-linejoin="round" fill="none" />
    <path id=""  transform="matrix(1 0 0 -1 0 151)"  d="M254.8206 123.9628L254.8206 122.4128L254.8206 122.4128L256.6706 122.4128L256.6706 122.4128L256.6706 121.7128L256.6706 121.7128L254.8206 121.7128L254.8206 121.7128L254.8206 118.7428C 254.8206 118.2928 254.8806 118.0028 255.0006 117.8828C 255.1206 117.7528 255.3706 117.6928 255.7506 117.6928L255.7506 117.6928L256.6706 117.6928L256.6706 117.6928L256.6706 116.9428L256.6706 116.9428L255.7506 116.9428C 255.0506 116.9428 254.5706 117.0728 254.3106 117.3328C 254.0506 117.5928 253.9206 118.0628 253.9206 118.7428L253.9206 118.7428L253.9206 121.7128L253.9206 121.7128L253.2606 121.7128L253.2606 121.7128L253.2606 122.4128L253.2606 122.4128L253.9206 122.4128L253.9206 122.4128L253.9206 123.9628L253.9206 123.9628L254.8206 123.9628" stroke="none" fill="#000000" fill-rule="nonzero" />
    <path id=""  transform="matrix(1 0 0 -1 0 151)"  d="M257.9706 119.4928L264.2307 119.4928L264.2307 119.4928L264.2307 118.6628L264.2307 118.6628L257.9706 118.6628L257.9706 118.6628L257.9706 119.4928M257.9706 121.4828L264.2307 121.4828L264.2307 121.4828L264.2307 120.6628L264.2307 120.6628L257.9706 120.6628L257.9706 120.6628L257.9706 121.4828" stroke="none" fill="#000000" fill-rule="nonzero" />
    <path id=""  transform="matrix(1 0 0 -1 0 151)"  d="M268.4706 124.3628C 269.2806 124.3628 269.9006 124.0328 270.3406 123.3928C 270.7707 122.7428 270.9907 121.8028 270.9907 120.5828C 270.9907 119.3528 270.7707 118.4128 270.3406 117.7728C 269.9006 117.1328 269.2806 116.8128 268.4706 116.8128C 267.6506 116.8128 267.0207 117.1328 266.5906 117.7728C 266.1606 118.4128 265.9507 119.3528 265.9507 120.5828C 265.9507 121.8028 266.1606 122.7428 266.5906 123.3928C 267.0207 124.0328 267.6506 124.3628 268.4706 124.3628M268.4706 123.5828C 267.9607 123.5828 267.5807 123.3328 267.3206 122.8328C 267.0606 122.3328 266.9406 121.5828 266.9406 120.5828C 266.9406 119.5828 267.0606 118.8328 267.3206 118.3328C 267.5807 117.8328 267.9607 117.5828 268.4706 117.5828C 268.9807 117.5828 269.3607 117.8328 269.6206 118.3328C 269.8706 118.8328 270.0006 119.5828 270.0006 120.5828C 270.0006 121.5828 269.8706 122.3328 269.6206 122.8328C 269.3607 123.3328 268.9807 123.5828 268.4706 123.5828" stroke="none" fill="#000000" fill-rule="nonzero" />
    <path id=""  transform="matrix(1 0 0 -1 0 151)"  d="M272.7206 118.1828L273.7506 118.1828L273.7506 118.1828L273.7506 116.9428L273.7506 116.9428L272.7206 116.9428L272.7206 116.9428L272.7206 118.1828" stroke="none" fill="#000000" fill-rule="nonzero" />
    <path id=""  transform="matrix(1 0 0 -1 0 151)"  d="M278.0106 124.3628C 278.8206 124.3628 279.4406 124.0328 279.8806 123.3928C 280.3106 122.7428 280.5306 121.8028 280.5306 120.5828C 280.5306 119.3528 280.3106 118.4128 279.8806 117.7728C 279.4406 117.1328 278.8206 116.8128 278.0106 116.8128C 277.1906 116.8128 276.5606 117.1328 276.1306 117.7728C 275.7006 118.4128 275.4906 119.3528 275.4906 120.5828C 275.4906 121.8028 275.7006 122.7428 276.1306 123.3928C 276.5606 124.0328 277.1906 124.3628 278.0106 124.3628M278.0106 123.5828C 277.5006 123.5828 277.1206 123.3328 276.8606 122.8328C 276.6006 122.3328 276.4806 121.5828 276.4806 120.5828C 276.4806 119.5828 276.6006 118.8328 276.8606 118.3328C 277.1206 117.8328 277.5006 117.5828 278.0106 117.5828C 278.5206 117.5828 278.9006 117.8328 279.1606 118.3328C 279.4106 118.8328 279.5406 119.5828 279.5406 120.5828C 279.5406 121.5828 279.4106 122.3328 279.1606 122.8328C 278.9006 123.3328 278.5206 123.5828 278.0106 123.5828" stroke="none" fill="#000000" fill-rule="nonzero" />
    <path id=""  transform="matrix(1 0 0 -1 0 151)"  d="M224.9906 105.7709L244.9906 105.7709" stroke="#A60628" stroke-width="2" stroke-linecap="square" stroke-linejoin="round" fill="none" />
    <path id=""  transform="matrix(1 0 0 -1 0 151)"  d="M254.8206 109.2909L254.8206 107.7409L254.8206 107.7409L256.6706 107.7409L256.6706 107.7409L256.6706 107.0409L256.6706 107.0409L254.8206 107.0409L254.8206 107.0409L254.8206 104.0709C 254.8206 103.6209 254.8806 103.3309 255.0006 103.2109C 255.1206 103.0809 255.3706 103.0209 255.7506 103.0209L255.7506 103.0209L256.6706 103.0209L256.6706 103.0209L256.6706 102.2709L256.6706 102.2709L255.7506 102.2709C 255.0506 102.2709 254.5706 102.4009 254.3106 102.6609C 254.0506 102.9209 253.9206 103.3909 253.9206 104.0709L253.9206 104.0709L253.9206 107.0409L253.9206 107.0409L253.2606 107.0409L253.2606 107.0409L253.2606 107.7409L253.2606 107.7409L253.9206 107.7409L253.9206 107.7409L253.9206 109.2909L253.9206 109.2909L254.8206 109.2909" stroke="none" fill="#000000" fill-rule="nonzero" />
    <path id=""  transform="matrix(1 0 0 -1 0 151)"  d="M257.9706 104.8209L264.2307 104.8209L264.2307 104.8209L264.2307 103.9909L264.2307 103.9909L257.9706 103.9909L257.9706 103.9909L257.9706 104.8209M257.9706 106.8109L264.2307 106.8109L264.2307 106.8109L264.2307 105.9909L264.2307 105.9909L257.9706 105.9909L257.9706 105.9909L257.9706 106.8109" stroke="none" fill="#000000" fill-rule="nonzero" />
    <path id=""  transform="matrix(1 0 0 -1 0 151)"  d="M267.2107 103.1009L270.6506 103.1009L270.6506 103.1009L270.6506 102.2709L270.6506 102.2709L266.0207 102.2709L266.0207 102.2709L266.0207 103.1009C 266.3907 103.4809 266.9006 104.0009 267.5507 104.6609C 268.1906 105.3109 268.6006 105.7309 268.7707 105.9209C 269.0906 106.2709 269.3106 106.5709 269.4307 106.8209C 269.5507 107.0609 269.6206 107.3109 269.6206 107.5509C 269.6206 107.9309 269.4807 108.2509 269.2107 108.4909C 268.9406 108.7309 268.5906 108.8609 268.1506 108.8609C 267.8406 108.8609 267.5107 108.8009 267.1707 108.7009C 266.8307 108.5909 266.4607 108.4309 266.0706 108.2109L266.0706 108.2109L266.0706 109.2109C 266.4706 109.3709 266.8406 109.4909 267.1807 109.5709C 267.5207 109.6509 267.8406 109.6909 268.1306 109.6909C 268.8806 109.6909 269.4807 109.5009 269.9307 109.1209C 270.3806 108.7409 270.6107 108.2409 270.6107 107.6109C 270.6107 107.3109 270.5507 107.0209 270.4406 106.7609C 270.3307 106.4909 270.1306 106.1709 269.8307 105.8109C 269.7506 105.7109 269.4907 105.4409 269.0507 104.9909C 268.6107 104.5409 268.0006 103.9109 267.2107 103.1009" stroke="none" fill="#000000" fill-rule="nonzero" />
    <path id=""  transform="matrix(1 0 0 -1 0 151)"  d="M272.7206 103.5109L273.7506 103.5109L273.7506 103.5109L273.7506 102.2709L273.7506 102.2709L272.7206 102.2709L272.7206 102.2709L272.7206 103.5109" stroke="none" fill="#000000" fill-rule="nonzero" />
    <path id=""  transform="matrix(1 0 0 -1 0 151)"  d="M275.9106 109.5609L279.7806 109.5609L279.7806 109.5609L279.7806 108.7309L279.7806 108.7309L276.8106 108.7309L276.8106 108.7309L276.8106 106.9409C 276.9506 106.9909 277.1006 107.0309 277.2406 107.0509C 277.3806 107.0709 277.5306 107.0909 277.6706 107.0909C 278.4806 107.0909 279.1206 106.8609 279.6006 106.4209C 280.0806 105.9709 280.3206 105.3709 280.3206 104.6109C 280.3206 103.8209 280.0706 103.2109 279.5806 102.7809C 279.0906 102.3509 278.4006 102.1409 277.5206 102.1409C 277.2106 102.1409 276.9006 102.1709 276.5806 102.2109C 276.2606 102.2609 275.9406 102.3309 275.6006 102.4409L275.6006 102.4409L275.6006 103.4309C 275.8906 103.2709 276.1906 103.1509 276.5106 103.0709C 276.8206 102.9909 277.1506 102.9609 277.5006 102.9609C 278.0606 102.9609 278.5106 103.1009 278.8406 103.4009C 279.1606 103.7009 279.3306 104.1009 279.3306 104.6109C 279.3306 105.1109 279.1606 105.5109 278.8406 105.8109C 278.5106 106.1109 278.0606 106.2609 277.5006 106.2609C 277.2406 106.2609 276.9706 106.2309 276.7106 106.1709C 276.4506 106.1109 276.1806 106.0209 275.9106 105.9009L275.9106 105.9009L275.9106 109.5609" stroke="none" fill="#000000" fill-rule="nonzero" />
    <path id=""  transform="matrix(1 0 0 -1 0 151)"  d="M224.9906 91.09906L244.9906 91.09906" stroke="#7A68A6" stroke-width="2" stroke-linecap="square" stroke-linejoin="round" fill="none" />
    <path id=""  transform="matrix(1 0 0 -1 0 151)"  d="M254.8206 94.61906L254.8206 93.06906L254.8206 93.06906L256.6706 93.06906L256.6706 93.06906L256.6706 92.36906L256.6706 92.36906L254.8206 92.36906L254.8206 92.36906L254.8206 89.39906C 254.8206 88.94906 254.8806 88.65906 255.0006 88.53906C 255.1206 88.40906 255.3706 88.34906 255.7506 88.34906L255.7506 88.34906L256.6706 88.34906L256.6706 88.34906L256.6706 87.59906L256.6706 87.59906L255.7506 87.59906C 255.0506 87.59906 254.5706 87.72906 254.3106 87.98906C 254.0506 88.24906 253.9206 88.71906 253.9206 89.39906L253.9206 89.39906L253.9206 92.36906L253.9206 92.36906L253.2606 92.36906L253.2606 92.36906L253.2606 93.06906L253.2606 93.06906L253.9206 93.06906L253.9206 93.06906L253.9206 94.61906L253.9206 94.61906L254.8206 94.61906" stroke="none" fill="#000000" fill-rule="nonzero" />
    <path id=""  transform="matrix(1 0 0 -1 0 151)"  d="M257.9706 90.14906L264.2307 90.14906L264.2307 90.14906L264.2307 89.31906L264.2307 89.31906L257.9706 89.31906L257.9706 89.31906L257.9706 90.14906M257.9706 92.13906L264.2307 92.13906L264.2307 92.13906L264.2307 91.31906L264.2307 91.31906L257.9706 91.31906L257.9706 91.31906L257.9706 92.13906" stroke="none" fill="#000000" fill-rule="nonzero" />
    <path id=""  transform="matrix(1 0 0 -1 0 151)"  d="M266.3706 94.88906L270.2407 94.88906L270.2407 94.88906L270.2407 94.05906L270.2407 94.05906L267.2707 94.05906L267.2707 94.05906L267.2707 92.26906C 267.4106 92.31906 267.5606 92.35906 267.7007 92.37906C 267.8406 92.39906 267.9907 92.41906 268.1306 92.41906C 268.9406 92.41906 269.5807 92.18906 270.0606 91.74906C 270.5406 91.29906 270.7806 90.69906 270.7806 89.93906C 270.7806 89.14906 270.5306 88.53906 270.0406 88.10906C 269.5507 87.67906 268.8607 87.46906 267.9807 87.46906C 267.6707 87.46906 267.3607 87.49906 267.0406 87.53906C 266.7206 87.58906 266.4006 87.65906 266.0606 87.76906L266.0606 87.76906L266.0606 88.75906C 266.3506 88.59906 266.6506 88.47906 266.9706 88.39906C 267.2806 88.31906 267.6107 88.28906 267.9607 88.28906C 268.5207 88.28906 268.9706 88.42906 269.3007 88.72906C 269.6206 89.02906 269.7906 89.42906 269.7906 89.93906C 269.7906 90.43906 269.6206 90.83906 269.3007 91.13906C 268.9706 91.43906 268.5207 91.58906 267.9607 91.58906C 267.7007 91.58906 267.4307 91.55906 267.1707 91.49906C 266.9106 91.43906 266.6407 91.34906 266.3706 91.22906L266.3706 91.22906L266.3706 94.88906" stroke="none" fill="#000000" fill-rule="nonzero" />
    <path id=""  transform="matrix(1 0 0 -1 0 151)"  d="M272.7206 88.83906L273.7506 88.83906L273.7506 88.83906L273.7506 87.59906L273.7506 87.59906L272.7206 87.59906L272.7206 87.59906L272.7206 88.83906" stroke="none" fill="#000000" fill-rule="nonzero" />
    <path id=""  transform="matrix(1 0 0 -1 0 151)"  d="M278.0106 95.01906C 278.8206 95.01906 279.4406 94.68906 279.8806 94.04906C 280.3106 93.39906 280.5306 92.45906 280.5306 91.23906C 280.5306 90.00906 280.3106 89.06906 279.8806 88.42906C 279.4406 87.78906 278.8206 87.46906 278.0106 87.46906C 277.1906 87.46906 276.5606 87.78906 276.1306 88.42906C 275.7006 89.06906 275.4906 90.00906 275.4906 91.23906C 275.4906 92.45906 275.7006 93.39906 276.1306 94.04906C 276.5606 94.68906 277.1906 95.01906 278.0106 95.01906M278.0106 94.23906C 277.5006 94.23906 277.1206 93.98906 276.8606 93.48906C 276.6006 92.98906 276.4806 92.23906 276.4806 91.23906C 276.4806 90.23906 276.6006 89.48906 276.8606 88.98906C 277.1206 88.48906 277.5006 88.23906 278.0106 88.23906C 278.5206 88.23906 278.9006 88.48906 279.1606 88.98906C 279.4106 89.48906 279.5406 90.23906 279.5406 91.23906C 279.5406 92.23906 279.4106 92.98906 279.1606 93.48906C 278.9006 93.98906 278.5206 94.23906 278.0106 94.23906" stroke="none" fill="#000000" fill-rule="nonzero" />
    <path id=""  transform="matrix(1 0 0 -1 0 151)"  d="M224.9906 76.42719L244.9906 76.42719" stroke="#467821" stroke-width="2" stroke-linecap="square" stroke-linejoin="round" fill="none" />
    <path id=""  transform="matrix(1 0 0 -1 0 151)"  d="M254.8206 79.94719L254.8206 78.39719L254.8206 78.39719L256.6706 78.39719L256.6706 78.39719L256.6706 77.69719L256.6706 77.69719L254.8206 77.69719L254.8206 77.69719L254.8206 74.72719C 254.8206 74.27718 254.8806 73.98718 255.0006 73.86719C 255.1206 73.73718 255.3706 73.67719 255.7506 73.67719L255.7506 73.67719L256.6706 73.67719L256.6706 73.67719L256.6706 72.92719L256.6706 72.92719L255.7506 72.92719C 255.0506 72.92719 254.5706 73.05718 254.3106 73.31718C 254.0506 73.57719 253.9206 74.04719 253.9206 74.72719L253.9206 74.72719L253.9206 77.69719L253.9206 77.69719L253.2606 77.69719L253.2606 77.69719L253.2606 78.39719L253.2606 78.39719L253.9206 78.39719L253.9206 78.39719L253.9206 79.94719L253.9206 79.94719L254.8206 79.94719" stroke="none" fill="#000000" fill-rule="nonzero" />
    <path id=""  transform="matrix(1 0 0 -1 0 151)"  d="M257.9706 75.47719L264.2307 75.47719L264.2307 75.47719L264.2307 74.64719L264.2307 74.64719L257.9706 74.64719L257.9706 74.64719L257.9706 75.47719M257.9706 77.46719L264.2307 77.46719L264.2307 77.46719L264.2307 76.64719L264.2307 76.64719L257.9706 76.64719L257.9706 76.64719L257.9706 77.46719" stroke="none" fill="#000000" fill-rule="nonzero" />
    <path id=""  transform="matrix(1 0 0 -1 0 151)"  d="M266.1107 80.21719L270.8007 80.21719L270.8007 80.21719L270.8007 79.79719L270.8007 79.79719L268.1506 72.92719L268.1506 72.92719L267.1206 72.92719L267.1206 72.92719L269.6107 79.38718L269.6107 79.38718L266.1107 79.38718L266.1107 79.38718L266.1107 80.21719" stroke="none" fill="#000000" fill-rule="nonzero" />
    <path id=""  transform="matrix(1 0 0 -1 0 151)"  d="M272.7206 74.16718L273.7506 74.16718L273.7506 74.16718L273.7506 72.92719L273.7506 72.92719L272.7206 72.92719L272.7206 72.92719L272.7206 74.16718" stroke="none" fill="#000000" fill-rule="nonzero" />
    <path id=""  transform="matrix(1 0 0 -1 0 151)"  d="M275.9106 80.21719L279.7806 80.21719L279.7806 80.21719L279.7806 79.38718L279.7806 79.38718L276.8106 79.38718L276.8106 79.38718L276.8106 77.59718C 276.9506 77.64719 277.1006 77.68719 277.2406 77.70718C 277.3806 77.72719 277.5306 77.74718 277.6706 77.74718C 278.4806 77.74718 279.1206 77.51718 279.6006 77.07719C 280.0806 76.62718 280.3206 76.02718 280.3206 75.26718C 280.3206 74.47719 280.0706 73.86719 279.5806 73.43719C 279.0906 73.00719 278.4006 72.79719 277.5206 72.79719C 277.2106 72.79719 276.9006 72.82719 276.5806 72.86719C 276.2606 72.91718 275.9406 72.98718 275.6006 73.09718L275.6006 73.09718L275.6006 74.08719C 275.8906 73.92719 276.1906 73.80718 276.5106 73.72719C 276.8206 73.64719 277.1506 73.61719 277.5006 73.61719C 278.0606 73.61719 278.5106 73.75719 278.8406 74.05718C 279.1606 74.35719 279.3306 74.75719 279.3306 75.26718C 279.3306 75.76718 279.1606 76.16718 278.8406 76.46719C 278.5106 76.76718 278.0606 76.91718 277.5006 76.91718C 277.2406 76.91718 276.9706 76.88718 276.7106 76.82719C 276.4506 76.76718 276.1806 76.67719 275.9106 76.55718L275.9106 76.55718L275.9106 80.21719" stroke="none" fill="#000000" fill-rule="nonzero" />
    <path id=""  transform="matrix(1 0 0 -1 0 151)"  d="M224.9906 61.75531L244.9906 61.75531" stroke="#D55E00" stroke-width="2" stroke-linecap="square" stroke-linejoin="round" fill="none" />
    <path id=""  transform="matrix(1 0 0 -1 0 151)"  d="M254.8206 65.27531L254.8206 63.72532L254.8206 63.72532L256.6706 63.72532L256.6706 63.72532L256.6706 63.02531L256.6706 63.02531L254.8206 63.02531L254.8206 63.02531L254.8206 60.05531C 254.8206 59.60531 254.8806 59.31532 255.0006 59.19531C 255.1206 59.06532 255.3706 59.00531 255.7506 59.00531L255.7506 59.00531L256.6706 59.00531L256.6706 59.00531L256.6706 58.25531L256.6706 58.25531L255.7506 58.25531C 255.0506 58.25531 254.5706 58.38531 254.3106 58.64531C 254.0506 58.90532 253.9206 59.37531 253.9206 60.05531L253.9206 60.05531L253.9206 63.02531L253.9206 63.02531L253.2606 63.02531L253.2606 63.02531L253.2606 63.72532L253.2606 63.72532L253.9206 63.72532L253.9206 63.72532L253.9206 65.27531L253.9206 65.27531L254.8206 65.27531" stroke="none" fill="#000000" fill-rule="nonzero" />
    <path id=""  transform="matrix(1 0 0 -1 0 151)"  d="M257.9706 60.80531L264.2307 60.80531L264.2307 60.80531L264.2307 59.97532L264.2307 59.97532L257.9706 59.97532L257.9706 59.97532L257.9706 60.80531M257.9706 62.79531L264.2307 62.79531L264.2307 62.79531L264.2307 61.97532L264.2307 61.97532L257.9706 61.97532L257.9706 61.97532L257.9706 62.79531" stroke="none" fill="#000000" fill-rule="nonzero" />
    <path id=""  transform="matrix(1 0 0 -1 0 151)"  d="M266.5306 59.08532L268.1407 59.08532L268.1407 59.08532L268.1407 64.64532L268.1407 64.64532L266.3907 64.29531L266.3907 64.29531L266.3907 65.19531L266.3907 65.19531L268.1306 65.54531L268.1306 65.54531L269.1206 65.54531L269.1206 65.54531L269.1206 59.08532L269.1206 59.08532L270.7307 59.08532L270.7307 59.08532L270.7307 58.25531L270.7307 58.25531L266.5306 58.25531L266.5306 58.25531L266.5306 59.08532" stroke="none" fill="#000000" fill-rule="nonzero" />
    <path id=""  transform="matrix(1 0 0 -1 0 151)"  d="M274.8306 65.67532C 275.6406 65.67532 276.2606 65.34531 276.7006 64.70531C 277.1306 64.05531 277.3506 63.11531 277.3506 61.89531C 277.3506 60.66531 277.1306 59.72532 276.7006 59.08532C 276.2606 58.44531 275.6406 58.12531 274.8306 58.12531C 274.0106 58.12531 273.3806 58.44531 272.9506 59.08532C 272.5206 59.72532 272.3106 60.66531 272.3106 61.89531C 272.3106 63.11531 272.5206 64.05531 272.9506 64.70531C 273.3806 65.34531 274.0106 65.67532 274.8306 65.67532M274.8306 64.89532C 274.3206 64.89532 273.9406 64.64532 273.6806 64.14532C 273.4206 63.64531 273.3006 62.89531 273.3006 61.89531C 273.3006 60.89531 273.4206 60.14531 273.6806 59.64531C 273.9406 59.14531 274.3206 58.89531 274.8306 58.89531C 275.3406 58.89531 275.7206 59.14531 275.9806 59.64531C 276.2306 60.14531 276.3606 60.89531 276.3606 61.89531C 276.3606 62.89531 276.2306 63.64531 275.9806 64.14532C 275.7206 64.64532 275.3406 64.89532 274.8306 64.89532" stroke="none" fill="#000000" fill-rule="nonzero" />
    <path id=""  transform="matrix(1 0 0 -1 0 151)"  d="M279.0806 59.49532L280.1106 59.49532L280.1106 59.49532L280.1106 58.25531L280.1106 58.25531L279.0806 58.25531L279.0806 58.25531L279.0806 59.49532" stroke="none" fill="#000000" fill-rule="nonzero" />
    <path id=""  transform="matrix(1 0 0 -1 0 151)"  d="M284.3706 65.67532C 285.1806 65.67532 285.8006 65.34531 286.2406 64.70531C 286.6706 64.05531 286.8906 63.11531 286.8906 61.89531C 286.8906 60.66531 286.6706 59.72532 286.2406 59.08532C 285.8006 58.44531 285.1806 58.12531 284.3706 58.12531C 283.5506 58.12531 282.9206 58.44531 282.4906 59.08532C 282.0606 59.72532 281.8506 60.66531 281.8506 61.89531C 281.8506 63.11531 282.0606 64.05531 282.4906 64.70531C 282.9206 65.34531 283.5506 65.67532 284.3706 65.67532M284.3706 64.89532C 283.8606 64.89532 283.4806 64.64532 283.2206 64.14532C 282.9606 63.64531 282.8406 62.89531 282.8406 61.89531C 282.8406 60.89531 282.9606 60.14531 283.2206 59.64531C 283.4806 59.14531 283.8606 58.89531 284.3706 58.89531C 284.8806 58.89531 285.2606 59.14531 285.5206 59.64531C 285.7706 60.14531 285.9006 60.89531 285.9006 61.89531C 285.9006 62.89531 285.7706 63.64531 285.5206 64.14532C 285.2606 64.64532 284.8806 64.89532 284.3706 64.89532" stroke="none" fill="#000000" fill-rule="nonzero" />
	</g>
</g>
</svg>