<?xml version="1.0" standalone="no"?>
<!DOCTYPE svg PUBLIC "-//W3C//DTD SVG 1.0//EN" "http://www.w3.org/TR/2001/REC-SVG-20010904/DTD/svg10.dtd">
<svg xmlns="http://www.w3.org/2000/svg" xmlns:xlink="http://www.w3.org/1999/xlink" id="body_1" width="389" height="201">

<defs>
    <clipPath  id="1">

    <path id=""  clip-rule="evenodd" transform="matrix(1 0 0 1 0 0)"  d="M0 151L0 -0.9168701L0 -0.9168701L292.3937 -0.9168701L292.3937 -0.9168701L292.3937 151L292.3937 151L0 151z" />    </clipPath>
    <clipPath  id="2">

    <path id=""  clip-rule="evenodd" transform="matrix(1 0 0 1 0 0)"  d="M42.23125 115.0031L209.6312 115.0031L209.6312 115.0031L209.6312 6.283127L209.6312 6.283127L42.23125 6.283127z" />    </clipPath>
    <clipPath  id="3">

    <path id=""  clip-rule="evenodd" transform="matrix(1 0 0 1 0 0)"  d="M42.23125 115.0031L209.6312 115.0031L209.6312 115.0031L209.6312 6.283127L209.6312 6.283127L42.23125 6.283127z" />    </clipPath>
    <clipPath  id="4">

    <path id=""  clip-rule="evenodd" transform="matrix(1 0 0 1 0 0)"  d="M42.23125 115.0031L209.6312 115.0031L209.6312 115.0031L209.6312 6.283127L209.6312 6.283127L42.23125 6.283127z" />    </clipPath>
    <clipPath  id="5">

    <path id=""  clip-rule="evenodd" transform="matrix(1 0 0 1 0 0)"  d="M42.23125 115.0031L209.6312 115.0031L209.6312 115.0031L209.6312 6.283127L209.6312 6.283127L42.23125 6.283127z" />    </clipPath>
    <clipPath  id="6">

    <path id=""  clip-rule="evenodd" transform="matrix(1 0 0 1 0 0)"  d="M42.23125 115.0031L209.6312 115.0031L209.6312 115.0031L209.6312 6.283127L209.6312 6.283127L42.23125 6.283127z" />    </clipPath>
    <clipPath  id="7">

    <path id=""  clip-rule="evenodd" transform="matrix(1 0 0 1 0 0)"  d="M42.23125 115.0031L209.6312 115.0031L209.6312 115.0031L209.6312 6.283127L209.6312 6.283127L42.23125 6.283127z" />    </clipPath>
    <clipPath  id="8">

    <path id=""  clip-rule="evenodd" transform="matrix(1 0 0 1 0 0)"  d="M42.23125 115.0031L209.6312 115.0031L209.6312 115.0031L209.6312 6.283127L209.6312 6.283127L42.23125 6.283127z" />    </clipPath>
    <clipPath  id="9">

    <path id=""  clip-rule="evenodd" transform="matrix(1 0 0 1 0 0)"  d="M42.23125 115.0031L209.6312 115.0031L209.6312 115.0031L209.6312 6.283127L209.6312 6.283127L42.23125 6.283127z" />    </clipPath>
    <clipPath  id="10">

    <path id=""  clip-rule="evenodd" transform="matrix(1 0 0 1 0 0)"  d="M42.23125 115.0031L209.6312 115.0031L209.6312 115.0031L209.6312 6.283127L209.6312 6.283127L42.23125 6.283127z" />    </clipPath>
    <clipPath  id="11">

    <path id=""  clip-rule="evenodd" transform="matrix(1 0 0 1 0 0)"  d="M42.23125 115.0031L209.6312 115.0031L209.6312 115.0031L209.6312 6.283127L209.6312 6.283127L42.23125 6.283127z" />    </clipPath>
    <clipPath  id="12">

    <path id=""  clip-rule="evenodd" transform="matrix(1 0 0 1 0 0)"  d="M42.23125 115.0031L209.6312 115.0031L209.6312 115.0031L209.6312 6.283127L209.6312 6.283127L42.23125 6.283127z" />    </clipPath>
    <clipPath  id="13">

    <path id=""  clip-rule="evenodd" transform="matrix(1 0 0 1 0 0)"  d="M42.23125 115.0031L209.6312 115.0031L209.6312 115.0031L209.6312 6.283127L209.6312 6.283127L42.23125 6.283127z" />    </clipPath>
    <clipPath  id="14">

    <path id=""  clip-rule="evenodd" transform="matrix(1 0 0 1 0 0)"  d="M42.23125 115.0031L209.6312 115.0031L209.6312 115.0031L209.6312 6.283127L209.6312 6.283127L42.23125 6.283127z" />    </clipPath>
</defs>

<g transform="matrix(1.3333 0 0 1.3333 0 0)">
	<g clip-path="url(#1)" >
    <path id=""  transform="matrix(1 0 0 -1 0 151)"  d="M42.23125 35.99688L209.6313 35.99688L209.6313 35.99688L209.6313 144.7169L209.6313 144.7169L42.23125 144.7169z" stroke="none" fill="#EEEEEE" fill-rule="nonzero" />
		<g clip-path="url(#2)" >
    <path id=""  transform="matrix(1 0 0 -1 0 151)"  d="M49.84034 35.99688L49.84034 144.7169" stroke="#B2B2B2" stroke-width="0.5" stroke-linejoin="round" stroke-dasharray="1.85000002384186,0.800000011920929" fill="none" />
		</g>
    <path id=""  transform="matrix(1 0 0 -1 0 151)"  d="M49.84034 35.99688L49.84034 39.49688" stroke="#000000" stroke-width="0.8" stroke-linejoin="miter" fill="#000000" fill-rule="nonzero" />
    <path id=""  transform="matrix(1 0 0 -1 0 151)"  d="M41.88753 32.32313C 42.69753 32.32313 43.31753 31.99313 43.75753 31.35313C 44.18753 30.70313 44.40753 29.76313 44.40753 28.54313C 44.40753 27.31313 44.18753 26.37313 43.75753 25.73313C 43.31753 25.09313 42.69753 24.77313 41.88753 24.77313C 41.06753 24.77313 40.43753 25.09313 40.00753 25.73313C 39.57753 26.37313 39.36753 27.31313 39.36753 28.54313C 39.36753 29.76313 39.57753 30.70313 40.00753 31.35313C 40.43753 31.99313 41.06753 32.32313 41.88753 32.32313M41.88753 31.54313C 41.37753 31.54313 40.99753 31.29313 40.73753 30.79313C 40.47753 30.29313 40.35753 29.54313 40.35753 28.54313C 40.35753 27.54313 40.47753 26.79313 40.73753 26.29313C 40.99753 25.79313 41.37753 25.54313 41.88753 25.54313C 42.39753 25.54313 42.77753 25.79313 43.03753 26.29313C 43.28753 26.79313 43.41753 27.54313 43.41753 28.54313C 43.41753 29.54313 43.28753 30.29313 43.03753 30.79313C 42.77753 31.29313 42.39753 31.54313 41.88753 31.54313" stroke="none" fill="#000000" fill-rule="nonzero" />
    <path id=""  transform="matrix(1 0 0 -1 0 151)"  d="M46.13753 26.14313L47.16753 26.14313L47.16753 26.14313L47.16753 24.90313L47.16753 24.90313L46.13753 24.90313L46.13753 24.90313L46.13753 26.14313" stroke="none" fill="#000000" fill-rule="nonzero" />
    <path id=""  transform="matrix(1 0 0 -1 0 151)"  d="M51.42753 32.32313C 52.23753 32.32313 52.85753 31.99313 53.29753 31.35313C 53.72753 30.70313 53.94753 29.76313 53.94753 28.54313C 53.94753 27.31313 53.72753 26.37313 53.29753 25.73313C 52.85753 25.09313 52.23753 24.77313 51.42753 24.77313C 50.60753 24.77313 49.97753 25.09313 49.54753 25.73313C 49.11753 26.37313 48.90753 27.31313 48.90753 28.54313C 48.90753 29.76313 49.11753 30.70313 49.54753 31.35313C 49.97753 31.99313 50.60753 32.32313 51.42753 32.32313M51.42753 31.54313C 50.91753 31.54313 50.53753 31.29313 50.27753 30.79313C 50.01753 30.29313 49.89753 29.54313 49.89753 28.54313C 49.89753 27.54313 50.01753 26.79313 50.27753 26.29313C 50.53753 25.79313 50.91753 25.54313 51.42753 25.54313C 51.93753 25.54313 52.31753 25.79313 52.57753 26.29313C 52.82753 26.79313 52.95753 27.54313 52.95753 28.54313C 52.95753 29.54313 52.82753 30.29313 52.57753 30.79313C 52.31753 31.29313 51.93753 31.54313 51.42753 31.54313" stroke="none" fill="#000000" fill-rule="nonzero" />
    <path id=""  transform="matrix(1 0 0 -1 0 151)"  d="M57.78753 32.32313C 58.59753 32.32313 59.21753 31.99313 59.65753 31.35313C 60.08753 30.70313 60.30753 29.76313 60.30753 28.54313C 60.30753 27.31313 60.08753 26.37313 59.65753 25.73313C 59.21753 25.09313 58.59753 24.77313 57.78753 24.77313C 56.96753 24.77313 56.33753 25.09313 55.90753 25.73313C 55.47753 26.37313 55.26753 27.31313 55.26753 28.54313C 55.26753 29.76313 55.47753 30.70313 55.90753 31.35313C 56.33753 31.99313 56.96753 32.32313 57.78753 32.32313M57.78753 31.54313C 57.27753 31.54313 56.89753 31.29313 56.63753 30.79313C 56.37753 30.29313 56.25753 29.54313 56.25753 28.54313C 56.25753 27.54313 56.37753 26.79313 56.63753 26.29313C 56.89753 25.79313 57.27753 25.54313 57.78753 25.54313C 58.29753 25.54313 58.67753 25.79313 58.93753 26.29313C 59.18753 26.79313 59.31753 27.54313 59.31753 28.54313C 59.31753 29.54313 59.18753 30.29313 58.93753 30.79313C 58.67753 31.29313 58.29753 31.54313 57.78753 31.54313" stroke="none" fill="#000000" fill-rule="nonzero" />
		<g clip-path="url(#3)" >
    <path id=""  transform="matrix(1 0 0 -1 0 151)"  d="M87.8858 35.99688L87.8858 144.7169" stroke="#B2B2B2" stroke-width="0.5" stroke-linejoin="round" stroke-dasharray="1.85000002384186,0.800000011920929" fill="none" />
		</g>
    <path id=""  transform="matrix(1 0 0 -1 0 151)"  d="M87.8858 35.99688L87.8858 39.49688" stroke="#000000" stroke-width="0.8" stroke-linejoin="miter" fill="#000000" fill-rule="nonzero" />
    <path id=""  transform="matrix(1 0 0 -1 0 151)"  d="M79.93298 32.32313C 80.74298 32.32313 81.36298 31.99313 81.80299 31.35313C 82.23299 30.70313 82.45298 29.76313 82.45298 28.54313C 82.45298 27.31313 82.23299 26.37313 81.80299 25.73313C 81.36298 25.09313 80.74298 24.77313 79.93298 24.77313C 79.11298 24.77313 78.48299 25.09313 78.05299 25.73313C 77.62299 26.37313 77.41299 27.31313 77.41299 28.54313C 77.41299 29.76313 77.62299 30.70313 78.05299 31.35313C 78.48299 31.99313 79.11298 32.32313 79.93298 32.32313M79.93298 31.54313C 79.42298 31.54313 79.04298 31.29313 78.78298 30.79313C 78.52298 30.29313 78.40298 29.54313 78.40298 28.54313C 78.40298 27.54313 78.52298 26.79313 78.78298 26.29313C 79.04298 25.79313 79.42298 25.54313 79.93298 25.54313C 80.44299 25.54313 80.82298 25.79313 81.08298 26.29313C 81.33298 26.79313 81.46298 27.54313 81.46298 28.54313C 81.46298 29.54313 81.33298 30.29313 81.08298 30.79313C 80.82298 31.29313 80.44299 31.54313 79.93298 31.54313" stroke="none" fill="#000000" fill-rule="nonzero" />
    <path id=""  transform="matrix(1 0 0 -1 0 151)"  d="M84.18298 26.14313L85.21298 26.14313L85.21298 26.14313L85.21298 24.90313L85.21298 24.90313L84.18298 24.90313L84.18298 24.90313L84.18298 26.14313" stroke="none" fill="#000000" fill-rule="nonzero" />
    <path id=""  transform="matrix(1 0 0 -1 0 151)"  d="M88.21298 25.73313L91.65298 25.73313L91.65298 25.73313L91.65298 24.90313L91.65298 24.90313L87.02299 24.90313L87.02299 24.90313L87.02299 25.73313C 87.39298 26.11312 87.90298 26.63313 88.55299 27.29313C 89.19299 27.94313 89.60298 28.36313 89.77299 28.55313C 90.09299 28.90313 90.31299 29.20313 90.43298 29.45313C 90.55299 29.69313 90.62299 29.94313 90.62299 30.18313C 90.62299 30.56313 90.48299 30.88313 90.21298 31.12313C 89.94299 31.36313 89.59299 31.49313 89.15298 31.49313C 88.84299 31.49313 88.51299 31.43313 88.17298 31.33313C 87.83298 31.22313 87.46298 31.06313 87.07298 30.84313L87.07298 30.84313L87.07298 31.84313C 87.47298 32.00313 87.84299 32.12313 88.18298 32.20313C 88.52299 32.28313 88.84299 32.32313 89.13298 32.32313C 89.88298 32.32313 90.48299 32.13313 90.93298 31.75313C 91.38298 31.37313 91.61298 30.87313 91.61298 30.24313C 91.61298 29.94313 91.55299 29.65313 91.44299 29.39313C 91.33298 29.12313 91.13298 28.80313 90.83298 28.44313C 90.75298 28.34313 90.49298 28.07313 90.05299 27.62313C 89.61298 27.17313 89.00298 26.54313 88.21298 25.73313" stroke="none" fill="#000000" fill-rule="nonzero" />
    <path id=""  transform="matrix(1 0 0 -1 0 151)"  d="M93.73299 32.19313L97.60298 32.19313L97.60298 32.19313L97.60298 31.36313L97.60298 31.36313L94.63299 31.36313L94.63299 31.36313L94.63299 29.57313C 94.77299 29.62313 94.92298 29.66313 95.06299 29.68313C 95.20299 29.70313 95.35298 29.72313 95.49298 29.72313C 96.30299 29.72313 96.94299 29.49313 97.42299 29.05313C 97.90298 28.60313 98.14298 28.00313 98.14298 27.24313C 98.14298 26.45313 97.89298 25.84313 97.40298 25.41313C 96.91299 24.98313 96.22298 24.77313 95.34299 24.77313C 95.03298 24.77313 94.72298 24.80313 94.40298 24.84313C 94.08298 24.89313 93.76299 24.96313 93.42298 25.07313L93.42298 25.07313L93.42298 26.06313C 93.71298 25.90313 94.01299 25.78312 94.33298 25.70313C 94.64298 25.62313 94.97298 25.59313 95.32298 25.59313C 95.88299 25.59313 96.33298 25.73313 96.66299 26.03313C 96.98299 26.33313 97.15298 26.73313 97.15298 27.24313C 97.15298 27.74313 96.98299 28.14313 96.66299 28.44313C 96.33298 28.74313 95.88299 28.89313 95.32298 28.89313C 95.06299 28.89313 94.79298 28.86313 94.53298 28.80313C 94.27299 28.74313 94.00298 28.65313 93.73299 28.53313L93.73299 28.53313L93.73299 32.19313" stroke="none" fill="#000000" fill-rule="nonzero" />
		<g clip-path="url(#4)" >
    <path id=""  transform="matrix(1 0 0 -1 0 151)"  d="M125.9313 35.99688L125.9313 144.7169" stroke="#B2B2B2" stroke-width="0.5" stroke-linejoin="round" stroke-dasharray="1.85000002384186,0.800000011920929" fill="none" />
		</g>
    <path id=""  transform="matrix(1 0 0 -1 0 151)"  d="M125.9313 35.99688L125.9313 39.49688" stroke="#000000" stroke-width="0.8" stroke-linejoin="miter" fill="#000000" fill-rule="nonzero" />
    <path id=""  transform="matrix(1 0 0 -1 0 151)"  d="M117.9784 32.32313C 118.7884 32.32313 119.4084 31.99313 119.8484 31.35313C 120.2784 30.70313 120.4984 29.76313 120.4984 28.54313C 120.4984 27.31313 120.2784 26.37313 119.8484 25.73313C 119.4084 25.09313 118.7884 24.77313 117.9784 24.77313C 117.1584 24.77313 116.5284 25.09313 116.0984 25.73313C 115.6684 26.37313 115.4584 27.31313 115.4584 28.54313C 115.4584 29.76313 115.6684 30.70313 116.0984 31.35313C 116.5284 31.99313 117.1584 32.32313 117.9784 32.32313M117.9784 31.54313C 117.4684 31.54313 117.0884 31.29313 116.8284 30.79313C 116.5684 30.29313 116.4484 29.54313 116.4484 28.54313C 116.4484 27.54313 116.5684 26.79313 116.8284 26.29313C 117.0884 25.79313 117.4684 25.54313 117.9784 25.54313C 118.4884 25.54313 118.8684 25.79313 119.1284 26.29313C 119.3784 26.79313 119.5084 27.54313 119.5084 28.54313C 119.5084 29.54313 119.3784 30.29313 119.1284 30.79313C 118.8684 31.29313 118.4884 31.54313 117.9784 31.54313" stroke="none" fill="#000000" fill-rule="nonzero" />
    <path id=""  transform="matrix(1 0 0 -1 0 151)"  d="M122.2284 26.14313L123.2584 26.14313L123.2584 26.14313L123.2584 24.90313L123.2584 24.90313L122.2284 24.90313L122.2284 24.90313L122.2284 26.14313" stroke="none" fill="#000000" fill-rule="nonzero" />
    <path id=""  transform="matrix(1 0 0 -1 0 151)"  d="M125.4184 32.19313L129.2884 32.19313L129.2884 32.19313L129.2884 31.36313L129.2884 31.36313L126.3184 31.36313L126.3184 31.36313L126.3184 29.57313C 126.4584 29.62313 126.6084 29.66313 126.7484 29.68313C 126.8884 29.70313 127.0384 29.72313 127.1784 29.72313C 127.9884 29.72313 128.6284 29.49313 129.1084 29.05313C 129.5884 28.60313 129.8284 28.00313 129.8284 27.24313C 129.8284 26.45313 129.5784 25.84313 129.0884 25.41313C 128.5984 24.98313 127.9084 24.77313 127.0284 24.77313C 126.7184 24.77313 126.4084 24.80313 126.0884 24.84313C 125.7684 24.89313 125.4484 24.96313 125.1084 25.07313L125.1084 25.07313L125.1084 26.06313C 125.3984 25.90313 125.6984 25.78312 126.0184 25.70313C 126.3284 25.62313 126.6584 25.59313 127.0084 25.59313C 127.5684 25.59313 128.0184 25.73313 128.3484 26.03313C 128.6684 26.33313 128.8384 26.73313 128.8384 27.24313C 128.8384 27.74313 128.6684 28.14313 128.3484 28.44313C 128.0184 28.74313 127.5684 28.89313 127.0084 28.89313C 126.7484 28.89313 126.4784 28.86313 126.2184 28.80313C 125.9584 28.74313 125.6884 28.65313 125.4184 28.53313L125.4184 28.53313L125.4184 32.19313" stroke="none" fill="#000000" fill-rule="nonzero" />
    <path id=""  transform="matrix(1 0 0 -1 0 151)"  d="M133.8784 32.32313C 134.6884 32.32313 135.3084 31.99313 135.7484 31.35313C 136.1784 30.70313 136.3984 29.76313 136.3984 28.54313C 136.3984 27.31313 136.1784 26.37313 135.7484 25.73313C 135.3084 25.09313 134.6884 24.77313 133.8784 24.77313C 133.0584 24.77313 132.4284 25.09313 131.9984 25.73313C 131.5684 26.37313 131.3584 27.31313 131.3584 28.54313C 131.3584 29.76313 131.5684 30.70313 131.9984 31.35313C 132.4284 31.99313 133.0584 32.32313 133.8784 32.32313M133.8784 31.54313C 133.3684 31.54313 132.9884 31.29313 132.7284 30.79313C 132.4684 30.29313 132.3484 29.54313 132.3484 28.54313C 132.3484 27.54313 132.4684 26.79313 132.7284 26.29313C 132.9884 25.79313 133.3684 25.54313 133.8784 25.54313C 134.3884 25.54313 134.7684 25.79313 135.0284 26.29313C 135.2784 26.79313 135.4084 27.54313 135.4084 28.54313C 135.4084 29.54313 135.2784 30.29313 135.0284 30.79313C 134.7684 31.29313 134.3884 31.54313 133.8784 31.54313" stroke="none" fill="#000000" fill-rule="nonzero" />
		<g clip-path="url(#5)" >
    <path id=""  transform="matrix(1 0 0 -1 0 151)"  d="M163.9767 35.99688L163.9767 144.7169" stroke="#B2B2B2" stroke-width="0.5" stroke-linejoin="round" stroke-dasharray="1.85000002384186,0.800000011920929" fill="none" />
		</g>
    <path id=""  transform="matrix(1 0 0 -1 0 151)"  d="M163.9767 35.99688L163.9767 39.49688" stroke="#000000" stroke-width="0.8" stroke-linejoin="miter" fill="#000000" fill-rule="nonzero" />
    <path id=""  transform="matrix(1 0 0 -1 0 151)"  d="M156.0239 32.32313C 156.8339 32.32313 157.4539 31.99313 157.8939 31.35313C 158.3239 30.70313 158.5439 29.76313 158.5439 28.54313C 158.5439 27.31313 158.3239 26.37313 157.8939 25.73313C 157.4539 25.09313 156.8339 24.77313 156.0239 24.77313C 155.2039 24.77313 154.5739 25.09313 154.1439 25.73313C 153.7139 26.37313 153.5039 27.31313 153.5039 28.54313C 153.5039 29.76313 153.7139 30.70313 154.1439 31.35313C 154.5739 31.99313 155.2039 32.32313 156.0239 32.32313M156.0239 31.54313C 155.5139 31.54313 155.1339 31.29313 154.8739 30.79313C 154.6139 30.29313 154.4939 29.54313 154.4939 28.54313C 154.4939 27.54313 154.6139 26.79313 154.8739 26.29313C 155.1339 25.79313 155.5139 25.54313 156.0239 25.54313C 156.5339 25.54313 156.9139 25.79313 157.1739 26.29313C 157.4239 26.79313 157.5539 27.54313 157.5539 28.54313C 157.5539 29.54313 157.4239 30.29313 157.1739 30.79313C 156.9139 31.29313 156.5339 31.54313 156.0239 31.54313" stroke="none" fill="#000000" fill-rule="nonzero" />
    <path id=""  transform="matrix(1 0 0 -1 0 151)"  d="M160.2739 26.14313L161.3039 26.14313L161.3039 26.14313L161.3039 24.90313L161.3039 24.90313L160.2739 24.90313L160.2739 24.90313L160.2739 26.14313" stroke="none" fill="#000000" fill-rule="nonzero" />
    <path id=""  transform="matrix(1 0 0 -1 0 151)"  d="M163.2039 32.19313L167.8939 32.19313L167.8939 32.19313L167.8939 31.77313L167.8939 31.77313L165.2439 24.90313L165.2439 24.90313L164.2139 24.90313L164.2139 24.90313L166.7039 31.36313L166.7039 31.36313L163.2039 31.36313L163.2039 31.36313L163.2039 32.19313" stroke="none" fill="#000000" fill-rule="nonzero" />
    <path id=""  transform="matrix(1 0 0 -1 0 151)"  d="M169.8239 32.19313L173.6939 32.19313L173.6939 32.19313L173.6939 31.36313L173.6939 31.36313L170.7239 31.36313L170.7239 31.36313L170.7239 29.57313C 170.8639 29.62313 171.0139 29.66313 171.1539 29.68313C 171.2939 29.70313 171.4439 29.72313 171.5839 29.72313C 172.3939 29.72313 173.0339 29.49313 173.5139 29.05313C 173.9939 28.60313 174.2339 28.00313 174.2339 27.24313C 174.2339 26.45313 173.9839 25.84313 173.4939 25.41313C 173.0039 24.98313 172.3139 24.77313 171.4339 24.77313C 171.1239 24.77313 170.8139 24.80313 170.4939 24.84313C 170.1739 24.89313 169.8539 24.96313 169.5139 25.07313L169.5139 25.07313L169.5139 26.06313C 169.8039 25.90313 170.1039 25.78312 170.4239 25.70313C 170.7339 25.62313 171.0639 25.59313 171.4139 25.59313C 171.9739 25.59313 172.4239 25.73313 172.7539 26.03313C 173.0739 26.33313 173.2439 26.73313 173.2439 27.24313C 173.2439 27.74313 173.0739 28.14313 172.7539 28.44313C 172.4239 28.74313 171.9739 28.89313 171.4139 28.89313C 171.1539 28.89313 170.8839 28.86313 170.6239 28.80313C 170.3639 28.74313 170.0939 28.65313 169.8239 28.53313L169.8239 28.53313L169.8239 32.19313" stroke="none" fill="#000000" fill-rule="nonzero" />
		<g clip-path="url(#6)" >
    <path id=""  transform="matrix(1 0 0 -1 0 151)"  d="M202.0222 35.99688L202.0222 144.7169" stroke="#B2B2B2" stroke-width="0.5" stroke-linejoin="round" stroke-dasharray="1.85000002384186,0.800000011920929" fill="none" />
		</g>
    <path id=""  transform="matrix(1 0 0 -1 0 151)"  d="M202.0222 35.99688L202.0222 39.49688" stroke="#000000" stroke-width="0.8" stroke-linejoin="miter" fill="#000000" fill-rule="nonzero" />
    <path id=""  transform="matrix(1 0 0 -1 0 151)"  d="M192.1293 25.73313L193.7393 25.73313L193.7393 25.73313L193.7393 31.29313L193.7393 31.29313L191.9893 30.94313L191.9893 30.94313L191.9893 31.84313L191.9893 31.84313L193.7293 32.19313L193.7293 32.19313L194.7193 32.19313L194.7193 32.19313L194.7193 25.73313L194.7193 25.73313L196.3293 25.73313L196.3293 25.73313L196.3293 24.90313L196.3293 24.90313L192.1293 24.90313L192.1293 24.90313L192.1293 25.73313" stroke="none" fill="#000000" fill-rule="nonzero" />
    <path id=""  transform="matrix(1 0 0 -1 0 151)"  d="M198.3194 26.14313L199.3493 26.14313L199.3493 26.14313L199.3493 24.90313L199.3493 24.90313L198.3194 24.90313L198.3194 24.90313L198.3194 26.14313" stroke="none" fill="#000000" fill-rule="nonzero" />
    <path id=""  transform="matrix(1 0 0 -1 0 151)"  d="M203.6093 32.32313C 204.4194 32.32313 205.0394 31.99313 205.4794 31.35313C 205.9093 30.70313 206.1293 29.76313 206.1293 28.54313C 206.1293 27.31313 205.9093 26.37313 205.4794 25.73313C 205.0394 25.09313 204.4194 24.77313 203.6093 24.77313C 202.7894 24.77313 202.1593 25.09313 201.7294 25.73313C 201.2993 26.37313 201.0894 27.31313 201.0894 28.54313C 201.0894 29.76313 201.2993 30.70313 201.7294 31.35313C 202.1593 31.99313 202.7894 32.32313 203.6093 32.32313M203.6093 31.54313C 203.0993 31.54313 202.7193 31.29313 202.4594 30.79313C 202.1994 30.29313 202.0793 29.54313 202.0793 28.54313C 202.0793 27.54313 202.1994 26.79313 202.4594 26.29313C 202.7193 25.79313 203.0993 25.54313 203.6093 25.54313C 204.1194 25.54313 204.4994 25.79313 204.7594 26.29313C 205.0094 26.79313 205.1394 27.54313 205.1394 28.54313C 205.1394 29.54313 205.0094 30.29313 204.7594 30.79313C 204.4994 31.29313 204.1194 31.54313 203.6093 31.54313" stroke="none" fill="#000000" fill-rule="nonzero" />
    <path id=""  transform="matrix(1 0 0 -1 0 151)"  d="M209.9694 32.32313C 210.7794 32.32313 211.3994 31.99313 211.8394 31.35313C 212.2693 30.70313 212.4893 29.76313 212.4893 28.54313C 212.4893 27.31313 212.2693 26.37313 211.8394 25.73313C 211.3994 25.09313 210.7794 24.77313 209.9694 24.77313C 209.1494 24.77313 208.5193 25.09313 208.0894 25.73313C 207.6593 26.37313 207.4494 27.31313 207.4494 28.54313C 207.4494 29.76313 207.6593 30.70313 208.0894 31.35313C 208.5193 31.99313 209.1494 32.32313 209.9694 32.32313M209.9694 31.54313C 209.4594 31.54313 209.0793 31.29313 208.8194 30.79313C 208.5594 30.29313 208.4393 29.54313 208.4393 28.54313C 208.4393 27.54313 208.5594 26.79313 208.8194 26.29313C 209.0793 25.79313 209.4594 25.54313 209.9694 25.54313C 210.4794 25.54313 210.8594 25.79313 211.1194 26.29313C 211.3694 26.79313 211.4994 27.54313 211.4994 28.54313C 211.4994 29.54313 211.3694 30.29313 211.1194 30.79313C 210.8594 31.29313 210.4794 31.54313 209.9694 31.54313" stroke="none" fill="#000000" fill-rule="nonzero" />
    <path id=""  transform="matrix(1 0 0 -1 0 151)"  d="M128.9646 16.264L126.5886 13.072L126.5886 13.072L129.0846 9.7L129.0846 9.7L127.8126 9.7L127.8126 9.7L125.9046 12.28L125.9046 12.28L123.9966 9.7L123.9966 9.7L122.7246 9.7L122.7246 9.7L125.2686 13.132L125.2686 13.132L122.9406 16.264L122.9406 16.264L124.2126 16.264L124.2126 16.264L125.9526 13.924L125.9526 13.924L127.6926 16.264L127.6926 16.264L128.9646 16.264" stroke="none" fill="#000000" fill-rule="nonzero" />
		<g clip-path="url(#7)" >
    <path id=""  transform="matrix(1 0 0 -1 0 151)"  d="M42.23125 40.93869L209.6313 40.93869" stroke="#B2B2B2" stroke-width="0.5" stroke-linejoin="round" stroke-dasharray="1.85000002384186,0.800000011920929" fill="none" />
		</g>
    <path id=""  transform="matrix(1 0 0 -1 0 151)"  d="M42.23125 40.93869L45.73125 40.93869" stroke="#000000" stroke-width="0.8" stroke-linejoin="miter" fill="#000000" fill-rule="nonzero" />
    <path id=""  transform="matrix(1 0 0 -1 0 151)"  d="M26.005 44.56182C 26.815 44.56182 27.435 44.23182 27.875 43.59182C 28.305 42.94182 28.525 42.00182 28.525 40.78182C 28.525 39.55182 28.305 38.61182 27.875 37.97182C 27.435 37.33182 26.815 37.01182 26.005 37.01182C 25.185 37.01182 24.555 37.33182 24.125 37.97182C 23.695 38.61182 23.485 39.55182 23.485 40.78182C 23.485 42.00182 23.695 42.94182 24.125 43.59182C 24.555 44.23182 25.185 44.56182 26.005 44.56182M26.005 43.78182C 25.495 43.78182 25.115 43.53182 24.855 43.03182C 24.595 42.53182 24.475 41.78182 24.475 40.78182C 24.475 39.78182 24.595 39.03182 24.855 38.53182C 25.115 38.03182 25.495 37.78182 26.005 37.78182C 26.515 37.78182 26.895 38.03182 27.155 38.53182C 27.405 39.03182 27.535 39.78182 27.535 40.78182C 27.535 41.78182 27.405 42.53182 27.155 43.03182C 26.895 43.53182 26.515 43.78182 26.005 43.78182" stroke="none" fill="#000000" fill-rule="nonzero" />
    <path id=""  transform="matrix(1 0 0 -1 0 151)"  d="M30.255 38.38182L31.285 38.38182L31.285 38.38182L31.285 37.14182L31.285 37.14182L30.255 37.14182L30.255 37.14182L30.255 38.38182" stroke="none" fill="#000000" fill-rule="nonzero" />
    <path id=""  transform="matrix(1 0 0 -1 0 151)"  d="M35.545 44.56182C 36.355 44.56182 36.975 44.23182 37.415 43.59182C 37.845 42.94182 38.065 42.00182 38.065 40.78182C 38.065 39.55182 37.845 38.61182 37.415 37.97182C 36.975 37.33182 36.355 37.01182 35.545 37.01182C 34.725 37.01182 34.095 37.33182 33.665 37.97182C 33.235 38.61182 33.025 39.55182 33.025 40.78182C 33.025 42.00182 33.235 42.94182 33.665 43.59182C 34.095 44.23182 34.725 44.56182 35.545 44.56182M35.545 43.78182C 35.035 43.78182 34.655 43.53182 34.395 43.03182C 34.135 42.53182 34.015 41.78182 34.015 40.78182C 34.015 39.78182 34.135 39.03182 34.395 38.53182C 34.655 38.03182 35.035 37.78182 35.545 37.78182C 36.055 37.78182 36.435 38.03182 36.695 38.53182C 36.945 39.03182 37.075 39.78182 37.075 40.78182C 37.075 41.78182 36.945 42.53182 36.695 43.03182C 36.435 43.53182 36.055 43.78182 35.545 43.78182" stroke="none" fill="#000000" fill-rule="nonzero" />
		<g clip-path="url(#8)" >
    <path id=""  transform="matrix(1 0 0 -1 0 151)"  d="M42.23125 80.67141L209.6313 80.67141" stroke="#B2B2B2" stroke-width="0.5" stroke-linejoin="round" stroke-dasharray="1.85000002384186,0.800000011920929" fill="none" />
		</g>
    <path id=""  transform="matrix(1 0 0 -1 0 151)"  d="M42.23125 80.67141L45.73125 80.67141" stroke="#000000" stroke-width="0.8" stroke-linejoin="miter" fill="#000000" fill-rule="nonzero" />
    <path id=""  transform="matrix(1 0 0 -1 0 151)"  d="M26.005 84.29453C 26.815 84.29453 27.435 83.96454 27.875 83.32453C 28.305 82.67454 28.525 81.73454 28.525 80.51453C 28.525 79.28454 28.305 78.34454 27.875 77.70454C 27.435 77.06454 26.815 76.74454 26.005 76.74454C 25.185 76.74454 24.555 77.06454 24.125 77.70454C 23.695 78.34454 23.485 79.28454 23.485 80.51453C 23.485 81.73454 23.695 82.67454 24.125 83.32453C 24.555 83.96454 25.185 84.29453 26.005 84.29453M26.005 83.51453C 25.495 83.51453 25.115 83.26453 24.855 82.76453C 24.595 82.26453 24.475 81.51453 24.475 80.51453C 24.475 79.51453 24.595 78.76453 24.855 78.26453C 25.115 77.76453 25.495 77.51453 26.005 77.51453C 26.515 77.51453 26.895 77.76453 27.155 78.26453C 27.405 78.76453 27.535 79.51453 27.535 80.51453C 27.535 81.51453 27.405 82.26453 27.155 82.76453C 26.895 83.26453 26.515 83.51453 26.005 83.51453" stroke="none" fill="#000000" fill-rule="nonzero" />
    <path id=""  transform="matrix(1 0 0 -1 0 151)"  d="M30.255 78.11453L31.285 78.11453L31.285 78.11453L31.285 76.87453L31.285 76.87453L30.255 76.87453L30.255 76.87453L30.255 78.11453" stroke="none" fill="#000000" fill-rule="nonzero" />
    <path id=""  transform="matrix(1 0 0 -1 0 151)"  d="M34.285 77.70454L37.725 77.70454L37.725 77.70454L37.725 76.87453L37.725 76.87453L33.095 76.87453L33.095 76.87453L33.095 77.70454C 33.465 78.08453 33.975 78.60454 34.625 79.26453C 35.265 79.91454 35.675 80.33453 35.845 80.52454C 36.165 80.87453 36.385 81.17454 36.505 81.42454C 36.625 81.66454 36.695 81.91454 36.695 82.15453C 36.695 82.53454 36.555 82.85454 36.285 83.09454C 36.015 83.33453 35.665 83.46454 35.225 83.46454C 34.915 83.46454 34.585 83.40453 34.245 83.30453C 33.905 83.19453 33.535 83.03454 33.145 82.81454L33.145 82.81454L33.145 83.81454C 33.545 83.97453 33.915 84.09454 34.255 84.17454C 34.595 84.25453 34.915 84.29453 35.205 84.29453C 35.955 84.29453 36.555 84.10454 37.005 83.72453C 37.455 83.34454 37.685 82.84454 37.685 82.21454C 37.685 81.91454 37.625 81.62453 37.515 81.36453C 37.405 81.09454 37.205 80.77454 36.905 80.41454C 36.825 80.31454 36.565 80.04453 36.125 79.59454C 35.685 79.14453 35.075 78.51453 34.285 77.70454" stroke="none" fill="#000000" fill-rule="nonzero" />
		<g clip-path="url(#9)" >
    <path id=""  transform="matrix(1 0 0 -1 0 151)"  d="M42.23125 120.4041L209.6313 120.4041" stroke="#B2B2B2" stroke-width="0.5" stroke-linejoin="round" stroke-dasharray="1.85000002384186,0.800000011920929" fill="none" />
		</g>
    <path id=""  transform="matrix(1 0 0 -1 0 151)"  d="M42.23125 120.4041L45.73125 120.4041" stroke="#000000" stroke-width="0.8" stroke-linejoin="miter" fill="#000000" fill-rule="nonzero" />
    <path id=""  transform="matrix(1 0 0 -1 0 151)"  d="M26.005 124.0272C 26.815 124.0272 27.435 123.6973 27.875 123.0572C 28.305 122.4072 28.525 121.4672 28.525 120.2472C 28.525 119.0173 28.305 118.0772 27.875 117.4372C 27.435 116.7972 26.815 116.4772 26.005 116.4772C 25.185 116.4772 24.555 116.7972 24.125 117.4372C 23.695 118.0772 23.485 119.0173 23.485 120.2472C 23.485 121.4672 23.695 122.4072 24.125 123.0572C 24.555 123.6973 25.185 124.0272 26.005 124.0272M26.005 123.2472C 25.495 123.2472 25.115 122.9972 24.855 122.4972C 24.595 121.9972 24.475 121.2472 24.475 120.2472C 24.475 119.2472 24.595 118.4972 24.855 117.9972C 25.115 117.4972 25.495 117.2472 26.005 117.2472C 26.515 117.2472 26.895 117.4972 27.155 117.9972C 27.405 118.4972 27.535 119.2472 27.535 120.2472C 27.535 121.2472 27.405 121.9972 27.155 122.4972C 26.895 122.9972 26.515 123.2472 26.005 123.2472" stroke="none" fill="#000000" fill-rule="nonzero" />
    <path id=""  transform="matrix(1 0 0 -1 0 151)"  d="M30.255 117.8472L31.285 117.8472L31.285 117.8472L31.285 116.6072L31.285 116.6072L30.255 116.6072L30.255 116.6072L30.255 117.8472" stroke="none" fill="#000000" fill-rule="nonzero" />
    <path id=""  transform="matrix(1 0 0 -1 0 151)"  d="M35.885 123.8972L37.125 123.8972L37.125 123.8972L37.125 119.1472L37.125 119.1472L38.165 119.1472L38.165 119.1472L38.165 118.3272L38.165 118.3272L37.125 118.3272L37.125 118.3272L37.125 116.6072L37.125 116.6072L36.145 116.6072L36.145 116.6072L36.145 118.3272L36.145 118.3272L32.855 118.3272L32.855 118.3272L32.855 119.2772L32.855 119.2772L35.885 123.8972M36.145 123.0372L33.655 119.1472L33.655 119.1472L36.145 119.1472L36.145 119.1472L36.145 123.0372" stroke="none" fill="#000000" fill-rule="nonzero" />
    <path id=""  transform="matrix(1 0 0 -1 0 151)"  d="M9.605 90.28419L9.605 90.28419M13.733 87.57218L9.761001 87.57218L9.761001 87.57218L9.761001 88.65218L9.761001 88.65218L13.697 88.65218C 14.321 88.65218 14.777 88.77219 15.089 89.01218C 15.401 89.25218 15.557 89.61218 15.557 90.10419C 15.557 90.68018 15.377 91.14819 15.005 91.48418C 14.633 91.82018 14.129 91.98818 13.481 91.98818L13.481 91.98818L9.761001 91.98818L9.761001 91.98818L9.761001 93.06818L9.761001 93.06818L16.325 93.06818L16.325 93.06818L16.325 91.98818L16.325 91.98818L15.317 91.98818C 15.725 91.72418 16.013 91.41219 16.205 91.07619C 16.385 90.72819 16.481 90.33218 16.481 89.87618C 16.481 89.12019 16.253 88.54418 15.785 88.16019C 15.329 87.76418 14.645 87.57218 13.733 87.57218" stroke="none" fill="#000000" fill-rule="nonzero" />
		<g clip-path="url(#10)" >
    <path id=""  transform="matrix(1 0 0 -1 0 151)"  d="M49.84034 40.93869L51.36216 40.93937L51.36216 40.93937L52.88398 40.93979L52.88398 40.93979L54.4058 40.94045L54.4058 40.94045L55.92761 40.94147L55.92761 40.94147L57.44943 40.94306L57.44943 40.94306L58.97125 40.94548L58.97125 40.94548L60.49307 40.94913L60.49307 40.94913L62.01488 40.9546L62.01488 40.9546L63.53671 40.96269L63.53671 40.96269L65.05853 40.97454L65.05853 40.97454L66.58034 40.9917L66.58034 40.9917L68.10216 41.01631L68.10216 41.01631L69.62398 41.05122L69.62398 41.05122L71.1458 41.10022L71.1458 41.10022L72.66762 41.16827L72.66762 41.16827L74.18943 41.26179L74.18943 41.26179L75.71125 41.3889L75.71125 41.3889L77.23307 41.55984L77.23307 41.55984L78.75488 41.78724L78.75488 41.78724L80.2767 42.08644L80.2767 42.08644L81.79852 42.47586L81.79852 42.47586L83.32034 42.97709L83.32034 42.97709L84.84216 43.61512L84.84216 43.61512L86.36398 44.4182L86.36398 44.4182L87.8858 45.41767L87.8858 45.41767L89.40762 46.6474L89.40762 46.6474L90.92944 48.14305L90.92944 48.14305L92.45125 49.94093L92.45125 49.94093L93.97307 52.07661L93.97307 52.07661L95.49489 54.58315L95.49489 54.58315L97.01671 57.48906L97.01671 57.48906L98.53852 60.816L98.53852 60.816L100.0603 64.57648L100.0603 64.57648L101.5822 68.77139L101.5822 68.77139L103.104 73.38783L103.104 73.38783L104.6258 78.39719L104.6258 78.39719L106.1476 83.75384L106.1476 83.75384L107.6694 89.39432L107.6694 89.39432L109.1913 95.23756L109.1913 95.23756L110.7131 101.186L110.7131 101.186L112.2349 107.1274L112.2349 107.1274L113.7567 112.9384L113.7567 112.9384L115.2785 118.488L115.2785 118.488L116.8003 123.6424L116.8003 123.6424L118.3222 128.2705L118.3222 128.2705L119.844 132.2492L119.844 132.2492L121.3658 135.4685L121.3658 135.4685L122.8876 137.8373L122.8876 137.8373L124.4094 139.287L124.4094 139.287L125.9313 139.7751L125.9313 139.7751L127.4531 139.287L127.4531 139.287L128.9749 137.8373L128.9749 137.8373L130.4967 135.4685L130.4967 135.4685L132.0185 132.2492L132.0185 132.2492L133.5403 128.2705L133.5403 128.2705L135.0622 123.6424L135.0622 123.6424L136.584 118.488L136.584 118.488L138.1058 112.9384L138.1058 112.9384L139.6276 107.1274L139.6276 107.1274L141.1494 101.186L141.1494 101.186L142.6712 95.23756L142.6712 95.23756L144.1931 89.39432L144.1931 89.39432L145.7149 83.75384L145.7149 83.75384L147.2367 78.39719L147.2367 78.39719L148.7585 73.38783L148.7585 73.38783L150.2803 68.77139L150.2803 68.77139L151.8022 64.57648L151.8022 64.57648L153.324 60.816L153.324 60.816L154.8458 57.48906L154.8458 57.48906L156.3676 54.58315L156.3676 54.58315L157.8894 52.07661L157.8894 52.07661L159.4113 49.94093L159.4113 49.94093L160.9331 48.14305L160.9331 48.14305L162.4549 46.6474L162.4549 46.6474L163.9767 45.41767L163.9767 45.41767L165.4985 44.4182L165.4985 44.4182L167.0203 43.61512L167.0203 43.61512L168.5422 42.97709L168.5422 42.97709L170.064 42.47586L170.064 42.47586L171.5858 42.08644L171.5858 42.08644L173.1076 41.78724L173.1076 41.78724L174.6294 41.55984L174.6294 41.55984L176.1512 41.3889L176.1512 41.3889L177.6731 41.26179L177.6731 41.26179L179.1949 41.16827L179.1949 41.16827L180.7167 41.10022L180.7167 41.10022L182.2385 41.05122L182.2385 41.05122L183.7603 41.01631L183.7603 41.01631L185.2822 40.9917L185.2822 40.9917L186.804 40.97454L186.804 40.97454L188.3258 40.96269L188.3258 40.96269L189.8476 40.9546L189.8476 40.9546L191.3694 40.94913L191.3694 40.94913L192.8913 40.94548L192.8913 40.94548L194.4131 40.94306L194.4131 40.94306L195.9349 40.94147L195.9349 40.94147L197.4567 40.94045L197.4567 40.94045L198.9785 40.93979L198.9785 40.93979L200.5003 40.93937L200.5003 40.93937L202.0222 40.93869" stroke="#348ABD" stroke-width="2" stroke-linecap="square" stroke-linejoin="round" fill="none" />
		</g>
		<g clip-path="url(#11)" >
    <path id=""  transform="matrix(1 0 0 -1 0 151)"  d="M49.84034 40.93869L51.36216 41.78513L51.36216 41.78513L52.88398 42.6356L52.88398 42.6356L54.4058 43.49204L54.4058 43.49204L55.92761 44.35626L55.92761 44.35626L57.44943 45.22996L57.44943 45.22996L58.97125 46.1147L58.97125 46.1147L60.49307 47.01186L60.49307 47.01186L62.01488 47.92265L62.01488 47.92265L63.53671 48.84805L63.53671 48.84805L65.05853 49.78884L65.05853 49.78884L66.58034 50.74557L66.58034 50.74557L68.10216 51.71853L68.10216 51.71853L69.62398 52.70774L69.62398 52.70774L71.1458 53.71297L71.1458 53.71297L72.66762 54.73372L72.66762 54.73372L74.18943 55.76918L74.18943 55.76918L75.71125 56.81829L75.71125 56.81829L77.23307 57.87971L77.23307 57.87971L78.75488 58.95182L78.75488 58.95182L80.2767 60.03273L80.2767 60.03273L81.79852 61.12028L81.79852 61.12028L83.32034 62.21208L83.32034 62.21208L84.84216 63.30552L84.84216 63.30552L86.36398 64.39774L86.36398 64.39774L87.8858 65.48569L87.8858 65.48569L89.40762 66.56618L89.40762 66.56618L90.92944 67.63583L90.92944 67.63583L92.45125 68.69114L92.45125 68.69114L93.97307 69.72851L93.97307 69.72851L95.49489 70.74426L95.49489 70.74426L97.01671 71.7347L97.01671 71.7347L98.53852 72.69607L98.53852 72.69607L100.0603 73.62466L100.0603 73.62466L101.5822 74.51679L101.5822 74.51679L103.104 75.36889L103.104 75.36889L104.6258 76.17744L104.6258 76.17744L106.1476 76.93909L106.1476 76.93909L107.6694 77.65064L107.6694 77.65064L109.1913 78.3091L109.1913 78.3091L110.7131 78.91165L110.7131 78.91165L112.2349 79.45576L112.2349 79.45576L113.7567 79.93911L113.7567 79.93911L115.2785 80.35969L115.2785 80.35969L116.8003 80.71576L116.8003 80.71576L118.3222 81.00591L118.3222 81.00591L119.844 81.22903L119.844 81.22903L121.3658 81.38433L121.3658 81.38433L122.8876 81.47137L122.8876 81.47137L124.4094 81.49003L124.4094 81.49003L125.9313 81.44051L125.9313 81.44051L127.4531 81.32336L127.4531 81.32336L128.9749 81.13944L128.9749 81.13944L130.4967 80.88992L130.4967 80.88992L132.0185 80.57624L132.0185 80.57624L133.5403 80.20018L133.5403 80.20018L135.0622 79.76375L135.0622 79.76375L136.584 79.2692L136.584 79.2692L138.1058 78.71902L138.1058 78.71902L139.6276 78.11593L139.6276 78.11593L141.1494 77.46277L141.1494 77.46277L142.6712 76.76259L142.6712 76.76259L144.1931 76.01854L144.1931 76.01854L145.7149 75.23388L145.7149 75.23388L147.2367 74.41194L147.2367 74.41194L148.7585 73.55613L148.7585 73.55613L150.2803 72.66983L150.2803 72.66983L151.8022 71.75647L151.8022 71.75647L153.324 70.81942L153.324 70.81942L154.8458 69.862L154.8458 69.862L156.3676 68.88746L156.3676 68.88746L157.8894 67.89896L157.8894 67.89896L159.4113 66.89952L159.4113 66.89952L160.9331 65.89205L160.9331 65.89205L162.4549 64.87927L162.4549 64.87927L163.9767 63.86377L163.9767 63.86377L165.4985 62.84791L165.4985 62.84791L167.0203 61.8339L167.0203 61.8339L168.5422 60.82372L168.5422 60.82372L170.064 59.81913L170.064 59.81913L171.5858 58.82169L171.5858 58.82169L173.1076 57.83273L173.1076 57.83273L174.6294 56.85337L174.6294 56.85337L176.1512 55.88448L176.1512 55.88448L177.6731 54.92673L177.6731 54.92673L179.1949 53.98057L179.1949 53.98057L180.7167 53.04625L180.7167 53.04625L182.2385 52.12381L182.2385 52.12381L183.7603 51.21309L183.7603 51.21309L185.2822 50.31377L185.2822 50.31377L186.804 49.42533L186.804 49.42533L188.3258 48.54713L188.3258 48.54713L189.8476 47.67836L189.8476 47.67836L191.3694 46.8181L191.3694 46.8181L192.8913 45.96532L192.8913 45.96532L194.4131 45.1189L194.4131 45.1189L195.9349 44.27764L195.9349 44.27764L197.4567 43.44029L197.4567 43.44029L198.9785 42.60555L198.9785 42.60555L200.5003 41.77212L200.5003 41.77212L202.0222 40.93869" stroke="#A60628" stroke-width="2" stroke-linecap="square" stroke-linejoin="round" fill="none" />
		</g>
		<g clip-path="url(#12)" >
    <path id=""  transform="matrix(1 0 0 -1 0 151)"  d="M49.84034 40.93869L51.36216 41.84539L51.36216 41.84539L52.88398 42.75087L52.88398 42.75087L54.4058 43.65451L54.4058 43.65451L55.92761 44.5557L55.92761 44.5557L57.44943 45.45379L57.44943 45.45379L58.97125 46.34813L58.97125 46.34813L60.49307 47.23806L60.49307 47.23806L62.01488 48.12291L62.01488 48.12291L63.53671 49.00197L63.53671 49.00197L65.05853 49.87454L65.05853 49.87454L66.58034 50.73989L66.58034 50.73989L68.10216 51.59728L68.10216 51.59728L69.62398 52.44593L69.62398 52.44593L71.1458 53.28506L71.1458 53.28506L72.66762 54.11388L72.66762 54.11388L74.18943 54.93157L74.18943 54.93157L75.71125 55.73728L75.71125 55.73728L77.23307 56.53019L77.23307 56.53019L78.75488 57.30941L78.75488 57.30941L80.2767 58.07409L80.2767 58.07409L81.79852 58.82333L81.79852 58.82333L83.32034 59.55627L83.32034 59.55627L84.84216 60.27199L84.84216 60.27199L86.36398 60.96961L86.36398 60.96961L87.8858 61.64823L87.8858 61.64823L89.40762 62.30698L89.40762 62.30698L90.92944 62.94495L90.92944 62.94495L92.45125 63.5613L92.45125 63.5613L93.97307 64.15516L93.97307 64.15516L95.49489 64.72569L95.49489 64.72569L97.01671 65.27207L97.01671 65.27207L98.53852 65.79352L98.53852 65.79352L100.0603 66.28926L100.0603 66.28926L101.5822 66.75856L101.5822 66.75856L103.104 67.20072L103.104 67.20072L104.6258 67.61507L104.6258 67.61507L106.1476 68.001L106.1476 68.001L107.6694 68.35791L107.6694 68.35791L109.1913 68.68528L109.1913 68.68528L110.7131 68.98262L110.7131 68.98262L112.2349 69.24949L112.2349 69.24949L113.7567 69.4855L113.7567 69.4855L115.2785 69.69033L115.2785 69.69033L116.8003 69.86369L116.8003 69.86369L118.3222 70.00538L118.3222 70.00538L119.844 70.11523L119.844 70.11523L121.3658 70.19313L121.3658 70.19313L122.8876 70.23904L122.8876 70.23904L124.4094 70.25298L124.4094 70.25298L125.9313 70.23502L125.9313 70.23502L127.4531 70.18527L127.4531 70.18527L128.9749 70.10394L128.9749 70.10394L130.4967 69.99126L130.4967 69.99126L132.0185 69.84752L132.0185 69.84752L133.5403 69.67308L133.5403 69.67308L135.0622 69.46833L135.0622 69.46833L136.584 69.23371L136.584 69.23371L138.1058 68.96973L138.1058 68.96973L139.6276 68.67692L139.6276 68.67692L141.1494 68.35585L141.1494 68.35585L142.6712 68.00713L142.6712 68.00713L144.1931 67.63143L144.1931 67.63143L145.7149 67.22942L145.7149 67.22942L147.2367 66.80181L147.2367 66.80181L148.7585 66.34934L148.7585 66.34934L150.2803 65.87276L150.2803 65.87276L151.8022 65.37287L151.8022 65.37287L153.324 64.85044L153.324 64.85044L154.8458 64.30629L154.8458 64.30629L156.3676 63.74124L156.3676 63.74124L157.8894 63.15611L157.8894 63.15611L159.4113 62.55173L159.4113 62.55173L160.9331 61.92894L160.9331 61.92894L162.4549 61.28855L162.4549 61.28855L163.9767 60.6314L163.9767 60.6314L165.4985 59.95831L165.4985 59.95831L167.0203 59.27009L167.0203 59.27009L168.5422 58.56754L168.5422 58.56754L170.064 57.85146L170.064 57.85146L171.5858 57.12263L171.5858 57.12263L173.1076 56.38181L173.1076 56.38181L174.6294 55.62975L174.6294 55.62975L176.1512 54.86719L176.1512 54.86719L177.6731 54.09485L177.6731 54.09485L179.1949 53.31344L179.1949 53.31344L180.7167 52.52364L180.7167 52.52364L182.2385 51.72613L182.2385 51.72613L183.7603 50.92157L183.7603 50.92157L185.2822 50.11059L185.2822 50.11059L186.804 49.29383L186.804 49.29383L188.3258 48.4719L188.3258 48.4719L189.8476 47.6454L189.8476 47.6454L191.3694 46.81494L191.3694 46.81494L192.8913 45.98109L192.8913 45.98109L194.4131 45.14442L194.4131 45.14442L195.9349 44.30552L195.9349 44.30552L197.4567 43.46493L197.4567 43.46493L198.9785 42.62322L198.9785 42.62322L200.5003 41.78096L200.5003 41.78096L202.0222 40.93869" stroke="#7A68A6" stroke-width="2" stroke-linecap="square" stroke-linejoin="round" fill="none" />
		</g>
		<g clip-path="url(#13)" >
    <path id=""  transform="matrix(1 0 0 -1 0 151)"  d="M49.84034 40.93869L51.36216 41.66849L51.36216 41.66849L52.88398 42.39688L52.88398 42.39688L54.4058 43.12316L54.4058 43.12316L55.92761 43.84663L55.92761 43.84663L57.44943 44.56658L57.44943 44.56658L58.97125 45.28233L58.97125 45.28233L60.49307 45.99317L60.49307 45.99317L62.01488 46.69843L62.01488 46.69843L63.53671 47.39742L63.53671 47.39742L65.05853 48.08945L65.05853 48.08945L66.58034 48.77386L66.58034 48.77386L68.10216 49.44997L68.10216 49.44997L69.62398 50.11713L69.62398 50.11713L71.1458 50.77468L71.1458 50.77468L72.66762 51.42197L72.66762 51.42197L74.18943 52.05836L74.18943 52.05836L75.71125 52.68324L75.71125 52.68324L77.23307 53.29597L77.23307 53.29597L78.75488 53.89596L78.75488 53.89596L80.2767 54.4826L80.2767 54.4826L81.79852 55.05531L81.79852 55.05531L83.32034 55.61352L83.32034 55.61352L84.84216 56.15667L84.84216 56.15667L86.36398 56.68422L86.36398 56.68422L87.8858 57.19563L87.8858 57.19563L89.40762 57.69039L89.40762 57.69039L90.92944 58.16801L90.92944 58.16801L92.45125 58.62801L92.45125 58.62801L93.97307 59.06993L93.97307 59.06993L95.49489 59.49331L95.49489 59.49331L97.01671 59.89775L97.01671 59.89775L98.53852 60.28282L98.53852 60.28282L100.0603 60.64816L100.0603 60.64816L101.5822 60.99339L101.5822 60.99339L103.104 61.31818L103.104 61.31818L104.6258 61.62221L104.6258 61.62221L106.1476 61.90517L106.1476 61.90517L107.6694 62.16681L107.6694 62.16681L109.1913 62.40687L109.1913 62.40687L110.7131 62.62513L110.7131 62.62513L112.2349 62.82138L112.2349 62.82138L113.7567 62.99545L113.7567 62.99545L115.2785 63.14718L115.2785 63.14718L116.8003 63.27646L116.8003 63.27646L118.3222 63.38318L118.3222 63.38318L119.844 63.46727L119.844 63.46727L121.3658 63.52868L121.3658 63.52868L122.8876 63.56738L122.8876 63.56738L124.4094 63.58338L124.4094 63.58338L125.9313 63.57669L125.9313 63.57669L127.4531 63.54739L127.4531 63.54739L128.9749 63.49553L128.9749 63.49553L130.4967 63.42122L130.4967 63.42122L132.0185 63.32458L132.0185 63.32458L133.5403 63.20577L133.5403 63.20577L135.0622 63.06496L135.0622 63.06496L136.584 62.90234L136.584 62.90234L138.1058 62.71814L138.1058 62.71814L139.6276 62.5126L139.6276 62.5126L141.1494 62.28597L141.1494 62.28597L142.6712 62.03854L142.6712 62.03854L144.1931 61.77063L144.1931 61.77063L145.7149 61.48254L145.7149 61.48254L147.2367 61.17463L147.2367 61.17463L148.7585 60.84726L148.7585 60.84726L150.2803 60.50081L150.2803 60.50081L151.8022 60.13568L151.8022 60.13568L153.324 59.75228L153.324 59.75228L154.8458 59.35104L154.8458 59.35104L156.3676 58.93241L156.3676 58.93241L157.8894 58.49685L157.8894 58.49685L159.4113 58.04483L159.4113 58.04483L160.9331 57.57684L160.9331 57.57684L162.4549 57.09339L162.4549 57.09339L163.9767 56.59497L163.9767 56.59497L165.4985 56.08212L165.4985 56.08212L167.0203 55.55536L167.0203 55.55536L168.5422 55.01525L168.5422 55.01525L170.064 54.46232L170.064 54.46232L171.5858 53.89715L171.5858 53.89715L173.1076 53.3203L173.1076 53.3203L174.6294 52.73235L174.6294 52.73235L176.1512 52.13387L176.1512 52.13387L177.6731 51.52547L177.6731 51.52547L179.1949 50.90772L179.1949 50.90772L180.7167 50.28125L180.7167 50.28125L182.2385 49.64664L182.2385 49.64664L183.7603 49.00452L183.7603 49.00452L185.2822 48.35548L185.2822 48.35548L186.804 47.70016L186.804 47.70016L188.3258 47.03917L188.3258 47.03917L189.8476 46.37314L189.8476 46.37314L191.3694 45.70268L191.3694 45.70268L192.8913 45.02844L192.8913 45.02844L194.4131 44.35103L194.4131 44.35103L195.9349 43.6711L195.9349 43.6711L197.4567 42.98926L197.4567 42.98926L198.9785 42.30616L198.9785 42.30616L200.5003 41.62243L200.5003 41.62243L202.0222 40.93869" stroke="#467821" stroke-width="2" stroke-linecap="square" stroke-linejoin="round" fill="none" />
		</g>
		<g clip-path="url(#14)" >
    <path id=""  transform="matrix(1 0 0 -1 0 151)"  d="M49.84034 40.93869L51.36216 41.50908L51.36216 41.50908L52.88398 42.07832L52.88398 42.07832L54.4058 42.64587L54.4058 42.64587L55.92761 43.21116L55.92761 43.21116L57.44943 43.77363L57.44943 43.77363L58.97125 44.33272L58.97125 44.33272L60.49307 44.88789L60.49307 44.88789L62.01488 45.43857L62.01488 45.43857L63.53671 45.98424L63.53671 45.98424L65.05853 46.52435L65.05853 46.52435L66.58034 47.05836L66.58034 47.05836L68.10216 47.58577L68.10216 47.58577L69.62398 48.10604L69.62398 48.10604L71.1458 48.61868L71.1458 48.61868L72.66762 49.12316L72.66762 49.12316L74.18943 49.61901L74.18943 49.61901L75.71125 50.10573L75.71125 50.10573L77.23307 50.58286L77.23307 50.58286L78.75488 51.04992L78.75488 51.04992L80.2767 51.50646L80.2767 51.50646L81.79852 51.95205L81.79852 51.95205L83.32034 52.38624L83.32034 52.38624L84.84216 52.80862L84.84216 52.80862L86.36398 53.21877L86.36398 53.21877L87.8858 53.61631L87.8858 53.61631L89.40762 54.00085L89.40762 54.00085L90.92944 54.37202L90.92944 54.37202L92.45125 54.72948L92.45125 54.72948L93.97307 55.07286L93.97307 55.07286L95.49489 55.40186L95.49489 55.40186L97.01671 55.71617L97.01671 55.71617L98.53852 56.01547L98.53852 56.01547L100.0603 56.2995L100.0603 56.2995L101.5822 56.56799L101.5822 56.56799L103.104 56.82069L103.104 56.82069L104.6258 57.05737L104.6258 57.05737L106.1476 57.27781L106.1476 57.27781L107.6694 57.48182L107.6694 57.48182L109.1913 57.6692L109.1913 57.6692L110.7131 57.83981L110.7131 57.83981L112.2349 57.99348L112.2349 57.99348L113.7567 58.13009L113.7567 58.13009L115.2785 58.24952L115.2785 58.24952L116.8003 58.35168L116.8003 58.35168L118.3222 58.4365L118.3222 58.4365L119.844 58.50391L119.844 58.50391L121.3658 58.55386L121.3658 58.55386L122.8876 58.58633L122.8876 58.58633L124.4094 58.60131L124.4094 58.60131L125.9313 58.59883L125.9313 58.59883L127.4531 58.57889L127.4531 58.57889L128.9749 58.54155L128.9749 58.54155L130.4967 58.48686L130.4967 58.48686L132.0185 58.41492L132.0185 58.41492L133.5403 58.32581L133.5403 58.32581L135.0622 58.21964L135.0622 58.21964L136.584 58.09655L136.584 58.09655L138.1058 57.95669L138.1058 57.95669L139.6276 57.80022L139.6276 57.80022L141.1494 57.62731L141.1494 57.62731L142.6712 57.43816L142.6712 57.43816L144.1931 57.23298L144.1931 57.23298L145.7149 57.012L145.7149 57.012L147.2367 56.77547L147.2367 56.77547L148.7585 56.52362L148.7585 56.52362L150.2803 56.25675L150.2803 56.25675L151.8022 55.97512L151.8022 55.97512L153.324 55.67904L153.324 55.67904L154.8458 55.36883L154.8458 55.36883L156.3676 55.0448L156.3676 55.0448L157.8894 54.70729L157.8894 54.70729L159.4113 54.35666L159.4113 54.35666L160.9331 53.99326L160.9331 53.99326L162.4549 53.61747L162.4549 53.61747L163.9767 53.22968L163.9767 53.22968L165.4985 52.83028L165.4985 52.83028L167.0203 52.41967L167.0203 52.41967L168.5422 51.99829L168.5422 51.99829L170.064 51.56654L170.064 51.56654L171.5858 51.12486L171.5858 51.12486L173.1076 50.6737L173.1076 50.6737L174.6294 50.21351L174.6294 50.21351L176.1512 49.74475L176.1512 49.74475L177.6731 49.26789L177.6731 49.26789L179.1949 48.7834L179.1949 48.7834L180.7167 48.29176L180.7167 48.29176L182.2385 47.79346L182.2385 47.79346L183.7603 47.28898L183.7603 47.28898L185.2822 46.77884L185.2822 46.77884L186.804 46.26352L186.804 46.26352L188.3258 45.74353L188.3258 45.74353L189.8476 45.21939L189.8476 45.21939L191.3694 44.69161L191.3694 44.69161L192.8913 44.1607L192.8913 44.1607L194.4131 43.62719L194.4131 43.62719L195.9349 43.09158L195.9349 43.09158L197.4567 42.5544L197.4567 42.5544L198.9785 42.01618L198.9785 42.01618L200.5003 41.47744L200.5003 41.47744L202.0222 40.93869" stroke="#D55E00" stroke-width="2" stroke-linecap="square" stroke-linejoin="round" fill="none" />
		</g>
    <path id=""  transform="matrix(1 0 0 -1 0 151)"  d="M42.23125 35.99688L42.23125 144.7169" stroke="#BCBCBC" stroke-width="0.8" stroke-linecap="square" stroke-linejoin="miter" fill="none" />
    <path id=""  transform="matrix(1 0 0 -1 0 151)"  d="M209.6313 35.99688L209.6313 144.7169" stroke="#BCBCBC" stroke-width="0.8" stroke-linecap="square" stroke-linejoin="miter" fill="none" />
    <path id=""  transform="matrix(1 0 0 -1 0 151)"  d="M42.23125 35.99688L209.6313 35.99688" stroke="#BCBCBC" stroke-width="0.8" stroke-linecap="square" stroke-linejoin="miter" fill="none" />
    <path id=""  transform="matrix(1 0 0 -1 0 151)"  d="M42.23125 144.7169L209.6313 144.7169" stroke="#BCBCBC" stroke-width="0.8" stroke-linecap="square" stroke-linejoin="miter" fill="none" />
    <path id=""  transform="matrix(1 0 0 -1 0 151)"  d="M216.6313 52.17719L283.1938 52.17719C 284.5271 52.17719 285.1938 52.84385 285.1938 54.17719L285.1938 54.17719L285.1938 126.5366C 285.1938 127.8699 284.5271 128.5366 283.1938 128.5366L283.1938 128.5366L216.6313 128.5366C 215.2979 128.5366 214.6313 127.8699 214.6313 126.5366L214.6313 126.5366L214.6313 54.17719C 214.6313 52.84385 215.2979 52.17719 216.6313 52.17719z" stroke="#CCCCCC" stroke-width="0.5" stroke-linejoin="miter" fill="#EEEEEE" fill-rule="nonzero" fill-opacity="0.8" />
    <path id=""  transform="matrix(1 0 0 -1 0 151)"  d="M218.6313 120.4428L238.6313 120.4428" stroke="#348ABD" stroke-width="2" stroke-linecap="square" stroke-linejoin="round" fill="none" />
    <path id=""  transform="matrix(1 0 0 -1 0 151)"  d="M248.4613 123.9628L248.4613 122.4128L248.4613 122.4128L250.3112 122.4128L250.3112 122.4128L250.3112 121.7128L250.3112 121.7128L248.4613 121.7128L248.4613 121.7128L248.4613 118.7428C 248.4613 118.2928 248.5213 118.0028 248.6413 117.8828C 248.7613 117.7528 249.0113 117.6928 249.3913 117.6928L249.3913 117.6928L250.3112 117.6928L250.3112 117.6928L250.3112 116.9428L250.3112 116.9428L249.3913 116.9428C 248.6913 116.9428 248.2113 117.0728 247.9513 117.3328C 247.6913 117.5928 247.5612 118.0628 247.5612 118.7428L247.5612 118.7428L247.5612 121.7128L247.5612 121.7128L246.9013 121.7128L246.9013 121.7128L246.9013 122.4128L246.9013 122.4128L247.5612 122.4128L247.5612 122.4128L247.5612 123.9628L247.5612 123.9628L248.4613 123.9628" stroke="none" fill="#000000" fill-rule="nonzero" />
    <path id=""  transform="matrix(1 0 0 -1 0 151)"  d="M251.6113 119.4928L257.8712 119.4928L257.8712 119.4928L257.8712 118.6628L257.8712 118.6628L251.6113 118.6628L251.6113 118.6628L251.6113 119.4928M251.6113 121.4828L257.8712 121.4828L257.8712 121.4828L257.8712 120.6628L257.8712 120.6628L251.6113 120.6628L251.6113 120.6628L251.6113 121.4828" stroke="none" fill="#000000" fill-rule="nonzero" />
    <path id=""  transform="matrix(1 0 0 -1 0 151)"  d="M262.1112 124.3628C 262.9212 124.3628 263.5412 124.0328 263.9812 123.3928C 264.4113 122.7428 264.6313 121.8028 264.6313 120.5828C 264.6313 119.3528 264.4113 118.4128 263.9812 117.7728C 263.5412 117.1328 262.9212 116.8128 262.1112 116.8128C 261.2912 116.8128 260.6613 117.1328 260.2312 117.7728C 259.8012 118.4128 259.5912 119.3528 259.5912 120.5828C 259.5912 121.8028 259.8012 122.7428 260.2312 123.3928C 260.6613 124.0328 261.2912 124.3628 262.1112 124.3628M262.1112 123.5828C 261.6013 123.5828 261.2213 123.3328 260.9612 122.8328C 260.7012 122.3328 260.5812 121.5828 260.5812 120.5828C 260.5812 119.5828 260.7012 118.8328 260.9612 118.3328C 261.2213 117.8328 261.6013 117.5828 262.1112 117.5828C 262.6212 117.5828 263.0013 117.8328 263.2612 118.3328C 263.5112 118.8328 263.6412 119.5828 263.6412 120.5828C 263.6412 121.5828 263.5112 122.3328 263.2612 122.8328C 263.0013 123.3328 262.6212 123.5828 262.1112 123.5828" stroke="none" fill="#000000" fill-rule="nonzero" />
    <path id=""  transform="matrix(1 0 0 -1 0 151)"  d="M266.3613 118.1828L267.3913 118.1828L267.3913 118.1828L267.3913 116.9428L267.3913 116.9428L266.3613 116.9428L266.3613 116.9428L266.3613 118.1828" stroke="none" fill="#000000" fill-rule="nonzero" />
    <path id=""  transform="matrix(1 0 0 -1 0 151)"  d="M271.6512 124.3628C 272.4612 124.3628 273.0812 124.0328 273.5212 123.3928C 273.9513 122.7428 274.1713 121.8028 274.1713 120.5828C 274.1713 119.3528 273.9513 118.4128 273.5212 117.7728C 273.0812 117.1328 272.4612 116.8128 271.6512 116.8128C 270.8312 116.8128 270.2013 117.1328 269.7712 117.7728C 269.3412 118.4128 269.1313 119.3528 269.1313 120.5828C 269.1313 121.8028 269.3412 122.7428 269.7712 123.3928C 270.2013 124.0328 270.8312 124.3628 271.6512 124.3628M271.6512 123.5828C 271.1413 123.5828 270.7613 123.3328 270.5013 122.8328C 270.2412 122.3328 270.1212 121.5828 270.1212 120.5828C 270.1212 119.5828 270.2412 118.8328 270.5013 118.3328C 270.7613 117.8328 271.1413 117.5828 271.6512 117.5828C 272.1613 117.5828 272.5413 117.8328 272.8012 118.3328C 273.0512 118.8328 273.1812 119.5828 273.1812 120.5828C 273.1812 121.5828 273.0512 122.3328 272.8012 122.8328C 272.5413 123.3328 272.1613 123.5828 271.6512 123.5828" stroke="none" fill="#000000" fill-rule="nonzero" />
    <path id=""  transform="matrix(1 0 0 -1 0 151)"  d="M218.6313 105.7709L238.6313 105.7709" stroke="#A60628" stroke-width="2" stroke-linecap="square" stroke-linejoin="round" fill="none" />
    <path id=""  transform="matrix(1 0 0 -1 0 151)"  d="M248.4613 109.2909L248.4613 107.7409L248.4613 107.7409L250.3112 107.7409L250.3112 107.7409L250.3112 107.0409L250.3112 107.0409L248.4613 107.0409L248.4613 107.0409L248.4613 104.0709C 248.4613 103.6209 248.5213 103.3309 248.6413 103.2109C 248.7613 103.0809 249.0113 103.0209 249.3913 103.0209L249.3913 103.0209L250.3112 103.0209L250.3112 103.0209L250.3112 102.2709L250.3112 102.2709L249.3913 102.2709C 248.6913 102.2709 248.2113 102.4009 247.9513 102.6609C 247.6913 102.9209 247.5612 103.3909 247.5612 104.0709L247.5612 104.0709L247.5612 107.0409L247.5612 107.0409L246.9013 107.0409L246.9013 107.0409L246.9013 107.7409L246.9013 107.7409L247.5612 107.7409L247.5612 107.7409L247.5612 109.2909L247.5612 109.2909L248.4613 109.2909" stroke="none" fill="#000000" fill-rule="nonzero" />
    <path id=""  transform="matrix(1 0 0 -1 0 151)"  d="M251.6113 104.8209L257.8712 104.8209L257.8712 104.8209L257.8712 103.9909L257.8712 103.9909L251.6113 103.9909L251.6113 103.9909L251.6113 104.8209M251.6113 106.8109L257.8712 106.8109L257.8712 106.8109L257.8712 105.9909L257.8712 105.9909L251.6113 105.9909L251.6113 105.9909L251.6113 106.8109" stroke="none" fill="#000000" fill-rule="nonzero" />
    <path id=""  transform="matrix(1 0 0 -1 0 151)"  d="M260.8513 103.1009L264.2913 103.1009L264.2913 103.1009L264.2913 102.2709L264.2913 102.2709L259.6613 102.2709L259.6613 102.2709L259.6613 103.1009C 260.0313 103.4809 260.5412 104.0009 261.1913 104.6609C 261.8312 105.3109 262.2412 105.7309 262.4113 105.9209C 262.7312 106.2709 262.9512 106.5709 263.0713 106.8209C 263.1913 107.0609 263.2612 107.3109 263.2612 107.5509C 263.2612 107.9309 263.1212 108.2509 262.8513 108.4909C 262.5812 108.7309 262.2312 108.8609 261.7912 108.8609C 261.4812 108.8609 261.1512 108.8009 260.8112 108.7009C 260.4713 108.5909 260.1013 108.4309 259.7112 108.2109L259.7112 108.2109L259.7112 109.2109C 260.1112 109.3709 260.4812 109.4909 260.8213 109.5709C 261.1613 109.6509 261.4812 109.6909 261.7712 109.6909C 262.5212 109.6909 263.1212 109.5009 263.5713 109.1209C 264.0212 108.7409 264.2513 108.2409 264.2513 107.6109C 264.2513 107.3109 264.1913 107.0209 264.0812 106.7609C 263.9713 106.4909 263.7712 106.1709 263.4713 105.8109C 263.3912 105.7109 263.1313 105.4409 262.6913 104.9909C 262.2513 104.5409 261.6412 103.9109 260.8513 103.1009" stroke="none" fill="#000000" fill-rule="nonzero" />
    <path id=""  transform="matrix(1 0 0 -1 0 151)"  d="M266.3613 103.5109L267.3913 103.5109L267.3913 103.5109L267.3913 102.2709L267.3913 102.2709L266.3613 102.2709L266.3613 102.2709L266.3613 103.5109" stroke="none" fill="#000000" fill-rule="nonzero" />
    <path id=""  transform="matrix(1 0 0 -1 0 151)"  d="M269.5512 109.5609L273.4213 109.5609L273.4213 109.5609L273.4213 108.7309L273.4213 108.7309L270.4513 108.7309L270.4513 108.7309L270.4513 106.9409C 270.5912 106.9909 270.7412 107.0309 270.8813 107.0509C 271.0212 107.0709 271.1713 107.0909 271.3112 107.0909C 272.1212 107.0909 272.7613 106.8609 273.2412 106.4209C 273.7213 105.9709 273.9612 105.3709 273.9612 104.6109C 273.9612 103.8209 273.7112 103.2109 273.2213 102.7809C 272.7313 102.3509 272.0413 102.1409 271.1613 102.1409C 270.8513 102.1409 270.5413 102.1709 270.2213 102.2109C 269.9012 102.2609 269.5812 102.3309 269.2412 102.4409L269.2412 102.4409L269.2412 103.4309C 269.5313 103.2709 269.8312 103.1509 270.1512 103.0709C 270.4612 102.9909 270.7913 102.9609 271.1413 102.9609C 271.7013 102.9609 272.1512 103.1009 272.4813 103.4009C 272.8012 103.7009 272.9713 104.1009 272.9713 104.6109C 272.9713 105.1109 272.8012 105.5109 272.4813 105.8109C 272.1512 106.1109 271.7013 106.2609 271.1413 106.2609C 270.8813 106.2609 270.6113 106.2309 270.3513 106.1709C 270.0912 106.1109 269.8213 106.0209 269.5512 105.9009L269.5512 105.9009L269.5512 109.5609" stroke="none" fill="#000000" fill-rule="nonzero" />
    <path id=""  transform="matrix(1 0 0 -1 0 151)"  d="M218.6313 91.09906L238.6313 91.09906" stroke="#7A68A6" stroke-width="2" stroke-linecap="square" stroke-linejoin="round" fill="none" />
    <path id=""  transform="matrix(1 0 0 -1 0 151)"  d="M248.4613 94.61906L248.4613 93.06906L248.4613 93.06906L250.3112 93.06906L250.3112 93.06906L250.3112 92.36906L250.3112 92.36906L248.4613 92.36906L248.4613 92.36906L248.4613 89.39906C 248.4613 88.94906 248.5213 88.65906 248.6413 88.53906C 248.7613 88.40906 249.0113 88.34906 249.3913 88.34906L249.3913 88.34906L250.3112 88.34906L250.3112 88.34906L250.3112 87.59906L250.3112 87.59906L249.3913 87.59906C 248.6913 87.59906 248.2113 87.72906 247.9513 87.98906C 247.6913 88.24906 247.5612 88.71906 247.5612 89.39906L247.5612 89.39906L247.5612 92.36906L247.5612 92.36906L246.9013 92.36906L246.9013 92.36906L246.9013 93.06906L246.9013 93.06906L247.5612 93.06906L247.5612 93.06906L247.5612 94.61906L247.5612 94.61906L248.4613 94.61906" stroke="none" fill="#000000" fill-rule="nonzero" />
    <path id=""  transform="matrix(1 0 0 -1 0 151)"  d="M251.6113 90.14906L257.8712 90.14906L257.8712 90.14906L257.8712 89.31906L257.8712 89.31906L251.6113 89.31906L251.6113 89.31906L251.6113 90.14906M251.6113 92.13906L257.8712 92.13906L257.8712 92.13906L257.8712 91.31906L257.8712 91.31906L251.6113 91.31906L251.6113 91.31906L251.6113 92.13906" stroke="none" fill="#000000" fill-rule="nonzero" />
    <path id=""  transform="matrix(1 0 0 -1 0 151)"  d="M260.0112 94.88906L263.8813 94.88906L263.8813 94.88906L263.8813 94.05906L263.8813 94.05906L260.9113 94.05906L260.9113 94.05906L260.9113 92.26906C 261.0512 92.31906 261.2012 92.35906 261.3412 92.37906C 261.4812 92.39906 261.6313 92.41906 261.7712 92.41906C 262.5812 92.41906 263.2213 92.18906 263.7012 91.74906C 264.1812 91.29906 264.4212 90.69906 264.4212 89.93906C 264.4212 89.14906 264.1712 88.53906 263.6812 88.10906C 263.1913 87.67906 262.5013 87.46906 261.6212 87.46906C 261.3112 87.46906 261.0013 87.49906 260.6812 87.53906C 260.3612 87.58906 260.0412 87.65906 259.7012 87.76906L259.7012 87.76906L259.7012 88.75906C 259.9912 88.59906 260.2912 88.47906 260.6112 88.39906C 260.9212 88.31906 261.2513 88.28906 261.6013 88.28906C 262.1613 88.28906 262.6112 88.42906 262.9413 88.72906C 263.2612 89.02906 263.4312 89.42906 263.4312 89.93906C 263.4312 90.43906 263.2612 90.83906 262.9413 91.13906C 262.6112 91.43906 262.1613 91.58906 261.6013 91.58906C 261.3412 91.58906 261.0713 91.55906 260.8112 91.49906C 260.5512 91.43906 260.2813 91.34906 260.0112 91.22906L260.0112 91.22906L260.0112 94.88906" stroke="none" fill="#000000" fill-rule="nonzero" />
    <path id=""  transform="matrix(1 0 0 -1 0 151)"  d="M266.3613 88.83906L267.3913 88.83906L267.3913 88.83906L267.3913 87.59906L267.3913 87.59906L266.3613 87.59906L266.3613 87.59906L266.3613 88.83906" stroke="none" fill="#000000" fill-rule="nonzero" />
    <path id=""  transform="matrix(1 0 0 -1 0 151)"  d="M271.6512 95.01906C 272.4612 95.01906 273.0812 94.68906 273.5212 94.04906C 273.9513 93.39906 274.1713 92.45906 274.1713 91.23906C 274.1713 90.00906 273.9513 89.06906 273.5212 88.42906C 273.0812 87.78906 272.4612 87.46906 271.6512 87.46906C 270.8312 87.46906 270.2013 87.78906 269.7712 88.42906C 269.3412 89.06906 269.1313 90.00906 269.1313 91.23906C 269.1313 92.45906 269.3412 93.39906 269.7712 94.04906C 270.2013 94.68906 270.8312 95.01906 271.6512 95.01906M271.6512 94.23906C 271.1413 94.23906 270.7613 93.98906 270.5013 93.48906C 270.2412 92.98906 270.1212 92.23906 270.1212 91.23906C 270.1212 90.23906 270.2412 89.48906 270.5013 88.98906C 270.7613 88.48906 271.1413 88.23906 271.6512 88.23906C 272.1613 88.23906 272.5413 88.48906 272.8012 88.98906C 273.0512 89.48906 273.1812 90.23906 273.1812 91.23906C 273.1812 92.23906 273.0512 92.98906 272.8012 93.48906C 272.5413 93.98906 272.1613 94.23906 271.6512 94.23906" stroke="none" fill="#000000" fill-rule="nonzero" />
    <path id=""  transform="matrix(1 0 0 -1 0 151)"  d="M218.6313 76.42719L238.6313 76.42719" stroke="#467821" stroke-width="2" stroke-linecap="square" stroke-linejoin="round" fill="none" />
    <path id=""  transform="matrix(1 0 0 -1 0 151)"  d="M248.4613 79.94719L248.4613 78.39719L248.4613 78.39719L250.3112 78.39719L250.3112 78.39719L250.3112 77.69719L250.3112 77.69719L248.4613 77.69719L248.4613 77.69719L248.4613 74.72719C 248.4613 74.27718 248.5213 73.98718 248.6413 73.86719C 248.7613 73.73718 249.0113 73.67719 249.3913 73.67719L249.3913 73.67719L250.3112 73.67719L250.3112 73.67719L250.3112 72.92719L250.3112 72.92719L249.3913 72.92719C 248.6913 72.92719 248.2113 73.05718 247.9513 73.31718C 247.6913 73.57719 247.5612 74.04719 247.5612 74.72719L247.5612 74.72719L247.5612 77.69719L247.5612 77.69719L246.9013 77.69719L246.9013 77.69719L246.9013 78.39719L246.9013 78.39719L247.5612 78.39719L247.5612 78.39719L247.5612 79.94719L247.5612 79.94719L248.4613 79.94719" stroke="none" fill="#000000" fill-rule="nonzero" />
    <path id=""  transform="matrix(1 0 0 -1 0 151)"  d="M251.6113 75.47719L257.8712 75.47719L257.8712 75.47719L257.8712 74.64719L257.8712 74.64719L251.6113 74.64719L251.6113 74.64719L251.6113 75.47719M251.6113 77.46719L257.8712 77.46719L257.8712 77.46719L257.8712 76.64719L257.8712 76.64719L251.6113 76.64719L251.6113 76.64719L251.6113 77.46719" stroke="none" fill="#000000" fill-rule="nonzero" />
    <path id=""  transform="matrix(1 0 0 -1 0 151)"  d="M259.7513 80.21719L264.4413 80.21719L264.4413 80.21719L264.4413 79.79719L264.4413 79.79719L261.7912 72.92719L261.7912 72.92719L260.7612 72.92719L260.7612 72.92719L263.2513 79.38718L263.2513 79.38718L259.7513 79.38718L259.7513 79.38718L259.7513 80.21719" stroke="none" fill="#000000" fill-rule="nonzero" />
    <path id=""  transform="matrix(1 0 0 -1 0 151)"  d="M266.3613 74.16718L267.3913 74.16718L267.3913 74.16718L267.3913 72.92719L267.3913 72.92719L266.3613 72.92719L266.3613 72.92719L266.3613 74.16718" stroke="none" fill="#000000" fill-rule="nonzero" />
    <path id=""  transform="matrix(1 0 0 -1 0 151)"  d="M269.5512 80.21719L273.4213 80.21719L273.4213 80.21719L273.4213 79.38718L273.4213 79.38718L270.4513 79.38718L270.4513 79.38718L270.4513 77.59718C 270.5912 77.64719 270.7412 77.68719 270.8813 77.70718C 271.0212 77.72719 271.1713 77.74718 271.3112 77.74718C 272.1212 77.74718 272.7613 77.51718 273.2412 77.07719C 273.7213 76.62718 273.9612 76.02718 273.9612 75.26718C 273.9612 74.47719 273.7112 73.86719 273.2213 73.43719C 272.7313 73.00719 272.0413 72.79719 271.1613 72.79719C 270.8513 72.79719 270.5413 72.82719 270.2213 72.86719C 269.9012 72.91718 269.5812 72.98718 269.2412 73.09718L269.2412 73.09718L269.2412 74.08719C 269.5313 73.92719 269.8312 73.80718 270.1512 73.72719C 270.4612 73.64719 270.7913 73.61719 271.1413 73.61719C 271.7013 73.61719 272.1512 73.75719 272.4813 74.05718C 272.8012 74.35719 272.9713 74.75719 272.9713 75.26718C 272.9713 75.76718 272.8012 76.16718 272.4813 76.46719C 272.1512 76.76718 271.7013 76.91718 271.1413 76.91718C 270.8813 76.91718 270.6113 76.88718 270.3513 76.82719C 270.0912 76.76718 269.8213 76.67719 269.5512 76.55718L269.5512 76.55718L269.5512 80.21719" stroke="none" fill="#000000" fill-rule="nonzero" />
    <path id=""  transform="matrix(1 0 0 -1 0 151)"  d="M218.6313 61.75531L238.6313 61.75531" stroke="#D55E00" stroke-width="2" stroke-linecap="square" stroke-linejoin="round" fill="none" />
    <path id=""  transform="matrix(1 0 0 -1 0 151)"  d="M248.4613 65.27531L248.4613 63.72532L248.4613 63.72532L250.3112 63.72532L250.3112 63.72532L250.3112 63.02531L250.3112 63.02531L248.4613 63.02531L248.4613 63.02531L248.4613 60.05531C 248.4613 59.60531 248.5213 59.31532 248.6413 59.19531C 248.7613 59.06532 249.0113 59.00531 249.3913 59.00531L249.3913 59.00531L250.3112 59.00531L250.3112 59.00531L250.3112 58.25531L250.3112 58.25531L249.3913 58.25531C 248.6913 58.25531 248.2113 58.38531 247.9513 58.64531C 247.6913 58.90532 247.5612 59.37531 247.5612 60.05531L247.5612 60.05531L247.5612 63.02531L247.5612 63.02531L246.9013 63.02531L246.9013 63.02531L246.9013 63.72532L246.9013 63.72532L247.5612 63.72532L247.5612 63.72532L247.5612 65.27531L247.5612 65.27531L248.4613 65.27531" stroke="none" fill="#000000" fill-rule="nonzero" />
    <path id=""  transform="matrix(1 0 0 -1 0 151)"  d="M251.6113 60.80531L257.8712 60.80531L257.8712 60.80531L257.8712 59.97532L257.8712 59.97532L251.6113 59.97532L251.6113 59.97532L251.6113 60.80531M251.6113 62.79531L257.8712 62.79531L257.8712 62.79531L257.8712 61.97532L257.8712 61.97532L251.6113 61.97532L251.6113 61.97532L251.6113 62.79531" stroke="none" fill="#000000" fill-rule="nonzero" />
    <path id=""  transform="matrix(1 0 0 -1 0 151)"  d="M260.1712 59.08532L261.7813 59.08532L261.7813 59.08532L261.7813 64.64532L261.7813 64.64532L260.0313 64.29531L260.0313 64.29531L260.0313 65.19531L260.0313 65.19531L261.7712 65.54531L261.7712 65.54531L262.7612 65.54531L262.7612 65.54531L262.7612 59.08532L262.7612 59.08532L264.3712 59.08532L264.3712 59.08532L264.3712 58.25531L264.3712 58.25531L260.1712 58.25531L260.1712 58.25531L260.1712 59.08532" stroke="none" fill="#000000" fill-rule="nonzero" />
    <path id=""  transform="matrix(1 0 0 -1 0 151)"  d="M268.4713 65.67532C 269.2813 65.67532 269.9012 65.34531 270.3412 64.70531C 270.7713 64.05531 270.9913 63.11531 270.9913 61.89531C 270.9913 60.66531 270.7713 59.72532 270.3412 59.08532C 269.9012 58.44531 269.2813 58.12531 268.4713 58.12531C 267.6512 58.12531 267.0213 58.44531 266.5912 59.08532C 266.1613 59.72532 265.9513 60.66531 265.9513 61.89531C 265.9513 63.11531 266.1613 64.05531 266.5912 64.70531C 267.0213 65.34531 267.6512 65.67532 268.4713 65.67532M268.4713 64.89532C 267.9613 64.89532 267.5813 64.64532 267.3213 64.14532C 267.0612 63.64531 266.9413 62.89531 266.9413 61.89531C 266.9413 60.89531 267.0612 60.14531 267.3213 59.64531C 267.5813 59.14531 267.9613 58.89531 268.4713 58.89531C 268.9813 58.89531 269.3613 59.14531 269.6212 59.64531C 269.8712 60.14531 270.0013 60.89531 270.0013 61.89531C 270.0013 62.89531 269.8712 63.64531 269.6212 64.14532C 269.3613 64.64532 268.9813 64.89532 268.4713 64.89532" stroke="none" fill="#000000" fill-rule="nonzero" />
    <path id=""  transform="matrix(1 0 0 -1 0 151)"  d="M272.7213 59.49532L273.7513 59.49532L273.7513 59.49532L273.7513 58.25531L273.7513 58.25531L272.7213 58.25531L272.7213 58.25531L272.7213 59.49532" stroke="none" fill="#000000" fill-rule="nonzero" />
    <path id=""  transform="matrix(1 0 0 -1 0 151)"  d="M278.0112 65.67532C 278.8212 65.67532 279.4412 65.34531 279.8812 64.70531C 280.3112 64.05531 280.5313 63.11531 280.5313 61.89531C 280.5313 60.66531 280.3112 59.72532 279.8812 59.08532C 279.4412 58.44531 278.8212 58.12531 278.0112 58.12531C 277.1912 58.12531 276.5612 58.44531 276.1312 59.08532C 275.7012 59.72532 275.4912 60.66531 275.4912 61.89531C 275.4912 63.11531 275.7012 64.05531 276.1312 64.70531C 276.5612 65.34531 277.1912 65.67532 278.0112 65.67532M278.0112 64.89532C 277.5013 64.89532 277.1212 64.64532 276.8612 64.14532C 276.6012 63.64531 276.4812 62.89531 276.4812 61.89531C 276.4812 60.89531 276.6012 60.14531 276.8612 59.64531C 277.1212 59.14531 277.5013 58.89531 278.0112 58.89531C 278.5212 58.89531 278.9012 59.14531 279.1612 59.64531C 279.4112 60.14531 279.5412 60.89531 279.5412 61.89531C 279.5412 62.89531 279.4112 63.64531 279.1612 64.14532C 278.9012 64.64532 278.5212 64.89532 278.0112 64.89532" stroke="none" fill="#000000" fill-rule="nonzero" />
	</g>
</g>
</svg>