<?xml version="1.0" standalone="no"?>
<!DOCTYPE svg PUBLIC "-//W3C//DTD SVG 1.0//EN" "http://www.w3.org/TR/2001/REC-SVG-20010904/DTD/svg10.dtd">
<svg xmlns="http://www.w3.org/2000/svg" xmlns:xlink="http://www.w3.org/1999/xlink" id="body_1" width="152" height="152">

<defs>
    <clipPath  id="1">

    <path id=""  clip-rule="evenodd" transform="matrix(1 0 0 1 0 0)"  d="M0 114L0 -0.1829987L0 -0.1829987L114.183 -0.1829987L114.183 -0.1829987L114.183 114L114.183 114L0 114z" />    </clipPath>
</defs>

<g transform="matrix(1.3333 0 0 1.3333 0 0)">
	<g clip-path="url(#1)" >
    <path id=""  transform="matrix(1 0 0 -1 0 114)"  d="M1.814819 71.26439L99.0097 84.5789" stroke="#FF0000" stroke-width="0.79701" stroke-linejoin="miter" fill="#FF0000" fill-rule="nonzero" />
    <path id=""  transform="matrix(1 0 0 -1 0 114)"  d="M104.156 85.28384L96.40356 87.05149L96.40356 87.05149L99.20705 84.60596L99.20705 84.60596L97.16444 81.49664z" stroke="#FF0000" stroke-width="0.7969705" stroke-linejoin="miter" fill="#FF0000" fill-rule="nonzero" />
    <path id=""  transform="matrix(1 0 0 -1 0 114)"  d="M0.3973808 57.091L105.2383 70.46373" stroke="#FF0000" stroke-width="0.79701" stroke-linejoin="miter" fill="#FF0000" fill-rule="nonzero" />
    <path id=""  transform="matrix(1 0 0 -1 0 114)"  d="M110.3911 71.12086L102.6553 72.96043L102.6553 72.96043L105.436 70.48895L105.436 70.48895L103.3645 67.39867z" stroke="#FF0000" stroke-width="0.796981" stroke-linejoin="miter" fill="#FF0000" fill-rule="nonzero" />
    <path id=""  transform="matrix(1 0 0 -1 0 114)"  d="M1.814819 42.91761L106.0508 49.59945" stroke="#FF0000" stroke-width="0.79701" stroke-linejoin="miter" fill="#FF0000" fill-rule="nonzero" />
    <path id=""  transform="matrix(1 0 0 -1 0 114)"  d="M111.2346 49.93169L103.6296 52.2534L103.6296 52.2534L106.2496 49.61219L106.2496 49.61219L103.9883 46.65812z" stroke="#FF0000" stroke-width="0.7969763" stroke-linejoin="miter" fill="#FF0000" fill-rule="nonzero" />
    <path id=""  transform="matrix(1 0 0 -1 0 114)"  d="M113.7846 57.091C 113.7846 88.40242 88.40242 113.7846 57.091 113.7846C 25.77958 113.7846 0.3973694 88.40242 0.3973694 57.091C 0.3973694 25.77958 25.77958 0.3973694 57.091 0.3973694C 88.40242 0.3973694 113.7846 25.77958 113.7846 57.091z" stroke="#000000" stroke-width="0.79701" stroke-linejoin="miter" fill="none" />
	</g>
</g>
</svg>