<?xml version="1.0" standalone="no"?>
<!DOCTYPE svg PUBLIC "-//W3C//DTD SVG 1.0//EN" "http://www.w3.org/TR/2001/REC-SVG-20010904/DTD/svg10.dtd">
<svg xmlns="http://www.w3.org/2000/svg" xmlns:xlink="http://www.w3.org/1999/xlink" id="body_1" width="397" height="201">

<defs>
    <clipPath  id="1">

    <path id=""  clip-rule="evenodd" transform="matrix(1 0 0 1 0 0)"  d="M0 151L0 -0.9168701L0 -0.9168701L298.7531 -0.9168701L298.7531 -0.9168701L298.7531 151L298.7531 151L0 151z" />    </clipPath>
    <clipPath  id="2">

    <path id=""  clip-rule="evenodd" transform="matrix(1 0 0 1 0 0)"  d="M48.59063 115.0031L215.9906 115.0031L215.9906 115.0031L215.9906 6.283127L215.9906 6.283127L48.59063 6.283127z" />    </clipPath>
    <clipPath  id="3">

    <path id=""  clip-rule="evenodd" transform="matrix(1 0 0 1 0 0)"  d="M48.59063 115.0031L215.9906 115.0031L215.9906 115.0031L215.9906 6.283127L215.9906 6.283127L48.59063 6.283127z" />    </clipPath>
    <clipPath  id="4">

    <path id=""  clip-rule="evenodd" transform="matrix(1 0 0 1 0 0)"  d="M48.59063 115.0031L215.9906 115.0031L215.9906 115.0031L215.9906 6.283127L215.9906 6.283127L48.59063 6.283127z" />    </clipPath>
    <clipPath  id="5">

    <path id=""  clip-rule="evenodd" transform="matrix(1 0 0 1 0 0)"  d="M48.59063 115.0031L215.9906 115.0031L215.9906 115.0031L215.9906 6.283127L215.9906 6.283127L48.59063 6.283127z" />    </clipPath>
    <clipPath  id="6">

    <path id=""  clip-rule="evenodd" transform="matrix(1 0 0 1 0 0)"  d="M48.59063 115.0031L215.9906 115.0031L215.9906 115.0031L215.9906 6.283127L215.9906 6.283127L48.59063 6.283127z" />    </clipPath>
    <clipPath  id="7">

    <path id=""  clip-rule="evenodd" transform="matrix(1 0 0 1 0 0)"  d="M48.59063 115.0031L215.9906 115.0031L215.9906 115.0031L215.9906 6.283127L215.9906 6.283127L48.59063 6.283127z" />    </clipPath>
    <clipPath  id="8">

    <path id=""  clip-rule="evenodd" transform="matrix(1 0 0 1 0 0)"  d="M48.59063 115.0031L215.9906 115.0031L215.9906 115.0031L215.9906 6.283127L215.9906 6.283127L48.59063 6.283127z" />    </clipPath>
    <clipPath  id="9">

    <path id=""  clip-rule="evenodd" transform="matrix(1 0 0 1 0 0)"  d="M48.59063 115.0031L215.9906 115.0031L215.9906 115.0031L215.9906 6.283127L215.9906 6.283127L48.59063 6.283127z" />    </clipPath>
    <clipPath  id="10">

    <path id=""  clip-rule="evenodd" transform="matrix(1 0 0 1 0 0)"  d="M48.59063 115.0031L215.9906 115.0031L215.9906 115.0031L215.9906 6.283127L215.9906 6.283127L48.59063 6.283127z" />    </clipPath>
    <clipPath  id="11">

    <path id=""  clip-rule="evenodd" transform="matrix(1 0 0 1 0 0)"  d="M48.59063 115.0031L215.9906 115.0031L215.9906 115.0031L215.9906 6.283127L215.9906 6.283127L48.59063 6.283127z" />    </clipPath>
    <clipPath  id="12">

    <path id=""  clip-rule="evenodd" transform="matrix(1 0 0 1 0 0)"  d="M48.59063 115.0031L215.9906 115.0031L215.9906 115.0031L215.9906 6.283127L215.9906 6.283127L48.59063 6.283127z" />    </clipPath>
    <clipPath  id="13">

    <path id=""  clip-rule="evenodd" transform="matrix(1 0 0 1 0 0)"  d="M48.59063 115.0031L215.9906 115.0031L215.9906 115.0031L215.9906 6.283127L215.9906 6.283127L48.59063 6.283127z" />    </clipPath>
    <clipPath  id="14">

    <path id=""  clip-rule="evenodd" transform="matrix(1 0 0 1 0 0)"  d="M48.59063 115.0031L215.9906 115.0031L215.9906 115.0031L215.9906 6.283127L215.9906 6.283127L48.59063 6.283127z" />    </clipPath>
    <clipPath  id="15">

    <path id=""  clip-rule="evenodd" transform="matrix(1 0 0 1 0 0)"  d="M48.59063 115.0031L215.9906 115.0031L215.9906 115.0031L215.9906 6.283127L215.9906 6.283127L48.59063 6.283127z" />    </clipPath>
    <clipPath  id="16">

    <path id=""  clip-rule="evenodd" transform="matrix(1 0 0 1 0 0)"  d="M48.59063 115.0031L215.9906 115.0031L215.9906 115.0031L215.9906 6.283127L215.9906 6.283127L48.59063 6.283127z" />    </clipPath>
</defs>

<g transform="matrix(1.3333 0 0 1.3333 0 0)">
	<g clip-path="url(#1)" >
    <path id=""  transform="matrix(1 0 0 -1 0 151)"  d="M48.59063 35.99688L215.9906 35.99688L215.9906 35.99688L215.9906 144.7169L215.9906 144.7169L48.59063 144.7169z" stroke="none" fill="#EEEEEE" fill-rule="nonzero" />
		<g clip-path="url(#2)" >
    <path id=""  transform="matrix(1 0 0 -1 0 151)"  d="M56.19971 35.99688L56.19971 144.7169" stroke="#B2B2B2" stroke-width="0.5" stroke-linejoin="round" stroke-dasharray="1.85000002384186,0.800000011920929" fill="none" />
		</g>
    <path id=""  transform="matrix(1 0 0 -1 0 151)"  d="M56.19971 35.99688L56.19971 39.49688" stroke="#000000" stroke-width="0.8" stroke-linejoin="miter" fill="#000000" fill-rule="nonzero" />
    <path id=""  transform="matrix(1 0 0 -1 0 151)"  d="M48.2469 32.32313C 49.0569 32.32313 49.6769 31.99313 50.1169 31.35313C 50.5469 30.70313 50.7669 29.76313 50.7669 28.54313C 50.7669 27.31313 50.5469 26.37313 50.1169 25.73313C 49.6769 25.09313 49.0569 24.77313 48.2469 24.77313C 47.4269 24.77313 46.7969 25.09313 46.3669 25.73313C 45.9369 26.37313 45.7269 27.31313 45.7269 28.54313C 45.7269 29.76313 45.9369 30.70313 46.3669 31.35313C 46.7969 31.99313 47.4269 32.32313 48.2469 32.32313M48.2469 31.54313C 47.7369 31.54313 47.3569 31.29313 47.0969 30.79313C 46.8369 30.29313 46.7169 29.54313 46.7169 28.54313C 46.7169 27.54313 46.8369 26.79313 47.0969 26.29313C 47.3569 25.79313 47.7369 25.54313 48.2469 25.54313C 48.7569 25.54313 49.1369 25.79313 49.3969 26.29313C 49.6469 26.79313 49.7769 27.54313 49.7769 28.54313C 49.7769 29.54313 49.6469 30.29313 49.3969 30.79313C 49.1369 31.29313 48.7569 31.54313 48.2469 31.54313" stroke="none" fill="#000000" fill-rule="nonzero" />
    <path id=""  transform="matrix(1 0 0 -1 0 151)"  d="M52.4969 26.14313L53.5269 26.14313L53.5269 26.14313L53.5269 24.90313L53.5269 24.90313L52.4969 24.90313L52.4969 24.90313L52.4969 26.14313" stroke="none" fill="#000000" fill-rule="nonzero" />
    <path id=""  transform="matrix(1 0 0 -1 0 151)"  d="M57.7869 32.32313C 58.5969 32.32313 59.2169 31.99313 59.6569 31.35313C 60.0869 30.70313 60.3069 29.76313 60.3069 28.54313C 60.3069 27.31313 60.0869 26.37313 59.6569 25.73313C 59.2169 25.09313 58.5969 24.77313 57.7869 24.77313C 56.9669 24.77313 56.3369 25.09313 55.9069 25.73313C 55.4769 26.37313 55.2669 27.31313 55.2669 28.54313C 55.2669 29.76313 55.4769 30.70313 55.9069 31.35313C 56.3369 31.99313 56.9669 32.32313 57.7869 32.32313M57.7869 31.54313C 57.2769 31.54313 56.8969 31.29313 56.6369 30.79313C 56.3769 30.29313 56.2569 29.54313 56.2569 28.54313C 56.2569 27.54313 56.3769 26.79313 56.6369 26.29313C 56.8969 25.79313 57.2769 25.54313 57.7869 25.54313C 58.2969 25.54313 58.6769 25.79313 58.9369 26.29313C 59.1869 26.79313 59.3169 27.54313 59.3169 28.54313C 59.3169 29.54313 59.1869 30.29313 58.9369 30.79313C 58.6769 31.29313 58.2969 31.54313 57.7869 31.54313" stroke="none" fill="#000000" fill-rule="nonzero" />
    <path id=""  transform="matrix(1 0 0 -1 0 151)"  d="M64.1469 32.32313C 64.9569 32.32313 65.5769 31.99313 66.01691 31.35313C 66.44691 30.70313 66.6669 29.76313 66.6669 28.54313C 66.6669 27.31313 66.44691 26.37313 66.01691 25.73313C 65.5769 25.09313 64.9569 24.77313 64.1469 24.77313C 63.3269 24.77313 62.6969 25.09313 62.2669 25.73313C 61.8369 26.37313 61.6269 27.31313 61.6269 28.54313C 61.6269 29.76313 61.8369 30.70313 62.2669 31.35313C 62.6969 31.99313 63.3269 32.32313 64.1469 32.32313M64.1469 31.54313C 63.6369 31.54313 63.2569 31.29313 62.9969 30.79313C 62.7369 30.29313 62.61691 29.54313 62.61691 28.54313C 62.61691 27.54313 62.7369 26.79313 62.9969 26.29313C 63.2569 25.79313 63.6369 25.54313 64.1469 25.54313C 64.65691 25.54313 65.0369 25.79313 65.29691 26.29313C 65.54691 26.79313 65.6769 27.54313 65.6769 28.54313C 65.6769 29.54313 65.54691 30.29313 65.29691 30.79313C 65.0369 31.29313 64.65691 31.54313 64.1469 31.54313" stroke="none" fill="#000000" fill-rule="nonzero" />
		<g clip-path="url(#3)" >
    <path id=""  transform="matrix(1 0 0 -1 0 151)"  d="M94.24517 35.99688L94.24517 144.7169" stroke="#B2B2B2" stroke-width="0.5" stroke-linejoin="round" stroke-dasharray="1.85000002384186,0.800000011920929" fill="none" />
		</g>
    <path id=""  transform="matrix(1 0 0 -1 0 151)"  d="M94.24517 35.99688L94.24517 39.49688" stroke="#000000" stroke-width="0.8" stroke-linejoin="miter" fill="#000000" fill-rule="nonzero" />
    <path id=""  transform="matrix(1 0 0 -1 0 151)"  d="M86.29236 32.32313C 87.10236 32.32313 87.72236 31.99313 88.16236 31.35313C 88.59236 30.70313 88.81236 29.76313 88.81236 28.54313C 88.81236 27.31313 88.59236 26.37313 88.16236 25.73313C 87.72236 25.09313 87.10236 24.77313 86.29236 24.77313C 85.47236 24.77313 84.84236 25.09313 84.41236 25.73313C 83.98236 26.37313 83.77236 27.31313 83.77236 28.54313C 83.77236 29.76313 83.98236 30.70313 84.41236 31.35313C 84.84236 31.99313 85.47236 32.32313 86.29236 32.32313M86.29236 31.54313C 85.78236 31.54313 85.40236 31.29313 85.14236 30.79313C 84.88235 30.29313 84.76236 29.54313 84.76236 28.54313C 84.76236 27.54313 84.88235 26.79313 85.14236 26.29313C 85.40236 25.79313 85.78236 25.54313 86.29236 25.54313C 86.80236 25.54313 87.18236 25.79313 87.44236 26.29313C 87.69236 26.79313 87.82236 27.54313 87.82236 28.54313C 87.82236 29.54313 87.69236 30.29313 87.44236 30.79313C 87.18236 31.29313 86.80236 31.54313 86.29236 31.54313" stroke="none" fill="#000000" fill-rule="nonzero" />
    <path id=""  transform="matrix(1 0 0 -1 0 151)"  d="M90.54236 26.14313L91.57236 26.14313L91.57236 26.14313L91.57236 24.90313L91.57236 24.90313L90.54236 24.90313L90.54236 24.90313L90.54236 26.14313" stroke="none" fill="#000000" fill-rule="nonzero" />
    <path id=""  transform="matrix(1 0 0 -1 0 151)"  d="M94.57236 25.73313L98.01236 25.73313L98.01236 25.73313L98.01236 24.90313L98.01236 24.90313L93.38236 24.90313L93.38236 24.90313L93.38236 25.73313C 93.75236 26.11312 94.26236 26.63313 94.91236 27.29313C 95.55236 27.94313 95.96236 28.36313 96.13236 28.55313C 96.45236 28.90313 96.67236 29.20313 96.79236 29.45313C 96.91236 29.69313 96.98236 29.94313 96.98236 30.18313C 96.98236 30.56313 96.84236 30.88313 96.57236 31.12313C 96.30236 31.36313 95.95236 31.49313 95.51236 31.49313C 95.20236 31.49313 94.87236 31.43313 94.53236 31.33313C 94.19236 31.22313 93.82236 31.06313 93.43236 30.84313L93.43236 30.84313L93.43236 31.84313C 93.83236 32.00313 94.20236 32.12313 94.54236 32.20313C 94.88236 32.28313 95.20236 32.32313 95.49236 32.32313C 96.24236 32.32313 96.84236 32.13313 97.29236 31.75313C 97.74236 31.37313 97.97236 30.87313 97.97236 30.24313C 97.97236 29.94313 97.91236 29.65313 97.80236 29.39313C 97.69236 29.12313 97.49236 28.80313 97.19236 28.44313C 97.11236 28.34313 96.85236 28.07313 96.41236 27.62313C 95.97236 27.17313 95.36236 26.54313 94.57236 25.73313" stroke="none" fill="#000000" fill-rule="nonzero" />
    <path id=""  transform="matrix(1 0 0 -1 0 151)"  d="M100.0924 32.19313L103.9624 32.19313L103.9624 32.19313L103.9624 31.36313L103.9624 31.36313L100.9924 31.36313L100.9924 31.36313L100.9924 29.57313C 101.1324 29.62313 101.2824 29.66313 101.4224 29.68313C 101.5624 29.70313 101.7124 29.72313 101.8524 29.72313C 102.6624 29.72313 103.3024 29.49313 103.7824 29.05313C 104.2624 28.60313 104.5024 28.00313 104.5024 27.24313C 104.5024 26.45313 104.2524 25.84313 103.7624 25.41313C 103.2724 24.98313 102.5824 24.77313 101.7024 24.77313C 101.3924 24.77313 101.0824 24.80313 100.7624 24.84313C 100.4424 24.89313 100.1224 24.96313 99.78236 25.07313L99.78236 25.07313L99.78236 26.06313C 100.0724 25.90313 100.3724 25.78312 100.6924 25.70313C 101.0024 25.62313 101.3324 25.59313 101.6824 25.59313C 102.2424 25.59313 102.6924 25.73313 103.0224 26.03313C 103.3424 26.33313 103.5124 26.73313 103.5124 27.24313C 103.5124 27.74313 103.3424 28.14313 103.0224 28.44313C 102.6924 28.74313 102.2424 28.89313 101.6824 28.89313C 101.4224 28.89313 101.1524 28.86313 100.8924 28.80313C 100.6324 28.74313 100.3624 28.65313 100.0924 28.53313L100.0924 28.53313L100.0924 32.19313" stroke="none" fill="#000000" fill-rule="nonzero" />
		<g clip-path="url(#4)" >
    <path id=""  transform="matrix(1 0 0 -1 0 151)"  d="M132.2906 35.99688L132.2906 144.7169" stroke="#B2B2B2" stroke-width="0.5" stroke-linejoin="round" stroke-dasharray="1.85000002384186,0.800000011920929" fill="none" />
		</g>
    <path id=""  transform="matrix(1 0 0 -1 0 151)"  d="M132.2906 35.99688L132.2906 39.49688" stroke="#000000" stroke-width="0.8" stroke-linejoin="miter" fill="#000000" fill-rule="nonzero" />
    <path id=""  transform="matrix(1 0 0 -1 0 151)"  d="M124.3378 32.32313C 125.1478 32.32313 125.7678 31.99313 126.2078 31.35313C 126.6378 30.70313 126.8578 29.76313 126.8578 28.54313C 126.8578 27.31313 126.6378 26.37313 126.2078 25.73313C 125.7678 25.09313 125.1478 24.77313 124.3378 24.77313C 123.5178 24.77313 122.8878 25.09313 122.4578 25.73313C 122.0278 26.37313 121.8178 27.31313 121.8178 28.54313C 121.8178 29.76313 122.0278 30.70313 122.4578 31.35313C 122.8878 31.99313 123.5178 32.32313 124.3378 32.32313M124.3378 31.54313C 123.8278 31.54313 123.4478 31.29313 123.1878 30.79313C 122.9278 30.29313 122.8078 29.54313 122.8078 28.54313C 122.8078 27.54313 122.9278 26.79313 123.1878 26.29313C 123.4478 25.79313 123.8278 25.54313 124.3378 25.54313C 124.8478 25.54313 125.2278 25.79313 125.4878 26.29313C 125.7378 26.79313 125.8678 27.54313 125.8678 28.54313C 125.8678 29.54313 125.7378 30.29313 125.4878 30.79313C 125.2278 31.29313 124.8478 31.54313 124.3378 31.54313" stroke="none" fill="#000000" fill-rule="nonzero" />
    <path id=""  transform="matrix(1 0 0 -1 0 151)"  d="M128.5878 26.14313L129.6178 26.14313L129.6178 26.14313L129.6178 24.90313L129.6178 24.90313L128.5878 24.90313L128.5878 24.90313L128.5878 26.14313" stroke="none" fill="#000000" fill-rule="nonzero" />
    <path id=""  transform="matrix(1 0 0 -1 0 151)"  d="M131.7778 32.19313L135.6478 32.19313L135.6478 32.19313L135.6478 31.36313L135.6478 31.36313L132.6778 31.36313L132.6778 31.36313L132.6778 29.57313C 132.8178 29.62313 132.9678 29.66313 133.1078 29.68313C 133.2478 29.70313 133.3978 29.72313 133.5378 29.72313C 134.3478 29.72313 134.9878 29.49313 135.4678 29.05313C 135.9478 28.60313 136.1878 28.00313 136.1878 27.24313C 136.1878 26.45313 135.9378 25.84313 135.4478 25.41313C 134.9578 24.98313 134.2678 24.77313 133.3878 24.77313C 133.0778 24.77313 132.7678 24.80313 132.4478 24.84313C 132.1278 24.89313 131.8078 24.96313 131.4678 25.07313L131.4678 25.07313L131.4678 26.06313C 131.7578 25.90313 132.0578 25.78312 132.3778 25.70313C 132.6878 25.62313 133.0178 25.59313 133.3678 25.59313C 133.9278 25.59313 134.3778 25.73313 134.7078 26.03313C 135.0278 26.33313 135.1978 26.73313 135.1978 27.24313C 135.1978 27.74313 135.0278 28.14313 134.7078 28.44313C 134.3778 28.74313 133.9278 28.89313 133.3678 28.89313C 133.1078 28.89313 132.8378 28.86313 132.5778 28.80313C 132.3178 28.74313 132.0478 28.65313 131.7778 28.53313L131.7778 28.53313L131.7778 32.19313" stroke="none" fill="#000000" fill-rule="nonzero" />
    <path id=""  transform="matrix(1 0 0 -1 0 151)"  d="M140.2378 32.32313C 141.0478 32.32313 141.6678 31.99313 142.1078 31.35313C 142.5378 30.70313 142.7578 29.76313 142.7578 28.54313C 142.7578 27.31313 142.5378 26.37313 142.1078 25.73313C 141.6678 25.09313 141.0478 24.77313 140.2378 24.77313C 139.4178 24.77313 138.7878 25.09313 138.3578 25.73313C 137.9278 26.37313 137.7178 27.31313 137.7178 28.54313C 137.7178 29.76313 137.9278 30.70313 138.3578 31.35313C 138.7878 31.99313 139.4178 32.32313 140.2378 32.32313M140.2378 31.54313C 139.7278 31.54313 139.3478 31.29313 139.0878 30.79313C 138.8278 30.29313 138.7078 29.54313 138.7078 28.54313C 138.7078 27.54313 138.8278 26.79313 139.0878 26.29313C 139.3478 25.79313 139.7278 25.54313 140.2378 25.54313C 140.7478 25.54313 141.1278 25.79313 141.3878 26.29313C 141.6378 26.79313 141.7678 27.54313 141.7678 28.54313C 141.7678 29.54313 141.6378 30.29313 141.3878 30.79313C 141.1278 31.29313 140.7478 31.54313 140.2378 31.54313" stroke="none" fill="#000000" fill-rule="nonzero" />
		<g clip-path="url(#5)" >
    <path id=""  transform="matrix(1 0 0 -1 0 151)"  d="M170.3361 35.99688L170.3361 144.7169" stroke="#B2B2B2" stroke-width="0.5" stroke-linejoin="round" stroke-dasharray="1.85000002384186,0.800000011920929" fill="none" />
		</g>
    <path id=""  transform="matrix(1 0 0 -1 0 151)"  d="M170.3361 35.99688L170.3361 39.49688" stroke="#000000" stroke-width="0.8" stroke-linejoin="miter" fill="#000000" fill-rule="nonzero" />
    <path id=""  transform="matrix(1 0 0 -1 0 151)"  d="M162.3833 32.32313C 163.1933 32.32313 163.8133 31.99313 164.2533 31.35313C 164.6833 30.70313 164.9033 29.76313 164.9033 28.54313C 164.9033 27.31313 164.6833 26.37313 164.2533 25.73313C 163.8133 25.09313 163.1933 24.77313 162.3833 24.77313C 161.5633 24.77313 160.9333 25.09313 160.5033 25.73313C 160.0733 26.37313 159.8633 27.31313 159.8633 28.54313C 159.8633 29.76313 160.0733 30.70313 160.5033 31.35313C 160.9333 31.99313 161.5633 32.32313 162.3833 32.32313M162.3833 31.54313C 161.8733 31.54313 161.4933 31.29313 161.2333 30.79313C 160.9733 30.29313 160.8533 29.54313 160.8533 28.54313C 160.8533 27.54313 160.9733 26.79313 161.2333 26.29313C 161.4933 25.79313 161.8733 25.54313 162.3833 25.54313C 162.8933 25.54313 163.2733 25.79313 163.5333 26.29313C 163.7833 26.79313 163.9133 27.54313 163.9133 28.54313C 163.9133 29.54313 163.7833 30.29313 163.5333 30.79313C 163.2733 31.29313 162.8933 31.54313 162.3833 31.54313" stroke="none" fill="#000000" fill-rule="nonzero" />
    <path id=""  transform="matrix(1 0 0 -1 0 151)"  d="M166.6333 26.14313L167.6633 26.14313L167.6633 26.14313L167.6633 24.90313L167.6633 24.90313L166.6333 24.90313L166.6333 24.90313L166.6333 26.14313" stroke="none" fill="#000000" fill-rule="nonzero" />
    <path id=""  transform="matrix(1 0 0 -1 0 151)"  d="M169.5633 32.19313L174.2533 32.19313L174.2533 32.19313L174.2533 31.77313L174.2533 31.77313L171.6033 24.90313L171.6033 24.90313L170.5733 24.90313L170.5733 24.90313L173.0633 31.36313L173.0633 31.36313L169.5633 31.36313L169.5633 31.36313L169.5633 32.19313" stroke="none" fill="#000000" fill-rule="nonzero" />
    <path id=""  transform="matrix(1 0 0 -1 0 151)"  d="M176.1833 32.19313L180.0533 32.19313L180.0533 32.19313L180.0533 31.36313L180.0533 31.36313L177.0833 31.36313L177.0833 31.36313L177.0833 29.57313C 177.2233 29.62313 177.3733 29.66313 177.5133 29.68313C 177.6533 29.70313 177.8033 29.72313 177.9433 29.72313C 178.7533 29.72313 179.3932 29.49313 179.8733 29.05313C 180.3533 28.60313 180.5933 28.00313 180.5933 27.24313C 180.5933 26.45313 180.3433 25.84313 179.8533 25.41313C 179.3633 24.98313 178.6733 24.77313 177.7933 24.77313C 177.4833 24.77313 177.1733 24.80313 176.8533 24.84313C 176.5332 24.89313 176.2133 24.96313 175.8733 25.07313L175.8733 25.07313L175.8733 26.06313C 176.1633 25.90313 176.4633 25.78312 176.7832 25.70313C 177.0933 25.62313 177.4233 25.59313 177.7733 25.59313C 178.3333 25.59313 178.7833 25.73313 179.1133 26.03313C 179.4333 26.33313 179.6033 26.73313 179.6033 27.24313C 179.6033 27.74313 179.4333 28.14313 179.1133 28.44313C 178.7833 28.74313 178.3333 28.89313 177.7733 28.89313C 177.5133 28.89313 177.2433 28.86313 176.9833 28.80313C 176.7233 28.74313 176.4533 28.65313 176.1833 28.53313L176.1833 28.53313L176.1833 32.19313" stroke="none" fill="#000000" fill-rule="nonzero" />
		<g clip-path="url(#6)" >
    <path id=""  transform="matrix(1 0 0 -1 0 151)"  d="M208.3815 35.99688L208.3815 144.7169" stroke="#B2B2B2" stroke-width="0.5" stroke-linejoin="round" stroke-dasharray="1.85000002384186,0.800000011920929" fill="none" />
		</g>
    <path id=""  transform="matrix(1 0 0 -1 0 151)"  d="M208.3815 35.99688L208.3815 39.49688" stroke="#000000" stroke-width="0.8" stroke-linejoin="miter" fill="#000000" fill-rule="nonzero" />
    <path id=""  transform="matrix(1 0 0 -1 0 151)"  d="M198.4887 25.73313L200.0987 25.73313L200.0987 25.73313L200.0987 31.29313L200.0987 31.29313L198.3487 30.94313L198.3487 30.94313L198.3487 31.84313L198.3487 31.84313L200.0887 32.19313L200.0887 32.19313L201.0787 32.19313L201.0787 32.19313L201.0787 25.73313L201.0787 25.73313L202.6887 25.73313L202.6887 25.73313L202.6887 24.90313L202.6887 24.90313L198.4887 24.90313L198.4887 24.90313L198.4887 25.73313" stroke="none" fill="#000000" fill-rule="nonzero" />
    <path id=""  transform="matrix(1 0 0 -1 0 151)"  d="M204.6787 26.14313L205.7087 26.14313L205.7087 26.14313L205.7087 24.90313L205.7087 24.90313L204.6787 24.90313L204.6787 24.90313L204.6787 26.14313" stroke="none" fill="#000000" fill-rule="nonzero" />
    <path id=""  transform="matrix(1 0 0 -1 0 151)"  d="M209.9687 32.32313C 210.7787 32.32313 211.3987 31.99313 211.8387 31.35313C 212.2687 30.70313 212.4887 29.76313 212.4887 28.54313C 212.4887 27.31313 212.2687 26.37313 211.8387 25.73313C 211.3987 25.09313 210.7787 24.77313 209.9687 24.77313C 209.1487 24.77313 208.5187 25.09313 208.0887 25.73313C 207.6587 26.37313 207.4487 27.31313 207.4487 28.54313C 207.4487 29.76313 207.6587 30.70313 208.0887 31.35313C 208.5187 31.99313 209.1487 32.32313 209.9687 32.32313M209.9687 31.54313C 209.4587 31.54313 209.0787 31.29313 208.8187 30.79313C 208.5587 30.29313 208.4387 29.54313 208.4387 28.54313C 208.4387 27.54313 208.5587 26.79313 208.8187 26.29313C 209.0787 25.79313 209.4587 25.54313 209.9687 25.54313C 210.4787 25.54313 210.8587 25.79313 211.1187 26.29313C 211.3687 26.79313 211.4987 27.54313 211.4987 28.54313C 211.4987 29.54313 211.3687 30.29313 211.1187 30.79313C 210.8587 31.29313 210.4787 31.54313 209.9687 31.54313" stroke="none" fill="#000000" fill-rule="nonzero" />
    <path id=""  transform="matrix(1 0 0 -1 0 151)"  d="M216.3287 32.32313C 217.1387 32.32313 217.7587 31.99313 218.1987 31.35313C 218.6287 30.70313 218.8487 29.76313 218.8487 28.54313C 218.8487 27.31313 218.6287 26.37313 218.1987 25.73313C 217.7587 25.09313 217.1387 24.77313 216.3287 24.77313C 215.5087 24.77313 214.8787 25.09313 214.4487 25.73313C 214.0187 26.37313 213.8087 27.31313 213.8087 28.54313C 213.8087 29.76313 214.0187 30.70313 214.4487 31.35313C 214.8787 31.99313 215.5087 32.32313 216.3287 32.32313M216.3287 31.54313C 215.8187 31.54313 215.4387 31.29313 215.1787 30.79313C 214.9187 30.29313 214.7987 29.54313 214.7987 28.54313C 214.7987 27.54313 214.9187 26.79313 215.1787 26.29313C 215.4387 25.79313 215.8187 25.54313 216.3287 25.54313C 216.8387 25.54313 217.2187 25.79313 217.4787 26.29313C 217.7287 26.79313 217.8587 27.54313 217.8587 28.54313C 217.8587 29.54313 217.7287 30.29313 217.4787 30.79313C 217.2187 31.29313 216.8387 31.54313 216.3287 31.54313" stroke="none" fill="#000000" fill-rule="nonzero" />
    <path id=""  transform="matrix(1 0 0 -1 0 151)"  d="M135.3239 16.264L132.9479 13.072L132.9479 13.072L135.4439 9.7L135.4439 9.7L134.1719 9.7L134.1719 9.7L132.2639 12.28L132.2639 12.28L130.3559 9.7L130.3559 9.7L129.0839 9.7L129.0839 9.7L131.6279 13.132L131.6279 13.132L129.2999 16.264L129.2999 16.264L130.5719 16.264L130.5719 16.264L132.3119 13.924L132.3119 13.924L134.0519 16.264L134.0519 16.264L135.3239 16.264" stroke="none" fill="#000000" fill-rule="nonzero" />
		<g clip-path="url(#7)" >
    <path id=""  transform="matrix(1 0 0 -1 0 151)"  d="M48.59063 40.93869L215.9906 40.93869" stroke="#B2B2B2" stroke-width="0.5" stroke-linejoin="round" stroke-dasharray="1.85000002384186,0.800000011920929" fill="none" />
		</g>
    <path id=""  transform="matrix(1 0 0 -1 0 151)"  d="M48.59063 40.93869L52.09063 40.93869" stroke="#000000" stroke-width="0.8" stroke-linejoin="miter" fill="#000000" fill-rule="nonzero" />
    <path id=""  transform="matrix(1 0 0 -1 0 151)"  d="M26.005 44.56182C 26.815 44.56182 27.435 44.23182 27.875 43.59182C 28.305 42.94182 28.525 42.00182 28.525 40.78182C 28.525 39.55182 28.305 38.61182 27.875 37.97182C 27.435 37.33182 26.815 37.01182 26.005 37.01182C 25.185 37.01182 24.555 37.33182 24.125 37.97182C 23.695 38.61182 23.485 39.55182 23.485 40.78182C 23.485 42.00182 23.695 42.94182 24.125 43.59182C 24.555 44.23182 25.185 44.56182 26.005 44.56182M26.005 43.78182C 25.495 43.78182 25.115 43.53182 24.855 43.03182C 24.595 42.53182 24.475 41.78182 24.475 40.78182C 24.475 39.78182 24.595 39.03182 24.855 38.53182C 25.115 38.03182 25.495 37.78182 26.005 37.78182C 26.515 37.78182 26.895 38.03182 27.155 38.53182C 27.405 39.03182 27.535 39.78182 27.535 40.78182C 27.535 41.78182 27.405 42.53182 27.155 43.03182C 26.895 43.53182 26.515 43.78182 26.005 43.78182" stroke="none" fill="#000000" fill-rule="nonzero" />
    <path id=""  transform="matrix(1 0 0 -1 0 151)"  d="M30.255 38.38182L31.285 38.38182L31.285 38.38182L31.285 37.14182L31.285 37.14182L30.255 37.14182L30.255 37.14182L30.255 38.38182" stroke="none" fill="#000000" fill-rule="nonzero" />
    <path id=""  transform="matrix(1 0 0 -1 0 151)"  d="M35.545 44.56182C 36.355 44.56182 36.975 44.23182 37.415 43.59182C 37.845 42.94182 38.065 42.00182 38.065 40.78182C 38.065 39.55182 37.845 38.61182 37.415 37.97182C 36.975 37.33182 36.355 37.01182 35.545 37.01182C 34.725 37.01182 34.095 37.33182 33.665 37.97182C 33.235 38.61182 33.025 39.55182 33.025 40.78182C 33.025 42.00182 33.235 42.94182 33.665 43.59182C 34.095 44.23182 34.725 44.56182 35.545 44.56182M35.545 43.78182C 35.035 43.78182 34.655 43.53182 34.395 43.03182C 34.135 42.53182 34.015 41.78182 34.015 40.78182C 34.015 39.78182 34.135 39.03182 34.395 38.53182C 34.655 38.03182 35.035 37.78182 35.545 37.78182C 36.055 37.78182 36.435 38.03182 36.695 38.53182C 36.945 39.03182 37.075 39.78182 37.075 40.78182C 37.075 41.78182 36.945 42.53182 36.695 43.03182C 36.435 43.53182 36.055 43.78182 35.545 43.78182" stroke="none" fill="#000000" fill-rule="nonzero" />
    <path id=""  transform="matrix(1 0 0 -1 0 151)"  d="M41.905 44.56182C 42.715 44.56182 43.335 44.23182 43.775 43.59182C 44.205 42.94182 44.425 42.00182 44.425 40.78182C 44.425 39.55182 44.205 38.61182 43.775 37.97182C 43.335 37.33182 42.715 37.01182 41.905 37.01182C 41.085 37.01182 40.455 37.33182 40.025 37.97182C 39.595 38.61182 39.385 39.55182 39.385 40.78182C 39.385 42.00182 39.595 42.94182 40.025 43.59182C 40.455 44.23182 41.085 44.56182 41.905 44.56182M41.905 43.78182C 41.395 43.78182 41.015 43.53182 40.755 43.03182C 40.495 42.53182 40.375 41.78182 40.375 40.78182C 40.375 39.78182 40.495 39.03182 40.755 38.53182C 41.015 38.03182 41.395 37.78182 41.905 37.78182C 42.415 37.78182 42.795 38.03182 43.055 38.53182C 43.305 39.03182 43.435 39.78182 43.435 40.78182C 43.435 41.78182 43.305 42.53182 43.055 43.03182C 42.795 43.53182 42.415 43.78182 41.905 43.78182" stroke="none" fill="#000000" fill-rule="nonzero" />
		<g clip-path="url(#8)" >
    <path id=""  transform="matrix(1 0 0 -1 0 151)"  d="M48.59063 65.76983L215.9906 65.76983" stroke="#B2B2B2" stroke-width="0.5" stroke-linejoin="round" stroke-dasharray="1.85000002384186,0.800000011920929" fill="none" />
		</g>
    <path id=""  transform="matrix(1 0 0 -1 0 151)"  d="M48.59063 65.76983L52.09063 65.76983" stroke="#000000" stroke-width="0.8" stroke-linejoin="miter" fill="#000000" fill-rule="nonzero" />
    <path id=""  transform="matrix(1 0 0 -1 0 151)"  d="M26.005 69.39295C 26.815 69.39295 27.435 69.06296 27.875 68.42295C 28.305 67.77296 28.525 66.83295 28.525 65.61295C 28.525 64.38296 28.305 63.44296 27.875 62.80296C 27.435 62.16295 26.815 61.84295 26.005 61.84295C 25.185 61.84295 24.555 62.16295 24.125 62.80296C 23.695 63.44296 23.485 64.38296 23.485 65.61295C 23.485 66.83295 23.695 67.77296 24.125 68.42295C 24.555 69.06296 25.185 69.39295 26.005 69.39295M26.005 68.61295C 25.495 68.61295 25.115 68.36295 24.855 67.86295C 24.595 67.36295 24.475 66.61295 24.475 65.61295C 24.475 64.61295 24.595 63.86295 24.855 63.36295C 25.115 62.86295 25.495 62.61295 26.005 62.61295C 26.515 62.61295 26.895 62.86295 27.155 63.36295C 27.405 63.86295 27.535 64.61295 27.535 65.61295C 27.535 66.61295 27.405 67.36295 27.155 67.86295C 26.895 68.36295 26.515 68.61295 26.005 68.61295" stroke="none" fill="#000000" fill-rule="nonzero" />
    <path id=""  transform="matrix(1 0 0 -1 0 151)"  d="M30.255 63.21296L31.285 63.21296L31.285 63.21296L31.285 61.97295L31.285 61.97295L30.255 61.97295L30.255 61.97295L30.255 63.21296" stroke="none" fill="#000000" fill-rule="nonzero" />
    <path id=""  transform="matrix(1 0 0 -1 0 151)"  d="M34.285 62.80296L37.725 62.80296L37.725 62.80296L37.725 61.97295L37.725 61.97295L33.095 61.97295L33.095 61.97295L33.095 62.80296C 33.465 63.18295 33.975 63.70295 34.625 64.36295C 35.265 65.01295 35.675 65.43295 35.845 65.62296C 36.165 65.97295 36.385 66.27296 36.505 66.52296C 36.625 66.76295 36.695 67.01295 36.695 67.25295C 36.695 67.63296 36.555 67.95296 36.285 68.19296C 36.015 68.43295 35.665 68.56296 35.225 68.56296C 34.915 68.56296 34.585 68.50295 34.245 68.40295C 33.905 68.29295 33.535 68.13296 33.145 67.91296L33.145 67.91296L33.145 68.91296C 33.545 69.07295 33.915 69.19296 34.255 69.27296C 34.595 69.35295 34.915 69.39295 35.205 69.39295C 35.955 69.39295 36.555 69.20296 37.005 68.82295C 37.455 68.44296 37.685 67.94296 37.685 67.31296C 37.685 67.01295 37.625 66.72295 37.515 66.46295C 37.405 66.19296 37.205 65.87296 36.905 65.51295C 36.825 65.41296 36.565 65.14295 36.125 64.69296C 35.685 64.24295 35.075 63.61295 34.285 62.80296" stroke="none" fill="#000000" fill-rule="nonzero" />
    <path id=""  transform="matrix(1 0 0 -1 0 151)"  d="M39.805 69.26295L43.675 69.26295L43.675 69.26295L43.675 68.43295L43.675 68.43295L40.705 68.43295L40.705 68.43295L40.705 66.64295C 40.845 66.69296 40.995 66.73296 41.135 66.75295C 41.275 66.77296 41.425 66.79295 41.565 66.79295C 42.375 66.79295 43.015 66.56296 43.495 66.12296C 43.975 65.67295 44.215 65.07295 44.215 64.31296C 44.215 63.52295 43.965 62.91295 43.475 62.48295C 42.985 62.05296 42.295 61.84295 41.415 61.84295C 41.105 61.84295 40.795 61.87296 40.475 61.91295C 40.155 61.96296 39.835 62.03296 39.495 62.14295L39.495 62.14295L39.495 63.13295C 39.785 62.97295 40.085 62.85295 40.405 62.77295C 40.715 62.69296 41.045 62.66295 41.395 62.66295C 41.955 62.66295 42.405 62.80296 42.735 63.10295C 43.055 63.40295 43.225 63.80296 43.225 64.31296C 43.225 64.81296 43.055 65.21295 42.735 65.51295C 42.405 65.81296 41.955 65.96295 41.395 65.96295C 41.135 65.96295 40.865 65.93295 40.605 65.87296C 40.345 65.81296 40.075 65.72295 39.805 65.60295L39.805 65.60295L39.805 69.26295" stroke="none" fill="#000000" fill-rule="nonzero" />
		<g clip-path="url(#9)" >
    <path id=""  transform="matrix(1 0 0 -1 0 151)"  d="M48.59063 90.60096L215.9906 90.60096" stroke="#B2B2B2" stroke-width="0.5" stroke-linejoin="round" stroke-dasharray="1.85000002384186,0.800000011920929" fill="none" />
		</g>
    <path id=""  transform="matrix(1 0 0 -1 0 151)"  d="M48.59063 90.60096L52.09063 90.60096" stroke="#000000" stroke-width="0.8" stroke-linejoin="miter" fill="#000000" fill-rule="nonzero" />
    <path id=""  transform="matrix(1 0 0 -1 0 151)"  d="M26.005 94.22408C 26.815 94.22408 27.435 93.89409 27.875 93.25408C 28.305 92.60409 28.525 91.66409 28.525 90.44408C 28.525 89.21409 28.305 88.27409 27.875 87.63409C 27.435 86.99409 26.815 86.67409 26.005 86.67409C 25.185 86.67409 24.555 86.99409 24.125 87.63409C 23.695 88.27409 23.485 89.21409 23.485 90.44408C 23.485 91.66409 23.695 92.60409 24.125 93.25408C 24.555 93.89409 25.185 94.22408 26.005 94.22408M26.005 93.44408C 25.495 93.44408 25.115 93.19408 24.855 92.69408C 24.595 92.19408 24.475 91.44408 24.475 90.44408C 24.475 89.44408 24.595 88.69408 24.855 88.19408C 25.115 87.69408 25.495 87.44408 26.005 87.44408C 26.515 87.44408 26.895 87.69408 27.155 88.19408C 27.405 88.69408 27.535 89.44408 27.535 90.44408C 27.535 91.44408 27.405 92.19408 27.155 92.69408C 26.895 93.19408 26.515 93.44408 26.005 93.44408" stroke="none" fill="#000000" fill-rule="nonzero" />
    <path id=""  transform="matrix(1 0 0 -1 0 151)"  d="M30.255 88.04408L31.285 88.04408L31.285 88.04408L31.285 86.80408L31.285 86.80408L30.255 86.80408L30.255 86.80408L30.255 88.04408" stroke="none" fill="#000000" fill-rule="nonzero" />
    <path id=""  transform="matrix(1 0 0 -1 0 151)"  d="M33.445 94.09409L37.315 94.09409L37.315 94.09409L37.315 93.26408L37.315 93.26408L34.345 93.26408L34.345 93.26408L34.345 91.47408C 34.485 91.52409 34.635 91.56409 34.775 91.58408C 34.915 91.60409 35.065 91.62408 35.205 91.62408C 36.015 91.62408 36.655 91.39409 37.135 90.95409C 37.615 90.50408 37.855 89.90408 37.855 89.14409C 37.855 88.35409 37.605 87.74409 37.115 87.31409C 36.625 86.88409 35.935 86.67409 35.055 86.67409C 34.745 86.67409 34.435 86.70409 34.115 86.74409C 33.795 86.79408 33.475 86.86408 33.135 86.97408L33.135 86.97408L33.135 87.96409C 33.425 87.80408 33.725 87.68408 34.045 87.60409C 34.355 87.52409 34.685 87.49409 35.035 87.49409C 35.595 87.49409 36.045 87.63409 36.375 87.93408C 36.695 88.23409 36.865 88.63409 36.865 89.14409C 36.865 89.64409 36.695 90.04408 36.375 90.34409C 36.045 90.64409 35.595 90.79408 35.035 90.79408C 34.775 90.79408 34.505 90.76408 34.245 90.70409C 33.985 90.64409 33.715 90.55408 33.445 90.43408L33.445 90.43408L33.445 94.09409" stroke="none" fill="#000000" fill-rule="nonzero" />
    <path id=""  transform="matrix(1 0 0 -1 0 151)"  d="M41.905 94.22408C 42.715 94.22408 43.335 93.89409 43.775 93.25408C 44.205 92.60409 44.425 91.66409 44.425 90.44408C 44.425 89.21409 44.205 88.27409 43.775 87.63409C 43.335 86.99409 42.715 86.67409 41.905 86.67409C 41.085 86.67409 40.455 86.99409 40.025 87.63409C 39.595 88.27409 39.385 89.21409 39.385 90.44408C 39.385 91.66409 39.595 92.60409 40.025 93.25408C 40.455 93.89409 41.085 94.22408 41.905 94.22408M41.905 93.44408C 41.395 93.44408 41.015 93.19408 40.755 92.69408C 40.495 92.19408 40.375 91.44408 40.375 90.44408C 40.375 89.44408 40.495 88.69408 40.755 88.19408C 41.015 87.69408 41.395 87.44408 41.905 87.44408C 42.415 87.44408 42.795 87.69408 43.055 88.19408C 43.305 88.69408 43.435 89.44408 43.435 90.44408C 43.435 91.44408 43.305 92.19408 43.055 92.69408C 42.795 93.19408 42.415 93.44408 41.905 93.44408" stroke="none" fill="#000000" fill-rule="nonzero" />
		<g clip-path="url(#10)" >
    <path id=""  transform="matrix(1 0 0 -1 0 151)"  d="M48.59063 115.4321L215.9906 115.4321" stroke="#B2B2B2" stroke-width="0.5" stroke-linejoin="round" stroke-dasharray="1.85000002384186,0.800000011920929" fill="none" />
		</g>
    <path id=""  transform="matrix(1 0 0 -1 0 151)"  d="M48.59063 115.4321L52.09063 115.4321" stroke="#000000" stroke-width="0.8" stroke-linejoin="miter" fill="#000000" fill-rule="nonzero" />
    <path id=""  transform="matrix(1 0 0 -1 0 151)"  d="M26.005 119.0552C 26.815 119.0552 27.435 118.7252 27.875 118.0852C 28.305 117.4352 28.525 116.4952 28.525 115.2752C 28.525 114.0452 28.305 113.1052 27.875 112.4652C 27.435 111.8252 26.815 111.5052 26.005 111.5052C 25.185 111.5052 24.555 111.8252 24.125 112.4652C 23.695 113.1052 23.485 114.0452 23.485 115.2752C 23.485 116.4952 23.695 117.4352 24.125 118.0852C 24.555 118.7252 25.185 119.0552 26.005 119.0552M26.005 118.2752C 25.495 118.2752 25.115 118.0252 24.855 117.5252C 24.595 117.0252 24.475 116.2752 24.475 115.2752C 24.475 114.2752 24.595 113.5252 24.855 113.0252C 25.115 112.5252 25.495 112.2752 26.005 112.2752C 26.515 112.2752 26.895 112.5252 27.155 113.0252C 27.405 113.5252 27.535 114.2752 27.535 115.2752C 27.535 116.2752 27.405 117.0252 27.155 117.5252C 26.895 118.0252 26.515 118.2752 26.005 118.2752" stroke="none" fill="#000000" fill-rule="nonzero" />
    <path id=""  transform="matrix(1 0 0 -1 0 151)"  d="M30.255 112.8752L31.285 112.8752L31.285 112.8752L31.285 111.6352L31.285 111.6352L30.255 111.6352L30.255 111.6352L30.255 112.8752" stroke="none" fill="#000000" fill-rule="nonzero" />
    <path id=""  transform="matrix(1 0 0 -1 0 151)"  d="M33.185 118.9252L37.875 118.9252L37.875 118.9252L37.875 118.5052L37.875 118.5052L35.225 111.6352L35.225 111.6352L34.195 111.6352L34.195 111.6352L36.685 118.0952L36.685 118.0952L33.185 118.0952L33.185 118.0952L33.185 118.9252" stroke="none" fill="#000000" fill-rule="nonzero" />
    <path id=""  transform="matrix(1 0 0 -1 0 151)"  d="M39.805 118.9252L43.675 118.9252L43.675 118.9252L43.675 118.0952L43.675 118.0952L40.705 118.0952L40.705 118.0952L40.705 116.3052C 40.845 116.3552 40.995 116.3952 41.135 116.4152C 41.275 116.4352 41.425 116.4552 41.565 116.4552C 42.375 116.4552 43.015 116.2252 43.495 115.7852C 43.975 115.3352 44.215 114.7352 44.215 113.9752C 44.215 113.1852 43.965 112.5752 43.475 112.1452C 42.985 111.7152 42.295 111.5052 41.415 111.5052C 41.105 111.5052 40.795 111.5352 40.475 111.5752C 40.155 111.6252 39.835 111.6952 39.495 111.8052L39.495 111.8052L39.495 112.7952C 39.785 112.6352 40.085 112.5152 40.405 112.4352C 40.715 112.3552 41.045 112.3252 41.395 112.3252C 41.955 112.3252 42.405 112.4652 42.735 112.7652C 43.055 113.0652 43.225 113.4652 43.225 113.9752C 43.225 114.4752 43.055 114.8752 42.735 115.1752C 42.405 115.4752 41.955 115.6252 41.395 115.6252C 41.135 115.6252 40.865 115.5952 40.605 115.5352C 40.345 115.4752 40.075 115.3852 39.805 115.2652L39.805 115.2652L39.805 118.9252" stroke="none" fill="#000000" fill-rule="nonzero" />
		<g clip-path="url(#11)" >
    <path id=""  transform="matrix(1 0 0 -1 0 151)"  d="M48.59063 140.2632L215.9906 140.2632" stroke="#B2B2B2" stroke-width="0.5" stroke-linejoin="round" stroke-dasharray="1.85000002384186,0.800000011920929" fill="none" />
		</g>
    <path id=""  transform="matrix(1 0 0 -1 0 151)"  d="M48.59063 140.2632L52.09063 140.2632" stroke="#000000" stroke-width="0.8" stroke-linejoin="miter" fill="#000000" fill-rule="nonzero" />
    <path id=""  transform="matrix(1 0 0 -1 0 151)"  d="M24.065 137.2964L25.675 137.2964L25.675 137.2964L25.675 142.8564L25.675 142.8564L23.925 142.5063L23.925 142.5063L23.925 143.4064L23.925 143.4064L25.665 143.7563L25.665 143.7563L26.655 143.7563L26.655 143.7563L26.655 137.2964L26.655 137.2964L28.265 137.2964L28.265 137.2964L28.265 136.4664L28.265 136.4664L24.065 136.4664L24.065 136.4664L24.065 137.2964" stroke="none" fill="#000000" fill-rule="nonzero" />
    <path id=""  transform="matrix(1 0 0 -1 0 151)"  d="M30.255 137.7064L31.285 137.7064L31.285 137.7064L31.285 136.4664L31.285 136.4664L30.255 136.4664L30.255 136.4664L30.255 137.7064" stroke="none" fill="#000000" fill-rule="nonzero" />
    <path id=""  transform="matrix(1 0 0 -1 0 151)"  d="M35.545 143.8864C 36.355 143.8864 36.975 143.5564 37.415 142.9164C 37.845 142.2664 38.065 141.3264 38.065 140.1064C 38.065 138.8764 37.845 137.9364 37.415 137.2964C 36.975 136.6564 36.355 136.3363 35.545 136.3363C 34.725 136.3363 34.095 136.6564 33.665 137.2964C 33.235 137.9364 33.025 138.8764 33.025 140.1064C 33.025 141.3264 33.235 142.2664 33.665 142.9164C 34.095 143.5564 34.725 143.8864 35.545 143.8864M35.545 143.1064C 35.035 143.1064 34.655 142.8564 34.395 142.3564C 34.135 141.8564 34.015 141.1064 34.015 140.1064C 34.015 139.1064 34.135 138.3564 34.395 137.8564C 34.655 137.3564 35.035 137.1064 35.545 137.1064C 36.055 137.1064 36.435 137.3564 36.695 137.8564C 36.945 138.3564 37.075 139.1064 37.075 140.1064C 37.075 141.1064 36.945 141.8564 36.695 142.3564C 36.435 142.8564 36.055 143.1064 35.545 143.1064" stroke="none" fill="#000000" fill-rule="nonzero" />
    <path id=""  transform="matrix(1 0 0 -1 0 151)"  d="M41.905 143.8864C 42.715 143.8864 43.335 143.5564 43.775 142.9164C 44.205 142.2664 44.425 141.3264 44.425 140.1064C 44.425 138.8764 44.205 137.9364 43.775 137.2964C 43.335 136.6564 42.715 136.3363 41.905 136.3363C 41.085 136.3363 40.455 136.6564 40.025 137.2964C 39.595 137.9364 39.385 138.8764 39.385 140.1064C 39.385 141.3264 39.595 142.2664 40.025 142.9164C 40.455 143.5564 41.085 143.8864 41.905 143.8864M41.905 143.1064C 41.395 143.1064 41.015 142.8564 40.755 142.3564C 40.495 141.8564 40.375 141.1064 40.375 140.1064C 40.375 139.1064 40.495 138.3564 40.755 137.8564C 41.015 137.3564 41.395 137.1064 41.905 137.1064C 42.415 137.1064 42.795 137.3564 43.055 137.8564C 43.305 138.3564 43.435 139.1064 43.435 140.1064C 43.435 141.1064 43.305 141.8564 43.055 142.3564C 42.795 142.8564 42.415 143.1064 41.905 143.1064" stroke="none" fill="#000000" fill-rule="nonzero" />
    <path id=""  transform="matrix(1 0 0 -1 0 151)"  d="M9.605 90.28419L9.605 90.28419M13.733 87.57218L9.761001 87.57218L9.761001 87.57218L9.761001 88.65218L9.761001 88.65218L13.697 88.65218C 14.321 88.65218 14.777 88.77219 15.089 89.01218C 15.401 89.25218 15.557 89.61218 15.557 90.10419C 15.557 90.68018 15.377 91.14819 15.005 91.48418C 14.633 91.82018 14.129 91.98818 13.481 91.98818L13.481 91.98818L9.761001 91.98818L9.761001 91.98818L9.761001 93.06818L9.761001 93.06818L16.325 93.06818L16.325 93.06818L16.325 91.98818L16.325 91.98818L15.317 91.98818C 15.725 91.72418 16.013 91.41219 16.205 91.07619C 16.385 90.72819 16.481 90.33218 16.481 89.87618C 16.481 89.12019 16.253 88.54418 15.785 88.16019C 15.329 87.76418 14.645 87.57218 13.733 87.57218" stroke="none" fill="#000000" fill-rule="nonzero" />
		<g clip-path="url(#12)" >
    <path id=""  transform="matrix(1 0 0 -1 0 151)"  d="M56.19971 40.93869L57.72153 40.93927L57.72153 40.93927L59.24335 40.93977L59.24335 40.93977L60.76517 40.94046L60.76517 40.94046L62.28699 40.9415L62.28699 40.9415L63.80881 40.94309L63.80881 40.94309L65.33063 40.94552L65.33063 40.94552L66.85244 40.9492L66.85244 40.9492L68.37426 40.95468L68.37426 40.95468L69.89608 40.9628L69.89608 40.9628L71.4179 40.97467L71.4179 40.97467L72.93971 40.99188L72.93971 40.99188L74.46153 41.01653L74.46153 41.01653L75.98335 41.0515L75.98335 41.0515L77.50517 41.10057L77.50517 41.10057L79.02699 41.16869L79.02699 41.16869L80.54881 41.26228L80.54881 41.26228L82.07063 41.38947L82.07063 41.38947L83.59245 41.56048L83.59245 41.56048L85.11426 41.78793L85.11426 41.78793L86.63608 42.08717L86.63608 42.08717L88.1579 42.47658L88.1579 42.47658L89.67972 42.97777L89.67972 42.97777L91.20153 43.61568L91.20153 43.61568L92.72335 44.41859L92.72335 44.41859L94.24517 45.41779L94.24517 45.41779L95.76699 46.64716L95.76699 46.64716L97.28881 48.14233L97.28881 48.14233L98.81062 49.93964L98.81062 49.93964L100.3324 52.07466L100.3324 52.07466L101.8543 54.58046L101.8543 54.58046L103.3761 57.48555L103.3761 57.48555L104.8979 60.81166L104.8979 60.81166L106.4197 64.5713L106.4197 64.5713L107.9415 68.76543L107.9415 68.76543L109.4633 73.38119L109.4633 73.38119L110.9852 78.39002L110.9852 78.39002L112.507 83.74631L112.507 83.74631L114.0288 89.38663L114.0288 89.38663L115.5506 95.22998L115.5506 95.22998L117.0724 101.1787L117.0724 101.1787L118.5943 107.1207L118.5943 107.1207L120.1161 112.9325L120.1161 112.9325L121.6379 118.4829L121.6379 118.4829L123.1597 123.6384L123.1597 123.6384L124.6815 128.2675L124.6815 128.2675L126.2034 132.2471L126.2034 132.2471L127.7252 135.4673L127.7252 135.4673L129.247 137.8368L129.247 137.8368L130.7688 139.2869L130.7688 139.2869L132.2906 139.7751L132.2906 139.7751L133.8124 139.2869L133.8124 139.2869L135.3343 137.8368L135.3343 137.8368L136.8561 135.4673L136.8561 135.4673L138.3779 132.2471L138.3779 132.2471L139.8997 128.2675L139.8997 128.2675L141.4215 123.6384L141.4215 123.6384L142.9434 118.4829L142.9434 118.4829L144.4652 112.9325L144.4652 112.9325L145.987 107.1207L145.987 107.1207L147.5088 101.1787L147.5088 101.1787L149.0306 95.22998L149.0306 95.22998L150.5524 89.38663L150.5524 89.38663L152.0743 83.74631L152.0743 83.74631L153.5961 78.39002L153.5961 78.39002L155.1179 73.38119L155.1179 73.38119L156.6397 68.76543L156.6397 68.76543L158.1615 64.5713L158.1615 64.5713L159.6833 60.81166L159.6833 60.81166L161.2052 57.48555L161.2052 57.48555L162.727 54.58046L162.727 54.58046L164.2488 52.07466L164.2488 52.07466L165.7706 49.93964L165.7706 49.93964L167.2924 48.14233L167.2924 48.14233L168.8143 46.64716L168.8143 46.64716L170.3361 45.41779L170.3361 45.41779L171.8579 44.41859L171.8579 44.41859L173.3797 43.61568L173.3797 43.61568L174.9015 42.97777L174.9015 42.97777L176.4234 42.47658L176.4234 42.47658L177.9452 42.08717L177.9452 42.08717L179.467 41.78793L179.467 41.78793L180.9888 41.56048L180.9888 41.56048L182.5106 41.38947L182.5106 41.38947L184.0324 41.26228L184.0324 41.26228L185.5543 41.16869L185.5543 41.16869L187.0761 41.10057L187.0761 41.10057L188.5979 41.0515L188.5979 41.0515L190.1197 41.01653L190.1197 41.01653L191.6415 40.99188L191.6415 40.99188L193.1633 40.97467L193.1633 40.97467L194.6852 40.9628L194.6852 40.9628L196.207 40.95468L196.207 40.95468L197.7288 40.9492L197.7288 40.9492L199.2506 40.94552L199.2506 40.94552L200.7724 40.94309L200.7724 40.94309L202.2943 40.9415L202.2943 40.9415L203.8161 40.94046L203.8161 40.94046L205.3379 40.93977L205.3379 40.93977L206.8597 40.93927L206.8597 40.93927L208.3815 40.93869" stroke="#348ABD" stroke-width="2" stroke-linecap="square" stroke-linejoin="round" fill="none" />
		</g>
		<g clip-path="url(#13)" >
    <path id=""  transform="matrix(1 0 0 -1 0 151)"  d="M56.19971 40.93869L57.72153 41.36774L57.72153 41.36774L59.24335 41.8018L59.24335 41.8018L60.76517 42.24586L60.76517 42.24586L62.28699 42.70486L62.28699 42.70486L63.80881 43.18372L63.80881 43.18372L65.33063 43.68723L65.33063 43.68723L66.85244 44.22012L66.85244 44.22012L68.37426 44.78696L68.37426 44.78696L69.89608 45.39216L69.89608 45.39216L71.4179 46.03996L71.4179 46.03996L72.93971 46.73434L72.93971 46.73434L74.46153 47.47902L74.46153 47.47902L75.98335 48.27742L75.98335 48.27742L77.50517 49.13258L77.50517 49.13258L79.02699 50.04713L79.02699 50.04713L80.54881 51.02328L80.54881 51.02328L82.07063 52.06269L82.07063 52.06269L83.59245 53.16648L83.59245 53.16648L85.11426 54.33517L85.11426 54.33517L86.63608 55.56862L86.63608 55.56862L88.1579 56.86597L88.1579 56.86597L89.67972 58.22565L89.67972 58.22565L91.20153 59.64531L91.20153 59.64531L92.72335 61.1218L92.72335 61.1218L94.24517 62.65114L94.24517 62.65114L95.76699 64.22853L95.76699 64.22853L97.28881 65.84836L97.28881 65.84836L98.81062 67.50417L98.81062 67.50417L100.3324 69.18876L100.3324 69.18876L101.8543 70.89413L101.8543 70.89413L103.3761 72.61161L103.3761 72.61161L104.8979 74.33189L104.8979 74.33189L106.4197 76.04507L106.4197 76.04507L107.9415 77.74081L107.9415 77.74081L109.4633 79.40837L109.4633 79.40837L110.9852 81.03677L110.9852 81.03677L112.507 82.61485L112.507 82.61485L114.0288 84.13143L114.0288 84.13143L115.5506 85.57548L115.5506 85.57548L117.0724 86.93615L117.0724 86.93615L118.5943 88.20302L118.5943 88.20302L120.1161 89.36613L120.1161 89.36613L121.6379 90.41622L121.6379 90.41622L123.1597 91.34473L123.1597 91.34473L124.6815 92.14402L124.6815 92.14402L126.2034 92.80743L126.2034 92.80743L127.7252 93.32935L127.7252 93.32935L129.247 93.70538L129.247 93.70538L130.7688 93.9323L130.7688 93.9323L132.2906 94.00816L132.2906 94.00816L133.8124 93.9323L133.8124 93.9323L135.3343 93.70538L135.3343 93.70538L136.8561 93.32935L136.8561 93.32935L138.3779 92.80743L138.3779 92.80743L139.8997 92.14402L139.8997 92.14402L141.4215 91.34473L141.4215 91.34473L142.9434 90.41622L142.9434 90.41622L144.4652 89.36613L144.4652 89.36613L145.987 88.20302L145.987 88.20302L147.5088 86.93615L147.5088 86.93615L149.0306 85.57548L149.0306 85.57548L150.5524 84.13143L150.5524 84.13143L152.0743 82.61485L152.0743 82.61485L153.5961 81.03677L153.5961 81.03677L155.1179 79.40837L155.1179 79.40837L156.6397 77.74081L156.6397 77.74081L158.1615 76.04507L158.1615 76.04507L159.6833 74.33189L159.6833 74.33189L161.2052 72.61161L161.2052 72.61161L162.727 70.89413L162.727 70.89413L164.2488 69.18876L164.2488 69.18876L165.7706 67.50417L165.7706 67.50417L167.2924 65.84836L167.2924 65.84836L168.8143 64.22853L168.8143 64.22853L170.3361 62.65114L170.3361 62.65114L171.8579 61.1218L171.8579 61.1218L173.3797 59.64531L173.3797 59.64531L174.9015 58.22565L174.9015 58.22565L176.4234 56.86597L176.4234 56.86597L177.9452 55.56862L177.9452 55.56862L179.467 54.33517L179.467 54.33517L180.9888 53.16648L180.9888 53.16648L182.5106 52.06269L182.5106 52.06269L184.0324 51.02328L184.0324 51.02328L185.5543 50.04713L185.5543 50.04713L187.0761 49.13258L187.0761 49.13258L188.5979 48.27742L188.5979 48.27742L190.1197 47.47902L190.1197 47.47902L191.6415 46.73434L191.6415 46.73434L193.1633 46.03996L193.1633 46.03996L194.6852 45.39216L194.6852 45.39216L196.207 44.78696L196.207 44.78696L197.7288 44.22012L197.7288 44.22012L199.2506 43.68723L199.2506 43.68723L200.7724 43.18372L200.7724 43.18372L202.2943 42.70486L202.2943 42.70486L203.8161 42.24586L203.8161 42.24586L205.3379 41.8018L205.3379 41.8018L206.8597 41.36774L206.8597 41.36774L208.3815 40.93869" stroke="#A60628" stroke-width="2" stroke-linecap="square" stroke-linejoin="round" fill="none" />
		</g>
		<g clip-path="url(#14)" >
    <path id=""  transform="matrix(1 0 0 -1 0 151)"  d="M56.19971 40.93869L57.72153 41.77947L57.72153 41.77947L59.24335 42.62187L59.24335 42.62187L60.76517 43.46753L60.76517 43.46753L62.28699 44.31799L62.28699 44.31799L63.80881 45.17477L63.80881 45.17477L65.33063 46.03928L65.33063 46.03928L66.85244 46.91284L66.85244 46.91284L68.37426 47.79664L68.37426 47.79664L69.89608 48.69173L69.89608 48.69173L71.4179 49.59898L71.4179 49.59898L72.93971 50.51912L72.93971 50.51912L74.46153 51.45265L74.46153 51.45265L75.98335 52.39989L75.98335 52.39989L77.50517 53.36095L77.50517 53.36095L79.02699 54.33569L79.02699 54.33569L80.54881 55.32374L80.54881 55.32374L82.07063 56.32451L82.07063 56.32451L83.59245 57.33715L83.59245 57.33715L85.11426 58.36057L85.11426 58.36057L86.63608 59.39341L86.63608 59.39341L88.1579 60.43411L88.1579 60.43411L89.67972 61.48083L89.67972 61.48083L91.20153 62.53152L91.20153 62.53152L92.72335 63.58391L92.72335 63.58391L94.24517 64.63551L94.24517 64.63551L95.76699 65.68362L95.76699 65.68362L97.28881 66.72537L97.28881 66.72537L98.81062 67.75776L98.81062 67.75776L100.3324 68.77758L100.3324 68.77758L101.8543 69.78156L101.8543 69.78156L103.3761 70.76627L103.3761 70.76627L104.8979 71.72828L104.8979 71.72828L106.4197 72.66404L106.4197 72.66404L107.9415 73.57001L107.9415 73.57001L109.4633 74.44267L109.4633 74.44267L110.9852 75.27851L110.9852 75.27851L112.507 76.07408L112.507 76.07408L114.0288 76.82603L114.0288 76.82603L115.5506 77.53113L115.5506 77.53113L117.0724 78.18629L117.0724 78.18629L118.5943 78.78857L118.5943 78.78857L120.1161 79.33527L120.1161 79.33527L121.6379 79.82387L121.6379 79.82387L123.1597 80.2521L123.1597 80.2521L124.6815 80.61795L124.6815 80.61795L126.2034 80.9197L126.2034 80.9197L127.7252 81.15591L127.7252 81.15591L129.247 81.32545L129.247 81.32545L130.7688 81.42749L130.7688 81.42749L132.2906 81.46156L132.2906 81.46156L133.8124 81.42749L133.8124 81.42749L135.3343 81.32545L135.3343 81.32545L136.8561 81.15591L136.8561 81.15591L138.3779 80.9197L138.3779 80.9197L139.8997 80.61795L139.8997 80.61795L141.4215 80.2521L141.4215 80.2521L142.9434 79.82387L142.9434 79.82387L144.4652 79.33527L144.4652 79.33527L145.987 78.78857L145.987 78.78857L147.5088 78.18629L147.5088 78.18629L149.0306 77.53113L149.0306 77.53113L150.5524 76.82603L150.5524 76.82603L152.0743 76.07408L152.0743 76.07408L153.5961 75.27851L153.5961 75.27851L155.1179 74.44267L155.1179 74.44267L156.6397 73.57001L156.6397 73.57001L158.1615 72.66404L158.1615 72.66404L159.6833 71.72828L159.6833 71.72828L161.2052 70.76627L161.2052 70.76627L162.727 69.78156L162.727 69.78156L164.2488 68.77758L164.2488 68.77758L165.7706 67.75776L165.7706 67.75776L167.2924 66.72537L167.2924 66.72537L168.8143 65.68362L168.8143 65.68362L170.3361 64.63551L170.3361 64.63551L171.8579 63.58391L171.8579 63.58391L173.3797 62.53152L173.3797 62.53152L174.9015 61.48083L174.9015 61.48083L176.4234 60.43411L176.4234 60.43411L177.9452 59.39341L177.9452 59.39341L179.467 58.36057L179.467 58.36057L180.9888 57.33715L180.9888 57.33715L182.5106 56.32451L182.5106 56.32451L184.0324 55.32374L184.0324 55.32374L185.5543 54.33569L185.5543 54.33569L187.0761 53.36095L187.0761 53.36095L188.5979 52.39989L188.5979 52.39989L190.1197 51.45265L190.1197 51.45265L191.6415 50.51912L191.6415 50.51912L193.1633 49.59898L193.1633 49.59898L194.6852 48.69173L194.6852 48.69173L196.207 47.79664L196.207 47.79664L197.7288 46.91284L197.7288 46.91284L199.2506 46.03928L199.2506 46.03928L200.7724 45.17477L200.7724 45.17477L202.2943 44.31799L202.2943 44.31799L203.8161 43.46753L203.8161 43.46753L205.3379 42.62187L205.3379 42.62187L206.8597 41.77947L206.8597 41.77947L208.3815 40.93869" stroke="#7A68A6" stroke-width="2" stroke-linecap="square" stroke-linejoin="round" fill="none" />
		</g>
		<g clip-path="url(#15)" >
    <path id=""  transform="matrix(1 0 0 -1 0 151)"  d="M56.19971 40.93869L57.72153 41.85871L57.72153 41.85871L59.24335 42.77867L59.24335 42.77867L60.76517 43.6985L60.76517 43.6985L62.28699 44.61811L62.28699 44.61811L63.80881 45.53741L63.80881 45.53741L65.33063 46.45626L65.33063 46.45626L66.85244 47.37449L66.85244 47.37449L68.37426 48.29188L68.37426 48.29188L69.89608 49.20819L69.89608 49.20819L71.4179 50.1231L71.4179 50.1231L72.93971 51.03624L72.93971 51.03624L74.46153 51.94717L74.46153 51.94717L75.98335 52.8554L75.98335 52.8554L77.50517 53.76036L77.50517 53.76036L79.02699 54.66142L79.02699 54.66142L80.54881 55.55785L80.54881 55.55785L82.07063 56.44888L82.07063 56.44888L83.59245 57.33364L83.59245 57.33364L85.11426 58.21119L85.11426 58.21119L86.63608 59.08053L86.63608 59.08053L88.1579 59.94059L88.1579 59.94059L89.67972 60.7902L89.67972 60.7902L91.20153 61.62818L91.20153 61.62818L92.72335 62.45325L92.72335 62.45325L94.24517 63.26408L94.24517 63.26408L95.76699 64.05931L95.76699 64.05931L97.28881 64.83753L97.28881 64.83753L98.81062 65.59728L98.81062 65.59728L100.3324 66.3371L100.3324 66.3371L101.8543 67.05548L101.8543 67.05548L103.3761 67.75092L103.3761 67.75092L104.8979 68.42192L104.8979 68.42192L106.4197 69.06696L106.4197 69.06696L107.9415 69.68456L107.9415 69.68456L109.4633 70.27324L109.4633 70.27324L110.9852 70.83158L110.9852 70.83158L112.507 71.35819L112.507 71.35819L114.0288 71.85173L114.0288 71.85173L115.5506 72.31092L115.5506 72.31092L117.0724 72.73454L117.0724 72.73454L118.5943 73.12145L118.5943 73.12145L120.1161 73.47061L120.1161 73.47061L121.6379 73.78105L121.6379 73.78105L123.1597 74.05191L123.1597 74.05191L124.6815 74.28242L124.6815 74.28242L126.2034 74.47192L126.2034 74.47192L127.7252 74.61989L127.7252 74.61989L129.247 74.72588L129.247 74.72588L130.7688 74.7896L130.7688 74.7896L132.2906 74.81087L132.2906 74.81087L133.8124 74.7896L133.8124 74.7896L135.3343 74.72588L135.3343 74.72588L136.8561 74.61989L136.8561 74.61989L138.3779 74.47192L138.3779 74.47192L139.8997 74.28242L139.8997 74.28242L141.4215 74.05191L141.4215 74.05191L142.9434 73.78105L142.9434 73.78105L144.4652 73.47061L144.4652 73.47061L145.987 73.12145L145.987 73.12145L147.5088 72.73454L147.5088 72.73454L149.0306 72.31092L149.0306 72.31092L150.5524 71.85173L150.5524 71.85173L152.0743 71.35819L152.0743 71.35819L153.5961 70.83158L153.5961 70.83158L155.1179 70.27324L155.1179 70.27324L156.6397 69.68456L156.6397 69.68456L158.1615 69.06696L158.1615 69.06696L159.6833 68.42192L159.6833 68.42192L161.2052 67.75092L161.2052 67.75092L162.727 67.05548L162.727 67.05548L164.2488 66.3371L164.2488 66.3371L165.7706 65.59728L165.7706 65.59728L167.2924 64.83753L167.2924 64.83753L168.8143 64.05931L168.8143 64.05931L170.3361 63.26408L170.3361 63.26408L171.8579 62.45325L171.8579 62.45325L173.3797 61.62818L173.3797 61.62818L174.9015 60.7902L174.9015 60.7902L176.4234 59.94059L176.4234 59.94059L177.9452 59.08053L177.9452 59.08053L179.467 58.21119L179.467 58.21119L180.9888 57.33364L180.9888 57.33364L182.5106 56.44888L182.5106 56.44888L184.0324 55.55785L184.0324 55.55785L185.5543 54.66142L185.5543 54.66142L187.0761 53.76036L187.0761 53.76036L188.5979 52.8554L188.5979 52.8554L190.1197 51.94717L190.1197 51.94717L191.6415 51.03624L191.6415 51.03624L193.1633 50.1231L193.1633 50.1231L194.6852 49.20819L194.6852 49.20819L196.207 48.29188L196.207 48.29188L197.7288 47.37449L197.7288 47.37449L199.2506 46.45626L199.2506 46.45626L200.7724 45.53741L200.7724 45.53741L202.2943 44.61811L202.2943 44.61811L203.8161 43.6985L203.8161 43.6985L205.3379 42.77867L205.3379 42.77867L206.8597 41.85871L206.8597 41.85871L208.3815 40.93869" stroke="#467821" stroke-width="2" stroke-linecap="square" stroke-linejoin="round" fill="none" />
		</g>
		<g clip-path="url(#16)" >
    <path id=""  transform="matrix(1 0 0 -1 0 151)"  d="M56.19971 40.93869L57.72153 41.81157L57.72153 41.81157L59.24335 42.68387L59.24335 42.68387L60.76517 43.555L60.76517 43.555L62.28699 44.42439L62.28699 44.42439L63.80881 45.29144L63.80881 45.29144L65.33063 46.15556L65.33063 46.15556L66.85244 47.01612L66.85244 47.01612L68.37426 47.87252L68.37426 47.87252L69.89608 48.72413L69.89608 48.72413L71.4179 49.5703L71.4179 49.5703L72.93971 50.41037L72.93971 50.41037L74.46153 51.24367L74.46153 51.24367L75.98335 52.06951L75.98335 52.06951L77.50517 52.88717L77.50517 52.88717L79.02699 53.69595L79.02699 53.69595L80.54881 54.49509L80.54881 54.49509L82.07063 55.28384L82.07063 55.28384L83.59245 56.06142L83.59245 56.06142L85.11426 56.82705L85.11426 56.82705L86.63608 57.57992L86.63608 57.57992L88.1579 58.31922L88.1579 58.31922L89.67972 59.04411L89.67972 59.04411L91.20153 59.75376L91.20153 59.75376L92.72335 60.44731L92.72335 60.44731L94.24517 61.12392L94.24517 61.12392L95.76699 61.78273L95.76699 61.78273L97.28881 62.42288L97.28881 62.42288L98.81062 63.04351L98.81062 63.04351L100.3324 63.64377L100.3324 63.64377L101.8543 64.22282L101.8543 64.22282L103.3761 64.77981L103.3761 64.77981L104.8979 65.31393L104.8979 65.31393L106.4197 65.82436L106.4197 65.82436L107.9415 66.31034L107.9415 66.31034L109.4633 66.77109L109.4633 66.77109L110.9852 67.20588L110.9852 67.20588L112.507 67.61401L112.507 67.61401L114.0288 67.99479L114.0288 67.99479L115.5506 68.3476L115.5506 68.3476L117.0724 68.67184L117.0724 68.67184L118.5943 68.96694L118.5943 68.96694L120.1161 69.23241L120.1161 69.23241L121.6379 69.46777L121.6379 69.46777L123.1597 69.67261L123.1597 69.67261L124.6815 69.84657L124.6815 69.84657L126.2034 69.98932L126.2034 69.98932L127.7252 70.10062L127.7252 70.10062L129.247 70.18027L129.247 70.18027L130.7688 70.22811L130.7688 70.22811L132.2906 70.24407L132.2906 70.24407L133.8124 70.22811L133.8124 70.22811L135.3343 70.18027L135.3343 70.18027L136.8561 70.10062L136.8561 70.10062L138.3779 69.98932L138.3779 69.98932L139.8997 69.84657L139.8997 69.84657L141.4215 69.67261L141.4215 69.67261L142.9434 69.46777L142.9434 69.46777L144.4652 69.23241L144.4652 69.23241L145.987 68.96694L145.987 68.96694L147.5088 68.67184L147.5088 68.67184L149.0306 68.3476L149.0306 68.3476L150.5524 67.99479L150.5524 67.99479L152.0743 67.61401L152.0743 67.61401L153.5961 67.20588L153.5961 67.20588L155.1179 66.77109L155.1179 66.77109L156.6397 66.31034L156.6397 66.31034L158.1615 65.82436L158.1615 65.82436L159.6833 65.31393L159.6833 65.31393L161.2052 64.77981L161.2052 64.77981L162.727 64.22282L162.727 64.22282L164.2488 63.64377L164.2488 63.64377L165.7706 63.04351L165.7706 63.04351L167.2924 62.42288L167.2924 62.42288L168.8143 61.78273L168.8143 61.78273L170.3361 61.12392L170.3361 61.12392L171.8579 60.44731L171.8579 60.44731L173.3797 59.75376L173.3797 59.75376L174.9015 59.04411L174.9015 59.04411L176.4234 58.31922L176.4234 58.31922L177.9452 57.57992L177.9452 57.57992L179.467 56.82705L179.467 56.82705L180.9888 56.06142L180.9888 56.06142L182.5106 55.28384L182.5106 55.28384L184.0324 54.49509L184.0324 54.49509L185.5543 53.69595L185.5543 53.69595L187.0761 52.88717L187.0761 52.88717L188.5979 52.06951L188.5979 52.06951L190.1197 51.24367L190.1197 51.24367L191.6415 50.41037L191.6415 50.41037L193.1633 49.5703L193.1633 49.5703L194.6852 48.72413L194.6852 48.72413L196.207 47.87252L196.207 47.87252L197.7288 47.01612L197.7288 47.01612L199.2506 46.15556L199.2506 46.15556L200.7724 45.29144L200.7724 45.29144L202.2943 44.42439L202.2943 44.42439L203.8161 43.555L203.8161 43.555L205.3379 42.68387L205.3379 42.68387L206.8597 41.81157L206.8597 41.81157L208.3815 40.93869" stroke="#D55E00" stroke-width="2" stroke-linecap="square" stroke-linejoin="round" fill="none" />
		</g>
    <path id=""  transform="matrix(1 0 0 -1 0 151)"  d="M48.59063 35.99688L48.59063 144.7169" stroke="#BCBCBC" stroke-width="0.8" stroke-linecap="square" stroke-linejoin="miter" fill="none" />
    <path id=""  transform="matrix(1 0 0 -1 0 151)"  d="M215.9906 35.99688L215.9906 144.7169" stroke="#BCBCBC" stroke-width="0.8" stroke-linecap="square" stroke-linejoin="miter" fill="none" />
    <path id=""  transform="matrix(1 0 0 -1 0 151)"  d="M48.59063 35.99688L215.9906 35.99688" stroke="#BCBCBC" stroke-width="0.8" stroke-linecap="square" stroke-linejoin="miter" fill="none" />
    <path id=""  transform="matrix(1 0 0 -1 0 151)"  d="M48.59063 144.7169L215.9906 144.7169" stroke="#BCBCBC" stroke-width="0.8" stroke-linecap="square" stroke-linejoin="miter" fill="none" />
    <path id=""  transform="matrix(1 0 0 -1 0 151)"  d="M222.9906 52.17719L289.5531 52.17719C 290.8864 52.17719 291.5531 52.84385 291.5531 54.17719L291.5531 54.17719L291.5531 126.5366C 291.5531 127.8699 290.8864 128.5366 289.5531 128.5366L289.5531 128.5366L222.9906 128.5366C 221.6573 128.5366 220.9906 127.8699 220.9906 126.5366L220.9906 126.5366L220.9906 54.17719C 220.9906 52.84385 221.6573 52.17719 222.9906 52.17719z" stroke="#CCCCCC" stroke-width="0.5" stroke-linejoin="miter" fill="#EEEEEE" fill-rule="nonzero" fill-opacity="0.8" />
    <path id=""  transform="matrix(1 0 0 -1 0 151)"  d="M224.9906 120.4428L244.9906 120.4428" stroke="#348ABD" stroke-width="2" stroke-linecap="square" stroke-linejoin="round" fill="none" />
    <path id=""  transform="matrix(1 0 0 -1 0 151)"  d="M254.8206 123.9628L254.8206 122.4128L254.8206 122.4128L256.6706 122.4128L256.6706 122.4128L256.6706 121.7128L256.6706 121.7128L254.8206 121.7128L254.8206 121.7128L254.8206 118.7428C 254.8206 118.2928 254.8806 118.0028 255.0006 117.8828C 255.1206 117.7528 255.3706 117.6928 255.7506 117.6928L255.7506 117.6928L256.6706 117.6928L256.6706 117.6928L256.6706 116.9428L256.6706 116.9428L255.7506 116.9428C 255.0506 116.9428 254.5706 117.0728 254.3106 117.3328C 254.0506 117.5928 253.9206 118.0628 253.9206 118.7428L253.9206 118.7428L253.9206 121.7128L253.9206 121.7128L253.2606 121.7128L253.2606 121.7128L253.2606 122.4128L253.2606 122.4128L253.9206 122.4128L253.9206 122.4128L253.9206 123.9628L253.9206 123.9628L254.8206 123.9628" stroke="none" fill="#000000" fill-rule="nonzero" />
    <path id=""  transform="matrix(1 0 0 -1 0 151)"  d="M257.9706 119.4928L264.2307 119.4928L264.2307 119.4928L264.2307 118.6628L264.2307 118.6628L257.9706 118.6628L257.9706 118.6628L257.9706 119.4928M257.9706 121.4828L264.2307 121.4828L264.2307 121.4828L264.2307 120.6628L264.2307 120.6628L257.9706 120.6628L257.9706 120.6628L257.9706 121.4828" stroke="none" fill="#000000" fill-rule="nonzero" />
    <path id=""  transform="matrix(1 0 0 -1 0 151)"  d="M268.4706 124.3628C 269.2806 124.3628 269.9006 124.0328 270.3406 123.3928C 270.7707 122.7428 270.9907 121.8028 270.9907 120.5828C 270.9907 119.3528 270.7707 118.4128 270.3406 117.7728C 269.9006 117.1328 269.2806 116.8128 268.4706 116.8128C 267.6506 116.8128 267.0207 117.1328 266.5906 117.7728C 266.1606 118.4128 265.9507 119.3528 265.9507 120.5828C 265.9507 121.8028 266.1606 122.7428 266.5906 123.3928C 267.0207 124.0328 267.6506 124.3628 268.4706 124.3628M268.4706 123.5828C 267.9607 123.5828 267.5807 123.3328 267.3206 122.8328C 267.0606 122.3328 266.9406 121.5828 266.9406 120.5828C 266.9406 119.5828 267.0606 118.8328 267.3206 118.3328C 267.5807 117.8328 267.9607 117.5828 268.4706 117.5828C 268.9807 117.5828 269.3607 117.8328 269.6206 118.3328C 269.8706 118.8328 270.0006 119.5828 270.0006 120.5828C 270.0006 121.5828 269.8706 122.3328 269.6206 122.8328C 269.3607 123.3328 268.9807 123.5828 268.4706 123.5828" stroke="none" fill="#000000" fill-rule="nonzero" />
    <path id=""  transform="matrix(1 0 0 -1 0 151)"  d="M272.7206 118.1828L273.7506 118.1828L273.7506 118.1828L273.7506 116.9428L273.7506 116.9428L272.7206 116.9428L272.7206 116.9428L272.7206 118.1828" stroke="none" fill="#000000" fill-rule="nonzero" />
    <path id=""  transform="matrix(1 0 0 -1 0 151)"  d="M278.0106 124.3628C 278.8206 124.3628 279.4406 124.0328 279.8806 123.3928C 280.3106 122.7428 280.5306 121.8028 280.5306 120.5828C 280.5306 119.3528 280.3106 118.4128 279.8806 117.7728C 279.4406 117.1328 278.8206 116.8128 278.0106 116.8128C 277.1906 116.8128 276.5606 117.1328 276.1306 117.7728C 275.7006 118.4128 275.4906 119.3528 275.4906 120.5828C 275.4906 121.8028 275.7006 122.7428 276.1306 123.3928C 276.5606 124.0328 277.1906 124.3628 278.0106 124.3628M278.0106 123.5828C 277.5006 123.5828 277.1206 123.3328 276.8606 122.8328C 276.6006 122.3328 276.4806 121.5828 276.4806 120.5828C 276.4806 119.5828 276.6006 118.8328 276.8606 118.3328C 277.1206 117.8328 277.5006 117.5828 278.0106 117.5828C 278.5206 117.5828 278.9006 117.8328 279.1606 118.3328C 279.4106 118.8328 279.5406 119.5828 279.5406 120.5828C 279.5406 121.5828 279.4106 122.3328 279.1606 122.8328C 278.9006 123.3328 278.5206 123.5828 278.0106 123.5828" stroke="none" fill="#000000" fill-rule="nonzero" />
    <path id=""  transform="matrix(1 0 0 -1 0 151)"  d="M224.9906 105.7709L244.9906 105.7709" stroke="#A60628" stroke-width="2" stroke-linecap="square" stroke-linejoin="round" fill="none" />
    <path id=""  transform="matrix(1 0 0 -1 0 151)"  d="M254.8206 109.2909L254.8206 107.7409L254.8206 107.7409L256.6706 107.7409L256.6706 107.7409L256.6706 107.0409L256.6706 107.0409L254.8206 107.0409L254.8206 107.0409L254.8206 104.0709C 254.8206 103.6209 254.8806 103.3309 255.0006 103.2109C 255.1206 103.0809 255.3706 103.0209 255.7506 103.0209L255.7506 103.0209L256.6706 103.0209L256.6706 103.0209L256.6706 102.2709L256.6706 102.2709L255.7506 102.2709C 255.0506 102.2709 254.5706 102.4009 254.3106 102.6609C 254.0506 102.9209 253.9206 103.3909 253.9206 104.0709L253.9206 104.0709L253.9206 107.0409L253.9206 107.0409L253.2606 107.0409L253.2606 107.0409L253.2606 107.7409L253.2606 107.7409L253.9206 107.7409L253.9206 107.7409L253.9206 109.2909L253.9206 109.2909L254.8206 109.2909" stroke="none" fill="#000000" fill-rule="nonzero" />
    <path id=""  transform="matrix(1 0 0 -1 0 151)"  d="M257.9706 104.8209L264.2307 104.8209L264.2307 104.8209L264.2307 103.9909L264.2307 103.9909L257.9706 103.9909L257.9706 103.9909L257.9706 104.8209M257.9706 106.8109L264.2307 106.8109L264.2307 106.8109L264.2307 105.9909L264.2307 105.9909L257.9706 105.9909L257.9706 105.9909L257.9706 106.8109" stroke="none" fill="#000000" fill-rule="nonzero" />
    <path id=""  transform="matrix(1 0 0 -1 0 151)"  d="M267.2107 103.1009L270.6506 103.1009L270.6506 103.1009L270.6506 102.2709L270.6506 102.2709L266.0207 102.2709L266.0207 102.2709L266.0207 103.1009C 266.3907 103.4809 266.9006 104.0009 267.5507 104.6609C 268.1906 105.3109 268.6006 105.7309 268.7707 105.9209C 269.0906 106.2709 269.3106 106.5709 269.4307 106.8209C 269.5507 107.0609 269.6206 107.3109 269.6206 107.5509C 269.6206 107.9309 269.4807 108.2509 269.2107 108.4909C 268.9406 108.7309 268.5906 108.8609 268.1506 108.8609C 267.8406 108.8609 267.5107 108.8009 267.1707 108.7009C 266.8307 108.5909 266.4607 108.4309 266.0706 108.2109L266.0706 108.2109L266.0706 109.2109C 266.4706 109.3709 266.8406 109.4909 267.1807 109.5709C 267.5207 109.6509 267.8406 109.6909 268.1306 109.6909C 268.8806 109.6909 269.4807 109.5009 269.9307 109.1209C 270.3806 108.7409 270.6107 108.2409 270.6107 107.6109C 270.6107 107.3109 270.5507 107.0209 270.4406 106.7609C 270.3307 106.4909 270.1306 106.1709 269.8307 105.8109C 269.7506 105.7109 269.4907 105.4409 269.0507 104.9909C 268.6107 104.5409 268.0006 103.9109 267.2107 103.1009" stroke="none" fill="#000000" fill-rule="nonzero" />
    <path id=""  transform="matrix(1 0 0 -1 0 151)"  d="M272.7206 103.5109L273.7506 103.5109L273.7506 103.5109L273.7506 102.2709L273.7506 102.2709L272.7206 102.2709L272.7206 102.2709L272.7206 103.5109" stroke="none" fill="#000000" fill-rule="nonzero" />
    <path id=""  transform="matrix(1 0 0 -1 0 151)"  d="M275.9106 109.5609L279.7806 109.5609L279.7806 109.5609L279.7806 108.7309L279.7806 108.7309L276.8106 108.7309L276.8106 108.7309L276.8106 106.9409C 276.9506 106.9909 277.1006 107.0309 277.2406 107.0509C 277.3806 107.0709 277.5306 107.0909 277.6706 107.0909C 278.4806 107.0909 279.1206 106.8609 279.6006 106.4209C 280.0806 105.9709 280.3206 105.3709 280.3206 104.6109C 280.3206 103.8209 280.0706 103.2109 279.5806 102.7809C 279.0906 102.3509 278.4006 102.1409 277.5206 102.1409C 277.2106 102.1409 276.9006 102.1709 276.5806 102.2109C 276.2606 102.2609 275.9406 102.3309 275.6006 102.4409L275.6006 102.4409L275.6006 103.4309C 275.8906 103.2709 276.1906 103.1509 276.5106 103.0709C 276.8206 102.9909 277.1506 102.9609 277.5006 102.9609C 278.0606 102.9609 278.5106 103.1009 278.8406 103.4009C 279.1606 103.7009 279.3306 104.1009 279.3306 104.6109C 279.3306 105.1109 279.1606 105.5109 278.8406 105.8109C 278.5106 106.1109 278.0606 106.2609 277.5006 106.2609C 277.2406 106.2609 276.9706 106.2309 276.7106 106.1709C 276.4506 106.1109 276.1806 106.0209 275.9106 105.9009L275.9106 105.9009L275.9106 109.5609" stroke="none" fill="#000000" fill-rule="nonzero" />
    <path id=""  transform="matrix(1 0 0 -1 0 151)"  d="M224.9906 91.09906L244.9906 91.09906" stroke="#7A68A6" stroke-width="2" stroke-linecap="square" stroke-linejoin="round" fill="none" />
    <path id=""  transform="matrix(1 0 0 -1 0 151)"  d="M254.8206 94.61906L254.8206 93.06906L254.8206 93.06906L256.6706 93.06906L256.6706 93.06906L256.6706 92.36906L256.6706 92.36906L254.8206 92.36906L254.8206 92.36906L254.8206 89.39906C 254.8206 88.94906 254.8806 88.65906 255.0006 88.53906C 255.1206 88.40906 255.3706 88.34906 255.7506 88.34906L255.7506 88.34906L256.6706 88.34906L256.6706 88.34906L256.6706 87.59906L256.6706 87.59906L255.7506 87.59906C 255.0506 87.59906 254.5706 87.72906 254.3106 87.98906C 254.0506 88.24906 253.9206 88.71906 253.9206 89.39906L253.9206 89.39906L253.9206 92.36906L253.9206 92.36906L253.2606 92.36906L253.2606 92.36906L253.2606 93.06906L253.2606 93.06906L253.9206 93.06906L253.9206 93.06906L253.9206 94.61906L253.9206 94.61906L254.8206 94.61906" stroke="none" fill="#000000" fill-rule="nonzero" />
    <path id=""  transform="matrix(1 0 0 -1 0 151)"  d="M257.9706 90.14906L264.2307 90.14906L264.2307 90.14906L264.2307 89.31906L264.2307 89.31906L257.9706 89.31906L257.9706 89.31906L257.9706 90.14906M257.9706 92.13906L264.2307 92.13906L264.2307 92.13906L264.2307 91.31906L264.2307 91.31906L257.9706 91.31906L257.9706 91.31906L257.9706 92.13906" stroke="none" fill="#000000" fill-rule="nonzero" />
    <path id=""  transform="matrix(1 0 0 -1 0 151)"  d="M266.3706 94.88906L270.2407 94.88906L270.2407 94.88906L270.2407 94.05906L270.2407 94.05906L267.2707 94.05906L267.2707 94.05906L267.2707 92.26906C 267.4106 92.31906 267.5606 92.35906 267.7007 92.37906C 267.8406 92.39906 267.9907 92.41906 268.1306 92.41906C 268.9406 92.41906 269.5807 92.18906 270.0606 91.74906C 270.5406 91.29906 270.7806 90.69906 270.7806 89.93906C 270.7806 89.14906 270.5306 88.53906 270.0406 88.10906C 269.5507 87.67906 268.8607 87.46906 267.9807 87.46906C 267.6707 87.46906 267.3607 87.49906 267.0406 87.53906C 266.7206 87.58906 266.4006 87.65906 266.0606 87.76906L266.0606 87.76906L266.0606 88.75906C 266.3506 88.59906 266.6506 88.47906 266.9706 88.39906C 267.2806 88.31906 267.6107 88.28906 267.9607 88.28906C 268.5207 88.28906 268.9706 88.42906 269.3007 88.72906C 269.6206 89.02906 269.7906 89.42906 269.7906 89.93906C 269.7906 90.43906 269.6206 90.83906 269.3007 91.13906C 268.9706 91.43906 268.5207 91.58906 267.9607 91.58906C 267.7007 91.58906 267.4307 91.55906 267.1707 91.49906C 266.9106 91.43906 266.6407 91.34906 266.3706 91.22906L266.3706 91.22906L266.3706 94.88906" stroke="none" fill="#000000" fill-rule="nonzero" />
    <path id=""  transform="matrix(1 0 0 -1 0 151)"  d="M272.7206 88.83906L273.7506 88.83906L273.7506 88.83906L273.7506 87.59906L273.7506 87.59906L272.7206 87.59906L272.7206 87.59906L272.7206 88.83906" stroke="none" fill="#000000" fill-rule="nonzero" />
    <path id=""  transform="matrix(1 0 0 -1 0 151)"  d="M278.0106 95.01906C 278.8206 95.01906 279.4406 94.68906 279.8806 94.04906C 280.3106 93.39906 280.5306 92.45906 280.5306 91.23906C 280.5306 90.00906 280.3106 89.06906 279.8806 88.42906C 279.4406 87.78906 278.8206 87.46906 278.0106 87.46906C 277.1906 87.46906 276.5606 87.78906 276.1306 88.42906C 275.7006 89.06906 275.4906 90.00906 275.4906 91.23906C 275.4906 92.45906 275.7006 93.39906 276.1306 94.04906C 276.5606 94.68906 277.1906 95.01906 278.0106 95.01906M278.0106 94.23906C 277.5006 94.23906 277.1206 93.98906 276.8606 93.48906C 276.6006 92.98906 276.4806 92.23906 276.4806 91.23906C 276.4806 90.23906 276.6006 89.48906 276.8606 88.98906C 277.1206 88.48906 277.5006 88.23906 278.0106 88.23906C 278.5206 88.23906 278.9006 88.48906 279.1606 88.98906C 279.4106 89.48906 279.5406 90.23906 279.5406 91.23906C 279.5406 92.23906 279.4106 92.98906 279.1606 93.48906C 278.9006 93.98906 278.5206 94.23906 278.0106 94.23906" stroke="none" fill="#000000" fill-rule="nonzero" />
    <path id=""  transform="matrix(1 0 0 -1 0 151)"  d="M224.9906 76.42719L244.9906 76.42719" stroke="#467821" stroke-width="2" stroke-linecap="square" stroke-linejoin="round" fill="none" />
    <path id=""  transform="matrix(1 0 0 -1 0 151)"  d="M254.8206 79.94719L254.8206 78.39719L254.8206 78.39719L256.6706 78.39719L256.6706 78.39719L256.6706 77.69719L256.6706 77.69719L254.8206 77.69719L254.8206 77.69719L254.8206 74.72719C 254.8206 74.27718 254.8806 73.98718 255.0006 73.86719C 255.1206 73.73718 255.3706 73.67719 255.7506 73.67719L255.7506 73.67719L256.6706 73.67719L256.6706 73.67719L256.6706 72.92719L256.6706 72.92719L255.7506 72.92719C 255.0506 72.92719 254.5706 73.05718 254.3106 73.31718C 254.0506 73.57719 253.9206 74.04719 253.9206 74.72719L253.9206 74.72719L253.9206 77.69719L253.9206 77.69719L253.2606 77.69719L253.2606 77.69719L253.2606 78.39719L253.2606 78.39719L253.9206 78.39719L253.9206 78.39719L253.9206 79.94719L253.9206 79.94719L254.8206 79.94719" stroke="none" fill="#000000" fill-rule="nonzero" />
    <path id=""  transform="matrix(1 0 0 -1 0 151)"  d="M257.9706 75.47719L264.2307 75.47719L264.2307 75.47719L264.2307 74.64719L264.2307 74.64719L257.9706 74.64719L257.9706 74.64719L257.9706 75.47719M257.9706 77.46719L264.2307 77.46719L264.2307 77.46719L264.2307 76.64719L264.2307 76.64719L257.9706 76.64719L257.9706 76.64719L257.9706 77.46719" stroke="none" fill="#000000" fill-rule="nonzero" />
    <path id=""  transform="matrix(1 0 0 -1 0 151)"  d="M266.1107 80.21719L270.8007 80.21719L270.8007 80.21719L270.8007 79.79719L270.8007 79.79719L268.1506 72.92719L268.1506 72.92719L267.1206 72.92719L267.1206 72.92719L269.6107 79.38718L269.6107 79.38718L266.1107 79.38718L266.1107 79.38718L266.1107 80.21719" stroke="none" fill="#000000" fill-rule="nonzero" />
    <path id=""  transform="matrix(1 0 0 -1 0 151)"  d="M272.7206 74.16718L273.7506 74.16718L273.7506 74.16718L273.7506 72.92719L273.7506 72.92719L272.7206 72.92719L272.7206 72.92719L272.7206 74.16718" stroke="none" fill="#000000" fill-rule="nonzero" />
    <path id=""  transform="matrix(1 0 0 -1 0 151)"  d="M275.9106 80.21719L279.7806 80.21719L279.7806 80.21719L279.7806 79.38718L279.7806 79.38718L276.8106 79.38718L276.8106 79.38718L276.8106 77.59718C 276.9506 77.64719 277.1006 77.68719 277.2406 77.70718C 277.3806 77.72719 277.5306 77.74718 277.6706 77.74718C 278.4806 77.74718 279.1206 77.51718 279.6006 77.07719C 280.0806 76.62718 280.3206 76.02718 280.3206 75.26718C 280.3206 74.47719 280.0706 73.86719 279.5806 73.43719C 279.0906 73.00719 278.4006 72.79719 277.5206 72.79719C 277.2106 72.79719 276.9006 72.82719 276.5806 72.86719C 276.2606 72.91718 275.9406 72.98718 275.6006 73.09718L275.6006 73.09718L275.6006 74.08719C 275.8906 73.92719 276.1906 73.80718 276.5106 73.72719C 276.8206 73.64719 277.1506 73.61719 277.5006 73.61719C 278.0606 73.61719 278.5106 73.75719 278.8406 74.05718C 279.1606 74.35719 279.3306 74.75719 279.3306 75.26718C 279.3306 75.76718 279.1606 76.16718 278.8406 76.46719C 278.5106 76.76718 278.0606 76.91718 277.5006 76.91718C 277.2406 76.91718 276.9706 76.88718 276.7106 76.82719C 276.4506 76.76718 276.1806 76.67719 275.9106 76.55718L275.9106 76.55718L275.9106 80.21719" stroke="none" fill="#000000" fill-rule="nonzero" />
    <path id=""  transform="matrix(1 0 0 -1 0 151)"  d="M224.9906 61.75531L244.9906 61.75531" stroke="#D55E00" stroke-width="2" stroke-linecap="square" stroke-linejoin="round" fill="none" />
    <path id=""  transform="matrix(1 0 0 -1 0 151)"  d="M254.8206 65.27531L254.8206 63.72532L254.8206 63.72532L256.6706 63.72532L256.6706 63.72532L256.6706 63.02531L256.6706 63.02531L254.8206 63.02531L254.8206 63.02531L254.8206 60.05531C 254.8206 59.60531 254.8806 59.31532 255.0006 59.19531C 255.1206 59.06532 255.3706 59.00531 255.7506 59.00531L255.7506 59.00531L256.6706 59.00531L256.6706 59.00531L256.6706 58.25531L256.6706 58.25531L255.7506 58.25531C 255.0506 58.25531 254.5706 58.38531 254.3106 58.64531C 254.0506 58.90532 253.9206 59.37531 253.9206 60.05531L253.9206 60.05531L253.9206 63.02531L253.9206 63.02531L253.2606 63.02531L253.2606 63.02531L253.2606 63.72532L253.2606 63.72532L253.9206 63.72532L253.9206 63.72532L253.9206 65.27531L253.9206 65.27531L254.8206 65.27531" stroke="none" fill="#000000" fill-rule="nonzero" />
    <path id=""  transform="matrix(1 0 0 -1 0 151)"  d="M257.9706 60.80531L264.2307 60.80531L264.2307 60.80531L264.2307 59.97532L264.2307 59.97532L257.9706 59.97532L257.9706 59.97532L257.9706 60.80531M257.9706 62.79531L264.2307 62.79531L264.2307 62.79531L264.2307 61.97532L264.2307 61.97532L257.9706 61.97532L257.9706 61.97532L257.9706 62.79531" stroke="none" fill="#000000" fill-rule="nonzero" />
    <path id=""  transform="matrix(1 0 0 -1 0 151)"  d="M266.5306 59.08532L268.1407 59.08532L268.1407 59.08532L268.1407 64.64532L268.1407 64.64532L266.3907 64.29531L266.3907 64.29531L266.3907 65.19531L266.3907 65.19531L268.1306 65.54531L268.1306 65.54531L269.1206 65.54531L269.1206 65.54531L269.1206 59.08532L269.1206 59.08532L270.7307 59.08532L270.7307 59.08532L270.7307 58.25531L270.7307 58.25531L266.5306 58.25531L266.5306 58.25531L266.5306 59.08532" stroke="none" fill="#000000" fill-rule="nonzero" />
    <path id=""  transform="matrix(1 0 0 -1 0 151)"  d="M274.8306 65.67532C 275.6406 65.67532 276.2606 65.34531 276.7006 64.70531C 277.1306 64.05531 277.3506 63.11531 277.3506 61.89531C 277.3506 60.66531 277.1306 59.72532 276.7006 59.08532C 276.2606 58.44531 275.6406 58.12531 274.8306 58.12531C 274.0106 58.12531 273.3806 58.44531 272.9506 59.08532C 272.5206 59.72532 272.3106 60.66531 272.3106 61.89531C 272.3106 63.11531 272.5206 64.05531 272.9506 64.70531C 273.3806 65.34531 274.0106 65.67532 274.8306 65.67532M274.8306 64.89532C 274.3206 64.89532 273.9406 64.64532 273.6806 64.14532C 273.4206 63.64531 273.3006 62.89531 273.3006 61.89531C 273.3006 60.89531 273.4206 60.14531 273.6806 59.64531C 273.9406 59.14531 274.3206 58.89531 274.8306 58.89531C 275.3406 58.89531 275.7206 59.14531 275.9806 59.64531C 276.2306 60.14531 276.3606 60.89531 276.3606 61.89531C 276.3606 62.89531 276.2306 63.64531 275.9806 64.14532C 275.7206 64.64532 275.3406 64.89532 274.8306 64.89532" stroke="none" fill="#000000" fill-rule="nonzero" />
    <path id=""  transform="matrix(1 0 0 -1 0 151)"  d="M279.0806 59.49532L280.1106 59.49532L280.1106 59.49532L280.1106 58.25531L280.1106 58.25531L279.0806 58.25531L279.0806 58.25531L279.0806 59.49532" stroke="none" fill="#000000" fill-rule="nonzero" />
    <path id=""  transform="matrix(1 0 0 -1 0 151)"  d="M284.3706 65.67532C 285.1806 65.67532 285.8006 65.34531 286.2406 64.70531C 286.6706 64.05531 286.8906 63.11531 286.8906 61.89531C 286.8906 60.66531 286.6706 59.72532 286.2406 59.08532C 285.8006 58.44531 285.1806 58.12531 284.3706 58.12531C 283.5506 58.12531 282.9206 58.44531 282.4906 59.08532C 282.0606 59.72532 281.8506 60.66531 281.8506 61.89531C 281.8506 63.11531 282.0606 64.05531 282.4906 64.70531C 282.9206 65.34531 283.5506 65.67532 284.3706 65.67532M284.3706 64.89532C 283.8606 64.89532 283.4806 64.64532 283.2206 64.14532C 282.9606 63.64531 282.8406 62.89531 282.8406 61.89531C 282.8406 60.89531 282.9606 60.14531 283.2206 59.64531C 283.4806 59.14531 283.8606 58.89531 284.3706 58.89531C 284.8806 58.89531 285.2606 59.14531 285.5206 59.64531C 285.7706 60.14531 285.9006 60.89531 285.9006 61.89531C 285.9006 62.89531 285.7706 63.64531 285.5206 64.14532C 285.2606 64.64532 284.8806 64.89532 284.3706 64.89532" stroke="none" fill="#000000" fill-rule="nonzero" />
	</g>
</g>
</svg>