<?xml version="1.0" standalone="no"?>
<!DOCTYPE svg PUBLIC "-//W3C//DTD SVG 1.0//EN" "http://www.w3.org/TR/2001/REC-SVG-20010904/DTD/svg10.dtd">
<svg xmlns="http://www.w3.org/2000/svg" xmlns:xlink="http://www.w3.org/1999/xlink" id="body_1" width="433" height="225">

<defs>
    <clipPath  id="1">

    <path id=""  clip-rule="evenodd" transform="matrix(1 0 0 1 0 0)"  d="M0 169L0 -0.4793701L0 -0.4793701L325.8156 -0.4793701L325.8156 -0.4793701L325.8156 169L325.8156 169L0 169z" />    </clipPath>
    <clipPath  id="2">

    <path id=""  clip-rule="evenodd" transform="matrix(1 0 0 1 0 0)"  d="M112.4273 164.3362L140.5773 164.3362L140.5773 164.3362L140.5773 147.3763L140.5773 147.3763L112.4273 147.3763z" />    </clipPath>
    <clipPath  id="3">

    <path id=""  clip-rule="evenodd" transform="matrix(1 0 0 1 0 0)"  d="M119.0191 164.3362L147.1691 164.3362L147.1691 164.3362L147.1691 147.3763L147.1691 147.3763L119.0191 147.3763z" />    </clipPath>
    <clipPath  id="4">

    <path id=""  clip-rule="evenodd" transform="matrix(1 0 0 1 0 0)"  d="M124.5953 164.3362L152.7453 164.3362L152.7453 164.3362L152.7453 147.3763L152.7453 147.3763L124.5953 147.3763z" />    </clipPath>
    <clipPath  id="5">

    <path id=""  clip-rule="evenodd" transform="matrix(1 0 0 1 0 0)"  d="M130.7134 164.3362L158.8634 164.3362L158.8634 164.3362L158.8634 147.3763L158.8634 147.3763L130.7134 147.3763z" />    </clipPath>
    <clipPath  id="6">

    <path id=""  clip-rule="evenodd" transform="matrix(1 0 0 1 0 0)"  d="M136.2994 164.3362L164.4494 164.3362L164.4494 164.3362L164.4494 147.3763L164.4494 147.3763L136.2994 147.3763z" />    </clipPath>
    <clipPath  id="7">

    <path id=""  clip-rule="evenodd" transform="matrix(1 0 0 1 0 0)"  d="M142.8912 164.3362L171.0412 164.3362L171.0412 164.3362L171.0412 147.3763L171.0412 147.3763L142.8912 147.3763z" />    </clipPath>
    <clipPath  id="8">

    <path id=""  clip-rule="evenodd" transform="matrix(1 0 0 1 0 0)"  d="M11.08375 134.5232L39.23375 134.5232L39.23375 134.5232L39.23375 117.5632L39.23375 117.5632L11.08375 117.5632z" />    </clipPath>
    <clipPath  id="9">

    <path id=""  clip-rule="evenodd" transform="matrix(1 0 0 1 0 0)"  d="M11.08375 109.8132L39.23375 109.8132L39.23375 109.8132L39.23375 92.85319L39.23375 92.85319L11.08375 92.85319z" />    </clipPath>
    <clipPath  id="10">

    <path id=""  clip-rule="evenodd" transform="matrix(1 0 0 1 0 0)"  d="M19.83 100.5221L19.83 72.37207L19.83 72.37207L2.87 72.37207L2.87 72.37207L2.87 100.5221z" />    </clipPath>
    <clipPath  id="11">

    <path id=""  clip-rule="evenodd" transform="matrix(1 0 0 1 0 0)"  d="M19.83 93.93027L19.83 65.78027L19.83 65.78027L2.87 65.78027L2.87 65.78027L2.87 93.93027z" />    </clipPath>
    <clipPath  id="12">

    <path id=""  clip-rule="evenodd" transform="matrix(1 0 0 1 0 0)"  d="M19.83 88.3541L19.83 60.2041L19.83 60.2041L2.87 60.2041L2.87 60.2041L2.87 88.3541z" />    </clipPath>
    <clipPath  id="13">

    <path id=""  clip-rule="evenodd" transform="matrix(1 0 0 1 0 0)"  d="M19.83 82.23594L19.83 54.08594L19.83 54.08594L2.87 54.08594L2.87 54.08594L2.87 82.23594z" />    </clipPath>
    <clipPath  id="14">

    <path id=""  clip-rule="evenodd" transform="matrix(1 0 0 1 0 0)"  d="M19.83 76.65L19.83 48.5L19.83 48.5L2.87 48.5L2.87 48.5L2.87 76.65z" />    </clipPath>
    <clipPath  id="15">

    <path id=""  clip-rule="evenodd" transform="matrix(1 0 0 1 0 0)"  d="M19.83 70.0582L19.83 41.9082L19.83 41.9082L2.87 41.9082L2.87 41.9082L2.87 70.0582z" />    </clipPath>
    <clipPath  id="16">

    <path id=""  clip-rule="evenodd" transform="matrix(1 0 0 1 0 0)"  d="M52.575 131.0344L219.975 131.0344L219.975 131.0344L219.975 22.31438L219.975 22.31438L52.575 22.31438z" />    </clipPath>
    <clipPath  id="17">

    <path id=""  clip-rule="evenodd" transform="matrix(1 0 0 1 0 0)"  d="M52.575 131.0344L219.975 131.0344L219.975 131.0344L219.975 22.31438L219.975 22.31438L52.575 22.31438z" />    </clipPath>
    <clipPath  id="18">

    <path id=""  clip-rule="evenodd" transform="matrix(1 0 0 1 0 0)"  d="M103.9683 21.87038L137.7483 21.87038L137.7483 21.87038L137.7483 1.518372L137.7483 1.518372L103.9683 1.518372z" />    </clipPath>
    <clipPath  id="19">

    <path id=""  clip-rule="evenodd" transform="matrix(1 0 0 1 0 0)"  d="M111.2984 21.87038L145.0784 21.87038L145.0784 21.87038L145.0784 1.518372L145.0784 1.518372L111.2984 1.518372z" />    </clipPath>
    <clipPath  id="20">

    <path id=""  clip-rule="evenodd" transform="matrix(1 0 0 1 0 0)"  d="M115.3589 21.87038L149.1389 21.87038L149.1389 21.87038L149.1389 1.518372L149.1389 1.518372L115.3589 1.518372z" />    </clipPath>
    <clipPath  id="21">

    <path id=""  clip-rule="evenodd" transform="matrix(1 0 0 1 0 0)"  d="M122.5835 21.87038L156.3635 21.87038L156.3635 21.87038L156.3635 1.518372L156.3635 1.518372L122.5835 1.518372z" />    </clipPath>
    <clipPath  id="22">

    <path id=""  clip-rule="evenodd" transform="matrix(1 0 0 1 0 0)"  d="M129.6851 21.87038L163.4651 21.87038L163.4651 21.87038L163.4651 1.518372L163.4651 1.518372L129.6851 1.518372z" />    </clipPath>
    <clipPath  id="23">

    <path id=""  clip-rule="evenodd" transform="matrix(1 0 0 1 0 0)"  d="M137.0269 21.87038L170.8069 21.87038L170.8069 21.87038L170.8069 1.518372L170.8069 1.518372L137.0269 1.518372z" />    </clipPath>
    <clipPath  id="24">

    <path id=""  clip-rule="evenodd" transform="matrix(1 0 0 1 0 0)"  d="M246.765 76.72625L274.915 76.72625L274.915 76.72625L274.915 59.76625L274.915 59.76625L246.765 59.76625z" />    </clipPath>
    <clipPath  id="25">

    <path id=""  clip-rule="evenodd" transform="matrix(1 0 0 1 0 0)"  d="M254.2845 76.72625L282.4345 76.72625L282.4345 76.72625L282.4345 59.76625L282.4345 59.76625L254.2845 59.76625z" />    </clipPath>
    <clipPath  id="26">

    <path id=""  clip-rule="evenodd" transform="matrix(1 0 0 1 0 0)"  d="M260.6469 76.72625L288.7968 76.72625L288.7968 76.72625L288.7968 59.76625L288.7968 59.76625L260.6469 59.76625z" />    </clipPath>
    <clipPath  id="27">

    <path id=""  clip-rule="evenodd" transform="matrix(1 0 0 1 0 0)"  d="M264.0306 76.72625L292.1806 76.72625L292.1806 76.72625L292.1806 59.76625L292.1806 59.76625L264.0306 59.76625z" />    </clipPath>
    <clipPath  id="28">

    <path id=""  clip-rule="evenodd" transform="matrix(1 0 0 1 0 0)"  d="M270.0511 76.72625L298.2011 76.72625L298.2011 76.72625L298.2011 59.76625L298.2011 59.76625L270.0511 59.76625z" />    </clipPath>
    <clipPath  id="29">

    <path id=""  clip-rule="evenodd" transform="matrix(1 0 0 1 0 0)"  d="M276.1693 76.72625L304.3193 76.72625L304.3193 76.72625L304.3193 59.76625L304.3193 59.76625L276.1693 59.76625z" />    </clipPath>
    <clipPath  id="30">

    <path id=""  clip-rule="evenodd" transform="matrix(1 0 0 1 0 0)"  d="M281.7552 76.72625L309.9052 76.72625L309.9052 76.72625L309.9052 59.76625L309.9052 59.76625L281.7552 59.76625z" />    </clipPath>
    <clipPath  id="31">

    <path id=""  clip-rule="evenodd" transform="matrix(1 0 0 1 0 0)"  d="M246.765 91.80437L274.915 91.80437L274.915 91.80437L274.915 74.84438L274.915 74.84438L246.765 74.84438z" />    </clipPath>
    <clipPath  id="32">

    <path id=""  clip-rule="evenodd" transform="matrix(1 0 0 1 0 0)"  d="M253.0834 91.80437L281.2334 91.80437L281.2334 91.80437L281.2334 74.84438L281.2334 74.84438L253.0834 74.84438z" />    </clipPath>
    <clipPath  id="33">

    <path id=""  clip-rule="evenodd" transform="matrix(1 0 0 1 0 0)"  d="M258.8695 91.80437L287.0195 91.80437L287.0195 91.80437L287.0195 74.84438L287.0195 74.84438L258.8695 74.84438z" />    </clipPath>
    <clipPath  id="34">

    <path id=""  clip-rule="evenodd" transform="matrix(1 0 0 1 0 0)"  d="M264.4554 91.80437L292.6054 91.80437L292.6054 91.80437L292.6054 74.84438L292.6054 74.84438L264.4554 74.84438z" />    </clipPath>
    <clipPath  id="35">

    <path id=""  clip-rule="evenodd" transform="matrix(1 0 0 1 0 0)"  d="M270.7933 91.80437L298.9433 91.80437L298.9433 91.80437L298.9433 74.84438L298.9433 74.84438L270.7933 74.84438z" />    </clipPath>
    <clipPath  id="36">

    <path id=""  clip-rule="evenodd" transform="matrix(1 0 0 1 0 0)"  d="M277.1556 91.80437L305.3056 91.80437L305.3056 91.80437L305.3056 74.84438L305.3056 74.84438L277.1556 74.84438z" />    </clipPath>
    <clipPath  id="37">

    <path id=""  clip-rule="evenodd" transform="matrix(1 0 0 1 0 0)"  d="M280.5394 91.80437L308.6894 91.80437L308.6894 91.80437L308.6894 74.84438L308.6894 74.84438L280.5394 74.84438z" />    </clipPath>
    <clipPath  id="38">

    <path id=""  clip-rule="evenodd" transform="matrix(1 0 0 1 0 0)"  d="M286.5599 91.80437L314.7099 91.80437L314.7099 91.80437L314.7099 74.84438L314.7099 74.84438L286.5599 74.84438z" />    </clipPath>
    <clipPath  id="39">

    <path id=""  clip-rule="evenodd" transform="matrix(1 0 0 1 0 0)"  d="M292.6781 91.80437L320.8281 91.80437L320.8281 91.80437L320.8281 74.84438L320.8281 74.84438L292.6781 74.84438z" />    </clipPath>
    <clipPath  id="40">

    <path id=""  clip-rule="evenodd" transform="matrix(1 0 0 1 0 0)"  d="M298.264 91.80437L326.414 91.80437L326.414 91.80437L326.414 74.84438L326.414 74.84438L298.264 74.84438z" />    </clipPath>
</defs>

<g transform="matrix(1.3333 0 0 1.3333 0 0)">
	<g clip-path="url(#1)" >
    <path id=""  transform="matrix(1 0 0 -1 0 169)"  d="M52.575 37.96563L219.975 37.96563L219.975 37.96563L219.975 146.6856L219.975 146.6856L52.575 146.6856z" stroke="none" fill="#FFFFFF" fill-rule="nonzero" />
    <path id=""  transform="matrix(1 0 0 -1 0 169)"  d="M60.18409 37.96563L60.18409 34.46563" stroke="#000000" stroke-width="0.8" stroke-linejoin="miter" fill="#000000" fill-rule="nonzero" />
    <path id=""  transform="matrix(1 0 0 -1 0 169)"  d="M55.41096 30.79188C 56.22097 30.79188 56.84097 30.46188 57.28096 29.82188C 57.71096 29.17188 57.93097 28.23188 57.93097 27.01188C 57.93097 25.78188 57.71096 24.84188 57.28096 24.20188C 56.84097 23.56188 56.22097 23.24188 55.41096 23.24188C 54.59097 23.24188 53.96096 23.56188 53.53096 24.20188C 53.10096 24.84188 52.89096 25.78188 52.89096 27.01188C 52.89096 28.23188 53.10096 29.17188 53.53096 29.82188C 53.96096 30.46188 54.59097 30.79188 55.41096 30.79188M55.41096 30.01188C 54.90096 30.01188 54.52097 29.76188 54.26096 29.26188C 54.00097 28.76188 53.88097 28.01188 53.88097 27.01188C 53.88097 26.01188 54.00097 25.26188 54.26096 24.76188C 54.52097 24.26188 54.90096 24.01188 55.41096 24.01188C 55.92096 24.01188 56.30096 24.26188 56.56097 24.76188C 56.81097 25.26188 56.94096 26.01188 56.94096 27.01188C 56.94096 28.01188 56.81097 28.76188 56.56097 29.26188C 56.30096 29.76188 55.92096 30.01188 55.41096 30.01188" stroke="none" fill="#000000" fill-rule="nonzero" />
    <path id=""  transform="matrix(1 0 0 -1 0 169)"  d="M59.66096 24.61188L60.69096 24.61188L60.69096 24.61188L60.69096 23.37188L60.69096 23.37188L59.66096 23.37188L59.66096 23.37188L59.66096 24.61188" stroke="none" fill="#000000" fill-rule="nonzero" />
    <path id=""  transform="matrix(1 0 0 -1 0 169)"  d="M64.95097 30.79188C 65.76096 30.79188 66.38097 30.46188 66.82097 29.82188C 67.25097 29.17188 67.47096 28.23188 67.47096 27.01188C 67.47096 25.78188 67.25097 24.84188 66.82097 24.20188C 66.38097 23.56188 65.76096 23.24188 64.95097 23.24188C 64.13097 23.24188 63.50097 23.56188 63.07096 24.20188C 62.64096 24.84188 62.43097 25.78188 62.43097 27.01188C 62.43097 28.23188 62.64096 29.17188 63.07096 29.82188C 63.50097 30.46188 64.13097 30.79188 64.95097 30.79188M64.95097 30.01188C 64.44096 30.01188 64.06097 29.76188 63.80096 29.26188C 63.54097 28.76188 63.42097 28.01188 63.42097 27.01188C 63.42097 26.01188 63.54097 25.26188 63.80096 24.76188C 64.06097 24.26188 64.44096 24.01188 64.95097 24.01188C 65.46097 24.01188 65.84097 24.26188 66.10097 24.76188C 66.35097 25.26188 66.48096 26.01188 66.48096 27.01188C 66.48096 28.01188 66.35097 28.76188 66.10097 29.26188C 65.84097 29.76188 65.46097 30.01188 64.95097 30.01188" stroke="none" fill="#000000" fill-rule="nonzero" />
    <path id=""  transform="matrix(1 0 0 -1 0 169)"  d="M100.658 37.96563L100.658 34.46563" stroke="#000000" stroke-width="0.8" stroke-linejoin="miter" fill="#000000" fill-rule="nonzero" />
    <path id=""  transform="matrix(1 0 0 -1 0 169)"  d="M94.62486 24.20188L98.06486 24.20188L98.06486 24.20188L98.06486 23.37188L98.06486 23.37188L93.43486 23.37188L93.43486 23.37188L93.43486 24.20188C 93.80486 24.58187 94.31486 25.10188 94.96486 25.76188C 95.60486 26.41188 96.01485 26.83188 96.18486 27.02188C 96.50486 27.37188 96.72485 27.67188 96.84486 27.92188C 96.96486 28.16188 97.03486 28.41188 97.03486 28.65188C 97.03486 29.03188 96.89486 29.35188 96.62486 29.59188C 96.35486 29.83188 96.00486 29.96188 95.56486 29.96188C 95.25486 29.96188 94.92486 29.90188 94.58485 29.80188C 94.24486 29.69188 93.87486 29.53188 93.48486 29.31188L93.48486 29.31188L93.48486 30.31188C 93.88486 30.47188 94.25486 30.59188 94.59486 30.67188C 94.93486 30.75188 95.25486 30.79188 95.54486 30.79188C 96.29486 30.79188 96.89486 30.60188 97.34486 30.22188C 97.79486 29.84188 98.02486 29.34188 98.02486 28.71188C 98.02486 28.41188 97.96486 28.12188 97.85486 27.86188C 97.74486 27.59188 97.54486 27.27188 97.24486 26.91188C 97.16486 26.81188 96.90485 26.54188 96.46486 26.09188C 96.02486 25.64188 95.41486 25.01188 94.62486 24.20188" stroke="none" fill="#000000" fill-rule="nonzero" />
    <path id=""  transform="matrix(1 0 0 -1 0 169)"  d="M100.1349 24.61188L101.1649 24.61188L101.1649 24.61188L101.1649 23.37188L101.1649 23.37188L100.1349 23.37188L100.1349 23.37188L100.1349 24.61188" stroke="none" fill="#000000" fill-rule="nonzero" />
    <path id=""  transform="matrix(1 0 0 -1 0 169)"  d="M103.3249 30.66188L107.1949 30.66188L107.1949 30.66188L107.1949 29.83188L107.1949 29.83188L104.2249 29.83188L104.2249 29.83188L104.2249 28.04188C 104.3649 28.09188 104.5149 28.13188 104.6549 28.15188C 104.7949 28.17188 104.9449 28.19188 105.0849 28.19188C 105.8949 28.19188 106.5349 27.96188 107.0149 27.52188C 107.4949 27.07188 107.7349 26.47188 107.7349 25.71188C 107.7349 24.92188 107.4849 24.31188 106.9949 23.88188C 106.5049 23.45188 105.8149 23.24188 104.9349 23.24188C 104.6249 23.24188 104.3149 23.27188 103.9949 23.31188C 103.6749 23.36188 103.3549 23.43188 103.0149 23.54188L103.0149 23.54188L103.0149 24.53188C 103.3049 24.37188 103.6049 24.25187 103.9249 24.17188C 104.2349 24.09188 104.5649 24.06188 104.9149 24.06188C 105.4749 24.06188 105.9249 24.20188 106.2549 24.50188C 106.5749 24.80188 106.7449 25.20188 106.7449 25.71188C 106.7449 26.21188 106.5749 26.61188 106.2549 26.91188C 105.9249 27.21188 105.4749 27.36188 104.9149 27.36188C 104.6549 27.36188 104.3849 27.33188 104.1249 27.27188C 103.8649 27.21188 103.5949 27.12188 103.3249 27.00188L103.3249 27.00188L103.3249 30.66188" stroke="none" fill="#000000" fill-rule="nonzero" />
    <path id=""  transform="matrix(1 0 0 -1 0 169)"  d="M141.1319 37.96563L141.1319 34.46563" stroke="#000000" stroke-width="0.8" stroke-linejoin="miter" fill="#000000" fill-rule="nonzero" />
    <path id=""  transform="matrix(1 0 0 -1 0 169)"  d="M134.2587 30.66188L138.1287 30.66188L138.1287 30.66188L138.1287 29.83188L138.1287 29.83188L135.1587 29.83188L135.1587 29.83188L135.1587 28.04188C 135.2987 28.09188 135.4487 28.13188 135.5887 28.15188C 135.7287 28.17188 135.8787 28.19188 136.0187 28.19188C 136.8287 28.19188 137.4687 27.96188 137.9487 27.52188C 138.4287 27.07188 138.6687 26.47188 138.6687 25.71188C 138.6687 24.92188 138.4187 24.31188 137.9287 23.88188C 137.4387 23.45188 136.7487 23.24188 135.8687 23.24188C 135.5587 23.24188 135.2487 23.27188 134.9287 23.31188C 134.6087 23.36188 134.2887 23.43188 133.9487 23.54188L133.9487 23.54188L133.9487 24.53188C 134.2387 24.37188 134.5387 24.25187 134.8587 24.17188C 135.1687 24.09188 135.4987 24.06188 135.8487 24.06188C 136.4087 24.06188 136.8587 24.20188 137.1887 24.50188C 137.5087 24.80188 137.6787 25.20188 137.6787 25.71188C 137.6787 26.21188 137.5087 26.61188 137.1887 26.91188C 136.8587 27.21188 136.4087 27.36188 135.8487 27.36188C 135.5887 27.36188 135.3187 27.33188 135.0587 27.27188C 134.7987 27.21188 134.5287 27.12188 134.2587 27.00188L134.2587 27.00188L134.2587 30.66188" stroke="none" fill="#000000" fill-rule="nonzero" />
    <path id=""  transform="matrix(1 0 0 -1 0 169)"  d="M140.6087 24.61188L141.6387 24.61188L141.6387 24.61188L141.6387 23.37188L141.6387 23.37188L140.6087 23.37188L140.6087 23.37188L140.6087 24.61188" stroke="none" fill="#000000" fill-rule="nonzero" />
    <path id=""  transform="matrix(1 0 0 -1 0 169)"  d="M145.8987 30.79188C 146.7088 30.79188 147.3288 30.46188 147.7688 29.82188C 148.1987 29.17188 148.4187 28.23188 148.4187 27.01188C 148.4187 25.78188 148.1987 24.84188 147.7688 24.20188C 147.3288 23.56188 146.7088 23.24188 145.8987 23.24188C 145.0788 23.24188 144.4487 23.56188 144.0188 24.20188C 143.5887 24.84188 143.3788 25.78188 143.3788 27.01188C 143.3788 28.23188 143.5887 29.17188 144.0188 29.82188C 144.4487 30.46188 145.0788 30.79188 145.8987 30.79188M145.8987 30.01188C 145.3887 30.01188 145.0087 29.76188 144.7487 29.26188C 144.4888 28.76188 144.3687 28.01188 144.3687 27.01188C 144.3687 26.01188 144.4888 25.26188 144.7487 24.76188C 145.0087 24.26188 145.3887 24.01188 145.8987 24.01188C 146.4088 24.01188 146.7888 24.26188 147.0488 24.76188C 147.2988 25.26188 147.4288 26.01188 147.4288 27.01188C 147.4288 28.01188 147.2988 28.76188 147.0488 29.26188C 146.7888 29.76188 146.4088 30.01188 145.8987 30.01188" stroke="none" fill="#000000" fill-rule="nonzero" />
    <path id=""  transform="matrix(1 0 0 -1 0 169)"  d="M181.6058 37.96563L181.6058 34.46563" stroke="#000000" stroke-width="0.8" stroke-linejoin="miter" fill="#000000" fill-rule="nonzero" />
    <path id=""  transform="matrix(1 0 0 -1 0 169)"  d="M174.4726 30.66188L179.1626 30.66188L179.1626 30.66188L179.1626 30.24188L179.1626 30.24188L176.5126 23.37188L176.5126 23.37188L175.4826 23.37188L175.4826 23.37188L177.9726 29.83188L177.9726 29.83188L174.4726 29.83188L174.4726 29.83188L174.4726 30.66188" stroke="none" fill="#000000" fill-rule="nonzero" />
    <path id=""  transform="matrix(1 0 0 -1 0 169)"  d="M181.0826 24.61188L182.1126 24.61188L182.1126 24.61188L182.1126 23.37188L182.1126 23.37188L181.0826 23.37188L181.0826 23.37188L181.0826 24.61188" stroke="none" fill="#000000" fill-rule="nonzero" />
    <path id=""  transform="matrix(1 0 0 -1 0 169)"  d="M184.2726 30.66188L188.1426 30.66188L188.1426 30.66188L188.1426 29.83188L188.1426 29.83188L185.1726 29.83188L185.1726 29.83188L185.1726 28.04188C 185.3126 28.09188 185.4626 28.13188 185.6026 28.15188C 185.7426 28.17188 185.8926 28.19188 186.0326 28.19188C 186.8426 28.19188 187.4826 27.96188 187.9626 27.52188C 188.4426 27.07188 188.6826 26.47188 188.6826 25.71188C 188.6826 24.92188 188.4326 24.31188 187.9426 23.88188C 187.4526 23.45188 186.7626 23.24188 185.8826 23.24188C 185.5726 23.24188 185.2626 23.27188 184.9426 23.31188C 184.6226 23.36188 184.3026 23.43188 183.9626 23.54188L183.9626 23.54188L183.9626 24.53188C 184.2526 24.37188 184.5526 24.25187 184.8726 24.17188C 185.1826 24.09188 185.5126 24.06188 185.8626 24.06188C 186.4226 24.06188 186.8726 24.20188 187.2026 24.50188C 187.5226 24.80188 187.6926 25.20188 187.6926 25.71188C 187.6926 26.21188 187.5226 26.61188 187.2026 26.91188C 186.8726 27.21188 186.4226 27.36188 185.8626 27.36188C 185.6026 27.36188 185.3326 27.33188 185.0726 27.27188C 184.8126 27.21188 184.5426 27.12188 184.2726 27.00188L184.2726 27.00188L184.2726 30.66188" stroke="none" fill="#000000" fill-rule="nonzero" />
    <path id=""  transform="matrix(1 0 0 -1 0 169)"  d="M119.0306 14.76375L117.0506 12.10375L117.0506 12.10375L119.1306 9.29375L119.1306 9.29375L118.0706 9.29375L118.0706 9.29375L116.4806 11.44375L116.4806 11.44375L114.8906 9.29375L114.8906 9.29375L113.8306 9.29375L113.8306 9.29375L115.9506 12.15375L115.9506 12.15375L114.0106 14.76375L114.0106 14.76375L115.0706 14.76375L115.0706 14.76375L116.5206 12.81375L116.5206 12.81375L117.9706 14.76375L117.9706 14.76375L119.0306 14.76375" stroke="none" fill="#000000" fill-rule="nonzero" />
		<g clip-path="url(#2)" >
    <path id=""  transform="matrix(1 0 0 -1 0 169)"  d="M127.2673 13.33375L127.7573 14.76375L127.7573 14.76375L128.5573 14.76375L128.5573 14.76375L127.5573 11.79375L127.5573 11.79375L127.7473 10.73375C 127.7773 10.57375 127.8473 10.42375 127.9673 10.29375C 128.0973 10.13375 128.2173 10.05375 128.3173 10.05375L128.3173 10.05375L128.7473 10.05375L128.7473 10.05375L128.7473 9.29375L128.7473 9.29375L128.2173 9.29375C 127.9073 9.29375 127.6173 9.42375 127.3473 9.70375C 127.2073 9.84375 127.1173 10.05375 127.0573 10.33375C 126.9073 9.97375 126.6773 9.653749 126.3773 9.37375C 126.2373 9.25375 125.9273 9.18375 125.4673 9.18375C 124.6973 9.18375 124.1273 9.42375 123.7573 9.91375C 123.3773 10.42375 123.1873 11.12375 123.1873 12.02375C 123.1873 12.98375 123.3873 13.68375 123.8073 14.13375C 124.2673 14.63375 124.8173 14.88375 125.4673 14.88375C 126.4773 14.88375 127.0773 14.36375 127.2673 13.33375M126.7673 11.83375L126.5573 12.96375C 126.4073 13.73375 126.0473 14.12375 125.4673 14.12375C 125.0273 14.12375 124.7073 13.94375 124.5173 13.58375C 124.2573 13.13375 124.1373 12.61375 124.1373 12.02375C 124.1373 11.30375 124.2573 10.77375 124.5073 10.43375C 124.7473 10.08375 125.0673 9.91375 125.4673 9.91375C 125.8973 9.91375 126.2273 10.25375 126.4673 10.95375L126.4673 10.95375L126.7673 11.83375" stroke="none" fill="#000000" fill-rule="nonzero" />
    <path id=""  transform="matrix(1 0 0 -1 0 169)"  d="M126.3573 17.29375L127.3273 17.29375L127.3273 17.29375L125.7373 15.45375L125.7373 15.45375L124.9873 15.45375L124.9873 15.45375L126.3573 17.29375" stroke="none" fill="#000000" fill-rule="nonzero" />
		</g>
		<g clip-path="url(#3)" >
    <path id=""  transform="matrix(1 0 0 -1 0 169)"  d="M132.7891 9.91375C 133.2191 9.91375 133.5591 9.78375 133.8191 9.54375C 134.0891 9.29375 134.2291 8.97375 134.2291 8.58375C 134.2291 8.21375 134.1091 7.89375 133.8691 7.63375C 133.6091 7.35375 133.2091 7.20375 132.6891 7.20375C 132.6891 7.45375 132.6891 7.70375 132.6891 7.94375C 132.9091 7.92375 133.0891 7.99375 133.2291 8.13375C 133.3291 8.25375 133.3891 8.36375 133.3891 8.483749C 133.3891 8.66375 133.3291 8.81375 133.2291 8.95375C 133.1291 9.09375 132.9791 9.16375 132.7891 9.16375C 130.7591 9.16375 129.7491 9.86375 129.7491 11.28375C 129.7491 12.26375 130.2891 12.89375 131.3791 13.18375C 130.4591 13.29375 130.0091 13.77375 130.0091 14.62375C 130.0091 15.26375 130.3691 15.71375 131.0891 15.98375L131.0891 15.98375L130.0691 15.98375L130.0691 15.98375L130.0691 16.89375L130.0691 16.89375L133.9191 16.89375L133.9191 16.89375L133.9191 15.98375C 131.8691 15.98375 130.8491 15.50375 130.8491 14.56375C 130.8491 13.94375 131.7091 13.61375 133.4291 13.59375L133.4291 13.59375L133.4291 12.76375C 131.5691 12.82375 130.6491 12.33375 130.6591 11.28375C 130.6591 10.40375 131.3691 9.943749 132.7891 9.91375" stroke="none" fill="#000000" fill-rule="nonzero" />
		</g>
		<g clip-path="url(#4)" >
    <path id=""  transform="matrix(1 0 0 -1 0 169)"  d="M137.8653 14.89375C 138.6453 14.89375 139.2553 14.63375 139.7053 14.13375C 140.1453 13.62375 140.3753 12.92375 140.3753 12.02375C 140.3753 11.12375 140.1453 10.42375 139.7053 9.92375C 139.2553 9.41375 138.6453 9.16375 137.8653 9.16375C 137.0753 9.16375 136.4553 9.41375 136.0153 9.92375C 135.5753 10.42375 135.3553 11.12375 135.3553 12.02375C 135.3553 12.92375 135.5753 13.62375 136.0153 14.13375C 136.4553 14.63375 137.0753 14.89375 137.8653 14.89375M137.8653 14.13375C 137.3853 14.13375 137.0053 13.94375 136.7253 13.56375C 136.4453 13.18375 136.3053 12.67375 136.3053 12.02375C 136.3053 11.36375 136.4353 10.85375 136.7153 10.47375C 136.9953 10.09375 137.3753 9.91375 137.8653 9.91375C 138.3453 9.91375 138.7253 10.09375 139.0053 10.47375C 139.2853 10.85375 139.4253 11.36375 139.4253 12.02375C 139.4253 12.66375 139.2853 13.18375 139.0053 13.56375C 138.7253 13.94375 138.3453 14.13375 137.8653 14.13375" stroke="none" fill="#000000" fill-rule="nonzero" />
		</g>
		<g clip-path="url(#5)" >
    <path id=""  transform="matrix(1 0 0 -1 0 169)"  d="M142.9534 9.29375L141.2834 14.76375L141.2834 14.76375L142.2534 14.76375L142.2534 14.76375L143.6634 10.17375C 144.0534 10.57375 144.4134 11.05375 144.7334 11.61375C 144.9734 12.03375 145.1034 12.42375 145.1234 12.79375C 145.1234 12.96375 145.0934 13.21375 145.0234 13.54375C 144.9234 13.92375 144.7034 14.33375 144.3634 14.76375L144.3634 14.76375L145.2734 14.76375L145.2734 14.76375L145.2734 14.76375C 145.4934 14.46375 145.6834 14.12375 145.8334 13.72375C 145.9734 13.34375 146.0434 13.03375 146.0434 12.78375C 146.0434 12.14375 145.8134 11.53375 145.3734 10.97375C 144.7934 10.23375 144.3134 9.67375 143.9134 9.29375L143.9134 9.29375L142.9534 9.29375" stroke="none" fill="#000000" fill-rule="nonzero" />
		</g>
		<g clip-path="url(#6)" >
    <path id=""  transform="matrix(1 0 0 -1 0 169)"  d="M151.1394 13.33375L151.6294 14.76375L151.6294 14.76375L152.4294 14.76375L152.4294 14.76375L151.4294 11.79375L151.4294 11.79375L151.6194 10.73375C 151.6494 10.57375 151.7194 10.42375 151.8394 10.29375C 151.9694 10.13375 152.0894 10.05375 152.1894 10.05375L152.1894 10.05375L152.6194 10.05375L152.6194 10.05375L152.6194 9.29375L152.6194 9.29375L152.0894 9.29375C 151.7794 9.29375 151.4894 9.42375 151.2194 9.70375C 151.0794 9.84375 150.9894 10.05375 150.9294 10.33375C 150.7794 9.97375 150.5494 9.653749 150.2494 9.37375C 150.1094 9.25375 149.7994 9.18375 149.3394 9.18375C 148.5694 9.18375 147.9994 9.42375 147.6294 9.91375C 147.2494 10.42375 147.0594 11.12375 147.0594 12.02375C 147.0594 12.98375 147.2594 13.68375 147.6794 14.13375C 148.1394 14.63375 148.6894 14.88375 149.3394 14.88375C 150.3494 14.88375 150.9494 14.36375 151.1394 13.33375M150.6394 11.83375L150.4294 12.96375C 150.2794 13.73375 149.9194 14.12375 149.3394 14.12375C 148.8994 14.12375 148.5794 13.94375 148.3894 13.58375C 148.1294 13.13375 148.0094 12.61375 148.0094 12.02375C 148.0094 11.30375 148.1294 10.77375 148.3794 10.43375C 148.6194 10.08375 148.9394 9.91375 149.3394 9.91375C 149.7694 9.91375 150.0994 10.25375 150.3394 10.95375L150.3394 10.95375L150.6394 11.83375" stroke="none" fill="#000000" fill-rule="nonzero" />
		</g>
		<g clip-path="url(#7)" >
    <path id=""  transform="matrix(1 0 0 -1 0 169)"  d="M156.4212 9.16375C 155.5412 9.16375 154.8612 9.41375 154.3812 9.93375C 153.8912 10.44375 153.6512 11.14375 153.6512 12.02375C 153.6512 12.91375 153.8912 13.61375 154.3812 14.12375C 154.8712 14.63375 155.5412 14.89375 156.4012 14.89375C 156.6812 14.89375 156.9512 14.86375 157.2112 14.80375C 157.4712 14.74375 157.7312 14.66375 157.9812 14.55375L157.9812 14.55375L157.9812 13.71375C 157.7212 13.85375 157.4712 13.95375 157.2112 14.02375C 156.9512 14.09375 156.7012 14.13375 156.4412 14.13375C 155.8612 14.13375 155.4012 13.94375 155.0812 13.57375C 154.7612 13.20375 154.6012 12.68375 154.6012 12.02375C 154.6012 11.35375 154.7612 10.83375 155.0812 10.46375C 155.4012 10.09375 155.8512 9.91375 156.4212 9.91375C 156.8412 9.91375 157.1912 9.78375 157.4512 9.54375C 157.7212 9.29375 157.8612 8.97375 157.8612 8.58375C 157.8612 8.21375 157.7412 7.89375 157.5012 7.63375C 157.2412 7.35375 156.8412 7.20375 156.3112 7.20375C 156.3112 7.45375 156.3112 7.70375 156.3112 7.94375C 156.5312 7.92375 156.7112 7.99375 156.8512 8.13375C 156.9512 8.25375 157.0112 8.36375 157.0112 8.483749C 157.0112 8.66375 156.9512 8.81375 156.8512 8.95375C 156.7512 9.09375 156.6012 9.16375 156.4212 9.16375" stroke="none" fill="#000000" fill-rule="nonzero" />
		</g>
    <path id=""  transform="matrix(1 0 0 -1 0 169)"  d="M52.575 42.90365L49.075 42.90365" stroke="#000000" stroke-width="0.8" stroke-linejoin="miter" fill="#000000" fill-rule="nonzero" />
    <path id=""  transform="matrix(1 0 0 -1 0 169)"  d="M30.91266 39.93678L32.52266 39.93678L32.52266 39.93678L32.52266 45.49678L32.52266 45.49678L30.77266 45.14678L30.77266 45.14678L30.77266 46.04678L30.77266 46.04678L32.51266 46.39678L32.51266 46.39678L33.50266 46.39678L33.50266 46.39678L33.50266 39.93678L33.50266 39.93678L35.11266 39.93678L35.11266 39.93678L35.11266 39.10678L35.11266 39.10678L30.91266 39.10678L30.91266 39.10678L30.91266 39.93678" stroke="none" fill="#000000" fill-rule="nonzero" />
    <path id=""  transform="matrix(1 0 0 -1 0 169)"  d="M37.10266 40.34678L38.13266 40.34678L38.13266 40.34678L38.13266 39.10678L38.13266 39.10678L37.10266 39.10678L37.10266 39.10678L37.10266 40.34678" stroke="none" fill="#000000" fill-rule="nonzero" />
    <path id=""  transform="matrix(1 0 0 -1 0 169)"  d="M42.39266 46.52678C 43.20266 46.52678 43.82266 46.19678 44.26266 45.55678C 44.69266 44.90678 44.91266 43.96678 44.91266 42.74678C 44.91266 41.51678 44.69266 40.57678 44.26266 39.93678C 43.82266 39.29678 43.20266 38.97678 42.39266 38.97678C 41.57266 38.97678 40.94266 39.29678 40.51266 39.93678C 40.08266 40.57678 39.87266 41.51678 39.87266 42.74678C 39.87266 43.96678 40.08266 44.90678 40.51266 45.55678C 40.94266 46.19678 41.57266 46.52678 42.39266 46.52678M42.39266 45.74678C 41.88266 45.74678 41.50266 45.49678 41.24266 44.99678C 40.98266 44.49678 40.86266 43.74678 40.86266 42.74678C 40.86266 41.74678 40.98266 40.99678 41.24266 40.49678C 41.50266 39.99678 41.88266 39.74678 42.39266 39.74678C 42.90266 39.74678 43.28266 39.99678 43.54266 40.49678C 43.79266 40.99678 43.92266 41.74678 43.92266 42.74678C 43.92266 43.74678 43.79266 44.49678 43.54266 44.99678C 43.28266 45.49678 42.90266 45.74678 42.39266 45.74678" stroke="none" fill="#000000" fill-rule="nonzero" />
		<g clip-path="url(#8)" >
    <path id=""  transform="matrix(1 0 0 -1 0 169)"  d="M22.35375 42.65678L28.61375 42.65678L28.61375 42.65678L28.61375 41.82678L28.61375 41.82678L22.35375 41.82678L22.35375 41.82678L22.35375 42.65678" stroke="none" fill="#000000" fill-rule="nonzero" />
		</g>
    <path id=""  transform="matrix(1 0 0 -1 0 169)"  d="M52.575 67.61369L49.075 67.61369" stroke="#000000" stroke-width="0.8" stroke-linejoin="miter" fill="#000000" fill-rule="nonzero" />
    <path id=""  transform="matrix(1 0 0 -1 0 169)"  d="M32.85266 71.23682C 33.66266 71.23682 34.28266 70.90681 34.72266 70.26682C 35.15266 69.61681 35.37266 68.67681 35.37266 67.45682C 35.37266 66.22681 35.15266 65.28681 34.72266 64.64681C 34.28266 64.00681 33.66266 63.68681 32.85266 63.68681C 32.03266 63.68681 31.40266 64.00681 30.97266 64.64681C 30.54266 65.28681 30.33266 66.22681 30.33266 67.45682C 30.33266 68.67681 30.54266 69.61681 30.97266 70.26682C 31.40266 70.90681 32.03266 71.23682 32.85266 71.23682M32.85266 70.45682C 32.34266 70.45682 31.96266 70.20682 31.70266 69.70682C 31.44266 69.20682 31.32266 68.45682 31.32266 67.45682C 31.32266 66.45682 31.44266 65.70682 31.70266 65.20682C 31.96266 64.70682 32.34266 64.45682 32.85266 64.45682C 33.36266 64.45682 33.74266 64.70682 34.00266 65.20682C 34.25266 65.70682 34.38266 66.45682 34.38266 67.45682C 34.38266 68.45682 34.25266 69.20682 34.00266 69.70682C 33.74266 70.20682 33.36266 70.45682 32.85266 70.45682" stroke="none" fill="#000000" fill-rule="nonzero" />
    <path id=""  transform="matrix(1 0 0 -1 0 169)"  d="M37.10266 65.05682L38.13266 65.05682L38.13266 65.05682L38.13266 63.81681L38.13266 63.81681L37.10266 63.81681L37.10266 63.81681L37.10266 65.05682" stroke="none" fill="#000000" fill-rule="nonzero" />
    <path id=""  transform="matrix(1 0 0 -1 0 169)"  d="M40.29266 71.10681L44.16266 71.10681L44.16266 71.10681L44.16266 70.27682L44.16266 70.27682L41.19266 70.27682L41.19266 70.27682L41.19266 68.48682C 41.33266 68.53681 41.48266 68.57681 41.62266 68.59682C 41.76266 68.61681 41.91266 68.63682 42.05266 68.63682C 42.86266 68.63682 43.50266 68.40681 43.98266 67.96681C 44.46266 67.51682 44.70266 66.91682 44.70266 66.15681C 44.70266 65.36681 44.45266 64.75681 43.96266 64.32681C 43.47266 63.89682 42.78266 63.68681 41.90266 63.68681C 41.59266 63.68681 41.28266 63.71682 40.96266 63.75681C 40.64266 63.80682 40.32266 63.87682 39.98266 63.98681L39.98266 63.98681L39.98266 64.97681C 40.27266 64.81682 40.57266 64.69682 40.89266 64.61681C 41.20266 64.53681 41.53266 64.50681 41.88266 64.50681C 42.44266 64.50681 42.89266 64.64681 43.22266 64.94682C 43.54266 65.24681 43.71266 65.64681 43.71266 66.15681C 43.71266 66.65681 43.54266 67.05682 43.22266 67.35681C 42.89266 67.65681 42.44266 67.80682 41.88266 67.80682C 41.62266 67.80682 41.35266 67.77682 41.09266 67.71681C 40.83266 67.65681 40.56266 67.56682 40.29266 67.44682L40.29266 67.44682L40.29266 71.10681" stroke="none" fill="#000000" fill-rule="nonzero" />
		<g clip-path="url(#9)" >
    <path id=""  transform="matrix(1 0 0 -1 0 169)"  d="M22.35375 67.36681L28.61375 67.36681L28.61375 67.36681L28.61375 66.53681L28.61375 66.53681L22.35375 66.53681L22.35375 66.53681L22.35375 67.36681" stroke="none" fill="#000000" fill-rule="nonzero" />
		</g>
    <path id=""  transform="matrix(1 0 0 -1 0 169)"  d="M52.575 92.32373L49.075 92.32373" stroke="#000000" stroke-width="0.8" stroke-linejoin="miter" fill="#000000" fill-rule="nonzero" />
    <path id=""  transform="matrix(1 0 0 -1 0 169)"  d="M32.84875 95.94685C 33.65875 95.94685 34.27875 95.61686 34.71875 94.97685C 35.14875 94.32686 35.36875 93.38686 35.36875 92.16685C 35.36875 90.93686 35.14875 89.99686 34.71875 89.35686C 34.27875 88.71686 33.65875 88.39686 32.84875 88.39686C 32.02875 88.39686 31.39875 88.71686 30.96875 89.35686C 30.53875 89.99686 30.32875 90.93686 30.32875 92.16685C 30.32875 93.38686 30.53875 94.32686 30.96875 94.97685C 31.39875 95.61686 32.02875 95.94685 32.84875 95.94685M32.84875 95.16685C 32.33875 95.16685 31.95875 94.91685 31.69875 94.41685C 31.43875 93.91685 31.31875 93.16685 31.31875 92.16685C 31.31875 91.16685 31.43875 90.41685 31.69875 89.91685C 31.95875 89.41685 32.33875 89.16685 32.84875 89.16685C 33.35875 89.16685 33.73875 89.41685 33.99875 89.91685C 34.24875 90.41685 34.37875 91.16685 34.37875 92.16685C 34.37875 93.16685 34.24875 93.91685 33.99875 94.41685C 33.73875 94.91685 33.35875 95.16685 32.84875 95.16685" stroke="none" fill="#000000" fill-rule="nonzero" />
    <path id=""  transform="matrix(1 0 0 -1 0 169)"  d="M37.09875 89.76685L38.12875 89.76685L38.12875 89.76685L38.12875 88.52686L38.12875 88.52686L37.09875 88.52686L37.09875 88.52686L37.09875 89.76685" stroke="none" fill="#000000" fill-rule="nonzero" />
    <path id=""  transform="matrix(1 0 0 -1 0 169)"  d="M42.38875 95.94685C 43.19875 95.94685 43.81875 95.61686 44.25875 94.97685C 44.68875 94.32686 44.90875 93.38686 44.90875 92.16685C 44.90875 90.93686 44.68875 89.99686 44.25875 89.35686C 43.81875 88.71686 43.19875 88.39686 42.38875 88.39686C 41.56875 88.39686 40.93875 88.71686 40.50875 89.35686C 40.07875 89.99686 39.86875 90.93686 39.86875 92.16685C 39.86875 93.38686 40.07875 94.32686 40.50875 94.97685C 40.93875 95.61686 41.56875 95.94685 42.38875 95.94685M42.38875 95.16685C 41.87875 95.16685 41.49875 94.91685 41.23875 94.41685C 40.97875 93.91685 40.85875 93.16685 40.85875 92.16685C 40.85875 91.16685 40.97875 90.41685 41.23875 89.91685C 41.49875 89.41685 41.87875 89.16685 42.38875 89.16685C 42.89875 89.16685 43.27875 89.41685 43.53875 89.91685C 43.78875 90.41685 43.91875 91.16685 43.91875 92.16685C 43.91875 93.16685 43.78875 93.91685 43.53875 94.41685C 43.27875 94.91685 42.89875 95.16685 42.38875 95.16685" stroke="none" fill="#000000" fill-rule="nonzero" />
    <path id=""  transform="matrix(1 0 0 -1 0 169)"  d="M52.575 117.0338L49.075 117.0338" stroke="#000000" stroke-width="0.8" stroke-linejoin="miter" fill="#000000" fill-rule="nonzero" />
    <path id=""  transform="matrix(1 0 0 -1 0 169)"  d="M32.84875 120.6569C 33.65875 120.6569 34.27875 120.3269 34.71875 119.6869C 35.14875 119.0369 35.36875 118.0969 35.36875 116.8769C 35.36875 115.6469 35.14875 114.7069 34.71875 114.0669C 34.27875 113.4269 33.65875 113.1069 32.84875 113.1069C 32.02875 113.1069 31.39875 113.4269 30.96875 114.0669C 30.53875 114.7069 30.32875 115.6469 30.32875 116.8769C 30.32875 118.0969 30.53875 119.0369 30.96875 119.6869C 31.39875 120.3269 32.02875 120.6569 32.84875 120.6569M32.84875 119.8769C 32.33875 119.8769 31.95875 119.6269 31.69875 119.1269C 31.43875 118.6269 31.31875 117.8769 31.31875 116.8769C 31.31875 115.8769 31.43875 115.1269 31.69875 114.6269C 31.95875 114.1269 32.33875 113.8769 32.84875 113.8769C 33.35875 113.8769 33.73875 114.1269 33.99875 114.6269C 34.24875 115.1269 34.37875 115.8769 34.37875 116.8769C 34.37875 117.8769 34.24875 118.6269 33.99875 119.1269C 33.73875 119.6269 33.35875 119.8769 32.84875 119.8769" stroke="none" fill="#000000" fill-rule="nonzero" />
    <path id=""  transform="matrix(1 0 0 -1 0 169)"  d="M37.09875 114.4769L38.12875 114.4769L38.12875 114.4769L38.12875 113.2369L38.12875 113.2369L37.09875 113.2369L37.09875 113.2369L37.09875 114.4769" stroke="none" fill="#000000" fill-rule="nonzero" />
    <path id=""  transform="matrix(1 0 0 -1 0 169)"  d="M40.28875 120.5269L44.15875 120.5269L44.15875 120.5269L44.15875 119.6969L44.15875 119.6969L41.18875 119.6969L41.18875 119.6969L41.18875 117.9069C 41.32875 117.9569 41.47875 117.9969 41.61875 118.0169C 41.75875 118.0369 41.90875 118.0569 42.04875 118.0569C 42.85875 118.0569 43.49875 117.8269 43.97875 117.3869C 44.45875 116.9369 44.69875 116.3369 44.69875 115.5769C 44.69875 114.7869 44.44875 114.1769 43.95875 113.7469C 43.46875 113.3169 42.77875 113.1069 41.89875 113.1069C 41.58875 113.1069 41.27875 113.1369 40.95875 113.1769C 40.63875 113.2269 40.31875 113.2969 39.97875 113.4069L39.97875 113.4069L39.97875 114.3969C 40.26875 114.2369 40.56875 114.1169 40.88875 114.0369C 41.19875 113.9569 41.52875 113.9269 41.87875 113.9269C 42.43875 113.9269 42.88875 114.0669 43.21875 114.3669C 43.53875 114.6669 43.70875 115.0669 43.70875 115.5769C 43.70875 116.0769 43.53875 116.4769 43.21875 116.7769C 42.88875 117.0769 42.43875 117.2269 41.87875 117.2269C 41.61875 117.2269 41.34875 117.1969 41.08875 117.1369C 40.82875 117.0769 40.55875 116.9869 40.28875 116.8669L40.28875 116.8669L40.28875 120.5269" stroke="none" fill="#000000" fill-rule="nonzero" />
    <path id=""  transform="matrix(1 0 0 -1 0 169)"  d="M52.575 141.7438L49.075 141.7438" stroke="#000000" stroke-width="0.8" stroke-linejoin="miter" fill="#000000" fill-rule="nonzero" />
    <path id=""  transform="matrix(1 0 0 -1 0 169)"  d="M30.90875 138.7769L32.51875 138.7769L32.51875 138.7769L32.51875 144.3369L32.51875 144.3369L30.76875 143.9869L30.76875 143.9869L30.76875 144.8869L30.76875 144.8869L32.50875 145.2369L32.50875 145.2369L33.49875 145.2369L33.49875 145.2369L33.49875 138.7769L33.49875 138.7769L35.10875 138.7769L35.10875 138.7769L35.10875 137.9469L35.10875 137.9469L30.90875 137.9469L30.90875 137.9469L30.90875 138.7769" stroke="none" fill="#000000" fill-rule="nonzero" />
    <path id=""  transform="matrix(1 0 0 -1 0 169)"  d="M37.09875 139.1869L38.12875 139.1869L38.12875 139.1869L38.12875 137.9469L38.12875 137.9469L37.09875 137.9469L37.09875 137.9469L37.09875 139.1869" stroke="none" fill="#000000" fill-rule="nonzero" />
    <path id=""  transform="matrix(1 0 0 -1 0 169)"  d="M42.38875 145.3669C 43.19875 145.3669 43.81875 145.0369 44.25875 144.3969C 44.68875 143.7469 44.90875 142.8069 44.90875 141.5869C 44.90875 140.3569 44.68875 139.4169 44.25875 138.7769C 43.81875 138.1369 43.19875 137.8169 42.38875 137.8169C 41.56875 137.8169 40.93875 138.1369 40.50875 138.7769C 40.07875 139.4169 39.86875 140.3569 39.86875 141.5869C 39.86875 142.8069 40.07875 143.7469 40.50875 144.3969C 40.93875 145.0369 41.56875 145.3669 42.38875 145.3669M42.38875 144.5869C 41.87875 144.5869 41.49875 144.3369 41.23875 143.8369C 40.97875 143.3369 40.85875 142.5869 40.85875 141.5869C 40.85875 140.5869 40.97875 139.8369 41.23875 139.3369C 41.49875 138.8369 41.87875 138.5869 42.38875 138.5869C 42.89875 138.5869 43.27875 138.8369 43.53875 139.3369C 43.78875 139.8369 43.91875 140.5869 43.91875 141.5869C 43.91875 142.5869 43.78875 143.3369 43.53875 143.8369C 43.27875 144.3369 42.89875 144.5869 42.38875 144.5869" stroke="none" fill="#000000" fill-rule="nonzero" />
    <path id=""  transform="matrix(1 0 0 -1 0 169)"  d="M15.7 72.81125C 16.34 72.55125 16.77 72.30125 16.97 72.06125C 17.17 71.82125 17.27 71.50125 17.27 71.10125L17.27 71.10125L17.27 70.38125L17.27 70.38125L16.52 70.38125L16.52 70.38125L16.52 70.91125C 16.52 71.15125 16.46 71.34125 16.34 71.48125C 16.22 71.62125 15.95 71.77125 15.51 71.94125L15.51 71.94125L15.11 72.10125L15.11 72.10125L9.73 69.89125L9.73 69.89125L9.73 70.84125L9.73 70.84125L14.01 72.55125L14.01 72.55125L9.73 74.26125L9.73 74.26125L9.73 75.21125L9.73 75.21125L15.7 72.81125" stroke="none" fill="#000000" fill-rule="nonzero" />
		<g clip-path="url(#10)" >
    <path id=""  transform="matrix(1 0 0 -1 0 169)"  d="M11.16 83.31792L9.73 83.80793L9.73 83.80793L9.73 84.60793L9.73 84.60793L12.7 83.60793L12.7 83.60793L13.76 83.79793C 13.92 83.82793 14.07 83.89793 14.2 84.01793C 14.36 84.14793 14.44 84.26793 14.44 84.36793L14.44 84.36793L14.44 84.79793L14.44 84.79793L15.2 84.79793L15.2 84.79793L15.2 84.26793C 15.2 83.95792 15.07 83.66793 14.79 83.39793C 14.65 83.25793 14.44 83.16793 14.16 83.10793C 14.52 82.95792 14.84 82.72793 15.12 82.42793C 15.24 82.28793 15.31 81.97793 15.31 81.51793C 15.31 80.74792 15.07 80.17793 14.58 79.80793C 14.07 79.42793 13.37 79.23793 12.47 79.23793C 11.51 79.23793 10.81 79.43793 10.36 79.85793C 9.860001 80.31792 9.610001 80.86793 9.610001 81.51793C 9.610001 82.52792 10.13 83.12793 11.16 83.31792M12.66 82.81792L11.53 82.60793C 10.76 82.45792 10.37 82.09793 10.37 81.51793C 10.37 81.07793 10.55 80.75793 10.91 80.56792C 11.36 80.30793 11.88 80.18793 12.47 80.18793C 13.19 80.18793 13.72 80.30793 14.06 80.55793C 14.41 80.79793 14.58 81.11793 14.58 81.51793C 14.58 81.94793 14.24 82.27792 13.54 82.51793L13.54 82.51793L12.66 82.81792" stroke="none" fill="#000000" fill-rule="nonzero" />
    <path id=""  transform="matrix(1 0 0 -1 0 169)"  d="M7.2 82.40793L7.2 83.37793L7.2 83.37793L9.04 81.78793L9.04 81.78793L9.04 81.03793L9.04 81.03793L7.2 82.40793" stroke="none" fill="#000000" fill-rule="nonzero" />
		</g>
		<g clip-path="url(#11)" >
    <path id=""  transform="matrix(1 0 0 -1 0 169)"  d="M14.58 88.83972C 14.58 89.26972 14.71 89.60973 14.95 89.86972C 15.2 90.13972 15.52 90.27972 15.91 90.27972C 16.28 90.27972 16.6 90.15972 16.86 89.91972C 17.14 89.65972 17.29 89.25973 17.29 88.73972C 17.04 88.73972 16.79 88.73972 16.55 88.73972C 16.57 88.95972 16.5 89.13972 16.36 89.27972C 16.24 89.37972 16.13 89.43973 16.01 89.43973C 15.83 89.43973 15.68 89.37972 15.54 89.27972C 15.4 89.17973 15.33 89.02972 15.33 88.83972C 15.33 86.80972 14.63 85.79972 13.21 85.79972C 12.23 85.79972 11.6 86.33972 11.31 87.42973C 11.2 86.50973 10.72 86.05972 9.87 86.05972C 9.23 86.05972 8.78 86.41972 8.51 87.13972L8.51 87.13972L8.51 86.11972L8.51 86.11972L7.6 86.11972L7.6 86.11972L7.6 89.96973L7.6 89.96973L8.51 89.96973C 8.51 87.91972 8.99 86.89973 9.93 86.89973C 10.55 86.89973 10.88 87.75973 10.9 89.47972L10.9 89.47972L11.73 89.47972C 11.67 87.61972 12.16 86.69972 13.21 86.70972C 14.09 86.70972 14.55 87.41972 14.58 88.83972" stroke="none" fill="#000000" fill-rule="nonzero" />
		</g>
		<g clip-path="url(#12)" >
    <path id=""  transform="matrix(1 0 0 -1 0 169)"  d="M9.6 93.91589C 9.6 94.69589 9.860001 95.30589 10.36 95.7559C 10.87 96.19589 11.57 96.4259 12.47 96.4259C 13.37 96.4259 14.07 96.19589 14.57 95.7559C 15.08 95.30589 15.33 94.69589 15.33 93.91589C 15.33 93.12589 15.08 92.5059 14.57 92.0659C 14.07 91.62589 13.37 91.4059 12.47 91.4059C 11.57 91.4059 10.87 91.62589 10.36 92.0659C 9.860001 92.5059 9.6 93.12589 9.6 93.91589M10.36 93.91589C 10.36 93.4359 10.55 93.05589 10.93 92.77589C 11.31 92.4959 11.82 92.3559 12.47 92.3559C 13.13 92.3559 13.64 92.48589 14.02 92.7659C 14.4 93.0459 14.58 93.4259 14.58 93.91589C 14.58 94.3959 14.4 94.77589 14.02 95.05589C 13.64 95.3359 13.13 95.4759 12.47 95.4759C 11.83 95.4759 11.31 95.3359 10.93 95.05589C 10.55 94.77589 10.36 94.3959 10.36 93.91589" stroke="none" fill="#000000" fill-rule="nonzero" />
		</g>
		<g clip-path="url(#13)" >
    <path id=""  transform="matrix(1 0 0 -1 0 169)"  d="M15.2 99.00406L9.73 97.33406L9.73 97.33406L9.73 98.30406L9.73 98.30406L14.32 99.71406C 13.92 100.1041 13.44 100.4641 12.88 100.7841C 12.46 101.0241 12.07 101.1541 11.7 101.1741C 11.53 101.1741 11.28 101.1441 10.95 101.0741C 10.57 100.9741 10.16 100.7541 9.73 100.4141L9.73 100.4141L9.73 101.3241L9.73 101.3241L9.73 101.3241C 10.03 101.5441 10.37 101.7341 10.77 101.8841C 11.15 102.0241 11.46 102.0941 11.71 102.0941C 12.35 102.0941 12.96 101.8641 13.52 101.4241C 14.26 100.8441 14.82 100.3641 15.2 99.96406L15.2 99.96406L15.2 99.00406" stroke="none" fill="#000000" fill-rule="nonzero" />
		</g>
		<g clip-path="url(#14)" >
    <path id=""  transform="matrix(1 0 0 -1 0 169)"  d="M11.16 107.19L9.73 107.68L9.73 107.68L9.73 108.48L9.73 108.48L12.7 107.48L12.7 107.48L13.76 107.67C 13.92 107.7 14.07 107.77 14.2 107.89C 14.36 108.02 14.44 108.14 14.44 108.24L14.44 108.24L14.44 108.67L14.44 108.67L15.2 108.67L15.2 108.67L15.2 108.14C 15.2 107.83 15.07 107.54 14.79 107.27C 14.65 107.13 14.44 107.04 14.16 106.98C 14.52 106.83 14.84 106.6 15.12 106.3C 15.24 106.16 15.31 105.85 15.31 105.39C 15.31 104.62 15.07 104.05 14.58 103.68C 14.07 103.3 13.37 103.11 12.47 103.11C 11.51 103.11 10.81 103.31 10.36 103.73C 9.860001 104.19 9.610001 104.74 9.610001 105.39C 9.610001 106.4 10.13 107 11.16 107.19M12.66 106.69L11.53 106.48C 10.76 106.33 10.37 105.97 10.37 105.39C 10.37 104.95 10.55 104.63 10.91 104.44C 11.36 104.18 11.88 104.06 12.47 104.06C 13.19 104.06 13.72 104.18 14.06 104.43C 14.41 104.67 14.58 104.99 14.58 105.39C 14.58 105.82 14.24 106.15 13.54 106.39L13.54 106.39L12.66 106.69" stroke="none" fill="#000000" fill-rule="nonzero" />
		</g>
		<g clip-path="url(#15)" >
    <path id=""  transform="matrix(1 0 0 -1 0 169)"  d="M15.33 112.4718C 15.33 111.5918 15.08 110.9118 14.56 110.4318C 14.05 109.9418 13.35 109.7018 12.47 109.7018C 11.58 109.7018 10.88 109.9418 10.37 110.4318C 9.860001 110.9218 9.6 111.5918 9.6 112.4518C 9.6 112.7318 9.63 113.0018 9.690001 113.2618C 9.75 113.5218 9.83 113.7818 9.940001 114.0318L9.940001 114.0318L10.78 114.0318C 10.64 113.7718 10.54 113.5218 10.47 113.2618C 10.4 113.0018 10.36 112.7518 10.36 112.4918C 10.36 111.9118 10.55 111.4518 10.92 111.1318C 11.29 110.8118 11.81 110.6518 12.47 110.6518C 13.14 110.6518 13.66 110.8118 14.03 111.1318C 14.4 111.4518 14.58 111.9018 14.58 112.4718C 14.58 112.8918 14.71 113.2418 14.95 113.5018C 15.2 113.7718 15.52 113.9118 15.91 113.9118C 16.28 113.9118 16.6 113.7918 16.86 113.5518C 17.14 113.2918 17.29 112.8918 17.29 112.3618C 17.04 112.3618 16.79 112.3618 16.55 112.3618C 16.57 112.5818 16.5 112.7618 16.36 112.9018C 16.24 113.0018 16.13 113.0618 16.01 113.0618C 15.83 113.0618 15.68 113.0018 15.54 112.9018C 15.4 112.8018 15.33 112.6518 15.33 112.4718" stroke="none" fill="#000000" fill-rule="nonzero" />
		</g>
		<g clip-path="url(#16)" >
    <path id=""  transform="matrix(1 0 0 -1 0 169)"  d="M60.18409 92.32373L61.80305 97.25751L61.80305 97.25751L63.422 102.142L63.422 102.142L65.04095 106.9284L65.04095 106.9284L66.65991 111.5688L66.65991 111.5688L68.27887 116.017L68.27887 116.017L69.89783 120.2284L69.89783 120.2284L71.51678 124.161L71.51678 124.161L73.13573 127.7755L73.13573 127.7755L74.75469 131.0358L74.75469 131.0358L76.37365 133.9093L76.37365 133.9093L77.9926 136.3673L77.9926 136.3673L79.61156 138.3852L79.61156 138.3852L81.23051 139.9429L81.23051 139.9429L82.84946 141.0247L82.84946 141.0247L84.46842 141.62L84.46842 141.62L86.08738 141.7227L86.08738 141.7227L87.70634 141.3319L87.70634 141.3319L89.32529 140.4514L89.32529 140.4514L90.94424 139.09L90.94424 139.09L92.5632 137.2613L92.5632 137.2613L94.18216 134.9836L94.18216 134.9836L95.80111 132.2797L95.80111 132.2797L97.42007 129.1765L97.42007 129.1765L99.03902 125.7052L99.03902 125.7052L100.658 121.9003L100.658 121.9003L102.2769 117.7999L102.2769 117.7999L103.8959 113.4449L103.8959 113.4449L105.5148 108.8789L105.5148 108.8789L107.1338 104.1474L107.1338 104.1474L108.7528 99.29789L108.7528 99.29789L110.3717 94.37865L110.3717 94.37865L111.9907 89.43887L111.9907 89.43887L113.6096 84.52792L113.6096 84.52792L115.2286 79.69487L115.2286 79.69487L116.8475 74.98799L116.8475 74.98799L118.4665 70.45433L118.4665 70.45433L120.0854 66.13918L120.0854 66.13918L121.7044 62.08566L121.7044 62.08566L123.3234 58.33427L123.3234 58.33427L124.9423 54.92249L124.9423 54.92249L126.5613 51.88441L126.5613 51.88441L128.1802 49.25039L128.1802 49.25039L129.7992 47.04674L129.7992 47.04674L131.4181 45.29548L131.4181 45.29548L133.0371 44.01411L133.0371 44.01411L134.656 43.21544L134.656 43.21544L136.275 42.90744L136.275 42.90744L137.894 43.0932L137.894 43.0932L139.5129 43.77084L139.5129 43.77084L141.1319 44.93362L141.1319 44.93362L142.7508 46.5699L142.7508 46.5699L144.3698 48.66333L144.3698 48.66333L145.9887 51.19301L145.9887 51.19301L147.6077 54.13365L147.6077 54.13365L149.2266 57.45587L149.2266 57.45587L150.8456 61.12648L150.8456 61.12648L152.4646 65.1088L152.4646 65.1088L154.0835 69.36305L154.0835 69.36305L155.7025 73.84672L155.7025 73.84672L157.3214 78.51499L157.3214 78.51499L158.9404 83.32124L158.9404 83.32124L160.5593 88.21745L160.5593 88.21745L162.1783 93.15467L162.1783 93.15467L163.7972 98.0836L163.7972 98.0836L165.4162 102.955L165.4162 102.955L167.0352 107.7201L167.0352 107.7201L168.6541 112.3314L168.6541 112.3314L170.2731 116.7429L170.2731 116.7429L171.892 120.9103L171.892 120.9103L173.511 124.7921L173.511 124.7921L175.1299 128.3494L175.1299 128.3494L176.7489 131.5469L176.7489 131.5469L178.3678 134.3524L178.3678 134.3524L179.9868 136.7379L179.9868 136.7379L181.6058 138.6798L181.6058 138.6798L183.2247 140.1584L183.2247 140.1584L184.8437 141.1591L184.8437 141.1591L186.4626 141.6718L186.4626 141.6718L188.0816 141.6915L188.0816 141.6915L189.7005 141.2179L189.7005 141.2179L191.3195 140.2558L191.3195 140.2558L192.9384 138.8147L192.9384 138.8147L194.5574 136.9091L194.5574 136.9091L196.1764 134.5581L196.1764 134.5581L197.7953 131.785L197.7953 131.785L199.4143 128.6177L199.4143 128.6177L201.0332 125.0877L201.0332 125.0877L202.6522 121.2304L202.6522 121.2304L204.2711 117.0842L204.2711 117.0842L205.8901 112.6907L205.8901 112.6907L207.509 108.0936L207.509 108.0936L209.128 103.339L209.128 103.339L210.7469 98.47427L210.7469 98.47427L212.3659 93.54813" stroke="#1F77B4" stroke-width="1.5" stroke-linecap="square" stroke-linejoin="round" fill="none" />
		</g>
		<g clip-path="url(#17)" >
    <path id=""  transform="matrix(1 0 0 -1 0 169)"  d="M60.18409 141.7438L61.80305 141.4969L61.80305 141.4969L63.422 140.7587L63.422 140.7587L65.04095 139.5365L65.04095 139.5365L66.65991 137.8426L66.65991 137.8426L68.27887 135.6939L68.27887 135.6939L69.89783 133.1119L69.89783 133.1119L71.51678 130.1223L71.51678 130.1223L73.13573 126.755L73.13573 126.755L74.75469 123.0437L74.75469 123.0437L76.37365 119.0255L76.37365 119.0255L77.9926 114.7405L77.9926 114.7405L79.61156 110.2315L79.61156 110.2315L81.23051 105.5435L81.23051 105.5435L82.84946 100.7235L82.84946 100.7235L84.46842 95.81956L84.46842 95.81956L86.08738 90.88068L86.08738 90.88068L87.70634 85.95622L87.70634 85.95622L89.32529 81.09538L89.32529 81.09538L90.94424 76.34673L90.94424 76.34673L92.5632 71.75772L92.5632 71.75772L94.18216 67.37419L94.18216 67.37419L95.80111 63.23996L95.80111 63.23996L97.42007 59.39632L97.42007 59.39632L99.03902 55.88168L99.03902 55.88168L100.658 52.73115L100.658 52.73115L102.2769 49.97622L102.2769 49.97622L103.8959 47.64441L103.8959 47.64441L105.5148 45.75903L105.5148 45.75903L107.1338 44.3389L107.1338 44.3389L108.7528 43.39822L108.7528 43.39822L110.3717 42.94639L110.3717 42.94639L111.9907 42.98792L111.9907 42.98792L113.6096 43.5224L113.6096 43.5224L115.2286 44.54449L115.2286 44.54449L116.8475 46.04396L116.8475 46.04396L118.4665 48.00586L118.4665 48.00586L120.0854 50.41056L120.0854 50.41056L121.7044 53.23404L121.7044 53.23404L123.3234 56.4481L123.3234 56.4481L124.9423 60.02061L124.9423 60.02061L126.5613 63.91588L126.5613 63.91588L128.1802 68.095L128.1802 68.095L129.7992 72.5162L129.7992 72.5162L131.4181 77.13531L131.4181 77.13531L133.0371 81.90618L133.0371 81.90618L134.656 86.78114L134.656 86.78114L136.275 91.71148L136.275 91.71148L137.894 96.64793L137.894 96.64793L139.5129 101.5412L139.5129 101.5412L141.1319 106.3423L141.1319 106.3423L142.7508 111.0034L142.7508 111.0034L144.3698 115.4779L144.3698 115.4779L145.9887 119.721L145.9887 119.721L147.6077 123.6903L147.6077 123.6903L149.2266 127.3462L149.2266 127.3462L150.8456 130.6523L150.8456 130.6523L152.4646 133.5753L152.4646 133.5753L154.0835 136.0862L154.0835 136.0862L155.7025 138.1598L155.7025 138.1598L157.3214 139.7754L157.3214 139.7754L158.9404 140.9169L158.9404 140.9169L160.5593 141.5729L160.5593 141.5729L162.1783 141.7368L162.1783 141.7368L163.7972 141.407L163.7972 141.407L165.4162 140.5868L165.4162 140.5868L167.0352 139.2843L167.0352 139.2843L168.6541 137.5126L168.6541 137.5126L170.2731 135.2894L170.2731 135.2894L171.892 132.6369L171.892 132.6369L173.511 129.5816L173.511 129.5816L175.1299 126.1541L175.1299 126.1541L176.7489 122.3885L176.7489 122.3885L178.3678 118.3225L178.3678 118.3225L179.9868 113.9968L179.9868 113.9968L181.6058 109.4545L181.6058 109.4545L183.2247 104.741L183.2247 104.741L184.8437 99.90348L184.8437 99.90348L186.4626 94.99021L186.4626 94.99021L188.0816 90.0503L188.0816 90.0503L189.7005 85.1331L189.7005 85.1331L191.3195 80.28776L191.3195 80.28776L192.9384 75.56267L192.9384 75.56267L194.5574 71.00505L194.5574 71.00505L196.1764 66.66045L196.1764 66.66045L197.7953 62.57225L197.7953 62.57225L199.4143 58.78133L199.4143 58.78133L201.0332 55.32555L201.0332 55.32555L202.6522 52.23945L202.6522 52.23945L204.2711 49.55385L204.2711 49.55385L205.8901 47.2956L205.8901 47.2956L207.509 45.48725L207.509 45.48725L209.128 44.14688L209.128 44.14688L210.7469 43.28788L210.7469 43.28788L212.3659 42.91882" stroke="#FF7F0E" stroke-width="1.5" stroke-linecap="square" stroke-linejoin="round" fill="none" />
		</g>
    <path id=""  transform="matrix(1 0 0 -1 0 169)"  d="M52.575 37.96563L52.575 146.6856" stroke="#000000" stroke-width="0.8" stroke-linecap="square" stroke-linejoin="miter" fill="none" />
    <path id=""  transform="matrix(1 0 0 -1 0 169)"  d="M219.975 37.96563L219.975 146.6856" stroke="#000000" stroke-width="0.8" stroke-linecap="square" stroke-linejoin="miter" fill="none" />
    <path id=""  transform="matrix(1 0 0 -1 0 169)"  d="M52.575 37.96563L219.975 37.96563" stroke="#000000" stroke-width="0.8" stroke-linecap="square" stroke-linejoin="miter" fill="none" />
    <path id=""  transform="matrix(1 0 0 -1 0 169)"  d="M52.575 146.6856L219.975 146.6856" stroke="#000000" stroke-width="0.8" stroke-linecap="square" stroke-linejoin="miter" fill="none" />
		<g clip-path="url(#18)" >
    <path id=""  transform="matrix(1 0 0 -1 0 169)"  d="M116.1963 161.4336L123.5883 161.4336L123.5883 161.4336L123.5883 160.4376L123.5883 160.4376L120.4803 160.4376L120.4803 160.4376L120.4803 152.6856L120.4803 152.6856L119.2923 152.6856L119.2923 152.6856L119.2923 160.4376L119.2923 160.4376L116.1963 160.4376L116.1963 160.4376L116.1963 161.4336" stroke="none" fill="#000000" fill-rule="nonzero" />
		</g>
		<g clip-path="url(#19)" >
    <path id=""  transform="matrix(1 0 0 -1 0 169)"  d="M125.6264 159.2496L125.6264 155.0016C 125.6264 154.4256 125.6864 154.0536 125.8304 153.8856C 125.9744 153.6936 126.2504 153.5976 126.6704 153.5976L126.6704 153.5976L127.1984 153.5976L127.1984 153.5976L127.1984 152.6856L127.1984 152.6856L126.5504 152.6856C 125.8424 152.6856 125.3264 152.8656 125.0144 153.2496C 124.6904 153.6336 124.5344 154.2336 124.5344 155.0616L124.5344 155.0616L124.5224 159.2496L124.5224 159.2496L125.6264 159.2496" stroke="none" fill="#000000" fill-rule="nonzero" />
    <path id=""  transform="matrix(1 0 0 -1 0 169)"  d="M126.2864 162.2856L127.4504 162.2856L127.4504 162.2856L125.5424 160.0776L125.5424 160.0776L124.6424 160.0776L124.6424 160.0776L126.2864 162.2856" stroke="none" fill="#000000" fill-rule="nonzero" />
		</g>
		<g clip-path="url(#20)" >
    <path id=""  transform="matrix(1 0 0 -1 0 169)"  d="M131.9549 153.8856C 132.0989 153.6936 132.3749 153.5976 132.8069 153.5976L132.8069 153.5976L133.3229 153.5976L133.3229 153.5976L133.3229 152.6856L133.3229 152.6856L132.6749 152.6856C 131.9669 152.6856 131.4509 152.8656 131.1389 153.2496C 130.8149 153.6336 130.6589 154.2336 130.6589 155.0616L130.6589 155.0616L130.6589 158.1696L130.6589 158.1696L128.1989 158.1696L128.1989 158.1696L128.1989 159.2496L128.1989 159.2496L134.2469 159.2496L134.2469 159.2496L134.2469 158.1696L134.2469 158.1696L131.7629 158.1696L131.7629 158.1696L131.7629 155.0016C 131.7629 154.4256 131.8229 154.0536 131.9549 153.8856" stroke="none" fill="#000000" fill-rule="nonzero" />
		</g>
		<g clip-path="url(#21)" >
    <path id=""  transform="matrix(1 0 0 -1 0 169)"  d="M138.5555 160.7736L141.5795 152.6856L141.5795 152.6856L140.4395 152.6856L140.4395 152.6856L138.5915 157.5336L138.5915 157.5336L136.3355 152.6856L136.3355 152.6856L135.1955 152.6856L135.1955 152.6856L138.0755 158.9736L138.0755 158.9736L137.6315 160.1376C 137.4395 160.6296 137.1395 160.8816 136.7315 160.8816L136.7315 160.8816L136.1675 160.8816L136.1675 160.8816L136.1675 161.8056L136.1675 161.8056L136.8515 161.7936C 137.7395 161.7696 138.3035 161.4336 138.5555 160.7736" stroke="none" fill="#000000" fill-rule="nonzero" />
		</g>
		<g clip-path="url(#22)" >
    <path id=""  transform="matrix(1 0 0 -1 0 169)"  d="M145.6091 159.4056C 146.5451 159.4056 147.2771 159.0936 147.8171 158.4936C 148.3451 157.8816 148.6211 157.0416 148.6211 155.9616C 148.6211 154.8816 148.3451 154.0416 147.8171 153.4416C 147.2771 152.8296 146.5451 152.5296 145.6091 152.5296C 144.6611 152.5296 143.9171 152.8296 143.3891 153.4416C 142.8611 154.0416 142.5971 154.8816 142.5971 155.9616C 142.5971 157.0416 142.8611 157.8816 143.3891 158.4936C 143.9171 159.0936 144.6611 159.4056 145.6091 159.4056M145.6091 158.4936C 145.0331 158.4936 144.5771 158.2656 144.2411 157.8096C 143.9051 157.3536 143.7371 156.7416 143.7371 155.9616C 143.7371 155.1696 143.8931 154.5576 144.2291 154.1016C 144.5651 153.6456 145.0211 153.4296 145.6091 153.4296C 146.1851 153.4296 146.6411 153.6456 146.9771 154.1016C 147.3131 154.5576 147.4811 155.1696 147.4811 155.9616C 147.4811 156.7296 147.3131 157.3536 146.9771 157.8096C 146.6411 158.2656 146.1851 158.4936 145.6091 158.4936" stroke="none" fill="#000000" fill-rule="nonzero" />
		</g>
		<g clip-path="url(#23)" >
    <path id=""  transform="matrix(1 0 0 -1 0 169)"  d="M153.2629 152.5296C 152.2069 152.5296 151.3909 152.8296 150.8149 153.4536C 150.2269 154.0656 149.9389 154.9056 149.9389 155.9616C 149.9389 157.0296 150.2269 157.8696 150.8149 158.4816C 151.4029 159.0936 152.2069 159.4056 153.2389 159.4056C 153.5749 159.4056 153.8989 159.3696 154.2109 159.2976C 154.5229 159.2256 154.8349 159.1296 155.1349 158.9976L155.1349 158.9976L155.1349 157.9896C 154.8229 158.1576 154.5229 158.2776 154.2109 158.3616C 153.8989 158.4456 153.5989 158.4936 153.2869 158.4936C 152.5909 158.4936 152.0389 158.2656 151.6549 157.8216C 151.2709 157.3776 151.0789 156.7536 151.0789 155.9616C 151.0789 155.1576 151.2709 154.5336 151.6549 154.0896C 152.0389 153.6456 152.5789 153.4296 153.2629 153.4296C 153.7669 153.4296 154.1869 153.2736 154.4989 152.9856C 154.8229 152.6856 154.9909 152.3016 154.9909 151.8336C 154.9909 151.3896 154.8469 151.0056 154.5589 150.6936C 154.2469 150.3576 153.7669 150.1776 153.1309 150.1776C 153.1309 150.4776 153.1309 150.7776 153.1309 151.0656C 153.3949 151.0416 153.6109 151.1256 153.7789 151.2936C 153.8989 151.4376 153.9709 151.5696 153.9709 151.7136C 153.9709 151.9296 153.8989 152.1096 153.7789 152.2776C 153.6589 152.4456 153.4789 152.5296 153.2629 152.5296" stroke="none" fill="#000000" fill-rule="nonzero" />
		</g>
    <path id=""  transform="matrix(1 0 0 -1 0 169)"  d="M226.975 75.7475L316.6156 75.7475C 317.9489 75.7475 318.6156 76.41417 318.6156 77.7475L318.6156 77.7475L318.6156 106.9037C 318.6156 108.2371 317.9489 108.9037 316.6156 108.9037L316.6156 108.9037L226.975 108.9037C 225.6417 108.9037 224.975 108.2371 224.975 106.9037L224.975 106.9037L224.975 77.7475C 224.975 76.41417 225.6417 75.7475 226.975 75.7475z" stroke="#CCCCCC" stroke-width="1" stroke-linejoin="miter" fill="#FFFFFF" fill-rule="nonzero" fill-opacity="0.8" />
    <path id=""  transform="matrix(1 0 0 -1 0 169)"  d="M228.975 100.4037L248.975 100.4037" stroke="#1F77B4" stroke-width="1.5" stroke-linecap="square" stroke-linejoin="round" fill="none" />
		<g clip-path="url(#24)" >
    <path id=""  transform="matrix(1 0 0 -1 0 169)"  d="M257.955 104.1937L258.945 104.1937L258.945 104.1937L258.945 101.2038L258.945 101.2038L262.525 101.2038L262.525 101.2038L262.525 104.1937L262.525 104.1937L263.515 104.1937L263.515 104.1937L263.515 96.90375L263.515 96.90375L262.525 96.90375L262.525 96.90375L262.525 100.3737L262.525 100.3737L258.945 100.3737L258.945 100.3737L258.945 96.90375L258.945 96.90375L257.955 96.90375L257.955 96.90375L257.955 104.1937" stroke="none" fill="#000000" fill-rule="nonzero" />
		</g>
		<g clip-path="url(#25)" >
    <path id=""  transform="matrix(1 0 0 -1 0 169)"  d="M265.3445 94.83375L265.3445 102.3737L265.3445 102.3737L266.2445 102.3737L266.2445 102.3737L266.2445 98.97375C 266.2445 98.49374 266.3545 98.14375 266.5745 97.90375C 266.7945 97.66375 267.1346 97.54375 267.5745 97.54375C 268.0545 97.54375 268.4146 97.67374 268.6545 97.95375C 268.8945 98.22375 269.0245 98.63375 269.0245 99.18375L269.0245 99.18375L269.0245 102.3737L269.0245 102.3737L269.9245 102.3737L269.9245 102.3737L269.9245 98.16375C 269.9245 97.96375 269.9445 97.82375 270.0045 97.73375C 270.0645 97.63375 270.1545 97.59375 270.2745 97.59375C 270.3045 97.59375 270.3445 97.59375 270.3945 97.61375C 270.4445 97.63375 270.5145 97.66375 270.6145 97.70375L270.6145 97.70375L270.6145 96.98375C 270.4745 96.91375 270.3545 96.87375 270.2345 96.83375C 270.1145 96.79375 269.9945 96.77375 269.8846 96.77375C 269.6545 96.77375 269.4745 96.83375 269.3445 96.95375C 269.2045 97.07375 269.1145 97.27375 269.0745 97.53374C 268.9146 97.27375 268.7145 97.07375 268.4745 96.95375C 268.2345 96.83375 267.9645 96.77375 267.6445 96.77375C 267.3045 96.77375 267.0245 96.83375 266.7945 96.95375C 266.5545 97.07375 266.3745 97.26375 266.2445 97.52375L266.2445 97.52375L266.2445 94.83375L266.2445 94.83375L265.3445 94.83375" stroke="none" fill="#000000" fill-rule="nonzero" />
		</g>
		<g clip-path="url(#26)" >
    <path id=""  transform="matrix(1 0 0 -1 0 169)"  d="M272.5869 102.3737L272.5869 98.83375C 272.5869 98.35374 272.6368 98.04375 272.7568 97.90375C 272.8768 97.74374 273.1068 97.66375 273.4568 97.66375L273.4568 97.66375L273.8969 97.66375L273.8969 97.66375L273.8969 96.90375L273.8969 96.90375L273.3568 96.90375C 272.7668 96.90375 272.3369 97.05375 272.0768 97.37375C 271.8069 97.69375 271.6768 98.19375 271.6768 98.88375L271.6768 98.88375L271.6668 102.3737L271.6668 102.3737L272.5869 102.3737" stroke="none" fill="#000000" fill-rule="nonzero" />
    <path id=""  transform="matrix(1 0 0 -1 0 169)"  d="M273.1368 104.9037L274.1068 104.9037L274.1068 104.9037L272.5168 103.0638L272.5168 103.0638L271.7668 103.0638L271.7668 103.0638L273.1368 104.9037" stroke="none" fill="#000000" fill-rule="nonzero" />
		</g>
		<g clip-path="url(#27)" >
    <path id=""  transform="matrix(1 0 0 -1 0 169)"  d="M277.8606 97.90375C 277.9806 97.74374 278.2106 97.66375 278.5706 97.66375L278.5706 97.66375L279.0006 97.66375L279.0006 97.66375L279.0006 96.90375L279.0006 96.90375L278.4606 96.90375C 277.8706 96.90375 277.4406 97.05375 277.1806 97.37375C 276.9106 97.69375 276.7806 98.19375 276.7806 98.88375L276.7806 98.88375L276.7806 101.4737L276.7806 101.4737L274.7306 101.4737L274.7306 101.4737L274.7306 102.3737L274.7306 102.3737L279.7706 102.3737L279.7706 102.3737L279.7706 101.4737L279.7706 101.4737L277.7006 101.4737L277.7006 101.4737L277.7006 98.83375C 277.7006 98.35374 277.7506 98.04375 277.8606 97.90375" stroke="none" fill="#000000" fill-rule="nonzero" />
		</g>
		<g clip-path="url(#28)" >
    <path id=""  transform="matrix(1 0 0 -1 0 169)"  d="M283.3211 102.5037C 284.1011 102.5037 284.7112 102.2437 285.1611 101.7437C 285.6011 101.2337 285.8311 100.5337 285.8311 99.63375C 285.8311 98.73375 285.6011 98.03374 285.1611 97.53374C 284.7112 97.02375 284.1011 96.77375 283.3211 96.77375C 282.5311 96.77375 281.9111 97.02375 281.4711 97.53374C 281.0311 98.03374 280.8111 98.73375 280.8111 99.63375C 280.8111 100.5337 281.0311 101.2337 281.4711 101.7437C 281.9111 102.2437 282.5311 102.5037 283.3211 102.5037M283.3211 101.7437C 282.8411 101.7437 282.4612 101.5537 282.1812 101.1737C 281.9012 100.7937 281.7611 100.2837 281.7611 99.63375C 281.7611 98.97375 281.8911 98.46375 282.1711 98.08375C 282.4511 97.70375 282.8311 97.52375 283.3211 97.52375C 283.8011 97.52375 284.1812 97.70375 284.4612 98.08375C 284.7411 98.46375 284.8811 98.97375 284.8811 99.63375C 284.8811 100.2738 284.7411 100.7937 284.4612 101.1737C 284.1812 101.5537 283.8011 101.7437 283.3211 101.7437" stroke="none" fill="#000000" fill-rule="nonzero" />
		</g>
		<g clip-path="url(#29)" >
    <path id=""  transform="matrix(1 0 0 -1 0 169)"  d="M288.4093 96.90375L286.7393 102.3737L286.7393 102.3737L287.7093 102.3737L287.7093 102.3737L289.1193 97.78374C 289.5093 98.18375 289.8693 98.66375 290.1893 99.22375C 290.4293 99.64375 290.5593 100.0337 290.5793 100.4037C 290.5793 100.5737 290.5493 100.8237 290.4793 101.1537C 290.3793 101.5337 290.1593 101.9437 289.8193 102.3737L289.8193 102.3737L290.7293 102.3737L290.7293 102.3737L290.7293 102.3737C 290.9493 102.0737 291.1393 101.7337 291.2893 101.3337C 291.4293 100.9538 291.4993 100.6437 291.4993 100.3937C 291.4993 99.75375 291.2693 99.14375 290.8293 98.58375C 290.2493 97.84375 289.7693 97.28374 289.3693 96.90375L289.3693 96.90375L288.4093 96.90375" stroke="none" fill="#000000" fill-rule="nonzero" />
		</g>
		<g clip-path="url(#30)" >
    <path id=""  transform="matrix(1 0 0 -1 0 169)"  d="M295.0252 102.5037C 295.8052 102.5037 296.4153 102.2437 296.8652 101.7437C 297.3052 101.2337 297.5352 100.5337 297.5352 99.63375C 297.5352 98.73375 297.3052 98.03374 296.8652 97.53374C 296.4153 97.02375 295.8052 96.77375 295.0252 96.77375C 294.2352 96.77375 293.6152 97.02375 293.1752 97.53374C 292.7352 98.03374 292.5152 98.73375 292.5152 99.63375C 292.5152 100.5337 292.7352 101.2337 293.1752 101.7437C 293.6152 102.2437 294.2352 102.5037 295.0252 102.5037M295.0252 101.7437C 294.5452 101.7437 294.1653 101.5537 293.8853 101.1737C 293.6053 100.7937 293.4652 100.2837 293.4652 99.63375C 293.4652 98.97375 293.5952 98.46375 293.8752 98.08375C 294.1552 97.70375 294.5352 97.52375 295.0252 97.52375C 295.5052 97.52375 295.8853 97.70375 296.1653 98.08375C 296.4453 98.46375 296.5852 98.97375 296.5852 99.63375C 296.5852 100.2738 296.4453 100.7937 296.1653 101.1737C 295.8853 101.5537 295.5052 101.7437 295.0252 101.7437" stroke="none" fill="#000000" fill-rule="nonzero" />
		</g>
    <path id=""  transform="matrix(1 0 0 -1 0 169)"  d="M228.975 85.32562L248.975 85.32562" stroke="#FF7F0E" stroke-width="1.5" stroke-linecap="square" stroke-linejoin="round" fill="none" />
		<g clip-path="url(#31)" >
    <path id=""  transform="matrix(1 0 0 -1 0 169)"  d="M259.085 82.65562L262.655 82.65562L262.655 82.65562L262.655 81.82562L262.655 81.82562L257.955 81.82562L257.955 81.82562L257.955 82.65562L257.955 82.65562L260.295 85.70562L260.295 85.70562L257.955 88.28562L257.955 88.28562L257.955 89.11562L257.955 89.11562L262.565 89.11562L262.565 89.11562L262.565 88.28562L262.565 88.28562L259.085 88.28562L259.085 88.28562L261.425 85.72562L261.425 85.72562L259.085 82.65562" stroke="none" fill="#000000" fill-rule="nonzero" />
		</g>
		<g clip-path="url(#32)" >
    <path id=""  transform="matrix(1 0 0 -1 0 169)"  d="M264.9434 87.29562L264.9434 83.75562C 264.9434 83.31562 265.0234 82.98563 265.1834 82.78562C 265.3634 82.55563 265.6234 82.44563 265.9834 82.44563C 266.4634 82.44563 266.8834 82.78562 267.2234 83.46562C 267.4134 83.84562 267.5334 84.33562 267.5834 84.95562C 267.6034 85.27562 267.5734 85.65562 267.4734 86.07562C 267.3834 86.45562 267.1634 86.86562 266.8234 87.29562L266.8234 87.29562L267.7334 87.29562L267.7334 87.29562L267.7334 87.29562C 267.9534 86.99562 268.1434 86.65562 268.2934 86.25562C 268.4334 85.87563 268.5034 85.44563 268.5034 84.94563C 268.5034 84.11562 268.2934 83.39562 267.8734 82.79562C 267.3634 82.05563 266.6934 81.69563 265.8734 81.69563C 265.2834 81.69563 264.8234 81.88562 264.5034 82.26563C 264.1834 82.64562 264.0234 83.16562 264.0234 83.80563L264.0234 83.80563L264.0234 87.29562L264.0234 87.29562L264.9434 87.29562" stroke="none" fill="#000000" fill-rule="nonzero" />
		</g>
		<g clip-path="url(#33)" >
    <path id=""  transform="matrix(1 0 0 -1 0 169)"  d="M271.1095 81.82562L269.4395 87.29562L269.4395 87.29562L270.4095 87.29562L270.4095 87.29562L271.8195 82.70562C 272.2095 83.10562 272.5695 83.58562 272.8895 84.14562C 273.1295 84.56562 273.2595 84.95562 273.2795 85.32562C 273.2795 85.49562 273.2495 85.74562 273.1795 86.07562C 273.0795 86.45562 272.8595 86.86562 272.5195 87.29562L272.5195 87.29562L273.4295 87.29562L273.4295 87.29562L273.4295 87.29562C 273.6495 86.99562 273.8395 86.65562 273.9895 86.25562C 274.1295 85.87563 274.1995 85.56562 274.1995 85.31562C 274.1995 84.67562 273.9695 84.06562 273.5295 83.50562C 272.9495 82.76563 272.4695 82.20562 272.0695 81.82562L272.0695 81.82562L271.1095 81.82562" stroke="none" fill="#000000" fill-rule="nonzero" />
		</g>
		<g clip-path="url(#34)" >
    <path id=""  transform="matrix(1 0 0 -1 0 169)"  d="M280.1554 85.12563L280.1554 79.75562L280.1554 79.75562L279.2554 79.75562L279.2554 79.75562L279.2554 85.09562C 279.2554 85.61562 279.1454 85.99562 278.9454 86.25562C 278.7454 86.51563 278.4454 86.64562 278.0454 86.64562C 277.5555 86.64562 277.1754 86.48563 276.8954 86.17562C 276.6154 85.86562 276.4754 85.44563 276.4754 84.91562L276.4754 84.91562L276.4754 81.82562L276.4754 81.82562L275.5754 81.82562L275.5754 81.82562L275.5754 87.29562L275.5754 87.29562L276.4754 87.29562L276.4754 87.29562L276.4754 86.44563C 276.6854 86.76563 276.9354 87.01563 277.2354 87.18562C 277.5254 87.34562 277.8654 87.42562 278.2454 87.42562C 278.8654 87.42562 279.3454 87.22562 279.6654 86.84562C 279.9854 86.44563 280.1554 85.87563 280.1554 85.12563" stroke="none" fill="#000000" fill-rule="nonzero" />
		</g>
		<g clip-path="url(#35)" >
    <path id=""  transform="matrix(1 0 0 -1 0 169)"  d="M281.8533 79.75562L281.8533 87.29562L281.8533 87.29562L282.7533 87.29562L282.7533 87.29562L282.7533 83.89562C 282.7533 83.41562 282.8633 83.06562 283.0833 82.82562C 283.3033 82.58562 283.6433 82.46562 284.0833 82.46562C 284.5633 82.46562 284.9233 82.59562 285.1633 82.87563C 285.4033 83.14562 285.5333 83.55563 285.5333 84.10562L285.5333 84.10562L285.5333 87.29562L285.5333 87.29562L286.4333 87.29562L286.4333 87.29562L286.4333 83.08562C 286.4333 82.88562 286.4533 82.74562 286.5133 82.65562C 286.5733 82.55563 286.6633 82.51563 286.7833 82.51563C 286.8133 82.51563 286.8533 82.51563 286.9033 82.53562C 286.9533 82.55563 287.0233 82.58562 287.1233 82.62563L287.1233 82.62563L287.1233 81.90562C 286.9833 81.83562 286.8633 81.79562 286.7433 81.75562C 286.6233 81.71562 286.5033 81.69563 286.3933 81.69563C 286.1633 81.69563 285.9833 81.75562 285.8533 81.87563C 285.7133 81.99562 285.6233 82.19563 285.5833 82.45562C 285.4233 82.19563 285.2233 81.99562 284.9833 81.87563C 284.7433 81.75562 284.4733 81.69563 284.1533 81.69563C 283.8133 81.69563 283.5333 81.75562 283.3033 81.87563C 283.0633 81.99562 282.8833 82.18562 282.7533 82.44563L282.7533 82.44563L282.7533 79.75562L282.7533 79.75562L281.8533 79.75562" stroke="none" fill="#000000" fill-rule="nonzero" />
		</g>
		<g clip-path="url(#36)" >
    <path id=""  transform="matrix(1 0 0 -1 0 169)"  d="M289.0956 87.29562L289.0956 83.75562C 289.0956 83.27562 289.1456 82.96562 289.2656 82.82562C 289.3856 82.66562 289.6156 82.58562 289.9656 82.58562L289.9656 82.58562L290.4056 82.58562L290.4056 82.58562L290.4056 81.82562L290.4056 81.82562L289.8656 81.82562C 289.2756 81.82562 288.8456 81.97562 288.5856 82.29562C 288.3156 82.61562 288.1856 83.11562 288.1856 83.80563L288.1856 83.80563L288.1756 87.29562L288.1756 87.29562L289.0956 87.29562" stroke="none" fill="#000000" fill-rule="nonzero" />
    <path id=""  transform="matrix(1 0 0 -1 0 169)"  d="M289.6456 89.82562L290.6156 89.82562L290.6156 89.82562L289.0256 87.98563L289.0256 87.98563L288.2756 87.98563L288.2756 87.98563L289.6456 89.82562" stroke="none" fill="#000000" fill-rule="nonzero" />
		</g>
		<g clip-path="url(#37)" >
    <path id=""  transform="matrix(1 0 0 -1 0 169)"  d="M294.3694 82.82562C 294.4894 82.66562 294.7194 82.58562 295.0794 82.58562L295.0794 82.58562L295.5094 82.58562L295.5094 82.58562L295.5094 81.82562L295.5094 81.82562L294.9694 81.82562C 294.3794 81.82562 293.9494 81.97562 293.6894 82.29562C 293.4194 82.61562 293.2894 83.11562 293.2894 83.80563L293.2894 83.80563L293.2894 86.39562L293.2894 86.39562L291.2394 86.39562L291.2394 86.39562L291.2394 87.29562L291.2394 87.29562L296.2794 87.29562L296.2794 87.29562L296.2794 86.39562L296.2794 86.39562L294.2094 86.39562L294.2094 86.39562L294.2094 83.75562C 294.2094 83.27562 294.2594 82.96562 294.3694 82.82562" stroke="none" fill="#000000" fill-rule="nonzero" />
		</g>
		<g clip-path="url(#38)" >
    <path id=""  transform="matrix(1 0 0 -1 0 169)"  d="M299.8299 87.42562C 300.6099 87.42562 301.2199 87.16562 301.6699 86.66562C 302.1099 86.15562 302.3399 85.45562 302.3399 84.55563C 302.3399 83.65562 302.1099 82.95562 301.6699 82.45562C 301.2199 81.94563 300.6099 81.69563 299.8299 81.69563C 299.0399 81.69563 298.4199 81.94563 297.9799 82.45562C 297.5399 82.95562 297.3199 83.65562 297.3199 84.55563C 297.3199 85.45562 297.5399 86.15562 297.9799 86.66562C 298.4199 87.16562 299.0399 87.42562 299.8299 87.42562M299.8299 86.66562C 299.3499 86.66562 298.9699 86.47562 298.6899 86.09562C 298.4099 85.71562 298.2699 85.20562 298.2699 84.55563C 298.2699 83.89562 298.3999 83.38562 298.6799 83.00562C 298.9599 82.62563 299.3399 82.44563 299.8299 82.44563C 300.3099 82.44563 300.6899 82.62563 300.9699 83.00562C 301.2499 83.38562 301.3899 83.89562 301.3899 84.55563C 301.3899 85.19563 301.2499 85.71562 300.9699 86.09562C 300.6899 86.47562 300.3099 86.66562 299.8299 86.66562" stroke="none" fill="#000000" fill-rule="nonzero" />
		</g>
		<g clip-path="url(#39)" >
    <path id=""  transform="matrix(1 0 0 -1 0 169)"  d="M304.9181 81.82562L303.2481 87.29562L303.2481 87.29562L304.2181 87.29562L304.2181 87.29562L305.6281 82.70562C 306.0181 83.10562 306.3781 83.58562 306.6981 84.14562C 306.9381 84.56562 307.0681 84.95562 307.0881 85.32562C 307.0881 85.49562 307.0581 85.74562 306.9881 86.07562C 306.8881 86.45562 306.6681 86.86562 306.3281 87.29562L306.3281 87.29562L307.2381 87.29562L307.2381 87.29562L307.2381 87.29562C 307.4581 86.99562 307.6481 86.65562 307.7981 86.25562C 307.9381 85.87563 308.0081 85.56562 308.0081 85.31562C 308.0081 84.67562 307.7781 84.06562 307.3381 83.50562C 306.7581 82.76563 306.2781 82.20562 305.8781 81.82562L305.8781 81.82562L304.9181 81.82562" stroke="none" fill="#000000" fill-rule="nonzero" />
		</g>
		<g clip-path="url(#40)" >
    <path id=""  transform="matrix(1 0 0 -1 0 169)"  d="M311.534 87.42562C 312.314 87.42562 312.924 87.16562 313.374 86.66562C 313.814 86.15562 314.044 85.45562 314.044 84.55563C 314.044 83.65562 313.814 82.95562 313.374 82.45562C 312.924 81.94563 312.314 81.69563 311.534 81.69563C 310.744 81.69563 310.124 81.94563 309.684 82.45562C 309.244 82.95562 309.024 83.65562 309.024 84.55563C 309.024 85.45562 309.244 86.15562 309.684 86.66562C 310.124 87.16562 310.744 87.42562 311.534 87.42562M311.534 86.66562C 311.054 86.66562 310.674 86.47562 310.394 86.09562C 310.114 85.71562 309.974 85.20562 309.974 84.55563C 309.974 83.89562 310.104 83.38562 310.384 83.00562C 310.664 82.62563 311.044 82.44563 311.534 82.44563C 312.014 82.44563 312.394 82.62563 312.674 83.00562C 312.954 83.38562 313.094 83.89562 313.094 84.55563C 313.094 85.19563 312.954 85.71562 312.674 86.09562C 312.394 86.47562 312.014 86.66562 311.534 86.66562" stroke="none" fill="#000000" fill-rule="nonzero" />
		</g>
	</g>
</g>
</svg>