<?xml version="1.0" standalone="no"?>
<!DOCTYPE svg PUBLIC "-//W3C//DTD SVG 1.0//EN" "http://www.w3.org/TR/2001/REC-SVG-20010904/DTD/svg10.dtd">
<svg xmlns="http://www.w3.org/2000/svg" xmlns:xlink="http://www.w3.org/1999/xlink" id="body_1" width="288" height="192">

<defs>
    <clipPath  id="1">

    <path id=""  clip-rule="evenodd" transform="matrix(1 0 0 1 0 0)"  d="M0 144L0 0L0 0L216 0L216 0L216 144L216 144L0 144z" />    </clipPath>
    <clipPath  id="2">

    <path id=""  clip-rule="evenodd" transform="matrix(1 0 0 1 0 0)"  d="M-14.49125 129.4855L13.65875 129.4855L13.65875 129.4855L13.65875 112.5255L13.65875 112.5255L-14.49125 112.5255z" />    </clipPath>
    <clipPath  id="3">

    <path id=""  clip-rule="evenodd" transform="matrix(1 0 0 1 0 0)"  d="M-14.49125 104.7711L13.65875 104.7711L13.65875 104.7711L13.65875 87.81106L13.65875 87.81106L-14.49125 87.81106z" />    </clipPath>
    <clipPath  id="4">

    <path id=""  clip-rule="evenodd" transform="matrix(1 0 0 1 0 0)"  d="M27 126L194.4 126L194.4 126L194.4 17.28L194.4 17.28L27 17.28z" />    </clipPath>
</defs>

<g transform="matrix(1.3333 0 0 1.3333 0 0)">
	<g clip-path="url(#1)" >
    <path id=""  transform="matrix(1 0 0 -1 0 144)"  d="M27 18L194.4 18L194.4 18L194.4 126.72L194.4 126.72L27 126.72z" stroke="none" fill="#FFFFFF" fill-rule="nonzero" />
    <path id=""  transform="matrix(1 0 0 -1 0 144)"  d="M34.60909 18L34.60909 14.5" stroke="#000000" stroke-width="0.8" stroke-linejoin="miter" fill="#000000" fill-rule="nonzero" />
    <path id=""  transform="matrix(1 0 0 -1 0 144)"  d="M34.60941 10.82625C 35.4194 10.82625 36.0394 10.49625 36.4794 9.856251C 36.9094 9.20625 37.1294 8.266251 37.1294 7.04625C 37.1294 5.81625 36.9094 4.87625 36.4794 4.23625C 36.0394 3.59625 35.4194 3.27625 34.60941 3.27625C 33.7894 3.27625 33.1594 3.59625 32.7294 4.23625C 32.2994 4.87625 32.08941 5.81625 32.08941 7.04625C 32.08941 8.266251 32.2994 9.20625 32.7294 9.856251C 33.1594 10.49625 33.7894 10.82625 34.60941 10.82625M34.60941 10.04625C 34.0994 10.04625 33.7194 9.79625 33.4594 9.29625C 33.1994 8.79625 33.0794 8.04625 33.0794 7.04625C 33.0794 6.04625 33.1994 5.29625 33.4594 4.79625C 33.7194 4.29625 34.0994 4.04625 34.60941 4.04625C 35.1194 4.04625 35.4994 4.29625 35.7594 4.79625C 36.0094 5.29625 36.1394 6.04625 36.1394 7.04625C 36.1394 8.04625 36.0094 8.79625 35.7594 9.29625C 35.4994 9.79625 35.1194 10.04625 34.60941 10.04625" stroke="none" fill="#000000" fill-rule="nonzero" />
    <path id=""  transform="matrix(1 0 0 -1 0 144)"  d="M95.48182 18L95.48182 14.5" stroke="#000000" stroke-width="0.8" stroke-linejoin="miter" fill="#000000" fill-rule="nonzero" />
    <path id=""  transform="matrix(1 0 0 -1 0 144)"  d="M93.38213 10.69625L97.25213 10.69625L97.25213 10.69625L97.25213 9.866251L97.25213 9.866251L94.28214 9.866251L94.28214 9.866251L94.28214 8.07625C 94.42213 8.12625 94.57213 8.16625 94.71214 8.186251C 94.85213 8.20625 95.00213 8.22625 95.14214 8.22625C 95.95213 8.22625 96.59213 7.99625 97.07213 7.55625C 97.55213 7.10625 97.79213 6.50625 97.79213 5.74625C 97.79213 4.95625 97.54213 4.34625 97.05213 3.91625C 96.56213 3.48625 95.87213 3.27625 94.99213 3.27625C 94.68213 3.27625 94.37213 3.30625 94.05213 3.34625C 93.73213 3.39625 93.41213 3.46625 93.07213 3.57625L93.07213 3.57625L93.07213 4.56625C 93.36213 4.40625 93.66213 4.28625 93.98213 4.20625C 94.29213 4.12625 94.62213 4.09625 94.97213 4.09625C 95.53214 4.09625 95.98213 4.23625 96.31213 4.53625C 96.63213 4.83625 96.80213 5.23625 96.80213 5.74625C 96.80213 6.24625 96.63213 6.64625 96.31213 6.94625C 95.98213 7.24625 95.53214 7.39625 94.97213 7.39625C 94.71214 7.39625 94.44213 7.36625 94.18213 7.306251C 93.92213 7.24625 93.65213 7.15625 93.38213 7.03625L93.38213 7.03625L93.38213 10.69625" stroke="none" fill="#000000" fill-rule="nonzero" />
    <path id=""  transform="matrix(1 0 0 -1 0 144)"  d="M156.3545 18L156.3545 14.5" stroke="#000000" stroke-width="0.8" stroke-linejoin="miter" fill="#000000" fill-rule="nonzero" />
    <path id=""  transform="matrix(1 0 0 -1 0 144)"  d="M151.2352 4.23625L152.8452 4.23625L152.8452 4.23625L152.8452 9.79625L152.8452 9.79625L151.0952 9.446251L151.0952 9.446251L151.0952 10.34625L151.0952 10.34625L152.8352 10.69625L152.8352 10.69625L153.8252 10.69625L153.8252 10.69625L153.8252 4.23625L153.8252 4.23625L155.4352 4.23625L155.4352 4.23625L155.4352 3.40625L155.4352 3.40625L151.2352 3.40625L151.2352 3.40625L151.2352 4.23625" stroke="none" fill="#000000" fill-rule="nonzero" />
    <path id=""  transform="matrix(1 0 0 -1 0 144)"  d="M159.5352 10.82625C 160.3452 10.82625 160.9652 10.49625 161.4052 9.856251C 161.8352 9.20625 162.0552 8.266251 162.0552 7.04625C 162.0552 5.81625 161.8352 4.87625 161.4052 4.23625C 160.9652 3.59625 160.3452 3.27625 159.5352 3.27625C 158.7152 3.27625 158.0852 3.59625 157.6552 4.23625C 157.2252 4.87625 157.0152 5.81625 157.0152 7.04625C 157.0152 8.266251 157.2252 9.20625 157.6552 9.856251C 158.0852 10.49625 158.7152 10.82625 159.5352 10.82625M159.5352 10.04625C 159.0252 10.04625 158.6452 9.79625 158.3852 9.29625C 158.1252 8.79625 158.0052 8.04625 158.0052 7.04625C 158.0052 6.04625 158.1252 5.29625 158.3852 4.79625C 158.6452 4.29625 159.0252 4.04625 159.5352 4.04625C 160.0452 4.04625 160.4252 4.29625 160.6852 4.79625C 160.9352 5.29625 161.0652 6.04625 161.0652 7.04625C 161.0652 8.04625 160.9352 8.79625 160.6852 9.29625C 160.4252 9.79625 160.0452 10.04625 159.5352 10.04625" stroke="none" fill="#000000" fill-rule="nonzero" />
    <path id=""  transform="matrix(1 0 0 -1 0 144)"  d="M27 22.94133L23.5 22.94133" stroke="#000000" stroke-width="0.8" stroke-linejoin="miter" fill="#000000" fill-rule="nonzero" />
    <path id=""  transform="matrix(1 0 0 -1 0 144)"  d="M5.337656 19.97446L6.947657 19.97446L6.947657 19.97446L6.947657 25.53446L6.947657 25.53446L5.197656 25.18446L5.197656 25.18446L5.197656 26.08446L5.197656 26.08446L6.937656 26.43446L6.937656 26.43446L7.927656 26.43446L7.927656 26.43446L7.927656 19.97446L7.927656 19.97446L9.537657 19.97446L9.537657 19.97446L9.537657 19.14446L9.537657 19.14446L5.337656 19.14446L5.337656 19.14446L5.337656 19.97446" stroke="none" fill="#000000" fill-rule="nonzero" />
    <path id=""  transform="matrix(1 0 0 -1 0 144)"  d="M11.52766 20.38446L12.55766 20.38446L12.55766 20.38446L12.55766 19.14446L12.55766 19.14446L11.52766 19.14446L11.52766 19.14446L11.52766 20.38446" stroke="none" fill="#000000" fill-rule="nonzero" />
    <path id=""  transform="matrix(1 0 0 -1 0 144)"  d="M16.81766 26.56446C 17.62766 26.56446 18.24766 26.23446 18.68766 25.59446C 19.11766 24.94446 19.33766 24.00446 19.33766 22.78446C 19.33766 21.55446 19.11766 20.61446 18.68766 19.97446C 18.24766 19.33446 17.62766 19.01446 16.81766 19.01446C 15.99766 19.01446 15.36766 19.33446 14.93766 19.97446C 14.50766 20.61446 14.29766 21.55446 14.29766 22.78446C 14.29766 24.00446 14.50766 24.94446 14.93766 25.59446C 15.36766 26.23446 15.99766 26.56446 16.81766 26.56446M16.81766 25.78446C 16.30766 25.78446 15.92766 25.53446 15.66766 25.03446C 15.40766 24.53446 15.28766 23.78446 15.28766 22.78446C 15.28766 21.78446 15.40766 21.03446 15.66766 20.53446C 15.92766 20.03446 16.30766 19.78446 16.81766 19.78446C 17.32766 19.78446 17.70766 20.03446 17.96766 20.53446C 18.21766 21.03446 18.34766 21.78446 18.34766 22.78446C 18.34766 23.78446 18.21766 24.53446 17.96766 25.03446C 17.70766 25.53446 17.32766 25.78446 16.81766 25.78446" stroke="none" fill="#000000" fill-rule="nonzero" />
		<g clip-path="url(#2)" >
    <path id=""  transform="matrix(1 0 0 -1 0 144)"  d="M-3.22125 22.69446L3.03875 22.69446L3.03875 22.69446L3.03875 21.86446L3.03875 21.86446L-3.22125 21.86446L-3.22125 21.86446L-3.22125 22.69446" stroke="none" fill="#000000" fill-rule="nonzero" />
		</g>
    <path id=""  transform="matrix(1 0 0 -1 0 144)"  d="M27 47.65582L23.5 47.65582" stroke="#000000" stroke-width="0.8" stroke-linejoin="miter" fill="#000000" fill-rule="nonzero" />
    <path id=""  transform="matrix(1 0 0 -1 0 144)"  d="M7.277657 51.27894C 8.087656 51.27894 8.707657 50.94894 9.147656 50.30894C 9.577657 49.65894 9.797657 48.71894 9.797657 47.49894C 9.797657 46.26894 9.577657 45.32894 9.147656 44.68894C 8.707657 44.04894 8.087656 43.72894 7.277657 43.72894C 6.457656 43.72894 5.827656 44.04894 5.397656 44.68894C 4.967656 45.32894 4.757656 46.26894 4.757656 47.49894C 4.757656 48.71894 4.967656 49.65894 5.397656 50.30894C 5.827656 50.94894 6.457656 51.27894 7.277657 51.27894M7.277657 50.49894C 6.767656 50.49894 6.387656 50.24894 6.127656 49.74894C 5.867656 49.24894 5.747656 48.49894 5.747656 47.49894C 5.747656 46.49894 5.867656 45.74894 6.127656 45.24894C 6.387656 44.74894 6.767656 44.49894 7.277657 44.49894C 7.787657 44.49894 8.167656 44.74894 8.427656 45.24894C 8.677656 45.74894 8.807657 46.49894 8.807657 47.49894C 8.807657 48.49894 8.677656 49.24894 8.427656 49.74894C 8.167656 50.24894 7.787657 50.49894 7.277657 50.49894" stroke="none" fill="#000000" fill-rule="nonzero" />
    <path id=""  transform="matrix(1 0 0 -1 0 144)"  d="M11.52766 45.09894L12.55766 45.09894L12.55766 45.09894L12.55766 43.85894L12.55766 43.85894L11.52766 43.85894L11.52766 43.85894L11.52766 45.09894" stroke="none" fill="#000000" fill-rule="nonzero" />
    <path id=""  transform="matrix(1 0 0 -1 0 144)"  d="M14.71766 51.14894L18.58766 51.14894L18.58766 51.14894L18.58766 50.31894L18.58766 50.31894L15.61766 50.31894L15.61766 50.31894L15.61766 48.52894C 15.75766 48.57894 15.90766 48.61894 16.04766 48.63894C 16.18766 48.65894 16.33766 48.67894 16.47766 48.67894C 17.28766 48.67894 17.92766 48.44894 18.40766 48.00894C 18.88766 47.55894 19.12766 46.95894 19.12766 46.19894C 19.12766 45.40894 18.87766 44.79894 18.38766 44.36894C 17.89766 43.93894 17.20766 43.72894 16.32766 43.72894C 16.01766 43.72894 15.70766 43.75894 15.38766 43.79894C 15.06766 43.84894 14.74766 43.91894 14.40766 44.02894L14.40766 44.02894L14.40766 45.01894C 14.69766 44.85894 14.99766 44.73894 15.31766 44.65894C 15.62766 44.57894 15.95766 44.54894 16.30766 44.54894C 16.86766 44.54894 17.31766 44.68894 17.64766 44.98894C 17.96766 45.28894 18.13766 45.68894 18.13766 46.19894C 18.13766 46.69894 17.96766 47.09894 17.64766 47.39894C 17.31766 47.69894 16.86766 47.84894 16.30766 47.84894C 16.04766 47.84894 15.77766 47.81894 15.51766 47.75894C 15.25766 47.69894 14.98766 47.60894 14.71766 47.48894L14.71766 47.48894L14.71766 51.14894" stroke="none" fill="#000000" fill-rule="nonzero" />
		<g clip-path="url(#3)" >
    <path id=""  transform="matrix(1 0 0 -1 0 144)"  d="M-3.22125 47.40894L3.03875 47.40894L3.03875 47.40894L3.03875 46.57894L3.03875 46.57894L-3.22125 46.57894L-3.22125 46.57894L-3.22125 47.40894" stroke="none" fill="#000000" fill-rule="nonzero" />
		</g>
    <path id=""  transform="matrix(1 0 0 -1 0 144)"  d="M27 72.37029L23.5 72.37029" stroke="#000000" stroke-width="0.8" stroke-linejoin="miter" fill="#000000" fill-rule="nonzero" />
    <path id=""  transform="matrix(1 0 0 -1 0 144)"  d="M7.27375 75.99342C 8.08375 75.99342 8.703751 75.66342 9.14375 75.02341C 9.57375 74.37342 9.793751 73.43342 9.793751 72.21342C 9.793751 70.98342 9.57375 70.04342 9.14375 69.40342C 8.703751 68.76342 8.08375 68.44342 7.27375 68.44342C 6.45375 68.44342 5.82375 68.76342 5.39375 69.40342C 4.96375 70.04342 4.75375 70.98342 4.75375 72.21342C 4.75375 73.43342 4.96375 74.37342 5.39375 75.02341C 5.82375 75.66342 6.45375 75.99342 7.27375 75.99342M7.27375 75.21342C 6.76375 75.21342 6.38375 74.96342 6.12375 74.46342C 5.86375 73.96342 5.74375 73.21342 5.74375 72.21342C 5.74375 71.21342 5.86375 70.46342 6.12375 69.96342C 6.38375 69.46342 6.76375 69.21342 7.27375 69.21342C 7.783751 69.21342 8.16375 69.46342 8.42375 69.96342C 8.67375 70.46342 8.803751 71.21342 8.803751 72.21342C 8.803751 73.21342 8.67375 73.96342 8.42375 74.46342C 8.16375 74.96342 7.783751 75.21342 7.27375 75.21342" stroke="none" fill="#000000" fill-rule="nonzero" />
    <path id=""  transform="matrix(1 0 0 -1 0 144)"  d="M11.52375 69.81342L12.55375 69.81342L12.55375 69.81342L12.55375 68.57342L12.55375 68.57342L11.52375 68.57342L11.52375 68.57342L11.52375 69.81342" stroke="none" fill="#000000" fill-rule="nonzero" />
    <path id=""  transform="matrix(1 0 0 -1 0 144)"  d="M16.81375 75.99342C 17.62375 75.99342 18.24375 75.66342 18.68375 75.02341C 19.11375 74.37342 19.33375 73.43342 19.33375 72.21342C 19.33375 70.98342 19.11375 70.04342 18.68375 69.40342C 18.24375 68.76342 17.62375 68.44342 16.81375 68.44342C 15.99375 68.44342 15.36375 68.76342 14.93375 69.40342C 14.50375 70.04342 14.29375 70.98342 14.29375 72.21342C 14.29375 73.43342 14.50375 74.37342 14.93375 75.02341C 15.36375 75.66342 15.99375 75.99342 16.81375 75.99342M16.81375 75.21342C 16.30375 75.21342 15.92375 74.96342 15.66375 74.46342C 15.40375 73.96342 15.28375 73.21342 15.28375 72.21342C 15.28375 71.21342 15.40375 70.46342 15.66375 69.96342C 15.92375 69.46342 16.30375 69.21342 16.81375 69.21342C 17.32375 69.21342 17.70375 69.46342 17.96375 69.96342C 18.21375 70.46342 18.34375 71.21342 18.34375 72.21342C 18.34375 73.21342 18.21375 73.96342 17.96375 74.46342C 17.70375 74.96342 17.32375 75.21342 16.81375 75.21342" stroke="none" fill="#000000" fill-rule="nonzero" />
    <path id=""  transform="matrix(1 0 0 -1 0 144)"  d="M27 97.08478L23.5 97.08478" stroke="#000000" stroke-width="0.8" stroke-linejoin="miter" fill="#000000" fill-rule="nonzero" />
    <path id=""  transform="matrix(1 0 0 -1 0 144)"  d="M7.27375 100.7079C 8.08375 100.7079 8.703751 100.3779 9.14375 99.7379C 9.57375 99.08791 9.793751 98.1479 9.793751 96.9279C 9.793751 95.69791 9.57375 94.7579 9.14375 94.1179C 8.703751 93.47791 8.08375 93.15791 7.27375 93.15791C 6.45375 93.15791 5.82375 93.47791 5.39375 94.1179C 4.96375 94.7579 4.75375 95.69791 4.75375 96.9279C 4.75375 98.1479 4.96375 99.08791 5.39375 99.7379C 5.82375 100.3779 6.45375 100.7079 7.27375 100.7079M7.27375 99.9279C 6.76375 99.9279 6.38375 99.6779 6.12375 99.1779C 5.86375 98.6779 5.74375 97.9279 5.74375 96.9279C 5.74375 95.9279 5.86375 95.1779 6.12375 94.6779C 6.38375 94.1779 6.76375 93.9279 7.27375 93.9279C 7.783751 93.9279 8.16375 94.1779 8.42375 94.6779C 8.67375 95.1779 8.803751 95.9279 8.803751 96.9279C 8.803751 97.9279 8.67375 98.6779 8.42375 99.1779C 8.16375 99.6779 7.783751 99.9279 7.27375 99.9279" stroke="none" fill="#000000" fill-rule="nonzero" />
    <path id=""  transform="matrix(1 0 0 -1 0 144)"  d="M11.52375 94.5279L12.55375 94.5279L12.55375 94.5279L12.55375 93.2879L12.55375 93.2879L11.52375 93.2879L11.52375 93.2879L11.52375 94.5279" stroke="none" fill="#000000" fill-rule="nonzero" />
    <path id=""  transform="matrix(1 0 0 -1 0 144)"  d="M14.71375 100.5779L18.58375 100.5779L18.58375 100.5779L18.58375 99.7479L18.58375 99.7479L15.61375 99.7479L15.61375 99.7479L15.61375 97.9579C 15.75375 98.0079 15.90375 98.0479 16.04375 98.0679C 16.18375 98.08791 16.33375 98.1079 16.47375 98.1079C 17.28375 98.1079 17.92375 97.8779 18.40375 97.4379C 18.88375 96.9879 19.12375 96.3879 19.12375 95.6279C 19.12375 94.83791 18.87375 94.22791 18.38375 93.7979C 17.89375 93.3679 17.20375 93.15791 16.32375 93.15791C 16.01375 93.15791 15.70375 93.1879 15.38375 93.22791C 15.06375 93.2779 14.74375 93.3479 14.40375 93.4579L14.40375 93.4579L14.40375 94.44791C 14.69375 94.2879 14.99375 94.1679 15.31375 94.08791C 15.62375 94.0079 15.95375 93.97791 16.30375 93.97791C 16.86375 93.97791 17.31375 94.1179 17.64375 94.4179C 17.96375 94.7179 18.13375 95.1179 18.13375 95.6279C 18.13375 96.1279 17.96375 96.5279 17.64375 96.8279C 17.31375 97.1279 16.86375 97.2779 16.30375 97.2779C 16.04375 97.2779 15.77375 97.2479 15.51375 97.1879C 15.25375 97.1279 14.98375 97.0379 14.71375 96.9179L14.71375 96.9179L14.71375 100.5779" stroke="none" fill="#000000" fill-rule="nonzero" />
    <path id=""  transform="matrix(1 0 0 -1 0 144)"  d="M27 121.7993L23.5 121.7993" stroke="#000000" stroke-width="0.8" stroke-linejoin="miter" fill="#000000" fill-rule="nonzero" />
    <path id=""  transform="matrix(1 0 0 -1 0 144)"  d="M5.33375 118.8324L6.94375 118.8324L6.94375 118.8324L6.94375 124.3924L6.94375 124.3924L5.19375 124.0424L5.19375 124.0424L5.19375 124.9424L5.19375 124.9424L6.93375 125.2924L6.93375 125.2924L7.92375 125.2924L7.92375 125.2924L7.92375 118.8324L7.92375 118.8324L9.533751 118.8324L9.533751 118.8324L9.533751 118.0024L9.533751 118.0024L5.33375 118.0024L5.33375 118.0024L5.33375 118.8324" stroke="none" fill="#000000" fill-rule="nonzero" />
    <path id=""  transform="matrix(1 0 0 -1 0 144)"  d="M11.52375 119.2424L12.55375 119.2424L12.55375 119.2424L12.55375 118.0024L12.55375 118.0024L11.52375 118.0024L11.52375 118.0024L11.52375 119.2424" stroke="none" fill="#000000" fill-rule="nonzero" />
    <path id=""  transform="matrix(1 0 0 -1 0 144)"  d="M16.81375 125.4224C 17.62375 125.4224 18.24375 125.0924 18.68375 124.4524C 19.11375 123.8024 19.33375 122.8624 19.33375 121.6424C 19.33375 120.4124 19.11375 119.4724 18.68375 118.8324C 18.24375 118.1924 17.62375 117.8724 16.81375 117.8724C 15.99375 117.8724 15.36375 118.1924 14.93375 118.8324C 14.50375 119.4724 14.29375 120.4124 14.29375 121.6424C 14.29375 122.8624 14.50375 123.8024 14.93375 124.4524C 15.36375 125.0924 15.99375 125.4224 16.81375 125.4224M16.81375 124.6424C 16.30375 124.6424 15.92375 124.3924 15.66375 123.8924C 15.40375 123.3924 15.28375 122.6424 15.28375 121.6424C 15.28375 120.6424 15.40375 119.8924 15.66375 119.3924C 15.92375 118.8924 16.30375 118.6424 16.81375 118.6424C 17.32375 118.6424 17.70375 118.8924 17.96375 119.3924C 18.21375 119.8924 18.34375 120.6424 18.34375 121.6424C 18.34375 122.6424 18.21375 123.3924 17.96375 123.8924C 17.70375 124.3924 17.32375 124.6424 16.81375 124.6424" stroke="none" fill="#000000" fill-rule="nonzero" />
		<g clip-path="url(#4)" >
    <path id=""  transform="matrix(1 0 0 -1 0 144)"  d="M34.60909 72.37029L35.82655 77.30495L35.82655 77.30495L37.044 82.19032L37.044 82.19032L38.26146 86.97755L38.26146 86.97755L39.47891 91.61884L39.47891 91.61884L40.69637 96.0678L40.69637 96.0678L41.91382 100.28L41.91382 100.28L43.13127 104.2133L43.13127 104.2133L44.34873 107.8285L44.34873 107.8285L45.56618 111.0893L45.56618 111.0893L46.78363 113.9633L46.78363 113.9633L48.00109 116.4218L48.00109 116.4218L49.21854 118.44L49.21854 118.44L50.436 119.998L50.436 119.998L51.65345 121.0801L51.65345 121.0801L52.87091 121.6754L52.87091 121.6754L54.08836 121.7782L54.08836 121.7782L55.30582 121.3873L55.30582 121.3873L56.52327 120.5066L56.52327 120.5066L57.74073 119.1449L57.74073 119.1449L58.95818 117.3159L58.95818 117.3159L60.17564 115.0378L60.17564 115.0378L61.39309 112.3334L61.39309 112.3334L62.61055 109.2297L62.61055 109.2297L63.828 105.7577L63.828 105.7577L65.04546 101.9522L65.04546 101.9522L66.26291 97.85099L66.26291 97.85099L67.48036 93.49524L67.48036 93.49524L68.69781 88.92841L68.69781 88.92841L69.91528 84.19614L69.91528 84.19614L71.13273 79.34571L71.13273 79.34571L72.35018 74.42558L72.35018 74.42558L73.56763 69.48492L73.56763 69.48492L74.78509 64.57309L74.78509 64.57309L76.00255 59.73917L76.00255 59.73917L77.22 55.03144L77.22 55.03144L78.43745 50.49697L78.43745 50.49697L79.65491 46.18105L79.65491 46.18105L80.87236 42.1268L80.87236 42.1268L82.08982 38.37473L82.08982 38.37473L83.30727 34.96233L83.30727 34.96233L84.52473 31.92371L84.52473 31.92371L85.74218 29.28921L85.74218 29.28921L86.95963 27.08517L86.95963 27.08517L88.17709 25.33359L88.17709 25.33359L89.39455 24.052L89.39455 24.052L90.612 23.25318L90.612 23.25318L91.82945 22.94513L91.82945 22.94513L93.04691 23.13091L93.04691 23.13091L94.26437 23.80868L94.26437 23.80868L95.48182 24.97166L95.48182 24.97166L96.69927 26.60824L96.69927 26.60824L97.91673 28.70205L97.91673 28.70205L99.13419 31.23218L99.13419 31.23218L100.3516 34.17335L100.3516 34.17335L101.5691 37.49617L101.5691 37.49617L102.7865 41.16744L102.7865 41.16744L104.004 45.15048L104.004 45.15048L105.2215 49.40549L105.2215 49.40549L106.4389 53.88996L106.4389 53.88996L107.6564 58.55908L107.6564 58.55908L108.8738 63.36619L108.8738 63.36619L110.0913 68.26328L110.0913 68.26328L111.3087 73.20139L111.3087 73.20139L112.5262 78.1312L112.5262 78.1312L113.7436 83.00346L113.7436 83.00346L114.9611 87.76946L114.9611 87.76946L116.1785 92.38161L116.1785 92.38161L117.396 96.79381L117.396 96.79381L118.6135 100.962L118.6135 100.962L119.8309 104.8445L119.8309 104.8445L121.0484 108.4025L121.0484 108.4025L122.2658 111.6005L122.2658 111.6005L123.4833 114.4065L123.4833 114.4065L124.7007 116.7925L124.7007 116.7925L125.9182 118.7347L125.9182 118.7347L127.1356 120.2136L127.1356 120.2136L128.3531 121.2144L128.3531 121.2144L129.5705 121.7273L129.5705 121.7273L130.788 121.7469L130.788 121.7469L132.0054 121.2732L132.0054 121.2732L133.2229 120.3109L133.2229 120.3109L134.4404 118.8696L134.4404 118.8696L135.6578 116.9637L135.6578 116.9637L136.8753 114.6122L136.8753 114.6122L138.0927 111.8387L138.0927 111.8387L139.3102 108.6708L139.3102 108.6708L140.5276 105.1402L140.5276 105.1402L141.7451 101.2821L141.7451 101.2821L142.9625 97.13524L142.9625 97.13524L144.18 92.74088L144.18 92.74088L145.3975 88.143L145.3975 88.143L146.6149 83.38751L146.6149 83.38751L147.8324 78.52195L147.8324 78.52195L149.0498 73.59492L149.0498 73.59492L150.2673 68.65565L150.2673 68.65565L151.4847 63.75351L151.4847 63.75351L152.7022 58.93745L152.7022 58.93745L153.9196 54.25561L153.9196 54.25561L155.1371 49.75477L155.1371 49.75477L156.3545 45.4799L156.3545 45.4799L157.572 41.4737L157.572 41.4737L158.7895 37.77622L158.7895 37.77622L160.0069 34.42438L160.0069 34.42438L161.2244 31.45169L161.2244 31.45169L162.4418 28.88785L162.4418 28.88785L163.6593 26.75846L163.6593 26.75846L164.8767 25.08482L164.8767 25.08482L166.0942 23.88364L166.0942 23.88364L167.3116 23.16692L167.3116 23.16692L168.5291 22.94182L168.5291 22.94182L169.7466 23.21059L169.7466 23.21059L170.964 23.97056L170.964 23.97056L172.1815 25.21412L172.1815 25.21412L173.3989 26.92884L173.3989 26.92884L174.6164 29.0976L174.6164 29.0976L175.8338 31.69873L175.8338 31.69873L177.0513 34.70624L177.0513 34.70624L178.2687 38.09007L178.2687 38.09007L179.4862 41.81642L179.4862 41.81642L180.7036 45.84805L180.7036 45.84805L181.9211 50.14469L181.9211 50.14469L183.1385 54.66339L183.1385 54.66339L184.356 59.35902L184.356 59.35902L185.5735 64.18465L185.5735 64.18465L186.7909 69.09207" stroke="#1F77B4" stroke-width="1.5" stroke-linecap="square" stroke-linejoin="round" fill="none" />
		</g>
    <path id=""  transform="matrix(1 0 0 -1 0 144)"  d="M27 18L27 126.72" stroke="#000000" stroke-width="0.8" stroke-linecap="square" stroke-linejoin="miter" fill="none" />
    <path id=""  transform="matrix(1 0 0 -1 0 144)"  d="M194.4 18L194.4 126.72" stroke="#000000" stroke-width="0.8" stroke-linecap="square" stroke-linejoin="miter" fill="none" />
    <path id=""  transform="matrix(1 0 0 -1 0 144)"  d="M27 18L194.4 18" stroke="#000000" stroke-width="0.8" stroke-linecap="square" stroke-linejoin="miter" fill="none" />
    <path id=""  transform="matrix(1 0 0 -1 0 144)"  d="M27 126.72L194.4 126.72" stroke="#000000" stroke-width="0.8" stroke-linecap="square" stroke-linejoin="miter" fill="none" />
	</g>
</g>
</svg>