<?xml version="1.0" standalone="no"?>
<!DOCTYPE svg PUBLIC "-//W3C//DTD SVG 1.0//EN" "http://www.w3.org/TR/2001/REC-SVG-20010904/DTD/svg10.dtd">
<svg xmlns="http://www.w3.org/2000/svg" xmlns:xlink="http://www.w3.org/1999/xlink" id="body_1" width="800" height="224">

<defs>
    <clipPath  id="1">

    <path id=""  clip-rule="evenodd" transform="matrix(1 0 0 1 0 0)"  d="M0 168L0 0L0 0L600 0L600 0L600 168L600 168L0 168z" />    </clipPath>
</defs>

<g transform="matrix(1.3333 0 0 1.3333 0 0)">
	<g clip-path="url(#1)" >
    <path id=""  transform="matrix(1 0 0 -1 0 168)"  d="M300 12.48L300 41.281L300 41.281L588 41.281L588 41.281L588 127.68L588 127.68L300 127.68L300 127.68L300 156.48L300 156.48L12 156.48L12 156.48L12 12.48z" stroke="#AAC7F2" stroke-width="0.03" stroke-linejoin="miter" fill="#AAC7F2" fill-rule="nonzero" />
    <path id=""  transform="matrix(1 0 0 -1 0 168)"  d="M300 12.48L300 41.281L300 41.281L588 41.281L588 41.281L588 127.68L588 127.68L300 127.68L300 127.68L300 156.48L300 156.48L12 156.48L12 156.48L12 12.48z" stroke="#869DBF" stroke-width="0.5" stroke-linecap="square" stroke-linejoin="miter" fill="none" />
    <path id=""  transform="matrix(1 0 0 -1 0 168)"  d="M119.168 84.465L155.816 84.465" stroke="#4B6791" stroke-width="0.5" stroke-linejoin="miter" fill="none" />
    <path id=""  transform="matrix(1 0 0 -1 0 168)"  d="M154.707 87.621L154.883 87.262L154.883 87.262L155.27 86.398L155.27 86.398L155.473 85.883L155.473 85.883L155.652 85.359L155.652 85.359L155.773 84.871L155.773 84.871L155.816 84.465L155.816 84.465L155.773 84.094L155.773 84.094L155.652 83.613L155.652 83.613L155.473 83.07L155.473 83.07L155.27 82.52L155.27 82.52L154.883 81.578L154.883 81.578L154.707 81.18L154.707 81.18L166.707 84.461z" stroke="#4B6791" stroke-width="0.03" stroke-linejoin="miter" fill="#4B6791" fill-rule="nonzero" />
    <path id=""  transform="matrix(1 0 0 -1 0 168)"  d="M167.898 84.461L204.547 84.461" stroke="#4B6791" stroke-width="0.5" stroke-linejoin="miter" fill="none" />
    <path id=""  transform="matrix(1 0 0 -1 0 168)"  d="M203.438 87.617L203.613 87.258L203.613 87.258L204 86.395L204 86.395L204.203 85.879L204.203 85.879L204.383 85.355L204.383 85.355L204.504 84.867L204.504 84.867L204.547 84.457L204.547 84.457L204.504 84.09L204.504 84.09L204.379 83.609L204.379 83.609L204.203 83.066L204.203 83.066L204 82.516L204 82.516L203.613 81.574L203.613 81.574L203.438 81.176L203.438 81.176L215.438 84.457z" stroke="#4B6791" stroke-width="0.03" stroke-linejoin="miter" fill="#4B6791" fill-rule="nonzero" />
    <path id=""  transform="matrix(1 0 0 -1 0 168)"  d="M216.629 84.457L220.965 84.453L220.965 84.453L226.414 84.453L226.414 84.453L231.918 84.449L231.918 84.449L237.473 84.449L237.473 84.449L243.129 84.445L243.129 84.445L248.938 84.445L248.938 84.445L253.277 84.441" stroke="#4B6791" stroke-width="0.5" stroke-linejoin="miter" fill="none" />
    <path id=""  transform="matrix(1 0 0 -1 0 168)"  d="M252.168 87.602L252.344 87.242L252.344 87.242L252.73 86.379L252.73 86.379L252.934 85.863L252.934 85.863L253.109 85.34L253.109 85.34L253.234 84.852L253.234 84.852L253.277 84.441L253.277 84.441L253.234 84.07L253.234 84.07L253.109 83.594L253.109 83.594L252.934 83.051L252.934 83.051L252.73 82.5L252.73 82.5L252.344 81.559L252.344 81.559L252.168 81.16L252.168 81.16L264.168 84.441z" stroke="#4B6791" stroke-width="0.03" stroke-linejoin="miter" fill="#4B6791" fill-rule="nonzero" />
    <path id=""  transform="matrix(1 0 0 -1 0 168)"  d="M265.355 84.437L267.363 84.437L267.363 84.437L274.059 84.441L274.059 84.441L281.098 84.449L281.098 84.449L288.477 84.461L288.477 84.461L294.125 84.473L294.125 84.473L300 84.48L300 84.48L302.008 84.484" stroke="#4B6791" stroke-width="0.5" stroke-linejoin="miter" fill="none" />
    <path id=""  transform="matrix(1 0 0 -1 0 168)"  d="M300.898 87.641L301.074 87.281L301.074 87.281L301.461 86.418L301.461 86.418L301.664 85.902L301.664 85.902L301.84 85.379L301.84 85.379L301.965 84.891L301.965 84.891L302.008 84.48L302.008 84.48L301.965 84.109L301.965 84.109L301.84 83.629L301.84 83.629L301.664 83.09L301.664 83.09L301.457 82.539L301.457 82.539L301.074 81.598L301.074 81.598L300.898 81.199L300.898 81.199L312.898 84.48z" stroke="#4B6791" stroke-width="0.03" stroke-linejoin="miter" fill="#4B6791" fill-rule="nonzero" />
    <path id=""  transform="matrix(1 0 0 -1 0 168)"  d="M314.086 84.477L315.508 84.477L315.508 84.477L320.762 84.473L320.762 84.473L325.977 84.469L325.977 84.469L331.227 84.465L331.227 84.465L336.488 84.461L336.488 84.461L341.746 84.457L341.746 84.457L350.734 84.457" stroke="#4B6791" stroke-width="0.5" stroke-linejoin="miter" fill="none" />
    <path id=""  transform="matrix(1 0 0 -1 0 168)"  d="M349.629 87.613L349.805 87.254L349.805 87.254L350.188 86.391L350.188 86.391L350.395 85.875L350.395 85.875L350.57 85.352L350.57 85.352L350.695 84.867L350.695 84.867L350.734 84.457L350.734 84.457L350.695 84.086L350.695 84.086L350.57 83.605L350.57 83.605L350.395 83.062L350.395 83.062L350.188 82.512L350.188 82.512L349.805 81.57L349.805 81.57L349.629 81.172L349.629 81.172L361.629 84.457z" stroke="#4B6791" stroke-width="0.03" stroke-linejoin="miter" fill="#4B6791" fill-rule="nonzero" />
    <path id=""  transform="matrix(1 0 0 -1 0 168)"  d="M362.816 84.457L373.23 84.457L373.23 84.457L378.477 84.461L378.477 84.461L399.465 84.461" stroke="#4B6791" stroke-width="0.5" stroke-linejoin="miter" fill="none" />
    <path id=""  transform="matrix(1 0 0 -1 0 168)"  d="M398.359 87.617L398.535 87.258L398.535 87.258L398.918 86.398L398.918 86.398L399.125 85.879L399.125 85.879L399.301 85.355L399.301 85.355L399.422 84.871L399.422 84.871L399.465 84.461L399.465 84.461L399.422 84.09L399.422 84.09L399.301 83.609L399.301 83.609L399.125 83.07L399.125 83.07L398.918 82.52L398.918 82.52L398.535 81.578L398.535 81.578L398.359 81.176L398.359 81.176L410.359 84.461z" stroke="#4B6791" stroke-width="0.03" stroke-linejoin="miter" fill="#4B6791" fill-rule="nonzero" />
    <path id=""  transform="matrix(1 0 0 -1 0 168)"  d="M411.547 84.461L422.461 84.461" stroke="#4B6791" stroke-width="0.5" stroke-linejoin="miter" fill="none" />
    <path id=""  transform="matrix(1 0 0 -1 0 168)"  d="M422.129 85.398L422.184 85.293L422.184 85.293L422.297 85.035L422.297 85.035L422.359 84.883L422.359 84.883L422.41 84.727L422.41 84.727L422.449 84.582L422.449 84.582L422.461 84.461L422.461 84.461L422.449 84.348L422.449 84.348L422.41 84.207L422.41 84.207L422.359 84.047L422.359 84.047L422.297 83.883L422.297 83.883L422.184 83.602L422.184 83.602L422.129 83.48L422.129 83.48L425.703 84.461z" stroke="#4B6791" stroke-width="0.03" stroke-linejoin="miter" fill="#4B6791" fill-rule="nonzero" />
    <path id=""  transform="matrix(1 0 0 -1 0 168)"  d="M101.367 84.5L138.016 84.5" stroke="#4B6791" stroke-width="0.5" stroke-linejoin="miter" fill="none" />
    <path id=""  transform="matrix(1 0 0 -1 0 168)"  d="M136.906 87.656L137.086 87.297L137.086 87.297L137.469 86.434L137.469 86.434L137.672 85.918L137.672 85.918L137.852 85.395L137.852 85.395L137.973 84.91L137.973 84.91L138.016 84.5L138.016 84.5L137.973 84.129L137.973 84.129L137.852 83.648L137.852 83.648L137.672 83.105L137.672 83.105L137.469 82.555L137.469 82.555L137.082 81.613L137.082 81.613L136.906 81.215L136.906 81.215L148.906 84.5z" stroke="#4B6791" stroke-width="0.03" stroke-linejoin="miter" fill="#4B6791" fill-rule="nonzero" />
    <path id=""  transform="matrix(1 0 0 -1 0 168)"  d="M150.098 84.5L155.059 84.496L155.059 84.496L186.746 84.496" stroke="#4B6791" stroke-width="0.5" stroke-linejoin="miter" fill="none" />
    <path id=""  transform="matrix(1 0 0 -1 0 168)"  d="M185.637 87.652L185.813 87.293L185.813 87.293L186.199 86.434L186.199 86.434L186.402 85.914L186.402 85.914L186.582 85.391L186.582 85.391L186.703 84.906L186.703 84.906L186.746 84.496L186.746 84.496L186.703 84.125L186.703 84.125L186.582 83.645L186.582 83.645L186.402 83.105L186.402 83.105L186.199 82.555L186.199 82.555L185.813 81.613L185.813 81.613L185.637 81.211L185.637 81.211L197.637 84.496z" stroke="#4B6791" stroke-width="0.03" stroke-linejoin="miter" fill="#4B6791" fill-rule="nonzero" />
    <path id=""  transform="matrix(1 0 0 -1 0 168)"  d="M198.828 84.492L213.77 84.492L213.77 84.492L218.59 84.488L218.59 84.488L228.309 84.488L228.309 84.488L233.234 84.492L233.234 84.492L235.477 84.492" stroke="#4B6791" stroke-width="0.5" stroke-linejoin="miter" fill="none" />
    <path id=""  transform="matrix(1 0 0 -1 0 168)"  d="M234.367 87.648L234.543 87.289L234.543 87.289L234.93 86.426L234.93 86.426L235.133 85.91L235.133 85.91L235.309 85.387L235.309 85.387L235.434 84.902L235.434 84.902L235.477 84.492L235.477 84.492L235.434 84.121L235.434 84.121L235.309 83.641L235.309 83.641L235.133 83.098L235.133 83.098L234.93 82.547L234.93 82.547L234.543 81.605L234.543 81.605L234.367 81.207L234.367 81.207L246.367 84.492z" stroke="#4B6791" stroke-width="0.03" stroke-linejoin="miter" fill="#4B6791" fill-rule="nonzero" />
    <path id=""  transform="matrix(1 0 0 -1 0 168)"  d="M247.555 84.492L248.453 84.492L248.453 84.492L253.727 84.488L253.727 84.488L259.18 84.488L259.18 84.488L264.813 84.484L264.813 84.484L270.629 84.48L270.629 84.48L276.398 84.473L276.398 84.473L282.441 84.469L282.441 84.469L284.207 84.469" stroke="#4B6791" stroke-width="0.5" stroke-linejoin="miter" fill="none" />
    <path id=""  transform="matrix(1 0 0 -1 0 168)"  d="M283.098 87.625L283.273 87.266L283.273 87.266L283.66 86.406L283.66 86.406L283.863 85.887L283.863 85.887L284.039 85.363L284.039 85.363L284.164 84.879L284.164 84.879L284.207 84.469L284.207 84.469L284.164 84.098L284.164 84.098L284.039 83.617L284.039 83.617L283.863 83.078L283.863 83.078L283.656 82.527L283.656 82.527L283.273 81.586L283.273 81.586L283.098 81.184L283.098 81.184L295.098 84.461z" stroke="#4B6791" stroke-width="0.03" stroke-linejoin="miter" fill="#4B6791" fill-rule="nonzero" />
    <path id=""  transform="matrix(1 0 0 -1 0 168)"  d="M296.285 84.465L300.379 84.473L300.379 84.473L308.895 84.488L308.895 84.488L317.684 84.496L317.684 84.496L332.934 84.496" stroke="#4B6791" stroke-width="0.5" stroke-linejoin="miter" fill="none" />
    <path id=""  transform="matrix(1 0 0 -1 0 168)"  d="M331.828 87.656L332.004 87.297L332.004 87.297L332.391 86.434L332.391 86.434L332.594 85.914L332.594 85.914L332.77 85.391L332.77 85.391L332.895 84.906L332.895 84.906L332.934 84.496L332.934 84.496L332.895 84.125L332.895 84.125L332.77 83.645L332.77 83.645L332.594 83.105L332.594 83.105L332.387 82.555L332.387 82.555L332.004 81.613L332.004 81.613L331.828 81.211L331.828 81.211L343.828 84.492z" stroke="#4B6791" stroke-width="0.03" stroke-linejoin="miter" fill="#4B6791" fill-rule="nonzero" />
    <path id=""  transform="matrix(1 0 0 -1 0 168)"  d="M345.016 84.492L349.488 84.488L349.488 84.488L355.762 84.484L355.762 84.484L368.316 84.477L368.316 84.477L374.594 84.477L374.594 84.477L380.871 84.48L380.871 84.48L381.664 84.48" stroke="#4B6791" stroke-width="0.5" stroke-linejoin="miter" fill="none" />
    <path id=""  transform="matrix(1 0 0 -1 0 168)"  d="M380.559 87.637L380.734 87.277L380.734 87.277L381.117 86.414L381.117 86.414L381.324 85.898L381.324 85.898L381.5 85.375L381.5 85.375L381.625 84.887L381.625 84.887L381.664 84.48L381.664 84.48L381.625 84.109L381.625 84.109L381.5 83.629L381.5 83.629L381.324 83.086L381.324 83.086L381.117 82.535L381.117 82.535L380.734 81.594L380.734 81.594L380.559 81.195L380.559 81.195L392.559 84.48z" stroke="#4B6791" stroke-width="0.03" stroke-linejoin="miter" fill="#4B6791" fill-rule="nonzero" />
    <path id=""  transform="matrix(1 0 0 -1 0 168)"  d="M393.746 84.48L430.395 84.48" stroke="#4B6791" stroke-width="0.5" stroke-linejoin="miter" fill="none" />
    <path id=""  transform="matrix(1 0 0 -1 0 168)"  d="M429.289 87.637L429.465 87.277L429.465 87.277L429.848 86.418L429.848 86.418L430.055 85.898L430.055 85.898L430.23 85.375L430.23 85.375L430.352 84.891L430.352 84.891L430.395 84.48L430.395 84.48L430.352 84.109L430.352 84.109L430.23 83.629L430.23 83.629L430.055 83.09L430.055 83.09L429.848 82.539L429.848 82.539L429.465 81.598L429.465 81.598L429.289 81.195L429.289 81.195L441.289 84.48z" stroke="#4B6791" stroke-width="0.03" stroke-linejoin="miter" fill="#4B6791" fill-rule="nonzero" />
    <path id=""  transform="matrix(1 0 0 -1 0 168)"  d="M442.477 84.48L479.125 84.48" stroke="#4B6791" stroke-width="0.5" stroke-linejoin="miter" fill="none" />
    <path id=""  transform="matrix(1 0 0 -1 0 168)"  d="M478.02 87.637L478.195 87.277L478.195 87.277L478.578 86.418L478.578 86.418L478.781 85.898L478.781 85.898L478.961 85.375L478.961 85.375L479.082 84.891L479.082 84.891L479.125 84.48L479.125 84.48L479.082 84.109L479.082 84.109L478.961 83.629L478.961 83.629L478.781 83.09L478.781 83.09L478.578 82.539L478.578 82.539L478.195 81.598L478.195 81.598L478.02 81.195L478.02 81.195L490.02 84.48z" stroke="#4B6791" stroke-width="0.03" stroke-linejoin="miter" fill="#4B6791" fill-rule="nonzero" />
    <path id=""  transform="matrix(1 0 0 -1 0 168)"  d="M491.207 84.48L527.855 84.48" stroke="#4B6791" stroke-width="0.5" stroke-linejoin="miter" fill="none" />
    <path id=""  transform="matrix(1 0 0 -1 0 168)"  d="M526.746 87.637L526.922 87.277L526.922 87.277L527.309 86.418L527.309 86.418L527.512 85.898L527.512 85.898L527.691 85.375L527.691 85.375L527.813 84.891L527.813 84.891L527.855 84.48L527.855 84.48L527.813 84.109L527.813 84.109L527.691 83.629L527.691 83.629L527.512 83.09L527.512 83.09L527.309 82.539L527.309 82.539L526.922 81.598L526.922 81.598L526.746 81.195L526.746 81.195L538.746 84.48z" stroke="#4B6791" stroke-width="0.03" stroke-linejoin="miter" fill="#4B6791" fill-rule="nonzero" />
    <path id=""  transform="matrix(1 0 0 -1 0 168)"  d="M539.938 84.48L568.668 84.48" stroke="#4B6791" stroke-width="0.5" stroke-linejoin="miter" fill="none" />
    <path id=""  transform="matrix(1 0 0 -1 0 168)"  d="M567.797 86.957L567.938 86.676L567.938 86.676L568.238 86L568.238 86L568.398 85.594L568.398 85.594L568.535 85.184L568.535 85.184L568.633 84.801L568.633 84.801L568.668 84.48L568.668 84.48L568.633 84.187L568.633 84.187L568.535 83.812L568.535 83.812L568.398 83.391L568.398 83.391L568.238 82.957L568.238 82.957L567.938 82.219L567.938 82.219L567.797 81.906L567.797 81.906L577.207 84.48z" stroke="#4B6791" stroke-width="0.03" stroke-linejoin="miter" fill="#4B6791" fill-rule="nonzero" />
    <path id=""  transform="matrix(1 0 0 -1 0 168)"  d="M322.461 124.855L325.348 124.934L325.348 124.934L328.137 125.004L328.137 125.004L330.84 125.066L330.84 125.066L333.906 125.133L333.906 125.133L336.887 125.184L336.887 125.184L339.871 125.191L339.871 125.191L342.227 125.168L342.227 125.168L344.605 125.145L344.605 125.145L347.004 125.121L347.004 125.121L352.52 125.082L352.52 125.082L358.078 125.062L358.078 125.062L359.109 125.062" stroke="#4B6791" stroke-width="0.5" stroke-linejoin="miter" fill="none" />
    <path id=""  transform="matrix(1 0 0 -1 0 168)"  d="M358 128.223L358.176 127.863L358.176 127.863L358.559 127L358.559 127L358.766 126.484L358.766 126.484L358.941 125.961L358.941 125.961L359.066 125.477L359.066 125.477L359.109 125.066L359.109 125.066L359.066 124.695L359.066 124.695L358.941 124.215L358.941 124.215L358.766 123.672L358.766 123.672L358.563 123.121L358.563 123.121L358.176 122.18L358.176 122.18L358 121.781L358 121.781L370 125.07z" stroke="#4B6791" stroke-width="0.03" stroke-linejoin="miter" fill="#4B6791" fill-rule="nonzero" />
    <path id=""  transform="matrix(1 0 0 -1 0 168)"  d="M371.188 125.07L374.758 125.07L374.758 125.07L377.535 125.074L377.535 125.074L385.992 125.078L385.992 125.078L394.441 125.078L394.441 125.078L402.891 125.082L402.891 125.082L407.836 125.082" stroke="#4B6791" stroke-width="0.5" stroke-linejoin="miter" fill="none" />
    <path id=""  transform="matrix(1 0 0 -1 0 168)"  d="M406.73 128.238L406.906 127.879L406.906 127.879L407.289 127.02L407.289 127.02L407.496 126.5L407.496 126.5L407.672 125.977L407.672 125.977L407.797 125.492L407.797 125.492L407.836 125.082L407.836 125.082L407.797 124.711L407.797 124.711L407.672 124.23L407.672 124.23L407.496 123.691L407.496 123.691L407.289 123.141L407.289 123.141L406.906 122.199L406.906 122.199L406.73 121.797L406.73 121.797L418.73 125.082z" stroke="#4B6791" stroke-width="0.03" stroke-linejoin="miter" fill="#4B6791" fill-rule="nonzero" />
    <path id=""  transform="matrix(1 0 0 -1 0 168)"  d="M419.918 125.082L456.566 125.082" stroke="#4B6791" stroke-width="0.5" stroke-linejoin="miter" fill="none" />
    <path id=""  transform="matrix(1 0 0 -1 0 168)"  d="M455.461 128.238L455.637 127.879L455.637 127.879L456.02 127.02L456.02 127.02L456.227 126.5L456.227 126.5L456.402 125.977L456.402 125.977L456.523 125.492L456.523 125.492L456.566 125.082L456.566 125.082L456.523 124.711L456.523 124.711L456.402 124.23L456.402 124.23L456.227 123.691L456.227 123.691L456.02 123.141L456.02 123.141L455.637 122.199L455.637 122.199L455.461 121.797L455.461 121.797L467.461 125.082z" stroke="#4B6791" stroke-width="0.03" stroke-linejoin="miter" fill="#4B6791" fill-rule="nonzero" />
    <path id=""  transform="matrix(1 0 0 -1 0 168)"  d="M468.648 125.082L505.297 125.082" stroke="#4B6791" stroke-width="0.5" stroke-linejoin="miter" fill="none" />
    <path id=""  transform="matrix(1 0 0 -1 0 168)"  d="M504.191 128.238L504.367 127.879L504.367 127.879L504.75 127.02L504.75 127.02L504.957 126.5L504.957 126.5L505.133 125.977L505.133 125.977L505.254 125.492L505.254 125.492L505.297 125.082L505.297 125.082L505.254 124.711L505.254 124.711L505.133 124.23L505.133 124.23L504.957 123.691L504.957 123.691L504.75 123.141L504.75 123.141L504.367 122.199L504.367 122.199L504.191 121.797L504.191 121.797L516.191 125.082z" stroke="#4B6791" stroke-width="0.03" stroke-linejoin="miter" fill="#4B6791" fill-rule="nonzero" />
    <path id=""  transform="matrix(1 0 0 -1 0 168)"  d="M517.379 125.082L554.027 125.082" stroke="#4B6791" stroke-width="0.5" stroke-linejoin="miter" fill="none" />
    <path id=""  transform="matrix(1 0 0 -1 0 168)"  d="M552.918 128.238L553.094 127.879L553.094 127.879L553.48 127.02L553.48 127.02L553.684 126.5L553.684 126.5L553.863 125.977L553.863 125.977L553.984 125.492L553.984 125.492L554.027 125.082L554.027 125.082L553.984 124.711L553.984 124.711L553.863 124.23L553.863 124.23L553.684 123.691L553.684 123.691L553.48 123.141L553.48 123.141L553.094 122.199L553.094 122.199L552.918 121.797L552.918 121.797L564.918 125.082z" stroke="#4B6791" stroke-width="0.03" stroke-linejoin="miter" fill="#4B6791" fill-rule="nonzero" />
    <path id=""  transform="matrix(1 0 0 -1 0 168)"  d="M566.109 125.082L571.871 125.082" stroke="#4B6791" stroke-width="0.5" stroke-linejoin="miter" fill="none" />
    <path id=""  transform="matrix(1 0 0 -1 0 168)"  d="M571.695 125.578L571.723 125.523L571.723 125.523L571.785 125.387L571.785 125.387L571.816 125.305L571.816 125.305L571.844 125.223L571.844 125.223L571.863 125.145L571.863 125.145L571.871 125.082L571.871 125.082L571.863 125.023L571.863 125.023L571.844 124.949L571.844 124.949L571.816 124.863L571.816 124.863L571.785 124.777L571.785 124.777L571.723 124.629L571.723 124.629L571.695 124.566L571.695 124.566L573.582 125.082z" stroke="#4B6791" stroke-width="0.03" stroke-linejoin="miter" fill="#4B6791" fill-rule="nonzero" />
    <path id=""  transform="matrix(1 0 0 -1 0 168)"  d="M49.133 112.473L85.781 112.473" stroke="#4B6791" stroke-width="0.5" stroke-linejoin="miter" fill="none" />
    <path id=""  transform="matrix(1 0 0 -1 0 168)"  d="M84.672 115.629L84.852 115.27L84.852 115.27L85.234 114.41L85.234 114.41L85.438 113.891L85.438 113.891L85.617 113.367L85.617 113.367L85.738 112.883L85.738 112.883L85.781 112.473L85.781 112.473L85.738 112.102L85.738 112.102L85.617 111.621L85.617 111.621L85.438 111.082L85.438 111.082L85.234 110.531L85.234 110.531L84.852 109.59L84.852 109.59L84.676 109.187L84.676 109.187L96.676 112.473z" stroke="#4B6791" stroke-width="0.03" stroke-linejoin="miter" fill="#4B6791" fill-rule="nonzero" />
    <path id=""  transform="matrix(1 0 0 -1 0 168)"  d="M97.863 112.473L134.512 112.473" stroke="#4B6791" stroke-width="0.5" stroke-linejoin="miter" fill="none" />
    <path id=""  transform="matrix(1 0 0 -1 0 168)"  d="M133.406 115.629L133.582 115.27L133.582 115.27L133.965 114.41L133.965 114.41L134.168 113.891L134.168 113.891L134.348 113.367L134.348 113.367L134.469 112.883L134.469 112.883L134.512 112.473L134.512 112.473L134.469 112.102L134.469 112.102L134.348 111.621L134.348 111.621L134.168 111.082L134.168 111.082L133.965 110.531L133.965 110.531L133.578 109.59L133.578 109.59L133.402 109.187L133.402 109.187L145.402 112.469z" stroke="#4B6791" stroke-width="0.03" stroke-linejoin="miter" fill="#4B6791" fill-rule="nonzero" />
    <path id=""  transform="matrix(1 0 0 -1 0 168)"  d="M146.594 112.469L147.309 112.469L147.309 112.469L152.453 112.465L152.453 112.465L167.898 112.453L167.898 112.453L173.047 112.441L173.047 112.441L178.199 112.422L178.199 112.422L183.242 112.395" stroke="#4B6791" stroke-width="0.5" stroke-linejoin="miter" fill="none" />
    <path id=""  transform="matrix(1 0 0 -1 0 168)"  d="M182.16 115.559L182.332 115.199L182.332 115.199L182.711 114.332L182.711 114.332L182.91 113.812L182.91 113.812L183.082 113.289L183.082 113.289L183.203 112.801L183.203 112.801L183.242 112.391L183.242 112.391L183.195 112.02L183.195 112.02L183.07 111.543L183.07 111.543L182.887 111.004L182.887 111.004L182.68 110.453L182.68 110.453L182.285 109.516L182.285 109.516L182.105 109.117L182.105 109.117L194.133 112.301z" stroke="#4B6791" stroke-width="0.03" stroke-linejoin="miter" fill="#4B6791" fill-rule="nonzero" />
    <path id=""  transform="matrix(1 0 0 -1 0 168)"  d="M195.32 112.289L198.84 112.246L198.84 112.246L204.008 112.18L204.008 112.18L209.18 112.102L209.18 112.102L218.211 111.875L218.211 111.875L222.762 111.699L222.762 111.699L227.34 111.48L227.34 111.48L231.941 111.215L231.941 111.215L231.949 111.215" stroke="#4B6791" stroke-width="0.5" stroke-linejoin="miter" fill="none" />
    <path id=""  transform="matrix(1 0 0 -1 0 168)"  d="M231.066 114.43L231.219 114.059L231.219 114.059L231.539 113.172L231.539 113.172L231.707 112.641L231.707 112.641L231.848 112.105L231.848 112.105L231.938 111.613L231.938 111.613L231.949 111.199L231.949 111.199L231.879 110.832L231.879 110.832L231.723 110.363L231.723 110.363L231.508 109.836L231.508 109.836L231.266 109.301L231.266 109.301L230.816 108.391L230.816 108.391L230.613 108.004L230.613 108.004L242.813 110.43z" stroke="#4B6791" stroke-width="0.03" stroke-linejoin="miter" fill="#4B6791" fill-rule="nonzero" />
    <path id=""  transform="matrix(1 0 0 -1 0 168)"  d="M244 110.332L245.887 110.176L245.887 110.176L253.117 109.445L253.117 109.445L260.695 108.504L260.695 108.504L268.613 107.344L268.613 107.344L276.879 105.969L276.879 105.969L280.305 105.418" stroke="#4B6791" stroke-width="0.5" stroke-linejoin="miter" fill="none" />
    <path id=""  transform="matrix(1 0 0 -1 0 168)"  d="M279.648 108.723L279.773 108.344L279.773 108.344L280.035 107.434L280.035 107.434L280.164 106.895L280.164 106.895L280.266 106.352L280.266 106.352L280.32 105.852L280.32 105.852L280.305 105.441L280.305 105.441L280.211 105.078L280.211 105.078L280.023 104.621L280.023 104.621L279.773 104.109L279.773 104.109L279.496 103.594L279.496 103.594L278.984 102.715L278.984 102.715L278.754 102.344L278.754 102.344L291.094 103.926z" stroke="#4B6791" stroke-width="0.03" stroke-linejoin="miter" fill="#4B6791" fill-rule="nonzero" />
    <path id=""  transform="matrix(1 0 0 -1 0 168)"  d="M292.273 103.801L297.918 103.203L297.918 103.203L305.805 102.539L305.805 102.539L313.949 102.02L313.949 102.02L322.188 101.641L322.188 101.641L328.836 101.449" stroke="#4B6791" stroke-width="0.5" stroke-linejoin="miter" fill="none" />
    <path id=""  transform="matrix(1 0 0 -1 0 168)"  d="M327.773 104.641L327.945 104.277L327.945 104.277L328.316 103.41L328.316 103.41L328.516 102.891L328.516 102.891L328.684 102.363L328.684 102.363L328.801 101.875L328.801 101.875L328.836 101.465L328.836 101.465L328.789 101.098L328.789 101.098L328.66 100.617L328.66 100.617L328.473 100.082L328.473 100.082L328.262 99.531L328.262 99.531L327.863 98.598L327.863 98.598L327.68 98.199L327.68 98.199L339.727 101.312z" stroke="#4B6791" stroke-width="0.03" stroke-linejoin="miter" fill="#4B6791" fill-rule="nonzero" />
    <path id=""  transform="matrix(1 0 0 -1 0 168)"  d="M340.914 101.309L347.387 101.297L347.387 101.297L355.844 101.285L355.844 101.285L364.301 101.277L364.301 101.277L377.566 101.277" stroke="#4B6791" stroke-width="0.5" stroke-linejoin="miter" fill="none" />
    <path id=""  transform="matrix(1 0 0 -1 0 168)"  d="M376.457 104.434L376.633 104.074L376.633 104.074L377.02 103.211L377.02 103.211L377.223 102.695L377.223 102.695L377.398 102.172L377.398 102.172L377.523 101.687L377.523 101.687L377.566 101.277L377.566 101.277L377.523 100.906L377.523 100.906L377.398 100.426L377.398 100.426L377.223 99.887L377.223 99.887L377.02 99.332L377.02 99.332L376.633 98.391L376.633 98.391L376.457 97.992L376.457 97.992L388.457 101.277z" stroke="#4B6791" stroke-width="0.03" stroke-linejoin="miter" fill="#4B6791" fill-rule="nonzero" />
    <path id=""  transform="matrix(1 0 0 -1 0 168)"  d="M389.645 101.277L426.293 101.277" stroke="#4B6791" stroke-width="0.5" stroke-linejoin="miter" fill="none" />
    <path id=""  transform="matrix(1 0 0 -1 0 168)"  d="M425.188 104.434L425.363 104.074L425.363 104.074L425.75 103.215L425.75 103.215L425.953 102.695L425.953 102.695L426.129 102.172L426.129 102.172L426.254 101.687L426.254 101.687L426.293 101.277L426.293 101.277L426.254 100.906L426.254 100.906L426.129 100.426L426.129 100.426L425.953 99.887L425.953 99.887L425.75 99.332L425.75 99.332L425.363 98.391L425.363 98.391L425.188 97.992L425.188 97.992L437.188 101.277z" stroke="#4B6791" stroke-width="0.03" stroke-linejoin="miter" fill="#4B6791" fill-rule="nonzero" />
    <path id=""  transform="matrix(1 0 0 -1 0 168)"  d="M438.375 101.277L475.023 101.277" stroke="#4B6791" stroke-width="0.5" stroke-linejoin="miter" fill="none" />
    <path id=""  transform="matrix(1 0 0 -1 0 168)"  d="M473.918 104.434L474.094 104.074L474.094 104.074L474.477 103.215L474.477 103.215L474.684 102.695L474.684 102.695L474.859 102.172L474.859 102.172L474.984 101.687L474.984 101.687L475.023 101.277L475.023 101.277L474.984 100.906L474.984 100.906L474.859 100.426L474.859 100.426L474.684 99.887L474.684 99.887L474.477 99.332L474.477 99.332L474.094 98.391L474.094 98.391L473.918 97.992L473.918 97.992L485.918 101.277z" stroke="#4B6791" stroke-width="0.03" stroke-linejoin="miter" fill="#4B6791" fill-rule="nonzero" />
    <path id=""  transform="matrix(1 0 0 -1 0 168)"  d="M487.105 101.277L523.754 101.277" stroke="#4B6791" stroke-width="0.5" stroke-linejoin="miter" fill="none" />
    <path id=""  transform="matrix(1 0 0 -1 0 168)"  d="M522.648 104.434L522.824 104.074L522.824 104.074L523.207 103.215L523.207 103.215L523.414 102.695L523.414 102.695L523.59 102.172L523.59 102.172L523.711 101.687L523.711 101.687L523.754 101.277L523.754 101.277L523.711 100.906L523.711 100.906L523.59 100.426L523.59 100.426L523.414 99.887L523.414 99.887L523.207 99.332L523.207 99.332L522.824 98.391L522.824 98.391L522.648 97.992L522.648 97.992L534.648 101.277z" stroke="#4B6791" stroke-width="0.03" stroke-linejoin="miter" fill="#4B6791" fill-rule="nonzero" />
    <path id=""  transform="matrix(1 0 0 -1 0 168)"  d="M535.836 101.277L559.531 101.277" stroke="#4B6791" stroke-width="0.5" stroke-linejoin="miter" fill="none" />
    <path id=""  transform="matrix(1 0 0 -1 0 168)"  d="M558.816 103.316L558.93 103.086L558.93 103.086L559.18 102.527L559.18 102.527L559.313 102.195L559.313 102.195L559.426 101.855L559.426 101.855L559.504 101.539L559.504 101.539L559.531 101.277L559.531 101.277L559.504 101.035L559.504 101.035L559.426 100.727L559.426 100.727L559.313 100.375L559.313 100.375L559.18 100.02L559.18 100.02L558.93 99.41L558.93 99.41L558.816 99.152L558.816 99.152L566.574 101.277z" stroke="#4B6791" stroke-width="0.03" stroke-linejoin="miter" fill="#4B6791" fill-rule="nonzero" />
    <path id=""  transform="matrix(1 0 0 -1 0 168)"  d="M49.25 56.445L85.898 56.445" stroke="#4B6791" stroke-width="0.5" stroke-linejoin="miter" fill="none" />
    <path id=""  transform="matrix(1 0 0 -1 0 168)"  d="M84.793 59.602L84.969 59.242L84.969 59.242L85.352 58.383L85.352 58.383L85.555 57.863L85.555 57.863L85.734 57.34L85.734 57.34L85.855 56.855L85.855 56.855L85.898 56.445L85.898 56.445L85.855 56.074L85.855 56.074L85.734 55.594L85.734 55.594L85.555 55.055L85.555 55.055L85.352 54.504L85.352 54.504L84.965 53.562L84.965 53.562L84.789 53.16L84.789 53.16L96.789 56.445z" stroke="#4B6791" stroke-width="0.03" stroke-linejoin="miter" fill="#4B6791" fill-rule="nonzero" />
    <path id=""  transform="matrix(1 0 0 -1 0 168)"  d="M97.98 56.445L125.68 56.445L125.68 56.445L131.395 56.441L131.395 56.441L134.629 56.445" stroke="#4B6791" stroke-width="0.5" stroke-linejoin="miter" fill="none" />
    <path id=""  transform="matrix(1 0 0 -1 0 168)"  d="M133.52 59.602L133.695 59.242L133.695 59.242L134.082 58.379L134.082 58.379L134.285 57.863L134.285 57.863L134.465 57.34L134.465 57.34L134.586 56.855L134.586 56.855L134.629 56.445L134.629 56.445L134.586 56.074L134.586 56.074L134.465 55.594L134.465 55.594L134.285 55.051L134.285 55.051L134.082 54.5L134.082 54.5L133.699 53.559L133.699 53.559L133.523 53.16L133.523 53.16L145.52 56.445z" stroke="#4B6791" stroke-width="0.03" stroke-linejoin="miter" fill="#4B6791" fill-rule="nonzero" />
    <path id=""  transform="matrix(1 0 0 -1 0 168)"  d="M146.711 56.449L148.547 56.449L148.547 56.449L154.266 56.453L154.266 56.453L171.422 56.477L171.422 56.477L177.141 56.488L177.141 56.488L182.863 56.512L182.863 56.512L183.359 56.516" stroke="#4B6791" stroke-width="0.5" stroke-linejoin="miter" fill="none" />
    <path id=""  transform="matrix(1 0 0 -1 0 168)"  d="M182.223 59.668L182.402 59.309L182.402 59.309L182.793 58.449L182.793 58.449L183.004 57.934L183.004 57.934L183.184 57.414L183.184 57.414L183.313 56.93L183.313 56.93L183.359 56.52L183.359 56.52L183.32 56.148L183.32 56.148L183.199 55.668L183.199 55.668L183.027 55.125L183.027 55.125L182.828 54.57L182.828 54.57L182.453 53.625L182.453 53.625L182.281 53.227L182.281 53.227L194.25 56.621z" stroke="#4B6791" stroke-width="0.03" stroke-linejoin="miter" fill="#4B6791" fill-rule="nonzero" />
    <path id=""  transform="matrix(1 0 0 -1 0 168)"  d="M195.438 56.641L200.09 56.711L200.09 56.711L205.852 56.82L205.852 56.82L211.621 56.953L211.621 56.953L217.402 57.109L217.402 57.109L223.188 57.285L223.188 57.285L230.289 57.586L230.289 57.586L232.07 57.699" stroke="#4B6791" stroke-width="0.5" stroke-linejoin="miter" fill="none" />
    <path id=""  transform="matrix(1 0 0 -1 0 168)"  d="M230.738 60.777L230.941 60.434L230.941 60.434L231.387 59.602L231.387 59.602L231.625 59.098L231.625 59.098L231.84 58.59L231.84 58.59L231.996 58.113L231.996 58.113L232.07 57.707L232.07 57.707L232.055 57.336L232.055 57.336L231.965 56.848L231.965 56.848L231.828 56.297L231.828 56.297L231.66 55.73L231.66 55.73L231.344 54.766L231.344 54.766L231.199 54.352L231.199 54.352L242.934 58.48z" stroke="#4B6791" stroke-width="0.03" stroke-linejoin="miter" fill="#4B6791" fill-rule="nonzero" />
    <path id=""  transform="matrix(1 0 0 -1 0 168)"  d="M244.117 58.578L244.793 58.637L244.793 58.637L252.195 59.383L252.195 59.383L259.906 60.301L259.906 60.301L268.137 61.426L268.137 61.426L276.879 62.75L276.879 62.75L280.449 63.324" stroke="#4B6791" stroke-width="0.5" stroke-linejoin="miter" fill="none" />
    <path id=""  transform="matrix(1 0 0 -1 0 168)"  d="M278.859 66.27L279.09 65.941L279.09 65.941L279.605 65.148L279.605 65.148L279.891 64.672L279.891 64.672L280.145 64.184L280.145 64.184L280.344 63.723L280.344 63.723L280.449 63.324L280.449 63.324L280.469 62.949L280.469 62.949L280.422 62.457L280.422 62.457L280.332 61.895L280.332 61.895L280.215 61.32L280.215 61.32L279.984 60.328L279.984 60.328L279.871 59.906L279.871 59.906L291.207 65.035z" stroke="#4B6791" stroke-width="0.03" stroke-linejoin="miter" fill="#4B6791" fill-rule="nonzero" />
    <path id=""  transform="matrix(1 0 0 -1 0 168)"  d="M292.383 65.211L293.066 65.316L293.066 65.316L300.344 66.129L300.344 66.129L307.969 66.715L307.969 66.715L315.938 67.07L315.938 67.07L324.094 67.285L324.094 67.285L328.945 67.379" stroke="#4B6791" stroke-width="0.5" stroke-linejoin="miter" fill="none" />
    <path id=""  transform="matrix(1 0 0 -1 0 168)"  d="M327.793 70.516L327.973 70.156L327.973 70.156L328.371 69.301L328.371 69.301L328.582 68.785L328.582 68.785L328.766 68.266L328.766 68.266L328.895 67.781L328.895 67.781L328.945 67.371L328.945 67.371L328.906 67L328.906 67L328.793 66.52L328.793 66.52L328.621 65.977L328.621 65.977L328.426 65.422L328.426 65.422L328.055 64.477L328.055 64.477L327.883 64.074L327.883 64.074L339.836 67.527z" stroke="#4B6791" stroke-width="0.03" stroke-linejoin="miter" fill="#4B6791" fill-rule="nonzero" />
    <path id=""  transform="matrix(1 0 0 -1 0 168)"  d="M341.023 67.539L348.668 67.57L348.668 67.57L365.113 67.578L365.113 67.578L377.672 67.578" stroke="#4B6791" stroke-width="0.5" stroke-linejoin="miter" fill="none" />
    <path id=""  transform="matrix(1 0 0 -1 0 168)"  d="M376.566 70.734L376.742 70.375L376.742 70.375L377.125 69.516L377.125 69.516L377.332 68.996L377.332 68.996L377.508 68.473L377.508 68.473L377.633 67.988L377.633 67.988L377.672 67.578L377.672 67.578L377.633 67.207L377.633 67.207L377.508 66.727L377.508 66.727L377.332 66.187L377.332 66.187L377.125 65.637L377.125 65.637L376.742 64.695L376.742 64.695L376.566 64.293L376.566 64.293L388.566 67.578z" stroke="#4B6791" stroke-width="0.03" stroke-linejoin="miter" fill="#4B6791" fill-rule="nonzero" />
    <path id=""  transform="matrix(1 0 0 -1 0 168)"  d="M389.754 67.578L426.402 67.578" stroke="#4B6791" stroke-width="0.5" stroke-linejoin="miter" fill="none" />
    <path id=""  transform="matrix(1 0 0 -1 0 168)"  d="M425.297 70.734L425.473 70.375L425.473 70.375L425.855 69.512L425.855 69.512L426.063 68.996L426.063 68.996L426.238 68.473L426.238 68.473L426.359 67.984L426.359 67.984L426.402 67.578L426.402 67.578L426.359 67.207L426.359 67.207L426.238 66.727L426.238 66.727L426.063 66.184L426.063 66.184L425.855 65.633L425.855 65.633L425.473 64.691L425.473 64.691L425.297 64.293L425.297 64.293L437.297 67.578z" stroke="#4B6791" stroke-width="0.03" stroke-linejoin="miter" fill="#4B6791" fill-rule="nonzero" />
    <path id=""  transform="matrix(1 0 0 -1 0 168)"  d="M438.484 67.578L475.133 67.578" stroke="#4B6791" stroke-width="0.5" stroke-linejoin="miter" fill="none" />
    <path id=""  transform="matrix(1 0 0 -1 0 168)"  d="M474.027 70.734L474.203 70.375L474.203 70.375L474.586 69.512L474.586 69.512L474.789 68.996L474.789 68.996L474.969 68.473L474.969 68.473L475.09 67.984L475.09 67.984L475.133 67.578L475.133 67.578L475.09 67.207L475.09 67.207L474.969 66.727L474.969 66.727L474.789 66.184L474.789 66.184L474.586 65.633L474.586 65.633L474.203 64.691L474.203 64.691L474.027 64.293L474.027 64.293L486.027 67.578z" stroke="#4B6791" stroke-width="0.03" stroke-linejoin="miter" fill="#4B6791" fill-rule="nonzero" />
    <path id=""  transform="matrix(1 0 0 -1 0 168)"  d="M487.215 67.578L521.586 67.578" stroke="#4B6791" stroke-width="0.5" stroke-linejoin="miter" fill="none" />
    <path id=""  transform="matrix(1 0 0 -1 0 168)"  d="M520.547 70.539L520.711 70.199L520.711 70.199L521.07 69.395L521.07 69.395L521.262 68.906L521.262 68.906L521.43 68.418L521.43 68.418L521.543 67.961L521.543 67.961L521.586 67.578L521.586 67.578L521.543 67.227L521.543 67.227L521.43 66.777L521.43 66.777L521.262 66.273L521.262 66.273L521.07 65.754L521.07 65.754L520.711 64.871L520.711 64.871L520.547 64.496L520.547 64.496L531.801 67.578z" stroke="#4B6791" stroke-width="0.03" stroke-linejoin="miter" fill="#4B6791" fill-rule="nonzero" />
    <path id=""  transform="matrix(1 0 0 -1 0 168)"  d="M316.172 41.57L321.715 41.812L321.715 41.812L324.961 41.727L324.961 41.727L327.703 41.66L327.703 41.66L330.051 41.609L330.051 41.609L337.27 41.469L337.27 41.469L341.762 41.414L341.762 41.414L345.418 41.418L345.418 41.418L347.277 41.422L347.277 41.422L352.813 41.422" stroke="#4B6791" stroke-width="0.5" stroke-linejoin="miter" fill="none" />
    <path id=""  transform="matrix(1 0 0 -1 0 168)"  d="M351.703 44.582L351.879 44.223L351.879 44.223L352.266 43.359L352.266 43.359L352.469 42.844L352.469 42.844L352.645 42.32L352.645 42.32L352.77 41.832L352.77 41.832L352.813 41.422L352.813 41.422L352.77 41.051L352.77 41.051L352.645 40.574L352.645 40.574L352.469 40.031L352.469 40.031L352.266 39.48L352.266 39.48L351.879 38.539L351.879 38.539L351.703 38.14101L351.703 38.14101L363.703 41.422z" stroke="#4B6791" stroke-width="0.03" stroke-linejoin="miter" fill="#4B6791" fill-rule="nonzero" />
    <path id=""  transform="matrix(1 0 0 -1 0 168)"  d="M364.895 41.422L369.465 41.422L369.465 41.422L371.293 41.418L371.293 41.418L371.887 41.418L371.887 41.418L380.285 41.414L380.285 41.414L401.543 41.414" stroke="#4B6791" stroke-width="0.5" stroke-linejoin="miter" fill="none" />
    <path id=""  transform="matrix(1 0 0 -1 0 168)"  d="M400.434 44.574L400.609 44.215L400.609 44.215L400.996 43.352L400.996 43.352L401.199 42.832L401.199 42.832L401.375 42.312L401.375 42.312L401.5 41.824L401.5 41.824L401.543 41.414L401.543 41.414L401.5 41.043L401.5 41.043L401.375 40.562L401.375 40.562L401.199 40.023L401.199 40.023L400.996 39.47301L400.996 39.47301L400.609 38.53101L400.609 38.53101L400.434 38.129L400.434 38.129L412.434 41.414z" stroke="#4B6791" stroke-width="0.03" stroke-linejoin="miter" fill="#4B6791" fill-rule="nonzero" />
    <path id=""  transform="matrix(1 0 0 -1 0 168)"  d="M413.621 41.414L450.273 41.414" stroke="#4B6791" stroke-width="0.5" stroke-linejoin="miter" fill="none" />
    <path id=""  transform="matrix(1 0 0 -1 0 168)"  d="M449.164 44.574L449.34 44.215L449.34 44.215L449.727 43.352L449.727 43.352L449.93 42.832L449.93 42.832L450.105 42.312L450.105 42.312L450.23 41.824L450.23 41.824L450.273 41.414L450.273 41.414L450.23 41.043L450.23 41.043L450.105 40.562L450.105 40.562L449.93 40.023L449.93 40.023L449.727 39.47301L449.727 39.47301L449.34 38.53101L449.34 38.53101L449.164 38.129L449.164 38.129L461.164 41.414z" stroke="#4B6791" stroke-width="0.03" stroke-linejoin="miter" fill="#4B6791" fill-rule="nonzero" />
    <path id=""  transform="matrix(1 0 0 -1 0 168)"  d="M462.352 41.414L499 41.414" stroke="#4B6791" stroke-width="0.5" stroke-linejoin="miter" fill="none" />
    <path id=""  transform="matrix(1 0 0 -1 0 168)"  d="M497.895 44.574L498.07 44.215L498.07 44.215L498.453 43.352L498.453 43.352L498.66 42.832L498.66 42.832L498.836 42.312L498.836 42.312L498.961 41.824L498.961 41.824L499 41.414L499 41.414L498.961 41.043L498.961 41.043L498.836 40.562L498.836 40.562L498.66 40.023L498.66 40.023L498.453 39.47301L498.453 39.47301L498.07 38.53101L498.07 38.53101L497.895 38.129L497.895 38.129L509.895 41.414z" stroke="#4B6791" stroke-width="0.03" stroke-linejoin="miter" fill="#4B6791" fill-rule="nonzero" />
    <path id=""  transform="matrix(1 0 0 -1 0 168)"  d="M511.082 41.414L547.73 41.414" stroke="#4B6791" stroke-width="0.5" stroke-linejoin="miter" fill="none" />
    <path id=""  transform="matrix(1 0 0 -1 0 168)"  d="M546.625 44.574L546.801 44.215L546.801 44.215L547.184 43.352L547.184 43.352L547.391 42.832L547.391 42.832L547.566 42.312L547.566 42.312L547.688 41.824L547.688 41.824L547.73 41.414L547.73 41.414L547.688 41.043L547.688 41.043L547.566 40.562L547.566 40.562L547.391 40.023L547.391 40.023L547.184 39.47301L547.184 39.47301L546.801 38.53101L546.801 38.53101L546.625 38.129L546.625 38.129L558.625 41.414z" stroke="#4B6791" stroke-width="0.03" stroke-linejoin="miter" fill="#4B6791" fill-rule="nonzero" />
    <path id=""  transform="matrix(1 0 0 -1 0 168)"  d="M19.754 69.109L56.402 69.109" stroke="#4B6791" stroke-width="0.5" stroke-linejoin="miter" fill="none" />
    <path id=""  transform="matrix(1 0 0 -1 0 168)"  d="M55.297 72.27L55.473 71.91L55.473 71.91L55.855 71.047L55.855 71.047L56.063 70.527L56.063 70.527L56.238 70.008L56.238 70.008L56.359 69.52L56.359 69.52L56.402 69.109L56.402 69.109L56.359 68.738L56.359 68.738L56.238 68.258L56.238 68.258L56.063 67.719L56.063 67.719L55.855 67.168L55.855 67.168L55.473 66.227L55.473 66.227L55.297 65.824L55.297 65.824L67.297 69.109z" stroke="#4B6791" stroke-width="0.03" stroke-linejoin="miter" fill="#4B6791" fill-rule="nonzero" />
    <path id=""  transform="matrix(1 0 0 -1 0 168)"  d="M68.484 69.109L80.355 69.109L80.355 69.109L86.859 69.113L86.859 69.113L105.133 69.113" stroke="#4B6791" stroke-width="0.5" stroke-linejoin="miter" fill="none" />
    <path id=""  transform="matrix(1 0 0 -1 0 168)"  d="M104.023 72.27L104.199 71.91L104.199 71.91L104.586 71.051L104.586 71.051L104.789 70.531L104.789 70.531L104.969 70.008L104.969 70.008L105.09 69.523L105.09 69.523L105.133 69.113L105.133 69.113L105.09 68.742L105.09 68.742L104.969 68.262L104.969 68.262L104.789 67.723L104.789 67.723L104.586 67.172L104.586 67.172L104.203 66.23L104.203 66.23L104.027 65.828L104.027 65.828L116.023 69.113z" stroke="#4B6791" stroke-width="0.03" stroke-linejoin="miter" fill="#4B6791" fill-rule="nonzero" />
    <path id=""  transform="matrix(1 0 0 -1 0 168)"  d="M117.215 69.113L119.391 69.117L119.391 69.117L132.402 69.117L132.402 69.117L138.91 69.121L138.91 69.121L153.863 69.121" stroke="#4B6791" stroke-width="0.5" stroke-linejoin="miter" fill="none" />
    <path id=""  transform="matrix(1 0 0 -1 0 168)"  d="M152.754 72.281L152.93 71.922L152.93 71.922L153.316 71.059L153.316 71.059L153.52 70.543L153.52 70.543L153.695 70.02L153.695 70.02L153.82 69.531L153.82 69.531L153.863 69.121L153.863 69.121L153.82 68.75L153.82 68.75L153.699 68.273L153.699 68.273L153.52 67.73L153.52 67.73L153.316 67.18L153.316 67.18L152.934 66.238L152.934 66.238L152.758 65.84L152.758 65.84L164.754 69.129z" stroke="#4B6791" stroke-width="0.03" stroke-linejoin="miter" fill="#4B6791" fill-rule="nonzero" />
    <path id=""  transform="matrix(1 0 0 -1 0 168)"  d="M165.945 69.129L171.445 69.133L171.445 69.133L177.957 69.145L177.957 69.145L184.473 69.156L184.473 69.156L190.996 69.18L190.996 69.18L197.535 69.215L197.535 69.215L202.594 69.254" stroke="#4B6791" stroke-width="0.5" stroke-linejoin="miter" fill="none" />
    <path id=""  transform="matrix(1 0 0 -1 0 168)"  d="M201.449 72.406L201.629 72.047L201.629 72.047L202.023 71.191L202.023 71.191L202.234 70.676L202.234 70.676L202.418 70.152L202.418 70.152L202.547 69.668L202.547 69.668L202.594 69.258L202.594 69.258L202.555 68.887L202.555 68.887L202.438 68.406L202.438 68.406L202.266 67.863L202.266 67.863L202.066 67.312L202.066 67.312L201.691 66.367L201.691 66.367L201.52 65.965L201.52 65.965L213.484 69.375z" stroke="#4B6791" stroke-width="0.03" stroke-linejoin="miter" fill="#4B6791" fill-rule="nonzero" />
    <path id=""  transform="matrix(1 0 0 -1 0 168)"  d="M214.672 69.395L217.254 69.43L217.254 69.43L223.914 69.574L223.914 69.574L230.641 69.766L230.641 69.766L237.426 70.008L237.426 70.008L245.539 70.383L245.539 70.383L251.293 70.734" stroke="#4B6791" stroke-width="0.5" stroke-linejoin="miter" fill="none" />
    <path id=""  transform="matrix(1 0 0 -1 0 168)"  d="M249.965 73.816L250.168 73.469L250.168 73.469L250.613 72.637L250.613 72.637L250.852 72.137L250.852 72.137L251.066 71.625L251.066 71.625L251.223 71.148L251.223 71.148L251.293 70.742L251.293 70.742L251.277 70.371L251.277 70.371L251.188 69.883L251.188 69.883L251.047 69.332L251.047 69.332L250.883 68.77L250.883 68.77L250.566 67.801L250.566 67.801L250.418 67.391L250.418 67.391L262.156 71.508z" stroke="#4B6791" stroke-width="0.03" stroke-linejoin="miter" fill="#4B6791" fill-rule="nonzero" />
    <path id=""  transform="matrix(1 0 0 -1 0 168)"  d="M263.344 71.598L267.445 71.941L267.445 71.941L272.102 72.359L272.102 72.359L280.203 73.043L280.203 73.043L288.859 73.637L288.859 73.637L290.109 73.711" stroke="#4B6791" stroke-width="0.5" stroke-linejoin="miter" fill="none" />
    <path id=""  transform="matrix(1 0 0 -1 0 168)"  d="M289.172 75.973L289.313 75.719L289.313 75.719L289.629 75.102L289.629 75.102L289.801 74.73L289.801 74.73L289.949 74.355L289.949 74.355L290.063 74.008L290.063 74.008L290.109 73.707L290.109 73.707L290.094 73.434L290.094 73.434L290.023 73.078L290.023 73.078L289.914 72.676L289.914 72.676L289.785 72.266L289.785 72.266L289.543 71.562L289.543 71.562L289.43 71.262L289.43 71.262L298.074 74.148z" stroke="#4B6791" stroke-width="0.03" stroke-linejoin="miter" fill="#4B6791" fill-rule="nonzero" />
    <path id=""  transform="matrix(1 0 0 -1 0 168)"  d="M23.516 39.883L60.164 39.883" stroke="#4B6791" stroke-width="0.5" stroke-linejoin="miter" fill="none" />
    <path id=""  transform="matrix(1 0 0 -1 0 168)"  d="M59.055 43.039L59.23 42.68L59.23 42.68L59.617 41.82L59.617 41.82L59.82 41.301L59.82 41.301L59.996 40.777L59.996 40.777L60.121 40.293L60.121 40.293L60.164 39.883L60.164 39.883L60.121 39.51199L60.121 39.51199L59.996 39.03101L59.996 39.03101L59.82 38.492L59.82 38.492L59.617 37.937L59.617 37.937L59.23 36.996L59.23 36.996L59.055 36.59801L59.055 36.59801L71.055 39.883z" stroke="#4B6791" stroke-width="0.03" stroke-linejoin="miter" fill="#4B6791" fill-rule="nonzero" />
    <path id=""  transform="matrix(1 0 0 -1 0 168)"  d="M72.242 39.883L95.102 39.883L95.102 39.883L100.734 39.879L100.734 39.879L108.895 39.879" stroke="#4B6791" stroke-width="0.5" stroke-linejoin="miter" fill="none" />
    <path id=""  transform="matrix(1 0 0 -1 0 168)"  d="M107.785 43.039L107.961 42.68L107.961 42.68L108.348 41.816L108.348 41.816L108.551 41.301L108.551 41.301L108.727 40.777L108.727 40.777L108.852 40.289L108.852 40.289L108.895 39.879L108.895 39.879L108.852 39.508L108.852 39.508L108.727 39.02699L108.727 39.02699L108.551 38.48801L108.551 38.48801L108.348 37.937L108.348 37.937L107.961 36.996L107.961 36.996L107.785 36.59801L107.785 36.59801L119.785 39.879z" stroke="#4B6791" stroke-width="0.03" stroke-linejoin="miter" fill="#4B6791" fill-rule="nonzero" />
    <path id=""  transform="matrix(1 0 0 -1 0 168)"  d="M120.973 39.879L155.508 39.879L155.508 39.879L157.621 39.883" stroke="#4B6791" stroke-width="0.5" stroke-linejoin="miter" fill="none" />
    <path id=""  transform="matrix(1 0 0 -1 0 168)"  d="M156.512 43.039L156.688 42.68L156.688 42.68L157.074 41.816L157.074 41.816L157.281 41.301L157.281 41.301L157.457 40.777L157.457 40.777L157.582 40.293L157.582 40.293L157.621 39.883L157.621 39.883L157.582 39.51199L157.582 39.51199L157.457 39.03101L157.457 39.03101L157.281 38.48801L157.281 38.48801L157.078 37.937L157.078 37.937L156.691 36.996L156.691 36.996L156.516 36.59801L156.516 36.59801L168.516 39.89101z" stroke="#4B6791" stroke-width="0.03" stroke-linejoin="miter" fill="#4B6791" fill-rule="nonzero" />
    <path id=""  transform="matrix(1 0 0 -1 0 168)"  d="M169.703 39.89101L174.848 39.89799L174.848 39.89799L181.289 39.91L181.289 39.91L187.73 39.937L187.73 39.937L194.168 39.98L194.168 39.98L200.602 40.031L200.602 40.031L206.352 40.113" stroke="#4B6791" stroke-width="0.5" stroke-linejoin="miter" fill="none" />
    <path id=""  transform="matrix(1 0 0 -1 0 168)"  d="M205.168 43.258L205.355 42.902L205.355 42.902L205.758 42.047L205.758 42.047L205.977 41.535L205.977 41.535L206.164 41.016L206.164 41.016L206.301 40.535L206.301 40.535L206.352 40.125L206.352 40.125L206.316 39.754L206.316 39.754L206.207 39.27L206.207 39.27L206.043 38.72701L206.043 38.72701L205.852 38.172L205.852 38.172L205.488 37.21899L205.488 37.21899L205.32 36.81599L205.32 36.81599L217.242 40.383z" stroke="#4B6791" stroke-width="0.03" stroke-linejoin="miter" fill="#4B6791" fill-rule="nonzero" />
    <path id=""  transform="matrix(1 0 0 -1 0 168)"  d="M218.43 40.422L222.992 40.582L222.992 40.582L230.426 40.918L230.426 40.918L237.875 41.437L237.875 41.437L245.363 42.254L245.363 42.254L252.895 43.363L252.895 43.363L254.891 43.734" stroke="#4B6791" stroke-width="0.5" stroke-linejoin="miter" fill="none" />
    <path id=""  transform="matrix(1 0 0 -1 0 168)"  d="M253.152 46.621L253.398 46.309L253.398 46.309L253.949 45.543L253.949 45.543L254.254 45.078L254.254 45.078L254.535 44.602L254.535 44.602L254.754 44.152L254.754 44.152L254.879 43.758L254.879 43.758L254.914 43.387L254.914 43.387L254.895 42.891L254.895 42.891L254.828 42.328L254.828 42.328L254.742 41.746L254.742 41.746L254.559 40.746L254.559 40.746L254.469 40.316L254.469 40.316L265.543 45.984z" stroke="#4B6791" stroke-width="0.03" stroke-linejoin="miter" fill="#4B6791" fill-rule="nonzero" />
    <path id=""  transform="matrix(1 0 0 -1 0 168)"  d="M266.699 46.262L268.184 46.617L268.184 46.617L276.277 49.082L276.277 49.082L280.59 50.531L280.59 50.531L285.18 52.09L285.18 52.09L293.34 54.395L293.34 54.395L297.84 55.332L297.84 55.332L301.973 56.023" stroke="#4B6791" stroke-width="0.5" stroke-linejoin="miter" fill="none" />
    <path id=""  transform="matrix(1 0 0 -1 0 168)"  d="M300.504 58.977L300.719 58.641L300.719 58.641L301.203 57.832L301.203 57.832L301.469 57.34L301.469 57.34L301.703 56.84L301.703 56.84L301.883 56.371L301.883 56.371L301.973 55.973L301.973 55.973L301.977 55.598L301.977 55.598L301.91 55.105L301.91 55.105L301.797 54.551L301.797 54.551L301.66 53.977L301.66 53.977L301.387 52.996L301.387 52.996L301.262 52.578L301.262 52.578L312.789 57.254z" stroke="#4B6791" stroke-width="0.03" stroke-linejoin="miter" fill="#4B6791" fill-rule="nonzero" />
    <path id=""  transform="matrix(1 0 0 -1 0 168)"  d="M313.977 57.324L317.527 57.531L317.527 57.531L322.574 57.652L322.574 57.652L327.633 57.68L327.633 57.68L332.68 57.703L332.68 57.703L337.719 57.719L337.719 57.719L342.742 57.73L342.742 57.73L347.766 57.734L347.766 57.734L350.617 57.738" stroke="#4B6791" stroke-width="0.5" stroke-linejoin="miter" fill="none" />
    <path id=""  transform="matrix(1 0 0 -1 0 168)"  d="M349.508 60.895L349.688 60.535L349.688 60.535L350.07 59.676L350.07 59.676L350.277 59.156L350.277 59.156L350.453 58.633L350.453 58.633L350.578 58.148L350.578 58.148L350.617 57.738L350.617 57.738L350.578 57.367L350.578 57.367L350.453 56.887L350.453 56.887L350.277 56.348L350.277 56.348L350.074 55.793L350.074 55.793L349.688 54.852L349.688 54.852L349.512 54.453L349.512 54.453L361.512 57.742z" stroke="#4B6791" stroke-width="0.03" stroke-linejoin="miter" fill="#4B6791" fill-rule="nonzero" />
    <path id=""  transform="matrix(1 0 0 -1 0 168)"  d="M362.699 57.742L399.348 57.742" stroke="#4B6791" stroke-width="0.5" stroke-linejoin="miter" fill="none" />
    <path id=""  transform="matrix(1 0 0 -1 0 168)"  d="M398.242 60.898L398.418 60.539L398.418 60.539L398.801 59.68L398.801 59.68L399.008 59.16L399.008 59.16L399.184 58.637L399.184 58.637L399.305 58.152L399.305 58.152L399.348 57.742L399.348 57.742L399.305 57.371L399.305 57.371L399.184 56.891L399.184 56.891L399.008 56.352L399.008 56.352L398.801 55.801L398.801 55.801L398.418 54.859L398.418 54.859L398.242 54.457L398.242 54.457L410.242 57.742z" stroke="#4B6791" stroke-width="0.03" stroke-linejoin="miter" fill="#4B6791" fill-rule="nonzero" />
    <path id=""  transform="matrix(1 0 0 -1 0 168)"  d="M411.43 57.742L446.684 57.742" stroke="#4B6791" stroke-width="0.5" stroke-linejoin="miter" fill="none" />
    <path id=""  transform="matrix(1 0 0 -1 0 168)"  d="M445.617 60.781L445.789 60.434L445.789 60.434L446.16 59.605L446.16 59.605L446.355 59.105L446.355 59.105L446.523 58.605L446.523 58.605L446.645 58.137L446.645 58.137L446.684 57.742L446.684 57.742L446.645 57.387L446.645 57.387L446.523 56.922L446.523 56.922L446.355 56.402L446.355 56.402L446.16 55.875L446.16 55.875L445.789 54.969L445.789 54.969L445.617 54.582L445.617 54.582L457.164 57.742z" stroke="#4B6791" stroke-width="0.03" stroke-linejoin="miter" fill="#4B6791" fill-rule="nonzero" />
    <path id=""  transform="matrix(1 0 0 -1 0 168)"  d="M12.172 83.723L35.301 83.723" stroke="#4B6791" stroke-width="0.5" stroke-linejoin="miter" fill="none" />
    <path id=""  transform="matrix(1 0 0 -1 0 168)"  d="M34.602 85.719L34.711 85.492L34.711 85.492L34.957 84.945L34.957 84.945L35.086 84.621L35.086 84.621L35.195 84.289L35.195 84.289L35.273 83.984L35.273 83.984L35.301 83.723L35.301 83.723L35.273 83.492L35.273 83.492L35.195 83.187L35.195 83.187L35.086 82.848L35.086 82.848L34.957 82.5L34.957 82.5L34.711 81.906L34.711 81.906L34.602 81.652L34.602 81.652L42.176 83.723z" stroke="#4B6791" stroke-width="0.03" stroke-linejoin="miter" fill="#4B6791" fill-rule="nonzero" />
    <path id=""  transform="matrix(1 0 0 -1 0 168)"  d="M14.105 136.32L50.754 136.32" stroke="#4B6791" stroke-width="0.5" stroke-linejoin="miter" fill="none" />
    <path id=""  transform="matrix(1 0 0 -1 0 168)"  d="M49.648 139.48L49.824 139.121L49.824 139.121L50.207 138.258L50.207 138.258L50.414 137.738L50.414 137.738L50.59 137.219L50.59 137.219L50.715 136.73L50.715 136.73L50.754 136.32L50.754 136.32L50.715 135.949L50.715 135.949L50.59 135.469L50.59 135.469L50.414 134.93L50.414 134.93L50.207 134.379L50.207 134.379L49.824 133.437L49.824 133.437L49.648 133.035L49.648 133.035L61.648 136.32z" stroke="#4B6791" stroke-width="0.03" stroke-linejoin="miter" fill="#4B6791" fill-rule="nonzero" />
    <path id=""  transform="matrix(1 0 0 -1 0 168)"  d="M62.836 136.32L99.484 136.32" stroke="#4B6791" stroke-width="0.5" stroke-linejoin="miter" fill="none" />
    <path id=""  transform="matrix(1 0 0 -1 0 168)"  d="M98.379 139.48L98.555 139.121L98.555 139.121L98.938 138.258L98.938 138.258L99.145 137.742L99.145 137.742L99.32 137.219L99.32 137.219L99.441 136.73L99.441 136.73L99.484 136.32L99.484 136.32L99.441 135.949L99.441 135.949L99.32 135.469L99.32 135.469L99.145 134.93L99.145 134.93L98.938 134.379L98.938 134.379L98.555 133.437L98.555 133.437L98.379 133.039L98.379 133.039L110.379 136.32z" stroke="#4B6791" stroke-width="0.03" stroke-linejoin="miter" fill="#4B6791" fill-rule="nonzero" />
    <path id=""  transform="matrix(1 0 0 -1 0 168)"  d="M111.566 136.32L111.961 136.32L111.961 136.32L120.598 136.324L120.598 136.324L148.215 136.324" stroke="#4B6791" stroke-width="0.5" stroke-linejoin="miter" fill="none" />
    <path id=""  transform="matrix(1 0 0 -1 0 168)"  d="M147.109 139.48L147.285 139.121L147.285 139.121L147.668 138.262L147.668 138.262L147.875 137.742L147.875 137.742L148.051 137.219L148.051 137.219L148.172 136.734L148.172 136.734L148.215 136.324L148.215 136.324L148.172 135.953L148.172 135.953L148.051 135.473L148.051 135.473L147.871 134.934L147.871 134.934L147.668 134.383L147.668 134.383L147.285 133.441L147.285 133.441L147.105 133.039L147.105 133.039L159.109 136.324z" stroke="#4B6791" stroke-width="0.03" stroke-linejoin="miter" fill="#4B6791" fill-rule="nonzero" />
    <path id=""  transform="matrix(1 0 0 -1 0 168)"  d="M160.297 136.324L163.781 136.32L163.781 136.32L168.391 136.32L168.391 136.32L172.996 136.316L172.996 136.316L177.598 136.309L177.598 136.309L182.203 136.301L182.203 136.301L186.805 136.289L186.805 136.289L191.402 136.27L191.402 136.27L195.996 136.246L195.996 136.246L196.945 136.238" stroke="#4B6791" stroke-width="0.5" stroke-linejoin="miter" fill="none" />
    <path id=""  transform="matrix(1 0 0 -1 0 168)"  d="M195.867 139.406L196.039 139.043L196.039 139.043L196.414 138.18L196.414 138.18L196.617 137.66L196.617 137.66L196.789 137.133L196.789 137.133L196.906 136.648L196.906 136.648L196.945 136.238L196.945 136.238L196.898 135.867L196.898 135.867L196.773 135.387L196.773 135.387L196.59 134.848L196.59 134.848L196.383 134.301L196.383 134.301L195.988 133.363L195.988 133.363L195.809 132.961L195.809 132.961L207.836 136.141z" stroke="#4B6791" stroke-width="0.03" stroke-linejoin="miter" fill="#4B6791" fill-rule="nonzero" />
    <path id=""  transform="matrix(1 0 0 -1 0 168)"  d="M209.023 136.125L209.746 136.113L209.746 136.113L214.316 136.035L214.316 136.035L218.875 135.941L218.875 135.941L223.453 135.809L223.453 135.809L228.012 135.633L228.012 135.633L232.543 135.41L232.543 135.41L237.051 135.137L237.051 135.137L245.617 134.355" stroke="#4B6791" stroke-width="0.5" stroke-linejoin="miter" fill="none" />
    <path id=""  transform="matrix(1 0 0 -1 0 168)"  d="M244.969 137.578L245.09 137.199L245.09 137.199L245.344 136.289L245.344 136.289L245.473 135.746L245.473 135.746L245.57 135.203L245.57 135.203L245.621 134.707L245.621 134.707L245.605 134.293L245.605 134.293L245.508 133.934L245.508 133.934L245.316 133.477L245.316 133.477L245.063 132.969L245.063 132.969L244.781 132.453L244.781 132.453L244.262 131.578L244.262 131.578L244.031 131.207L244.031 131.207L256.379 132.707z" stroke="#4B6791" stroke-width="0.03" stroke-linejoin="miter" fill="#4B6791" fill-rule="nonzero" />
    <path id=""  transform="matrix(1 0 0 -1 0 168)"  d="M257.543 132.453L263.66 131.102L263.66 131.102L268.105 129.781L268.105 129.781L272.57 128.234L272.57 128.234L278.926 125.727L278.926 125.727L285.949 122.668L285.949 122.668L292.055 120.359" stroke="#4B6791" stroke-width="0.5" stroke-linejoin="miter" fill="none" />
    <path id=""  transform="matrix(1 0 0 -1 0 168)"  d="M291.891 123.789L291.957 123.395L291.957 123.395L292.086 122.457L292.086 122.457L292.137 121.902L292.137 121.902L292.16 121.352L292.16 121.352L292.141 120.852L292.141 120.852L292.066 120.445L292.066 120.445L291.922 120.102L291.922 120.102L291.672 119.676L291.672 119.676L291.348 119.207L291.348 119.207L291 118.734L291 118.734L290.363 117.937L290.363 117.937L290.082 117.605L290.082 117.605L302.523 117.391z" stroke="#4B6791" stroke-width="0.03" stroke-linejoin="miter" fill="#4B6791" fill-rule="nonzero" />
    <path id=""  transform="matrix(1 0 0 -1 0 168)"  d="M303.684 117.137L308.48 116.254L308.48 116.254L313.676 115.59L313.676 115.59L318.969 115.203L318.969 115.203L324.363 115.086L324.363 115.086L333.074 115.105L333.074 115.105L340.195 115.098" stroke="#4B6791" stroke-width="0.5" stroke-linejoin="miter" fill="none" />
    <path id=""  transform="matrix(1 0 0 -1 0 168)"  d="M339.09 118.258L339.266 117.898L339.266 117.898L339.652 117.035L339.652 117.035L339.855 116.516L339.855 116.516L340.031 115.992L340.031 115.992L340.152 115.508L340.152 115.508L340.195 115.098L340.195 115.098L340.152 114.727L340.152 114.727L340.027 114.246L340.027 114.246L339.852 113.707L339.852 113.707L339.645 113.156L339.645 113.156L339.258 112.215L339.258 112.215L339.082 111.812L339.082 111.812L351.086 115.078z" stroke="#4B6791" stroke-width="0.03" stroke-linejoin="miter" fill="#4B6791" fill-rule="nonzero" />
    <path id=""  transform="matrix(1 0 0 -1 0 168)"  d="M352.273 115.078L359.012 115.074L359.012 115.074L367.656 115.078L367.656 115.078L376.305 115.078L376.305 115.078L384.148 115.082L384.148 115.082L388.926 115.082" stroke="#4B6791" stroke-width="0.5" stroke-linejoin="miter" fill="none" />
    <path id=""  transform="matrix(1 0 0 -1 0 168)"  d="M387.816 118.242L387.992 117.883L387.992 117.883L388.379 117.02L388.379 117.02L388.582 116.5L388.582 116.5L388.758 115.98L388.758 115.98L388.883 115.492L388.883 115.492L388.926 115.082L388.926 115.082L388.883 114.711L388.883 114.711L388.758 114.23L388.758 114.23L388.582 113.691L388.582 113.691L388.379 113.141L388.379 113.141L387.992 112.199L387.992 112.199L387.816 111.797L387.816 111.797L399.816 115.082z" stroke="#4B6791" stroke-width="0.03" stroke-linejoin="miter" fill="#4B6791" fill-rule="nonzero" />
    <path id=""  transform="matrix(1 0 0 -1 0 168)"  d="M401.004 115.082L429.004 115.082L429.004 115.082L434.332 115.086L434.332 115.086L437.656 115.086" stroke="#4B6791" stroke-width="0.5" stroke-linejoin="miter" fill="none" />
    <path id=""  transform="matrix(1 0 0 -1 0 168)"  d="M436.547 118.242L436.723 117.883L436.723 117.883L437.109 117.02L437.109 117.02L437.313 116.504L437.313 116.504L437.488 115.98L437.488 115.98L437.613 115.492L437.613 115.492L437.656 115.086L437.656 115.086L437.613 114.715L437.613 114.715L437.488 114.234L437.488 114.234L437.313 113.691L437.313 113.691L437.109 113.141L437.109 113.141L436.723 112.199L436.723 112.199L436.547 111.801L436.547 111.801L448.547 115.086z" stroke="#4B6791" stroke-width="0.03" stroke-linejoin="miter" fill="#4B6791" fill-rule="nonzero" />
    <path id=""  transform="matrix(1 0 0 -1 0 168)"  d="M449.734 115.086L486.383 115.086" stroke="#4B6791" stroke-width="0.5" stroke-linejoin="miter" fill="none" />
    <path id=""  transform="matrix(1 0 0 -1 0 168)"  d="M485.277 118.242L485.453 117.883L485.453 117.883L485.836 117.023L485.836 117.023L486.043 116.504L486.043 116.504L486.219 115.98L486.219 115.98L486.344 115.496L486.344 115.496L486.383 115.086L486.383 115.086L486.344 114.715L486.344 114.715L486.219 114.234L486.219 114.234L486.043 113.695L486.043 113.695L485.836 113.145L485.836 113.145L485.453 112.203L485.453 112.203L485.277 111.801L485.277 111.801L497.277 115.086z" stroke="#4B6791" stroke-width="0.03" stroke-linejoin="miter" fill="#4B6791" fill-rule="nonzero" />
    <path id=""  transform="matrix(1 0 0 -1 0 168)"  d="M498.465 115.086L535.113 115.086" stroke="#4B6791" stroke-width="0.5" stroke-linejoin="miter" fill="none" />
    <path id=""  transform="matrix(1 0 0 -1 0 168)"  d="M534.008 118.242L534.184 117.883L534.184 117.883L534.566 117.023L534.566 117.023L534.773 116.504L534.773 116.504L534.949 115.98L534.949 115.98L535.07 115.496L535.07 115.496L535.113 115.086L535.113 115.086L535.07 114.715L535.07 114.715L534.949 114.234L534.949 114.234L534.773 113.695L534.773 113.695L534.566 113.145L534.566 113.145L534.184 112.203L534.184 112.203L534.008 111.801L534.008 111.801L546.008 115.086z" stroke="#4B6791" stroke-width="0.03" stroke-linejoin="miter" fill="#4B6791" fill-rule="nonzero" />
    <path id=""  transform="matrix(1 0 0 -1 0 168)"  d="M547.195 115.086L571.105 115.086" stroke="#4B6791" stroke-width="0.5" stroke-linejoin="miter" fill="none" />
    <path id=""  transform="matrix(1 0 0 -1 0 168)"  d="M570.383 117.145L570.5 116.91L570.5 116.91L570.75 116.352L570.75 116.352L570.883 116.012L570.883 116.012L571 115.672L571 115.672L571.078 115.352L571.078 115.352L571.105 115.086L571.105 115.086L571.078 114.844L571.078 114.844L571 114.531L571 114.531L570.883 114.18L570.883 114.18L570.75 113.82L570.75 113.82L570.5 113.203L570.5 113.203L570.383 112.941L570.383 112.941L578.215 115.086z" stroke="#4B6791" stroke-width="0.03" stroke-linejoin="miter" fill="#4B6791" fill-rule="nonzero" />
    <path id=""  transform="matrix(1 0 0 -1 0 168)"  d="M18.742 106.488L39.828 106.488" stroke="#4B6791" stroke-width="0.5" stroke-linejoin="miter" fill="none" />
    <path id=""  transform="matrix(1 0 0 -1 0 168)"  d="M39.191 108.305L39.293 108.098L39.293 108.098L39.516 107.605L39.516 107.605L39.633 107.305L39.633 107.305L39.734 107.004L39.734 107.004L39.805 106.727L39.805 106.727L39.828 106.488L39.828 106.488L39.805 106.277L39.805 106.277L39.734 106L39.734 106L39.633 105.687L39.633 105.687L39.516 105.371L39.516 105.371L39.293 104.828L39.293 104.828L39.191 104.598L39.191 104.598L46.098 106.488z" stroke="#4B6791" stroke-width="0.03" stroke-linejoin="miter" fill="#4B6791" fill-rule="nonzero" />
    <path id=""  transform="matrix(1 0 0 -1 0 168)"  d="M48.352 14.465L85 14.465" stroke="#4B6791" stroke-width="0.5" stroke-linejoin="miter" fill="none" />
    <path id=""  transform="matrix(1 0 0 -1 0 168)"  d="M83.891 17.621L84.066 17.26199L84.066 17.26199L84.453 16.40199L84.453 16.40199L84.656 15.883L84.656 15.883L84.832 15.35899L84.832 15.35899L84.957 14.875L84.957 14.875L85 14.465L85 14.465L84.957 14.09399L84.957 14.09399L84.832 13.61301L84.832 13.61301L84.656 13.07401L84.656 13.07401L84.453 12.52299L84.453 12.52299L84.066 11.582L84.066 11.582L83.891 11.17999L83.891 11.17999L95.891 14.465z" stroke="#4B6791" stroke-width="0.03" stroke-linejoin="miter" fill="#4B6791" fill-rule="nonzero" />
    <path id=""  transform="matrix(1 0 0 -1 0 168)"  d="M97.078 14.465L133.73 14.465" stroke="#4B6791" stroke-width="0.5" stroke-linejoin="miter" fill="none" />
    <path id=""  transform="matrix(1 0 0 -1 0 168)"  d="M132.621 17.621L132.797 17.26199L132.797 17.26199L133.184 16.40199L133.184 16.40199L133.387 15.883L133.387 15.883L133.563 15.35899L133.563 15.35899L133.688 14.875L133.688 14.875L133.73 14.465L133.73 14.465L133.688 14.09399L133.688 14.09399L133.563 13.61301L133.563 13.61301L133.387 13.07401L133.387 13.07401L133.184 12.52299L133.184 12.52299L132.797 11.582L132.797 11.582L132.621 11.17999L132.621 11.17999L144.621 14.465z" stroke="#4B6791" stroke-width="0.03" stroke-linejoin="miter" fill="#4B6791" fill-rule="nonzero" />
    <path id=""  transform="matrix(1 0 0 -1 0 168)"  d="M145.809 14.465L168.977 14.465L168.977 14.465L174.465 14.461L174.465 14.461L182.457 14.461" stroke="#4B6791" stroke-width="0.5" stroke-linejoin="miter" fill="none" />
    <path id=""  transform="matrix(1 0 0 -1 0 168)"  d="M181.348 17.621L181.527 17.26199L181.527 17.26199L181.91 16.39799L181.91 16.39799L182.117 15.883L182.117 15.883L182.293 15.35899L182.293 15.35899L182.418 14.871L182.418 14.871L182.457 14.461L182.457 14.461L182.418 14.09L182.418 14.09L182.293 13.61301L182.293 13.61301L182.117 13.07001L182.117 13.07001L181.914 12.52L181.914 12.52L181.527 11.578L181.527 11.578L181.352 11.17999L181.352 11.17999L193.352 14.46899z" stroke="#4B6791" stroke-width="0.03" stroke-linejoin="miter" fill="#4B6791" fill-rule="nonzero" />
    <path id=""  transform="matrix(1 0 0 -1 0 168)"  d="M194.539 14.46899L196.359 14.47301L196.359 14.47301L201.832 14.48L201.832 14.48L207.293 14.48399L207.293 14.48399L212.734 14.496L212.734 14.496L218.18 14.52L218.18 14.52L223.629 14.55499L223.629 14.55499L229.063 14.60201L229.063 14.60201L231.188 14.633" stroke="#4B6791" stroke-width="0.5" stroke-linejoin="miter" fill="none" />
    <path id=""  transform="matrix(1 0 0 -1 0 168)"  d="M230.012 17.77299L230.195 17.418L230.195 17.418L230.598 16.562L230.598 16.562L230.816 16.05099L230.816 16.05099L231.004 15.53101L231.004 15.53101L231.137 15.047L231.137 15.047L231.188 14.64101L231.188 14.64101L231.152 14.26601L231.152 14.26601L231.039 13.785L231.039 13.785L230.875 13.242L230.875 13.242L230.684 12.687L230.684 12.687L230.316 11.73801L230.316 11.73801L230.152 11.332L230.152 11.332L242.078 14.871z" stroke="#4B6791" stroke-width="0.03" stroke-linejoin="miter" fill="#4B6791" fill-rule="nonzero" />
    <path id=""  transform="matrix(1 0 0 -1 0 168)"  d="M243.266 14.90601L245.648 14.97701L245.648 14.97701L251.184 15.203L251.184 15.203L256.824 15.55901L256.824 15.55901L262.406 16.008L262.406 16.008L267.535 16.52699L267.535 16.52699L272.188 17.246L272.188 17.246L276.512 18.332L276.512 18.332L279.422 19.543" stroke="#4B6791" stroke-width="0.5" stroke-linejoin="miter" fill="none" />
    <path id=""  transform="matrix(1 0 0 -1 0 168)"  d="M276.59 21.72301L276.938 21.52L276.938 21.52L277.734 21.01601L277.734 21.01601L278.191 20.69901L278.191 20.69901L278.629 20.36301L278.629 20.36301L279 20.02699L279 20.02699L279.262 19.707L279.262 19.707L279.434 19.375L279.434 19.375L279.598 18.90601L279.598 18.90601L279.75 18.35899L279.75 18.35899L279.883 17.789L279.883 17.789L280.086 16.789L280.086 16.789L280.16 16.35899L280.16 16.35899L288.328 25.746z" stroke="#4B6791" stroke-width="0.03" stroke-linejoin="miter" fill="#4B6791" fill-rule="nonzero" />
    <path id=""  transform="matrix(1 0 0 -1 0 168)"  d="M289.285 26.44901L290.488 27.52699" stroke="#4B6791" stroke-width="0.5" stroke-linejoin="miter" fill="none" />
    <path id=""  transform="matrix(1 0 0 -1 0 168)"  d="M290.359 27.59399L290.375 27.59L290.375 27.59L290.414 27.57401L290.414 27.57401L290.434 27.562L290.434 27.562L290.457 27.55099L290.457 27.55099L290.477 27.539L290.477 27.539L290.5 27.51601L290.5 27.51601L290.508 27.496L290.508 27.496L290.52 27.47301L290.52 27.47301L290.527 27.44901L290.527 27.44901L290.547 27.40601L290.547 27.40601L290.551 27.38699L290.551 27.38699L290.84 27.855z" stroke="#4B6791" stroke-width="0.03" stroke-linejoin="miter" fill="#4B6791" fill-rule="nonzero" />
    <path id=""  transform="matrix(1 0 0 -1 0 168)"  d="M536.641 60.922L564.875 60.922" stroke="#4B6791" stroke-width="0.5" stroke-linejoin="miter" fill="none" />
    <path id=""  transform="matrix(1 0 0 -1 0 168)"  d="M564.02 63.355L564.156 63.078L564.156 63.078L564.453 62.414L564.453 62.414L564.609 62.016L564.609 62.016L564.746 61.613L564.746 61.613L564.84 61.238L564.84 61.238L564.875 60.922L564.875 60.922L564.84 60.637L564.84 60.637L564.746 60.266L564.746 60.266L564.609 59.852L564.609 59.852L564.453 59.426L564.453 59.426L564.156 58.699L564.156 58.699L564.02 58.391L564.02 58.391L573.266 60.922z" stroke="#4B6791" stroke-width="0.03" stroke-linejoin="miter" fill="#4B6791" fill-rule="nonzero" />
    <path id=""  transform="matrix(1 0 0 -1 0 168)"  d="M52.922 92.254L82.121 92.254" stroke="#4B6791" stroke-width="0.5" stroke-linejoin="miter" fill="none" />
    <path id=""  transform="matrix(1 0 0 -1 0 168)"  d="M81.238 94.77L81.379 94.484L81.379 94.484L81.684 93.797L81.684 93.797L81.848 93.387L81.848 93.387L81.988 92.969L81.988 92.969L82.086 92.582L82.086 92.582L82.121 92.254L82.121 92.254L82.086 91.961L82.086 91.961L81.988 91.578L81.988 91.578L81.848 91.148L81.848 91.148L81.684 90.707L81.684 90.707L81.379 89.957L81.379 89.957L81.238 89.641L81.238 89.641L90.797 92.254z" stroke="#4B6791" stroke-width="0.03" stroke-linejoin="miter" fill="#4B6791" fill-rule="nonzero" />
    <path id=""  transform="matrix(1 0 0 -1 0 168)"  d="M566.195 42.547L575.742 42.547" stroke="#4B6791" stroke-width="0.5" stroke-linejoin="miter" fill="none" />
    <path id=""  transform="matrix(1 0 0 -1 0 168)"  d="M575.453 43.371L575.5 43.277L575.5 43.277L575.598 43.051L575.598 43.051L575.652 42.918L575.652 42.918L575.699 42.781L575.699 42.781L575.73 42.652L575.73 42.652L575.742 42.547L575.742 42.547L575.73 42.449L575.73 42.449L575.699 42.324L575.699 42.324L575.652 42.184L575.652 42.184L575.598 42.043L575.598 42.043L575.5 41.797L575.5 41.797L575.453 41.691L575.453 41.691L578.578 42.547z" stroke="#4B6791" stroke-width="0.03" stroke-linejoin="miter" fill="#4B6791" fill-rule="nonzero" />
    <path id=""  transform="matrix(1 0 0 -1 0 168)"  d="M13.953 21.73L38.039 21.73" stroke="#4B6791" stroke-width="0.5" stroke-linejoin="miter" fill="none" />
    <path id=""  transform="matrix(1 0 0 -1 0 168)"  d="M37.313 23.80901L37.426 23.57001L37.426 23.57001L37.68 23.004L37.68 23.004L37.816 22.664L37.816 22.664L37.93 22.32001L37.93 22.32001L38.012 22L38.012 22L38.039 21.73L38.039 21.73L38.012 21.48801L38.012 21.48801L37.93 21.172L37.93 21.172L37.816 20.81599L37.816 20.81599L37.68 20.457L37.68 20.457L37.426 19.836L37.426 19.836L37.313 19.57401L37.313 19.57401L45.199 21.73z" stroke="#4B6791" stroke-width="0.03" stroke-linejoin="miter" fill="#4B6791" fill-rule="nonzero" />
    <path id=""  transform="matrix(1 0 0 -1 0 168)"  d="M19.488 151.004L56.137 151.004" stroke="#4B6791" stroke-width="0.5" stroke-linejoin="miter" fill="none" />
    <path id=""  transform="matrix(1 0 0 -1 0 168)"  d="M55.031 154.164L55.207 153.805L55.207 153.805L55.59 152.941L55.59 152.941L55.797 152.426L55.797 152.426L55.973 151.902L55.973 151.902L56.094 151.414L56.094 151.414L56.137 151.004L56.137 151.004L56.094 150.633L56.094 150.633L55.973 150.156L55.973 150.156L55.797 149.613L55.797 149.613L55.59 149.062L55.59 149.062L55.207 148.121L55.207 148.121L55.031 147.723L55.031 147.723L67.031 151.004z" stroke="#4B6791" stroke-width="0.03" stroke-linejoin="miter" fill="#4B6791" fill-rule="nonzero" />
    <path id=""  transform="matrix(1 0 0 -1 0 168)"  d="M68.219 151.004L82.355 151.004L82.355 151.004L88.07 151.008L88.07 151.008L104.867 151.008" stroke="#4B6791" stroke-width="0.5" stroke-linejoin="miter" fill="none" />
    <path id=""  transform="matrix(1 0 0 -1 0 168)"  d="M103.762 154.164L103.938 153.805L103.938 153.805L104.32 152.941L104.32 152.941L104.523 152.426L104.523 152.426L104.703 151.902L104.703 151.902L104.824 151.414L104.824 151.414L104.867 151.008L104.867 151.008L104.824 150.637L104.824 150.637L104.703 150.156L104.703 150.156L104.523 149.613L104.523 149.613L104.32 149.062L104.32 149.062L103.938 148.121L103.938 148.121L103.762 147.723L103.762 147.723L115.762 151.008z" stroke="#4B6791" stroke-width="0.03" stroke-linejoin="miter" fill="#4B6791" fill-rule="nonzero" />
    <path id=""  transform="matrix(1 0 0 -1 0 168)"  d="M116.949 151.008L153.598 151.008" stroke="#4B6791" stroke-width="0.5" stroke-linejoin="miter" fill="none" />
    <path id=""  transform="matrix(1 0 0 -1 0 168)"  d="M152.488 154.164L152.664 153.805L152.664 153.805L153.051 152.945L153.051 152.945L153.254 152.426L153.254 152.426L153.434 151.902L153.434 151.902L153.555 151.418L153.555 151.418L153.598 151.008L153.598 151.008L153.555 150.637L153.555 150.637L153.434 150.156L153.434 150.156L153.254 149.617L153.254 149.617L153.051 149.066L153.051 149.066L152.664 148.125L152.664 148.125L152.488 147.723L152.488 147.723L164.488 151.008z" stroke="#4B6791" stroke-width="0.03" stroke-linejoin="miter" fill="#4B6791" fill-rule="nonzero" />
    <path id=""  transform="matrix(1 0 0 -1 0 168)"  d="M165.68 151.008L168.094 151.008L168.094 151.008L173.809 151.004L173.809 151.004L179.523 151.004L179.523 151.004L185.234 151L185.234 151L190.945 150.992L190.945 150.992L196.648 150.984L196.648 150.984L202.328 150.973" stroke="#4B6791" stroke-width="0.5" stroke-linejoin="miter" fill="none" />
    <path id=""  transform="matrix(1 0 0 -1 0 168)"  d="M201.234 154.133L201.406 153.77L201.406 153.77L201.789 152.906L201.789 152.906L201.992 152.391L201.992 152.391L202.164 151.867L202.164 151.867L202.285 151.379L202.285 151.379L202.328 150.969L202.328 150.969L202.285 150.598L202.285 150.598L202.16 150.117L202.16 150.117L201.98 149.578L201.98 149.578L201.773 149.027L201.773 149.027L201.383 148.09L201.383 148.09L201.207 147.687L201.207 147.687L213.219 150.922z" stroke="#4B6791" stroke-width="0.03" stroke-linejoin="miter" fill="#4B6791" fill-rule="nonzero" />
    <path id=""  transform="matrix(1 0 0 -1 0 168)"  d="M214.406 150.914L219.336 150.879L219.336 150.879L224.949 150.824L224.949 150.824L233.484 150.687L233.484 150.687L241.844 150.48L241.844 150.48L242.402 150.465L242.402 150.465L242.957 150.445L242.957 150.445L248.566 150.187L248.566 150.187L251.043 150.023" stroke="#4B6791" stroke-width="0.5" stroke-linejoin="miter" fill="none" />
    <path id=""  transform="matrix(1 0 0 -1 0 168)"  d="M250.207 153.242L250.352 152.867L250.352 152.867L250.66 151.977L250.66 151.977L250.82 151.445L250.82 151.445L250.949 150.906L250.949 150.906L251.031 150.414L251.031 150.414L251.039 150L251.039 150L250.965 149.633L250.965 149.633L250.801 149.168L250.801 149.168L250.578 148.645L250.578 148.645L250.328 148.113L250.328 148.113L249.863 147.207L249.863 147.207L249.652 146.824L249.652 146.824L261.891 149.062z" stroke="#4B6791" stroke-width="0.03" stroke-linejoin="miter" fill="#4B6791" fill-rule="nonzero" />
    <path id=""  transform="matrix(1 0 0 -1 0 168)"  d="M263.07 148.922L270.582 147.535L270.582 147.535L277.48 145.164L277.48 145.164L282.453 142.516L282.453 142.516L287.082 139.008L287.082 139.008L292.582 133.473" stroke="#4B6791" stroke-width="0.5" stroke-linejoin="miter" fill="none" />
    <path id=""  transform="matrix(1 0 0 -1 0 168)"  d="M293.707 136.496L293.617 136.137L293.617 136.137L293.375 135.289L293.375 135.289L293.211 134.797L293.211 134.797L293.023 134.316L293.023 134.316L292.816 133.898L292.816 133.898L292.602 133.578L292.602 133.578L292.348 133.34L292.348 133.34L291.973 133.07L291.973 133.07L291.523 132.793L291.523 132.793L291.047 132.52L291.047 132.52L290.207 132.082L290.207 132.082L289.84 131.902L289.84 131.902L300.375 127.039z" stroke="#4B6791" stroke-width="0.03" stroke-linejoin="miter" fill="#4B6791" fill-rule="nonzero" />
    <path id=""  transform="matrix(1 0 0 -1 0 168)"  d="M570.656 99.539L579.723 99.539" stroke="#4B6791" stroke-width="0.5" stroke-linejoin="miter" fill="none" />
    <path id=""  transform="matrix(1 0 0 -1 0 168)"  d="M579.449 100.32L579.492 100.23L579.492 100.23L579.586 100.02L579.586 100.02L579.637 99.891L579.637 99.891L579.68 99.762L579.68 99.762L579.711 99.641L579.711 99.641L579.723 99.539L579.723 99.539L579.711 99.449L579.711 99.449L579.68 99.328L579.68 99.328L579.637 99.195L579.637 99.195L579.586 99.059L579.586 99.059L579.492 98.824L579.492 98.824L579.449 98.727L579.449 98.727L582.414 99.539z" stroke="#4B6791" stroke-width="0.03" stroke-linejoin="miter" fill="#4B6791" fill-rule="nonzero" />
    <path id=""  transform="matrix(1 0 0 -1 0 168)"  d="M13.625 53.879L36.305 53.879" stroke="#4B6791" stroke-width="0.5" stroke-linejoin="miter" fill="none" />
    <path id=""  transform="matrix(1 0 0 -1 0 168)"  d="M35.617 55.836L35.727 55.613L35.727 55.613L35.965 55.078L35.965 55.078L36.094 54.758L36.094 54.758L36.203 54.434L36.203 54.434L36.277 54.133L36.277 54.133L36.305 53.879L36.305 53.879L36.277 53.652L36.277 53.652L36.203 53.355L36.203 53.355L36.094 53.02L36.094 53.02L35.965 52.68L35.965 52.68L35.727 52.098L35.727 52.098L35.617 51.848L35.617 51.848L43.043 53.879z" stroke="#4B6791" stroke-width="0.03" stroke-linejoin="miter" fill="#4B6791" fill-rule="nonzero" />
    <path id=""  transform="matrix(1 0 0 -1 0 168)"  d="M23.355 121.23L60.004 121.23" stroke="#4B6791" stroke-width="0.5" stroke-linejoin="miter" fill="none" />
    <path id=""  transform="matrix(1 0 0 -1 0 168)"  d="M58.895 124.387L59.07 124.027L59.07 124.027L59.457 123.168L59.457 123.168L59.66 122.648L59.66 122.648L59.836 122.125L59.836 122.125L59.961 121.641L59.961 121.641L60.004 121.23L60.004 121.23L59.961 120.859L59.961 120.859L59.836 120.379L59.836 120.379L59.66 119.84L59.66 119.84L59.457 119.289L59.457 119.289L59.07 118.348L59.07 118.348L58.895 117.945L58.895 117.945L70.895 121.23z" stroke="#4B6791" stroke-width="0.03" stroke-linejoin="miter" fill="#4B6791" fill-rule="nonzero" />
    <path id=""  transform="matrix(1 0 0 -1 0 168)"  d="M72.082 121.23L108.734 121.23" stroke="#4B6791" stroke-width="0.5" stroke-linejoin="miter" fill="none" />
    <path id=""  transform="matrix(1 0 0 -1 0 168)"  d="M107.625 124.391L107.801 124.031L107.801 124.031L108.188 123.168L108.188 123.168L108.391 122.648L108.391 122.648L108.566 122.129L108.566 122.129L108.691 121.641L108.691 121.641L108.734 121.23L108.734 121.23L108.691 120.859L108.691 120.859L108.566 120.379L108.566 120.379L108.391 119.84L108.391 119.84L108.188 119.289L108.188 119.289L107.801 118.348L107.801 118.348L107.625 117.945L107.625 117.945L119.625 121.23z" stroke="#4B6791" stroke-width="0.03" stroke-linejoin="miter" fill="#4B6791" fill-rule="nonzero" />
    <path id=""  transform="matrix(1 0 0 -1 0 168)"  d="M120.813 121.23L153.676 121.23L153.676 121.23L157.465 121.227" stroke="#4B6791" stroke-width="0.5" stroke-linejoin="miter" fill="none" />
    <path id=""  transform="matrix(1 0 0 -1 0 168)"  d="M156.359 124.387L156.535 124.027L156.535 124.027L156.918 123.164L156.918 123.164L157.121 122.648L157.121 122.648L157.297 122.125L157.297 122.125L157.422 121.637L157.422 121.637L157.465 121.227L157.465 121.227L157.422 120.855L157.422 120.855L157.297 120.375L157.297 120.375L157.121 119.836L157.121 119.836L156.914 119.285L156.914 119.285L156.527 118.344L156.527 118.344L156.352 117.945L156.352 117.945L168.355 121.219z" stroke="#4B6791" stroke-width="0.03" stroke-linejoin="miter" fill="#4B6791" fill-rule="nonzero" />
    <path id=""  transform="matrix(1 0 0 -1 0 168)"  d="M169.543 121.215L172.813 121.211L172.813 121.211L179.191 121.195L179.191 121.195L185.57 121.172L185.57 121.172L191.945 121.133L191.945 121.133L198.324 121.078L198.324 121.078L204.699 121.004L204.699 121.004L206.191 120.977" stroke="#4B6791" stroke-width="0.5" stroke-linejoin="miter" fill="none" />
    <path id=""  transform="matrix(1 0 0 -1 0 168)"  d="M205.164 124.156L205.332 123.793L205.332 123.793L205.695 122.918L205.695 122.918L205.887 122.398L205.887 122.398L206.051 121.871L206.051 121.871L206.16 121.379L206.16 121.379L206.191 120.969L206.191 120.969L206.141 120.598L206.141 120.598L206.004 120.121L206.004 120.121L205.813 119.586L205.813 119.586L205.594 119.043L205.594 119.043L205.184 118.109L205.184 118.109L205 117.715L205 117.715L217.078 120.687z" stroke="#4B6791" stroke-width="0.03" stroke-linejoin="miter" fill="#4B6791" fill-rule="nonzero" />
    <path id=""  transform="matrix(1 0 0 -1 0 168)"  d="M218.27 120.645L221.473 120.527L221.473 120.527L229.887 120.09L229.887 120.09L238.324 119.52L238.324 119.52L246.938 118.656L246.938 118.656L250.887 118.078" stroke="#4B6791" stroke-width="0.5" stroke-linejoin="miter" fill="none" />
    <path id=""  transform="matrix(1 0 0 -1 0 168)"  d="M250.352 121.008L250.457 120.664L250.457 120.664L250.676 119.852L250.676 119.852L250.781 119.363L250.781 119.363L250.863 118.879L250.863 118.879L250.902 118.434L250.902 118.434L250.883 118.066L250.883 118.066L250.793 117.742L250.793 117.742L250.617 117.336L250.617 117.336L250.383 116.887L250.383 116.887L250.125 116.43L250.125 116.43L249.652 115.652L249.652 115.652L249.441 115.324L249.441 115.324L260.488 116.523z" stroke="#4B6791" stroke-width="0.03" stroke-linejoin="miter" fill="#4B6791" fill-rule="nonzero" />
    <path id=""  transform="matrix(1 0 0 -1 0 168)"  d="M292.398 34.39101L294.336 36.5L294.336 36.5L296.402 38.52299L296.402 38.52299L297.109 39.172" stroke="#4B6791" stroke-width="0.5" stroke-linejoin="miter" fill="none" />
    <path id=""  transform="matrix(1 0 0 -1 0 168)"  d="M296.57 39.465L296.637 39.437L296.637 39.437L296.797 39.367L296.797 39.367L296.977 39.27299L296.977 39.27299L297.055 39.22301L297.055 39.22301L297.109 39.172L297.109 39.172L297.148 39.117L297.148 39.117L297.191 39.035L297.191 39.035L297.234 38.94099L297.234 38.94099L297.273 38.84L297.273 38.84L297.336 38.664L297.336 38.664L297.363 38.59L297.363 38.59L298.586 40.512z" stroke="#4B6791" stroke-width="0.03" stroke-linejoin="miter" fill="#4B6791" fill-rule="nonzero" />
    <path id=""  transform="matrix(1 0 0 -1 0 168)"  d="M50.836 25.91L87.484 25.91" stroke="#4B6791" stroke-width="0.5" stroke-linejoin="miter" fill="none" />
    <path id=""  transform="matrix(1 0 0 -1 0 168)"  d="M86.379 29.06599L86.555 28.707L86.555 28.707L86.938 27.84801L86.938 27.84801L87.145 27.328L87.145 27.328L87.32 26.80499L87.32 26.80499L87.441 26.32001L87.441 26.32001L87.484 25.91L87.484 25.91L87.441 25.539L87.441 25.539L87.32 25.05901L87.32 25.05901L87.145 24.52L87.145 24.52L86.938 23.965L86.938 23.965L86.555 23.02299L86.555 23.02299L86.379 22.625L86.379 22.625L98.379 25.91z" stroke="#4B6791" stroke-width="0.03" stroke-linejoin="miter" fill="#4B6791" fill-rule="nonzero" />
    <path id=""  transform="matrix(1 0 0 -1 0 168)"  d="M99.566 25.91L109.355 25.91L109.355 25.91L115.207 25.90601L115.207 25.90601L136.215 25.90601" stroke="#4B6791" stroke-width="0.5" stroke-linejoin="miter" fill="none" />
    <path id=""  transform="matrix(1 0 0 -1 0 168)"  d="M135.105 29.06599L135.285 28.707L135.285 28.707L135.668 27.84399L135.668 27.84399L135.871 27.32401L135.871 27.32401L136.051 26.80499L136.051 26.80499L136.172 26.31599L136.172 26.31599L136.215 25.90601L136.215 25.90601L136.172 25.535L136.172 25.535L136.051 25.05499L136.051 25.05499L135.871 24.51601L135.871 24.51601L135.668 23.965L135.668 23.965L135.281 23.02299L135.281 23.02299L135.105 22.621L135.105 22.621L147.105 25.90601z" stroke="#4B6791" stroke-width="0.03" stroke-linejoin="miter" fill="#4B6791" fill-rule="nonzero" />
    <path id=""  transform="matrix(1 0 0 -1 0 168)"  d="M148.297 25.90601L162.027 25.90601L162.027 25.90601L167.879 25.91L167.879 25.91L173.727 25.914L173.727 25.914L179.578 25.918L179.578 25.918L184.945 25.92599" stroke="#4B6791" stroke-width="0.5" stroke-linejoin="miter" fill="none" />
    <path id=""  transform="matrix(1 0 0 -1 0 168)"  d="M183.828 29.082L184.004 28.72701L184.004 28.72701L184.391 27.86301L184.391 27.86301L184.598 27.34801L184.598 27.34801L184.777 26.82401L184.777 26.82401L184.902 26.34L184.902 26.34L184.945 25.92999L184.945 25.92999L184.902 25.55901L184.902 25.55901L184.781 25.078L184.781 25.078L184.605 24.535L184.605 24.535L184.402 23.98399L184.402 23.98399L184.023 23.043L184.023 23.043L183.848 22.64101L183.848 22.64101L195.836 25.961z" stroke="#4B6791" stroke-width="0.03" stroke-linejoin="miter" fill="#4B6791" fill-rule="nonzero" />
    <path id=""  transform="matrix(1 0 0 -1 0 168)"  d="M197.027 25.965L197.105 25.96899L197.105 25.96899L202.934 26L202.934 26L208.75 26.043L208.75 26.043L214.547 26.10899L214.547 26.10899L220.309 26.215L220.309 26.215L226.031 26.355L226.031 26.355L231.715 26.535L231.715 26.535L233.668 26.621" stroke="#4B6791" stroke-width="0.5" stroke-linejoin="miter" fill="none" />
    <path id=""  transform="matrix(1 0 0 -1 0 168)"  d="M232.391 29.72701L232.586 29.379L232.586 29.379L233.016 28.539L233.016 28.539L233.246 28.03101L233.246 28.03101L233.453 27.52L233.453 27.52L233.602 27.039L233.602 27.039L233.664 26.633L233.664 26.633L233.645 26.26199L233.645 26.26199L233.547 25.77299L233.547 25.77299L233.398 25.22701L233.398 25.22701L233.223 24.664L233.223 24.664L232.891 23.703L232.891 23.703L232.738 23.293L232.738 23.293L244.543 27.21899z" stroke="#4B6791" stroke-width="0.03" stroke-linejoin="miter" fill="#4B6791" fill-rule="nonzero" />
    <path id=""  transform="matrix(1 0 0 -1 0 168)"  d="M245.727 27.32401L250.168 27.711L250.168 27.711L255.988 28.42599L255.988 28.42599L262.336 29.59L262.336 29.59L268.508 31.26601L268.508 31.26601L269.645 31.629L269.645 31.629L270.781 32.01199L270.781 32.01199L273.902 33.43401" stroke="#4B6791" stroke-width="0.5" stroke-linejoin="miter" fill="none" />
    <path id=""  transform="matrix(1 0 0 -1 0 168)"  d="M271.93 35.27699L272.184 35.09L272.184 35.09L272.773 34.629L272.773 34.629L273.105 34.34399L273.105 34.34399L273.426 34.043L273.426 34.043L273.691 33.75L273.691 33.75L273.871 33.48L273.871 33.48L273.98 33.203L273.98 33.203L274.07 32.82401L274.07 32.82401L274.148 32.379L274.148 32.379L274.207 31.918L274.207 31.918L274.289 31.117L274.289 31.117L274.313 30.77299L274.313 30.77299L281.488 37.51199z" stroke="#4B6791" stroke-width="0.03" stroke-linejoin="miter" fill="#4B6791" fill-rule="nonzero" />
	</g>
</g>
</svg>