<?xml version="1.0" standalone="no"?>
<!DOCTYPE svg PUBLIC "-//W3C//DTD SVG 1.0//EN" "http://www.w3.org/TR/2001/REC-SVG-20010904/DTD/svg10.dtd">
<svg xmlns="http://www.w3.org/2000/svg" xmlns:xlink="http://www.w3.org/1999/xlink" id="body_1" width="397" height="201">

<defs>
    <clipPath  id="1">

    <path id=""  clip-rule="evenodd" transform="matrix(1 0 0 1 0 0)"  d="M0 151L0 -0.9168701L0 -0.9168701L298.7531 -0.9168701L298.7531 -0.9168701L298.7531 151L298.7531 151L0 151z" />    </clipPath>
    <clipPath  id="2">

    <path id=""  clip-rule="evenodd" transform="matrix(1 0 0 1 0 0)"  d="M48.59063 115.0031L215.9906 115.0031L215.9906 115.0031L215.9906 6.283127L215.9906 6.283127L48.59063 6.283127z" />    </clipPath>
    <clipPath  id="3">

    <path id=""  clip-rule="evenodd" transform="matrix(1 0 0 1 0 0)"  d="M48.59063 115.0031L215.9906 115.0031L215.9906 115.0031L215.9906 6.283127L215.9906 6.283127L48.59063 6.283127z" />    </clipPath>
    <clipPath  id="4">

    <path id=""  clip-rule="evenodd" transform="matrix(1 0 0 1 0 0)"  d="M48.59063 115.0031L215.9906 115.0031L215.9906 115.0031L215.9906 6.283127L215.9906 6.283127L48.59063 6.283127z" />    </clipPath>
    <clipPath  id="5">

    <path id=""  clip-rule="evenodd" transform="matrix(1 0 0 1 0 0)"  d="M48.59063 115.0031L215.9906 115.0031L215.9906 115.0031L215.9906 6.283127L215.9906 6.283127L48.59063 6.283127z" />    </clipPath>
    <clipPath  id="6">

    <path id=""  clip-rule="evenodd" transform="matrix(1 0 0 1 0 0)"  d="M48.59063 115.0031L215.9906 115.0031L215.9906 115.0031L215.9906 6.283127L215.9906 6.283127L48.59063 6.283127z" />    </clipPath>
    <clipPath  id="7">

    <path id=""  clip-rule="evenodd" transform="matrix(1 0 0 1 0 0)"  d="M48.59063 115.0031L215.9906 115.0031L215.9906 115.0031L215.9906 6.283127L215.9906 6.283127L48.59063 6.283127z" />    </clipPath>
    <clipPath  id="8">

    <path id=""  clip-rule="evenodd" transform="matrix(1 0 0 1 0 0)"  d="M48.59063 115.0031L215.9906 115.0031L215.9906 115.0031L215.9906 6.283127L215.9906 6.283127L48.59063 6.283127z" />    </clipPath>
    <clipPath  id="9">

    <path id=""  clip-rule="evenodd" transform="matrix(1 0 0 1 0 0)"  d="M48.59063 115.0031L215.9906 115.0031L215.9906 115.0031L215.9906 6.283127L215.9906 6.283127L48.59063 6.283127z" />    </clipPath>
    <clipPath  id="10">

    <path id=""  clip-rule="evenodd" transform="matrix(1 0 0 1 0 0)"  d="M48.59063 115.0031L215.9906 115.0031L215.9906 115.0031L215.9906 6.283127L215.9906 6.283127L48.59063 6.283127z" />    </clipPath>
    <clipPath  id="11">

    <path id=""  clip-rule="evenodd" transform="matrix(1 0 0 1 0 0)"  d="M48.59063 115.0031L215.9906 115.0031L215.9906 115.0031L215.9906 6.283127L215.9906 6.283127L48.59063 6.283127z" />    </clipPath>
    <clipPath  id="12">

    <path id=""  clip-rule="evenodd" transform="matrix(1 0 0 1 0 0)"  d="M48.59063 115.0031L215.9906 115.0031L215.9906 115.0031L215.9906 6.283127L215.9906 6.283127L48.59063 6.283127z" />    </clipPath>
    <clipPath  id="13">

    <path id=""  clip-rule="evenodd" transform="matrix(1 0 0 1 0 0)"  d="M48.59063 115.0031L215.9906 115.0031L215.9906 115.0031L215.9906 6.283127L215.9906 6.283127L48.59063 6.283127z" />    </clipPath>
    <clipPath  id="14">

    <path id=""  clip-rule="evenodd" transform="matrix(1 0 0 1 0 0)"  d="M48.59063 115.0031L215.9906 115.0031L215.9906 115.0031L215.9906 6.283127L215.9906 6.283127L48.59063 6.283127z" />    </clipPath>
    <clipPath  id="15">

    <path id=""  clip-rule="evenodd" transform="matrix(1 0 0 1 0 0)"  d="M48.59063 115.0031L215.9906 115.0031L215.9906 115.0031L215.9906 6.283127L215.9906 6.283127L48.59063 6.283127z" />    </clipPath>
    <clipPath  id="16">

    <path id=""  clip-rule="evenodd" transform="matrix(1 0 0 1 0 0)"  d="M48.59063 115.0031L215.9906 115.0031L215.9906 115.0031L215.9906 6.283127L215.9906 6.283127L48.59063 6.283127z" />    </clipPath>
</defs>

<g transform="matrix(1.3333 0 0 1.3333 0 0)">
	<g clip-path="url(#1)" >
    <path id=""  transform="matrix(1 0 0 -1 0 151)"  d="M48.59063 35.99688L215.9906 35.99688L215.9906 35.99688L215.9906 144.7169L215.9906 144.7169L48.59063 144.7169z" stroke="none" fill="#EEEEEE" fill-rule="nonzero" />
		<g clip-path="url(#2)" >
    <path id=""  transform="matrix(1 0 0 -1 0 151)"  d="M56.19971 35.99688L56.19971 144.7169" stroke="#B2B2B2" stroke-width="0.5" stroke-linejoin="round" stroke-dasharray="1.85000002384186,0.800000011920929" fill="none" />
		</g>
    <path id=""  transform="matrix(1 0 0 -1 0 151)"  d="M56.19971 35.99688L56.19971 39.49688" stroke="#000000" stroke-width="0.8" stroke-linejoin="miter" fill="#000000" fill-rule="nonzero" />
    <path id=""  transform="matrix(1 0 0 -1 0 151)"  d="M48.2469 32.32313C 49.0569 32.32313 49.6769 31.99313 50.1169 31.35313C 50.5469 30.70313 50.7669 29.76313 50.7669 28.54313C 50.7669 27.31313 50.5469 26.37313 50.1169 25.73313C 49.6769 25.09313 49.0569 24.77313 48.2469 24.77313C 47.4269 24.77313 46.7969 25.09313 46.3669 25.73313C 45.9369 26.37313 45.7269 27.31313 45.7269 28.54313C 45.7269 29.76313 45.9369 30.70313 46.3669 31.35313C 46.7969 31.99313 47.4269 32.32313 48.2469 32.32313M48.2469 31.54313C 47.7369 31.54313 47.3569 31.29313 47.0969 30.79313C 46.8369 30.29313 46.7169 29.54313 46.7169 28.54313C 46.7169 27.54313 46.8369 26.79313 47.0969 26.29313C 47.3569 25.79313 47.7369 25.54313 48.2469 25.54313C 48.7569 25.54313 49.1369 25.79313 49.3969 26.29313C 49.6469 26.79313 49.7769 27.54313 49.7769 28.54313C 49.7769 29.54313 49.6469 30.29313 49.3969 30.79313C 49.1369 31.29313 48.7569 31.54313 48.2469 31.54313" stroke="none" fill="#000000" fill-rule="nonzero" />
    <path id=""  transform="matrix(1 0 0 -1 0 151)"  d="M52.4969 26.14313L53.5269 26.14313L53.5269 26.14313L53.5269 24.90313L53.5269 24.90313L52.4969 24.90313L52.4969 24.90313L52.4969 26.14313" stroke="none" fill="#000000" fill-rule="nonzero" />
    <path id=""  transform="matrix(1 0 0 -1 0 151)"  d="M57.7869 32.32313C 58.5969 32.32313 59.2169 31.99313 59.6569 31.35313C 60.0869 30.70313 60.3069 29.76313 60.3069 28.54313C 60.3069 27.31313 60.0869 26.37313 59.6569 25.73313C 59.2169 25.09313 58.5969 24.77313 57.7869 24.77313C 56.9669 24.77313 56.3369 25.09313 55.9069 25.73313C 55.4769 26.37313 55.2669 27.31313 55.2669 28.54313C 55.2669 29.76313 55.4769 30.70313 55.9069 31.35313C 56.3369 31.99313 56.9669 32.32313 57.7869 32.32313M57.7869 31.54313C 57.2769 31.54313 56.8969 31.29313 56.6369 30.79313C 56.3769 30.29313 56.2569 29.54313 56.2569 28.54313C 56.2569 27.54313 56.3769 26.79313 56.6369 26.29313C 56.8969 25.79313 57.2769 25.54313 57.7869 25.54313C 58.2969 25.54313 58.6769 25.79313 58.9369 26.29313C 59.1869 26.79313 59.3169 27.54313 59.3169 28.54313C 59.3169 29.54313 59.1869 30.29313 58.9369 30.79313C 58.6769 31.29313 58.2969 31.54313 57.7869 31.54313" stroke="none" fill="#000000" fill-rule="nonzero" />
    <path id=""  transform="matrix(1 0 0 -1 0 151)"  d="M64.1469 32.32313C 64.9569 32.32313 65.5769 31.99313 66.01691 31.35313C 66.44691 30.70313 66.6669 29.76313 66.6669 28.54313C 66.6669 27.31313 66.44691 26.37313 66.01691 25.73313C 65.5769 25.09313 64.9569 24.77313 64.1469 24.77313C 63.3269 24.77313 62.6969 25.09313 62.2669 25.73313C 61.8369 26.37313 61.6269 27.31313 61.6269 28.54313C 61.6269 29.76313 61.8369 30.70313 62.2669 31.35313C 62.6969 31.99313 63.3269 32.32313 64.1469 32.32313M64.1469 31.54313C 63.6369 31.54313 63.2569 31.29313 62.9969 30.79313C 62.7369 30.29313 62.61691 29.54313 62.61691 28.54313C 62.61691 27.54313 62.7369 26.79313 62.9969 26.29313C 63.2569 25.79313 63.6369 25.54313 64.1469 25.54313C 64.65691 25.54313 65.0369 25.79313 65.29691 26.29313C 65.54691 26.79313 65.6769 27.54313 65.6769 28.54313C 65.6769 29.54313 65.54691 30.29313 65.29691 30.79313C 65.0369 31.29313 64.65691 31.54313 64.1469 31.54313" stroke="none" fill="#000000" fill-rule="nonzero" />
		<g clip-path="url(#3)" >
    <path id=""  transform="matrix(1 0 0 -1 0 151)"  d="M94.24517 35.99688L94.24517 144.7169" stroke="#B2B2B2" stroke-width="0.5" stroke-linejoin="round" stroke-dasharray="1.85000002384186,0.800000011920929" fill="none" />
		</g>
    <path id=""  transform="matrix(1 0 0 -1 0 151)"  d="M94.24517 35.99688L94.24517 39.49688" stroke="#000000" stroke-width="0.8" stroke-linejoin="miter" fill="#000000" fill-rule="nonzero" />
    <path id=""  transform="matrix(1 0 0 -1 0 151)"  d="M86.29236 32.32313C 87.10236 32.32313 87.72236 31.99313 88.16236 31.35313C 88.59236 30.70313 88.81236 29.76313 88.81236 28.54313C 88.81236 27.31313 88.59236 26.37313 88.16236 25.73313C 87.72236 25.09313 87.10236 24.77313 86.29236 24.77313C 85.47236 24.77313 84.84236 25.09313 84.41236 25.73313C 83.98236 26.37313 83.77236 27.31313 83.77236 28.54313C 83.77236 29.76313 83.98236 30.70313 84.41236 31.35313C 84.84236 31.99313 85.47236 32.32313 86.29236 32.32313M86.29236 31.54313C 85.78236 31.54313 85.40236 31.29313 85.14236 30.79313C 84.88235 30.29313 84.76236 29.54313 84.76236 28.54313C 84.76236 27.54313 84.88235 26.79313 85.14236 26.29313C 85.40236 25.79313 85.78236 25.54313 86.29236 25.54313C 86.80236 25.54313 87.18236 25.79313 87.44236 26.29313C 87.69236 26.79313 87.82236 27.54313 87.82236 28.54313C 87.82236 29.54313 87.69236 30.29313 87.44236 30.79313C 87.18236 31.29313 86.80236 31.54313 86.29236 31.54313" stroke="none" fill="#000000" fill-rule="nonzero" />
    <path id=""  transform="matrix(1 0 0 -1 0 151)"  d="M90.54236 26.14313L91.57236 26.14313L91.57236 26.14313L91.57236 24.90313L91.57236 24.90313L90.54236 24.90313L90.54236 24.90313L90.54236 26.14313" stroke="none" fill="#000000" fill-rule="nonzero" />
    <path id=""  transform="matrix(1 0 0 -1 0 151)"  d="M94.57236 25.73313L98.01236 25.73313L98.01236 25.73313L98.01236 24.90313L98.01236 24.90313L93.38236 24.90313L93.38236 24.90313L93.38236 25.73313C 93.75236 26.11312 94.26236 26.63313 94.91236 27.29313C 95.55236 27.94313 95.96236 28.36313 96.13236 28.55313C 96.45236 28.90313 96.67236 29.20313 96.79236 29.45313C 96.91236 29.69313 96.98236 29.94313 96.98236 30.18313C 96.98236 30.56313 96.84236 30.88313 96.57236 31.12313C 96.30236 31.36313 95.95236 31.49313 95.51236 31.49313C 95.20236 31.49313 94.87236 31.43313 94.53236 31.33313C 94.19236 31.22313 93.82236 31.06313 93.43236 30.84313L93.43236 30.84313L93.43236 31.84313C 93.83236 32.00313 94.20236 32.12313 94.54236 32.20313C 94.88236 32.28313 95.20236 32.32313 95.49236 32.32313C 96.24236 32.32313 96.84236 32.13313 97.29236 31.75313C 97.74236 31.37313 97.97236 30.87313 97.97236 30.24313C 97.97236 29.94313 97.91236 29.65313 97.80236 29.39313C 97.69236 29.12313 97.49236 28.80313 97.19236 28.44313C 97.11236 28.34313 96.85236 28.07313 96.41236 27.62313C 95.97236 27.17313 95.36236 26.54313 94.57236 25.73313" stroke="none" fill="#000000" fill-rule="nonzero" />
    <path id=""  transform="matrix(1 0 0 -1 0 151)"  d="M100.0924 32.19313L103.9624 32.19313L103.9624 32.19313L103.9624 31.36313L103.9624 31.36313L100.9924 31.36313L100.9924 31.36313L100.9924 29.57313C 101.1324 29.62313 101.2824 29.66313 101.4224 29.68313C 101.5624 29.70313 101.7124 29.72313 101.8524 29.72313C 102.6624 29.72313 103.3024 29.49313 103.7824 29.05313C 104.2624 28.60313 104.5024 28.00313 104.5024 27.24313C 104.5024 26.45313 104.2524 25.84313 103.7624 25.41313C 103.2724 24.98313 102.5824 24.77313 101.7024 24.77313C 101.3924 24.77313 101.0824 24.80313 100.7624 24.84313C 100.4424 24.89313 100.1224 24.96313 99.78236 25.07313L99.78236 25.07313L99.78236 26.06313C 100.0724 25.90313 100.3724 25.78312 100.6924 25.70313C 101.0024 25.62313 101.3324 25.59313 101.6824 25.59313C 102.2424 25.59313 102.6924 25.73313 103.0224 26.03313C 103.3424 26.33313 103.5124 26.73313 103.5124 27.24313C 103.5124 27.74313 103.3424 28.14313 103.0224 28.44313C 102.6924 28.74313 102.2424 28.89313 101.6824 28.89313C 101.4224 28.89313 101.1524 28.86313 100.8924 28.80313C 100.6324 28.74313 100.3624 28.65313 100.0924 28.53313L100.0924 28.53313L100.0924 32.19313" stroke="none" fill="#000000" fill-rule="nonzero" />
		<g clip-path="url(#4)" >
    <path id=""  transform="matrix(1 0 0 -1 0 151)"  d="M132.2906 35.99688L132.2906 144.7169" stroke="#B2B2B2" stroke-width="0.5" stroke-linejoin="round" stroke-dasharray="1.85000002384186,0.800000011920929" fill="none" />
		</g>
    <path id=""  transform="matrix(1 0 0 -1 0 151)"  d="M132.2906 35.99688L132.2906 39.49688" stroke="#000000" stroke-width="0.8" stroke-linejoin="miter" fill="#000000" fill-rule="nonzero" />
    <path id=""  transform="matrix(1 0 0 -1 0 151)"  d="M124.3378 32.32313C 125.1478 32.32313 125.7678 31.99313 126.2078 31.35313C 126.6378 30.70313 126.8578 29.76313 126.8578 28.54313C 126.8578 27.31313 126.6378 26.37313 126.2078 25.73313C 125.7678 25.09313 125.1478 24.77313 124.3378 24.77313C 123.5178 24.77313 122.8878 25.09313 122.4578 25.73313C 122.0278 26.37313 121.8178 27.31313 121.8178 28.54313C 121.8178 29.76313 122.0278 30.70313 122.4578 31.35313C 122.8878 31.99313 123.5178 32.32313 124.3378 32.32313M124.3378 31.54313C 123.8278 31.54313 123.4478 31.29313 123.1878 30.79313C 122.9278 30.29313 122.8078 29.54313 122.8078 28.54313C 122.8078 27.54313 122.9278 26.79313 123.1878 26.29313C 123.4478 25.79313 123.8278 25.54313 124.3378 25.54313C 124.8478 25.54313 125.2278 25.79313 125.4878 26.29313C 125.7378 26.79313 125.8678 27.54313 125.8678 28.54313C 125.8678 29.54313 125.7378 30.29313 125.4878 30.79313C 125.2278 31.29313 124.8478 31.54313 124.3378 31.54313" stroke="none" fill="#000000" fill-rule="nonzero" />
    <path id=""  transform="matrix(1 0 0 -1 0 151)"  d="M128.5878 26.14313L129.6178 26.14313L129.6178 26.14313L129.6178 24.90313L129.6178 24.90313L128.5878 24.90313L128.5878 24.90313L128.5878 26.14313" stroke="none" fill="#000000" fill-rule="nonzero" />
    <path id=""  transform="matrix(1 0 0 -1 0 151)"  d="M131.7778 32.19313L135.6478 32.19313L135.6478 32.19313L135.6478 31.36313L135.6478 31.36313L132.6778 31.36313L132.6778 31.36313L132.6778 29.57313C 132.8178 29.62313 132.9678 29.66313 133.1078 29.68313C 133.2478 29.70313 133.3978 29.72313 133.5378 29.72313C 134.3478 29.72313 134.9878 29.49313 135.4678 29.05313C 135.9478 28.60313 136.1878 28.00313 136.1878 27.24313C 136.1878 26.45313 135.9378 25.84313 135.4478 25.41313C 134.9578 24.98313 134.2678 24.77313 133.3878 24.77313C 133.0778 24.77313 132.7678 24.80313 132.4478 24.84313C 132.1278 24.89313 131.8078 24.96313 131.4678 25.07313L131.4678 25.07313L131.4678 26.06313C 131.7578 25.90313 132.0578 25.78312 132.3778 25.70313C 132.6878 25.62313 133.0178 25.59313 133.3678 25.59313C 133.9278 25.59313 134.3778 25.73313 134.7078 26.03313C 135.0278 26.33313 135.1978 26.73313 135.1978 27.24313C 135.1978 27.74313 135.0278 28.14313 134.7078 28.44313C 134.3778 28.74313 133.9278 28.89313 133.3678 28.89313C 133.1078 28.89313 132.8378 28.86313 132.5778 28.80313C 132.3178 28.74313 132.0478 28.65313 131.7778 28.53313L131.7778 28.53313L131.7778 32.19313" stroke="none" fill="#000000" fill-rule="nonzero" />
    <path id=""  transform="matrix(1 0 0 -1 0 151)"  d="M140.2378 32.32313C 141.0478 32.32313 141.6678 31.99313 142.1078 31.35313C 142.5378 30.70313 142.7578 29.76313 142.7578 28.54313C 142.7578 27.31313 142.5378 26.37313 142.1078 25.73313C 141.6678 25.09313 141.0478 24.77313 140.2378 24.77313C 139.4178 24.77313 138.7878 25.09313 138.3578 25.73313C 137.9278 26.37313 137.7178 27.31313 137.7178 28.54313C 137.7178 29.76313 137.9278 30.70313 138.3578 31.35313C 138.7878 31.99313 139.4178 32.32313 140.2378 32.32313M140.2378 31.54313C 139.7278 31.54313 139.3478 31.29313 139.0878 30.79313C 138.8278 30.29313 138.7078 29.54313 138.7078 28.54313C 138.7078 27.54313 138.8278 26.79313 139.0878 26.29313C 139.3478 25.79313 139.7278 25.54313 140.2378 25.54313C 140.7478 25.54313 141.1278 25.79313 141.3878 26.29313C 141.6378 26.79313 141.7678 27.54313 141.7678 28.54313C 141.7678 29.54313 141.6378 30.29313 141.3878 30.79313C 141.1278 31.29313 140.7478 31.54313 140.2378 31.54313" stroke="none" fill="#000000" fill-rule="nonzero" />
		<g clip-path="url(#5)" >
    <path id=""  transform="matrix(1 0 0 -1 0 151)"  d="M170.3361 35.99688L170.3361 144.7169" stroke="#B2B2B2" stroke-width="0.5" stroke-linejoin="round" stroke-dasharray="1.85000002384186,0.800000011920929" fill="none" />
		</g>
    <path id=""  transform="matrix(1 0 0 -1 0 151)"  d="M170.3361 35.99688L170.3361 39.49688" stroke="#000000" stroke-width="0.8" stroke-linejoin="miter" fill="#000000" fill-rule="nonzero" />
    <path id=""  transform="matrix(1 0 0 -1 0 151)"  d="M162.3833 32.32313C 163.1933 32.32313 163.8133 31.99313 164.2533 31.35313C 164.6833 30.70313 164.9033 29.76313 164.9033 28.54313C 164.9033 27.31313 164.6833 26.37313 164.2533 25.73313C 163.8133 25.09313 163.1933 24.77313 162.3833 24.77313C 161.5633 24.77313 160.9333 25.09313 160.5033 25.73313C 160.0733 26.37313 159.8633 27.31313 159.8633 28.54313C 159.8633 29.76313 160.0733 30.70313 160.5033 31.35313C 160.9333 31.99313 161.5633 32.32313 162.3833 32.32313M162.3833 31.54313C 161.8733 31.54313 161.4933 31.29313 161.2333 30.79313C 160.9733 30.29313 160.8533 29.54313 160.8533 28.54313C 160.8533 27.54313 160.9733 26.79313 161.2333 26.29313C 161.4933 25.79313 161.8733 25.54313 162.3833 25.54313C 162.8933 25.54313 163.2733 25.79313 163.5333 26.29313C 163.7833 26.79313 163.9133 27.54313 163.9133 28.54313C 163.9133 29.54313 163.7833 30.29313 163.5333 30.79313C 163.2733 31.29313 162.8933 31.54313 162.3833 31.54313" stroke="none" fill="#000000" fill-rule="nonzero" />
    <path id=""  transform="matrix(1 0 0 -1 0 151)"  d="M166.6333 26.14313L167.6633 26.14313L167.6633 26.14313L167.6633 24.90313L167.6633 24.90313L166.6333 24.90313L166.6333 24.90313L166.6333 26.14313" stroke="none" fill="#000000" fill-rule="nonzero" />
    <path id=""  transform="matrix(1 0 0 -1 0 151)"  d="M169.5633 32.19313L174.2533 32.19313L174.2533 32.19313L174.2533 31.77313L174.2533 31.77313L171.6033 24.90313L171.6033 24.90313L170.5733 24.90313L170.5733 24.90313L173.0633 31.36313L173.0633 31.36313L169.5633 31.36313L169.5633 31.36313L169.5633 32.19313" stroke="none" fill="#000000" fill-rule="nonzero" />
    <path id=""  transform="matrix(1 0 0 -1 0 151)"  d="M176.1833 32.19313L180.0533 32.19313L180.0533 32.19313L180.0533 31.36313L180.0533 31.36313L177.0833 31.36313L177.0833 31.36313L177.0833 29.57313C 177.2233 29.62313 177.3733 29.66313 177.5133 29.68313C 177.6533 29.70313 177.8033 29.72313 177.9433 29.72313C 178.7533 29.72313 179.3932 29.49313 179.8733 29.05313C 180.3533 28.60313 180.5933 28.00313 180.5933 27.24313C 180.5933 26.45313 180.3433 25.84313 179.8533 25.41313C 179.3633 24.98313 178.6733 24.77313 177.7933 24.77313C 177.4833 24.77313 177.1733 24.80313 176.8533 24.84313C 176.5332 24.89313 176.2133 24.96313 175.8733 25.07313L175.8733 25.07313L175.8733 26.06313C 176.1633 25.90313 176.4633 25.78312 176.7832 25.70313C 177.0933 25.62313 177.4233 25.59313 177.7733 25.59313C 178.3333 25.59313 178.7833 25.73313 179.1133 26.03313C 179.4333 26.33313 179.6033 26.73313 179.6033 27.24313C 179.6033 27.74313 179.4333 28.14313 179.1133 28.44313C 178.7833 28.74313 178.3333 28.89313 177.7733 28.89313C 177.5133 28.89313 177.2433 28.86313 176.9833 28.80313C 176.7233 28.74313 176.4533 28.65313 176.1833 28.53313L176.1833 28.53313L176.1833 32.19313" stroke="none" fill="#000000" fill-rule="nonzero" />
		<g clip-path="url(#6)" >
    <path id=""  transform="matrix(1 0 0 -1 0 151)"  d="M208.3815 35.99688L208.3815 144.7169" stroke="#B2B2B2" stroke-width="0.5" stroke-linejoin="round" stroke-dasharray="1.85000002384186,0.800000011920929" fill="none" />
		</g>
    <path id=""  transform="matrix(1 0 0 -1 0 151)"  d="M208.3815 35.99688L208.3815 39.49688" stroke="#000000" stroke-width="0.8" stroke-linejoin="miter" fill="#000000" fill-rule="nonzero" />
    <path id=""  transform="matrix(1 0 0 -1 0 151)"  d="M198.4887 25.73313L200.0987 25.73313L200.0987 25.73313L200.0987 31.29313L200.0987 31.29313L198.3487 30.94313L198.3487 30.94313L198.3487 31.84313L198.3487 31.84313L200.0887 32.19313L200.0887 32.19313L201.0787 32.19313L201.0787 32.19313L201.0787 25.73313L201.0787 25.73313L202.6887 25.73313L202.6887 25.73313L202.6887 24.90313L202.6887 24.90313L198.4887 24.90313L198.4887 24.90313L198.4887 25.73313" stroke="none" fill="#000000" fill-rule="nonzero" />
    <path id=""  transform="matrix(1 0 0 -1 0 151)"  d="M204.6787 26.14313L205.7087 26.14313L205.7087 26.14313L205.7087 24.90313L205.7087 24.90313L204.6787 24.90313L204.6787 24.90313L204.6787 26.14313" stroke="none" fill="#000000" fill-rule="nonzero" />
    <path id=""  transform="matrix(1 0 0 -1 0 151)"  d="M209.9687 32.32313C 210.7787 32.32313 211.3987 31.99313 211.8387 31.35313C 212.2687 30.70313 212.4887 29.76313 212.4887 28.54313C 212.4887 27.31313 212.2687 26.37313 211.8387 25.73313C 211.3987 25.09313 210.7787 24.77313 209.9687 24.77313C 209.1487 24.77313 208.5187 25.09313 208.0887 25.73313C 207.6587 26.37313 207.4487 27.31313 207.4487 28.54313C 207.4487 29.76313 207.6587 30.70313 208.0887 31.35313C 208.5187 31.99313 209.1487 32.32313 209.9687 32.32313M209.9687 31.54313C 209.4587 31.54313 209.0787 31.29313 208.8187 30.79313C 208.5587 30.29313 208.4387 29.54313 208.4387 28.54313C 208.4387 27.54313 208.5587 26.79313 208.8187 26.29313C 209.0787 25.79313 209.4587 25.54313 209.9687 25.54313C 210.4787 25.54313 210.8587 25.79313 211.1187 26.29313C 211.3687 26.79313 211.4987 27.54313 211.4987 28.54313C 211.4987 29.54313 211.3687 30.29313 211.1187 30.79313C 210.8587 31.29313 210.4787 31.54313 209.9687 31.54313" stroke="none" fill="#000000" fill-rule="nonzero" />
    <path id=""  transform="matrix(1 0 0 -1 0 151)"  d="M216.3287 32.32313C 217.1387 32.32313 217.7587 31.99313 218.1987 31.35313C 218.6287 30.70313 218.8487 29.76313 218.8487 28.54313C 218.8487 27.31313 218.6287 26.37313 218.1987 25.73313C 217.7587 25.09313 217.1387 24.77313 216.3287 24.77313C 215.5087 24.77313 214.8787 25.09313 214.4487 25.73313C 214.0187 26.37313 213.8087 27.31313 213.8087 28.54313C 213.8087 29.76313 214.0187 30.70313 214.4487 31.35313C 214.8787 31.99313 215.5087 32.32313 216.3287 32.32313M216.3287 31.54313C 215.8187 31.54313 215.4387 31.29313 215.1787 30.79313C 214.9187 30.29313 214.7987 29.54313 214.7987 28.54313C 214.7987 27.54313 214.9187 26.79313 215.1787 26.29313C 215.4387 25.79313 215.8187 25.54313 216.3287 25.54313C 216.8387 25.54313 217.2187 25.79313 217.4787 26.29313C 217.7287 26.79313 217.8587 27.54313 217.8587 28.54313C 217.8587 29.54313 217.7287 30.29313 217.4787 30.79313C 217.2187 31.29313 216.8387 31.54313 216.3287 31.54313" stroke="none" fill="#000000" fill-rule="nonzero" />
    <path id=""  transform="matrix(1 0 0 -1 0 151)"  d="M135.3239 16.264L132.9479 13.072L132.9479 13.072L135.4439 9.7L135.4439 9.7L134.1719 9.7L134.1719 9.7L132.2639 12.28L132.2639 12.28L130.3559 9.7L130.3559 9.7L129.0839 9.7L129.0839 9.7L131.6279 13.132L131.6279 13.132L129.2999 16.264L129.2999 16.264L130.5719 16.264L130.5719 16.264L132.3119 13.924L132.3119 13.924L134.0519 16.264L134.0519 16.264L135.3239 16.264" stroke="none" fill="#000000" fill-rule="nonzero" />
		<g clip-path="url(#7)" >
    <path id=""  transform="matrix(1 0 0 -1 0 151)"  d="M48.59063 40.93869L215.9906 40.93869" stroke="#B2B2B2" stroke-width="0.5" stroke-linejoin="round" stroke-dasharray="1.85000002384186,0.800000011920929" fill="none" />
		</g>
    <path id=""  transform="matrix(1 0 0 -1 0 151)"  d="M48.59063 40.93869L52.09063 40.93869" stroke="#000000" stroke-width="0.8" stroke-linejoin="miter" fill="#000000" fill-rule="nonzero" />
    <path id=""  transform="matrix(1 0 0 -1 0 151)"  d="M26.005 44.56182C 26.815 44.56182 27.435 44.23182 27.875 43.59182C 28.305 42.94182 28.525 42.00182 28.525 40.78182C 28.525 39.55182 28.305 38.61182 27.875 37.97182C 27.435 37.33182 26.815 37.01182 26.005 37.01182C 25.185 37.01182 24.555 37.33182 24.125 37.97182C 23.695 38.61182 23.485 39.55182 23.485 40.78182C 23.485 42.00182 23.695 42.94182 24.125 43.59182C 24.555 44.23182 25.185 44.56182 26.005 44.56182M26.005 43.78182C 25.495 43.78182 25.115 43.53182 24.855 43.03182C 24.595 42.53182 24.475 41.78182 24.475 40.78182C 24.475 39.78182 24.595 39.03182 24.855 38.53182C 25.115 38.03182 25.495 37.78182 26.005 37.78182C 26.515 37.78182 26.895 38.03182 27.155 38.53182C 27.405 39.03182 27.535 39.78182 27.535 40.78182C 27.535 41.78182 27.405 42.53182 27.155 43.03182C 26.895 43.53182 26.515 43.78182 26.005 43.78182" stroke="none" fill="#000000" fill-rule="nonzero" />
    <path id=""  transform="matrix(1 0 0 -1 0 151)"  d="M30.255 38.38182L31.285 38.38182L31.285 38.38182L31.285 37.14182L31.285 37.14182L30.255 37.14182L30.255 37.14182L30.255 38.38182" stroke="none" fill="#000000" fill-rule="nonzero" />
    <path id=""  transform="matrix(1 0 0 -1 0 151)"  d="M35.545 44.56182C 36.355 44.56182 36.975 44.23182 37.415 43.59182C 37.845 42.94182 38.065 42.00182 38.065 40.78182C 38.065 39.55182 37.845 38.61182 37.415 37.97182C 36.975 37.33182 36.355 37.01182 35.545 37.01182C 34.725 37.01182 34.095 37.33182 33.665 37.97182C 33.235 38.61182 33.025 39.55182 33.025 40.78182C 33.025 42.00182 33.235 42.94182 33.665 43.59182C 34.095 44.23182 34.725 44.56182 35.545 44.56182M35.545 43.78182C 35.035 43.78182 34.655 43.53182 34.395 43.03182C 34.135 42.53182 34.015 41.78182 34.015 40.78182C 34.015 39.78182 34.135 39.03182 34.395 38.53182C 34.655 38.03182 35.035 37.78182 35.545 37.78182C 36.055 37.78182 36.435 38.03182 36.695 38.53182C 36.945 39.03182 37.075 39.78182 37.075 40.78182C 37.075 41.78182 36.945 42.53182 36.695 43.03182C 36.435 43.53182 36.055 43.78182 35.545 43.78182" stroke="none" fill="#000000" fill-rule="nonzero" />
    <path id=""  transform="matrix(1 0 0 -1 0 151)"  d="M41.905 44.56182C 42.715 44.56182 43.335 44.23182 43.775 43.59182C 44.205 42.94182 44.425 42.00182 44.425 40.78182C 44.425 39.55182 44.205 38.61182 43.775 37.97182C 43.335 37.33182 42.715 37.01182 41.905 37.01182C 41.085 37.01182 40.455 37.33182 40.025 37.97182C 39.595 38.61182 39.385 39.55182 39.385 40.78182C 39.385 42.00182 39.595 42.94182 40.025 43.59182C 40.455 44.23182 41.085 44.56182 41.905 44.56182M41.905 43.78182C 41.395 43.78182 41.015 43.53182 40.755 43.03182C 40.495 42.53182 40.375 41.78182 40.375 40.78182C 40.375 39.78182 40.495 39.03182 40.755 38.53182C 41.015 38.03182 41.395 37.78182 41.905 37.78182C 42.415 37.78182 42.795 38.03182 43.055 38.53182C 43.305 39.03182 43.435 39.78182 43.435 40.78182C 43.435 41.78182 43.305 42.53182 43.055 43.03182C 42.795 43.53182 42.415 43.78182 41.905 43.78182" stroke="none" fill="#000000" fill-rule="nonzero" />
		<g clip-path="url(#8)" >
    <path id=""  transform="matrix(1 0 0 -1 0 151)"  d="M48.59063 65.64778L215.9906 65.64778" stroke="#B2B2B2" stroke-width="0.5" stroke-linejoin="round" stroke-dasharray="1.85000002384186,0.800000011920929" fill="none" />
		</g>
    <path id=""  transform="matrix(1 0 0 -1 0 151)"  d="M48.59063 65.64778L52.09063 65.64778" stroke="#000000" stroke-width="0.8" stroke-linejoin="miter" fill="#000000" fill-rule="nonzero" />
    <path id=""  transform="matrix(1 0 0 -1 0 151)"  d="M26.005 69.27091C 26.815 69.27091 27.435 68.94091 27.875 68.30091C 28.305 67.65091 28.525 66.71091 28.525 65.49091C 28.525 64.26091 28.305 63.32091 27.875 62.68091C 27.435 62.04091 26.815 61.72091 26.005 61.72091C 25.185 61.72091 24.555 62.04091 24.125 62.68091C 23.695 63.32091 23.485 64.26091 23.485 65.49091C 23.485 66.71091 23.695 67.65091 24.125 68.30091C 24.555 68.94091 25.185 69.27091 26.005 69.27091M26.005 68.49091C 25.495 68.49091 25.115 68.24091 24.855 67.74091C 24.595 67.24091 24.475 66.49091 24.475 65.49091C 24.475 64.49091 24.595 63.74091 24.855 63.24091C 25.115 62.74091 25.495 62.49091 26.005 62.49091C 26.515 62.49091 26.895 62.74091 27.155 63.24091C 27.405 63.74091 27.535 64.49091 27.535 65.49091C 27.535 66.49091 27.405 67.24091 27.155 67.74091C 26.895 68.24091 26.515 68.49091 26.005 68.49091" stroke="none" fill="#000000" fill-rule="nonzero" />
    <path id=""  transform="matrix(1 0 0 -1 0 151)"  d="M30.255 63.09091L31.285 63.09091L31.285 63.09091L31.285 61.85091L31.285 61.85091L30.255 61.85091L30.255 61.85091L30.255 63.09091" stroke="none" fill="#000000" fill-rule="nonzero" />
    <path id=""  transform="matrix(1 0 0 -1 0 151)"  d="M34.285 62.68091L37.725 62.68091L37.725 62.68091L37.725 61.85091L37.725 61.85091L33.095 61.85091L33.095 61.85091L33.095 62.68091C 33.465 63.06091 33.975 63.58091 34.625 64.24091C 35.265 64.89091 35.675 65.31091 35.845 65.50091C 36.165 65.85091 36.385 66.15091 36.505 66.40091C 36.625 66.64091 36.695 66.89091 36.695 67.13091C 36.695 67.51091 36.555 67.83091 36.285 68.07091C 36.015 68.31091 35.665 68.44091 35.225 68.44091C 34.915 68.44091 34.585 68.38091 34.245 68.28091C 33.905 68.17091 33.535 68.01091 33.145 67.79091L33.145 67.79091L33.145 68.79091C 33.545 68.95091 33.915 69.07091 34.255 69.15091C 34.595 69.23091 34.915 69.27091 35.205 69.27091C 35.955 69.27091 36.555 69.08091 37.005 68.70091C 37.455 68.32091 37.685 67.82091 37.685 67.19091C 37.685 66.89091 37.625 66.60091 37.515 66.34091C 37.405 66.07091 37.205 65.75091 36.905 65.39091C 36.825 65.29091 36.565 65.02091 36.125 64.57091C 35.685 64.12091 35.075 63.49091 34.285 62.68091" stroke="none" fill="#000000" fill-rule="nonzero" />
    <path id=""  transform="matrix(1 0 0 -1 0 151)"  d="M39.805 69.14091L43.675 69.14091L43.675 69.14091L43.675 68.31091L43.675 68.31091L40.705 68.31091L40.705 68.31091L40.705 66.52091C 40.845 66.57091 40.995 66.61091 41.135 66.63091C 41.275 66.65091 41.425 66.67091 41.565 66.67091C 42.375 66.67091 43.015 66.44091 43.495 66.00091C 43.975 65.55091 44.215 64.95091 44.215 64.19091C 44.215 63.40091 43.965 62.79091 43.475 62.36091C 42.985 61.93091 42.295 61.72091 41.415 61.72091C 41.105 61.72091 40.795 61.75091 40.475 61.79091C 40.155 61.84091 39.835 61.91091 39.495 62.02091L39.495 62.02091L39.495 63.01091C 39.785 62.85091 40.085 62.73091 40.405 62.65091C 40.715 62.57091 41.045 62.54091 41.395 62.54091C 41.955 62.54091 42.405 62.68091 42.735 62.98091C 43.055 63.28091 43.225 63.68091 43.225 64.19091C 43.225 64.69091 43.055 65.09091 42.735 65.39091C 42.405 65.69091 41.955 65.84091 41.395 65.84091C 41.135 65.84091 40.865 65.81091 40.605 65.75091C 40.345 65.69091 40.075 65.60091 39.805 65.48091L39.805 65.48091L39.805 69.14091" stroke="none" fill="#000000" fill-rule="nonzero" />
		<g clip-path="url(#9)" >
    <path id=""  transform="matrix(1 0 0 -1 0 151)"  d="M48.59063 90.35687L215.9906 90.35687" stroke="#B2B2B2" stroke-width="0.5" stroke-linejoin="round" stroke-dasharray="1.85000002384186,0.800000011920929" fill="none" />
		</g>
    <path id=""  transform="matrix(1 0 0 -1 0 151)"  d="M48.59063 90.35687L52.09063 90.35687" stroke="#000000" stroke-width="0.8" stroke-linejoin="miter" fill="#000000" fill-rule="nonzero" />
    <path id=""  transform="matrix(1 0 0 -1 0 151)"  d="M26.005 93.98C 26.815 93.98 27.435 93.65 27.875 93.00999C 28.305 92.36 28.525 91.42 28.525 90.2C 28.525 88.97 28.305 88.03 27.875 87.39C 27.435 86.75 26.815 86.43 26.005 86.43C 25.185 86.43 24.555 86.75 24.125 87.39C 23.695 88.03 23.485 88.97 23.485 90.2C 23.485 91.42 23.695 92.36 24.125 93.00999C 24.555 93.65 25.185 93.98 26.005 93.98M26.005 93.2C 25.495 93.2 25.115 92.95 24.855 92.45C 24.595 91.95 24.475 91.2 24.475 90.2C 24.475 89.2 24.595 88.45 24.855 87.95C 25.115 87.45 25.495 87.2 26.005 87.2C 26.515 87.2 26.895 87.45 27.155 87.95C 27.405 88.45 27.535 89.2 27.535 90.2C 27.535 91.2 27.405 91.95 27.155 92.45C 26.895 92.95 26.515 93.2 26.005 93.2" stroke="none" fill="#000000" fill-rule="nonzero" />
    <path id=""  transform="matrix(1 0 0 -1 0 151)"  d="M30.255 87.8L31.285 87.8L31.285 87.8L31.285 86.56L31.285 86.56L30.255 86.56L30.255 86.56L30.255 87.8" stroke="none" fill="#000000" fill-rule="nonzero" />
    <path id=""  transform="matrix(1 0 0 -1 0 151)"  d="M33.445 93.85L37.315 93.85L37.315 93.85L37.315 93.02L37.315 93.02L34.345 93.02L34.345 93.02L34.345 91.23C 34.485 91.28 34.635 91.32 34.775 91.34C 34.915 91.36 35.065 91.38 35.205 91.38C 36.015 91.38 36.655 91.14999 37.135 90.71C 37.615 90.25999 37.855 89.66 37.855 88.89999C 37.855 88.11 37.605 87.5 37.115 87.07C 36.625 86.64 35.935 86.43 35.055 86.43C 34.745 86.43 34.435 86.46 34.115 86.5C 33.795 86.55 33.475 86.62 33.135 86.73L33.135 86.73L33.135 87.72C 33.425 87.56 33.725 87.43999 34.045 87.36C 34.355 87.28 34.685 87.25 35.035 87.25C 35.595 87.25 36.045 87.39 36.375 87.68999C 36.695 87.99 36.865 88.39 36.865 88.89999C 36.865 89.39999 36.695 89.8 36.375 90.1C 36.045 90.39999 35.595 90.55 35.035 90.55C 34.775 90.55 34.505 90.52 34.245 90.46C 33.985 90.39999 33.715 90.31 33.445 90.18999L33.445 90.18999L33.445 93.85" stroke="none" fill="#000000" fill-rule="nonzero" />
    <path id=""  transform="matrix(1 0 0 -1 0 151)"  d="M41.905 93.98C 42.715 93.98 43.335 93.65 43.775 93.00999C 44.205 92.36 44.425 91.42 44.425 90.2C 44.425 88.97 44.205 88.03 43.775 87.39C 43.335 86.75 42.715 86.43 41.905 86.43C 41.085 86.43 40.455 86.75 40.025 87.39C 39.595 88.03 39.385 88.97 39.385 90.2C 39.385 91.42 39.595 92.36 40.025 93.00999C 40.455 93.65 41.085 93.98 41.905 93.98M41.905 93.2C 41.395 93.2 41.015 92.95 40.755 92.45C 40.495 91.95 40.375 91.2 40.375 90.2C 40.375 89.2 40.495 88.45 40.755 87.95C 41.015 87.45 41.395 87.2 41.905 87.2C 42.415 87.2 42.795 87.45 43.055 87.95C 43.305 88.45 43.435 89.2 43.435 90.2C 43.435 91.2 43.305 91.95 43.055 92.45C 42.795 92.95 42.415 93.2 41.905 93.2" stroke="none" fill="#000000" fill-rule="nonzero" />
		<g clip-path="url(#10)" >
    <path id=""  transform="matrix(1 0 0 -1 0 151)"  d="M48.59063 115.066L215.9906 115.066" stroke="#B2B2B2" stroke-width="0.5" stroke-linejoin="round" stroke-dasharray="1.85000002384186,0.800000011920929" fill="none" />
		</g>
    <path id=""  transform="matrix(1 0 0 -1 0 151)"  d="M48.59063 115.066L52.09063 115.066" stroke="#000000" stroke-width="0.8" stroke-linejoin="miter" fill="#000000" fill-rule="nonzero" />
    <path id=""  transform="matrix(1 0 0 -1 0 151)"  d="M26.005 118.6891C 26.815 118.6891 27.435 118.3591 27.875 117.7191C 28.305 117.0691 28.525 116.1291 28.525 114.9091C 28.525 113.6791 28.305 112.7391 27.875 112.0991C 27.435 111.4591 26.815 111.1391 26.005 111.1391C 25.185 111.1391 24.555 111.4591 24.125 112.0991C 23.695 112.7391 23.485 113.6791 23.485 114.9091C 23.485 116.1291 23.695 117.0691 24.125 117.7191C 24.555 118.3591 25.185 118.6891 26.005 118.6891M26.005 117.9091C 25.495 117.9091 25.115 117.6591 24.855 117.1591C 24.595 116.6591 24.475 115.9091 24.475 114.9091C 24.475 113.9091 24.595 113.1591 24.855 112.6591C 25.115 112.1591 25.495 111.9091 26.005 111.9091C 26.515 111.9091 26.895 112.1591 27.155 112.6591C 27.405 113.1591 27.535 113.9091 27.535 114.9091C 27.535 115.9091 27.405 116.6591 27.155 117.1591C 26.895 117.6591 26.515 117.9091 26.005 117.9091" stroke="none" fill="#000000" fill-rule="nonzero" />
    <path id=""  transform="matrix(1 0 0 -1 0 151)"  d="M30.255 112.5091L31.285 112.5091L31.285 112.5091L31.285 111.2691L31.285 111.2691L30.255 111.2691L30.255 111.2691L30.255 112.5091" stroke="none" fill="#000000" fill-rule="nonzero" />
    <path id=""  transform="matrix(1 0 0 -1 0 151)"  d="M33.185 118.5591L37.875 118.5591L37.875 118.5591L37.875 118.1391L37.875 118.1391L35.225 111.2691L35.225 111.2691L34.195 111.2691L34.195 111.2691L36.685 117.7291L36.685 117.7291L33.185 117.7291L33.185 117.7291L33.185 118.5591" stroke="none" fill="#000000" fill-rule="nonzero" />
    <path id=""  transform="matrix(1 0 0 -1 0 151)"  d="M39.805 118.5591L43.675 118.5591L43.675 118.5591L43.675 117.7291L43.675 117.7291L40.705 117.7291L40.705 117.7291L40.705 115.9391C 40.845 115.9891 40.995 116.0291 41.135 116.0491C 41.275 116.0691 41.425 116.0891 41.565 116.0891C 42.375 116.0891 43.015 115.8591 43.495 115.4191C 43.975 114.9691 44.215 114.3691 44.215 113.6091C 44.215 112.8191 43.965 112.2091 43.475 111.7791C 42.985 111.3491 42.295 111.1391 41.415 111.1391C 41.105 111.1391 40.795 111.1691 40.475 111.2091C 40.155 111.2591 39.835 111.3291 39.495 111.4391L39.495 111.4391L39.495 112.4291C 39.785 112.2691 40.085 112.1491 40.405 112.0691C 40.715 111.9891 41.045 111.9591 41.395 111.9591C 41.955 111.9591 42.405 112.0991 42.735 112.3991C 43.055 112.6991 43.225 113.0991 43.225 113.6091C 43.225 114.1091 43.055 114.5091 42.735 114.8091C 42.405 115.1091 41.955 115.2591 41.395 115.2591C 41.135 115.2591 40.865 115.2291 40.605 115.1691C 40.345 115.1091 40.075 115.0191 39.805 114.8991L39.805 114.8991L39.805 118.5591" stroke="none" fill="#000000" fill-rule="nonzero" />
		<g clip-path="url(#11)" >
    <path id=""  transform="matrix(1 0 0 -1 0 151)"  d="M48.59063 139.7751L215.9906 139.7751" stroke="#B2B2B2" stroke-width="0.5" stroke-linejoin="round" stroke-dasharray="1.85000002384186,0.800000011920929" fill="none" />
		</g>
    <path id=""  transform="matrix(1 0 0 -1 0 151)"  d="M48.59063 139.7751L52.09063 139.7751" stroke="#000000" stroke-width="0.8" stroke-linejoin="miter" fill="#000000" fill-rule="nonzero" />
    <path id=""  transform="matrix(1 0 0 -1 0 151)"  d="M24.065 136.8082L25.675 136.8082L25.675 136.8082L25.675 142.3682L25.675 142.3682L23.925 142.0182L23.925 142.0182L23.925 142.9182L23.925 142.9182L25.665 143.2682L25.665 143.2682L26.655 143.2682L26.655 143.2682L26.655 136.8082L26.655 136.8082L28.265 136.8082L28.265 136.8082L28.265 135.9782L28.265 135.9782L24.065 135.9782L24.065 135.9782L24.065 136.8082" stroke="none" fill="#000000" fill-rule="nonzero" />
    <path id=""  transform="matrix(1 0 0 -1 0 151)"  d="M30.255 137.2182L31.285 137.2182L31.285 137.2182L31.285 135.9782L31.285 135.9782L30.255 135.9782L30.255 135.9782L30.255 137.2182" stroke="none" fill="#000000" fill-rule="nonzero" />
    <path id=""  transform="matrix(1 0 0 -1 0 151)"  d="M35.545 143.3982C 36.355 143.3982 36.975 143.0682 37.415 142.4282C 37.845 141.7782 38.065 140.8382 38.065 139.6182C 38.065 138.3882 37.845 137.4482 37.415 136.8082C 36.975 136.1682 36.355 135.8482 35.545 135.8482C 34.725 135.8482 34.095 136.1682 33.665 136.8082C 33.235 137.4482 33.025 138.3882 33.025 139.6182C 33.025 140.8382 33.235 141.7782 33.665 142.4282C 34.095 143.0682 34.725 143.3982 35.545 143.3982M35.545 142.6182C 35.035 142.6182 34.655 142.3682 34.395 141.8682C 34.135 141.3682 34.015 140.6182 34.015 139.6182C 34.015 138.6182 34.135 137.8682 34.395 137.3682C 34.655 136.8682 35.035 136.6182 35.545 136.6182C 36.055 136.6182 36.435 136.8682 36.695 137.3682C 36.945 137.8682 37.075 138.6182 37.075 139.6182C 37.075 140.6182 36.945 141.3682 36.695 141.8682C 36.435 142.3682 36.055 142.6182 35.545 142.6182" stroke="none" fill="#000000" fill-rule="nonzero" />
    <path id=""  transform="matrix(1 0 0 -1 0 151)"  d="M41.905 143.3982C 42.715 143.3982 43.335 143.0682 43.775 142.4282C 44.205 141.7782 44.425 140.8382 44.425 139.6182C 44.425 138.3882 44.205 137.4482 43.775 136.8082C 43.335 136.1682 42.715 135.8482 41.905 135.8482C 41.085 135.8482 40.455 136.1682 40.025 136.8082C 39.595 137.4482 39.385 138.3882 39.385 139.6182C 39.385 140.8382 39.595 141.7782 40.025 142.4282C 40.455 143.0682 41.085 143.3982 41.905 143.3982M41.905 142.6182C 41.395 142.6182 41.015 142.3682 40.755 141.8682C 40.495 141.3682 40.375 140.6182 40.375 139.6182C 40.375 138.6182 40.495 137.8682 40.755 137.3682C 41.015 136.8682 41.395 136.6182 41.905 136.6182C 42.415 136.6182 42.795 136.8682 43.055 137.3682C 43.305 137.8682 43.435 138.6182 43.435 139.6182C 43.435 140.6182 43.305 141.3682 43.055 141.8682C 42.795 142.3682 42.415 142.6182 41.905 142.6182" stroke="none" fill="#000000" fill-rule="nonzero" />
    <path id=""  transform="matrix(1 0 0 -1 0 151)"  d="M9.605 90.28419L9.605 90.28419M13.733 87.57218L9.761001 87.57218L9.761001 87.57218L9.761001 88.65218L9.761001 88.65218L13.697 88.65218C 14.321 88.65218 14.777 88.77219 15.089 89.01218C 15.401 89.25218 15.557 89.61218 15.557 90.10419C 15.557 90.68018 15.377 91.14819 15.005 91.48418C 14.633 91.82018 14.129 91.98818 13.481 91.98818L13.481 91.98818L9.761001 91.98818L9.761001 91.98818L9.761001 93.06818L9.761001 93.06818L16.325 93.06818L16.325 93.06818L16.325 91.98818L16.325 91.98818L15.317 91.98818C 15.725 91.72418 16.013 91.41219 16.205 91.07619C 16.385 90.72819 16.481 90.33218 16.481 89.87618C 16.481 89.12019 16.253 88.54418 15.785 88.16019C 15.329 87.76418 14.645 87.57218 13.733 87.57218" stroke="none" fill="#000000" fill-rule="nonzero" />
		<g clip-path="url(#12)" >
    <path id=""  transform="matrix(1 0 0 -1 0 151)"  d="M56.19971 40.93869L57.72153 113.2919L57.72153 113.2919L59.24335 132.6789L59.24335 132.6789L60.76517 137.8737L60.76517 137.8737L62.28699 139.2656L62.28699 139.2656L63.80881 139.6385L63.80881 139.6385L65.33063 139.7385L65.33063 139.7385L66.85244 139.7653L66.85244 139.7653L68.37426 139.7724L68.37426 139.7724L69.89608 139.7744L69.89608 139.7744L71.4179 139.7749L71.4179 139.7749L72.93971 139.775L72.93971 139.775L74.46153 139.775L74.46153 139.775L75.98335 139.7751L75.98335 139.7751L77.50517 139.7751L77.50517 139.7751L79.02699 139.7751L79.02699 139.7751L80.54881 139.7751L80.54881 139.7751L82.07063 139.7751L82.07063 139.7751L83.59245 139.7751L83.59245 139.7751L85.11426 139.7751L85.11426 139.7751L86.63608 139.7751L86.63608 139.7751L88.1579 139.7751L88.1579 139.7751L89.67972 139.7751L89.67972 139.7751L91.20153 139.7751L91.20153 139.7751L92.72335 139.7751L92.72335 139.7751L94.24517 139.7751L94.24517 139.7751L95.76699 139.7751L95.76699 139.7751L97.28881 139.7751L97.28881 139.7751L98.81062 139.775L98.81062 139.775L100.3324 139.775L100.3324 139.775L101.8543 139.7749L101.8543 139.7749L103.3761 139.7745L103.3761 139.7745L104.8979 139.773L104.8979 139.773L106.4197 139.7673L106.4197 139.7673L107.9415 139.7462L107.9415 139.7462L109.4633 139.6674L109.4633 139.6674L110.9852 139.3732L110.9852 139.3732L112.507 138.2755L112.507 138.2755L114.0288 134.1785L114.0288 134.1785L115.5506 118.8885L115.5506 118.8885L117.0724 61.82528L117.0724 61.82528L118.5943 46.53524L118.5943 46.53524L120.1161 42.43828L120.1161 42.43828L121.6379 41.34051L121.6379 41.34051L123.1597 41.04636L123.1597 41.04636L124.6815 40.96754L124.6815 40.96754L126.2034 40.94642L126.2034 40.94642L127.7252 40.94077L127.7252 40.94077L129.247 40.93925L129.247 40.93925L130.7688 40.93885L130.7688 40.93885L132.2906 40.93877L132.2906 40.93877L133.8124 40.93885L133.8124 40.93885L135.3343 40.93925L135.3343 40.93925L136.8561 40.94077L136.8561 40.94077L138.3779 40.94642L138.3779 40.94642L139.8997 40.96754L139.8997 40.96754L141.4215 41.04636L141.4215 41.04636L142.9434 41.34051L142.9434 41.34051L144.4652 42.43828L144.4652 42.43828L145.987 46.53524L145.987 46.53524L147.5088 61.82528L147.5088 61.82528L149.0306 118.8885L149.0306 118.8885L150.5524 134.1785L150.5524 134.1785L152.0743 138.2755L152.0743 138.2755L153.5961 139.3732L153.5961 139.3732L155.1179 139.6674L155.1179 139.6674L156.6397 139.7462L156.6397 139.7462L158.1615 139.7673L158.1615 139.7673L159.6833 139.773L159.6833 139.773L161.2052 139.7745L161.2052 139.7745L162.727 139.7749L162.727 139.7749L164.2488 139.775L164.2488 139.775L165.7706 139.775L165.7706 139.775L167.2924 139.7751L167.2924 139.7751L168.8143 139.7751L168.8143 139.7751L170.3361 139.7751L170.3361 139.7751L171.8579 139.7751L171.8579 139.7751L173.3797 139.7751L173.3797 139.7751L174.9015 139.7751L174.9015 139.7751L176.4234 139.7751L176.4234 139.7751L177.9452 139.7751L177.9452 139.7751L179.467 139.7751L179.467 139.7751L180.9888 139.7751L180.9888 139.7751L182.5106 139.7751L182.5106 139.7751L184.0324 139.7751L184.0324 139.7751L185.5543 139.7751L185.5543 139.7751L187.0761 139.7751L187.0761 139.7751L188.5979 139.7751L188.5979 139.7751L190.1197 139.775L190.1197 139.775L191.6415 139.775L191.6415 139.775L193.1633 139.7749L193.1633 139.7749L194.6852 139.7744L194.6852 139.7744L196.207 139.7724L196.207 139.7724L197.7288 139.7653L197.7288 139.7653L199.2506 139.7385L199.2506 139.7385L200.7724 139.6385L200.7724 139.6385L202.2943 139.2656L202.2943 139.2656L203.8161 137.8737L203.8161 137.8737L205.3379 132.6789L205.3379 132.6789L206.8597 113.2919L206.8597 113.2919L208.3815 40.93869" stroke="#348ABD" stroke-width="2" stroke-linecap="square" stroke-linejoin="round" fill="none" />
		</g>
		<g clip-path="url(#13)" >
    <path id=""  transform="matrix(1 0 0 -1 0 151)"  d="M56.19971 40.93869L57.72153 45.7013L57.72153 45.7013L59.24335 50.43956L59.24335 50.43956L60.76517 55.12937L60.76517 55.12937L62.28699 59.74707L62.28699 59.74707L63.80881 64.26971L63.80881 64.26971L65.33063 68.67517L65.33063 68.67517L66.85244 72.94249L66.85244 72.94249L68.37426 77.05193L68.37426 77.05193L69.89608 80.98517L69.89608 80.98517L71.4179 84.72549L71.4179 84.72549L72.93971 88.25787L72.93971 88.25787L74.46153 91.56901L74.46153 91.56901L75.98335 94.64754L75.98335 94.64754L77.50517 97.484L77.50517 97.484L79.02699 100.0709L79.02699 100.0709L80.54881 102.4026L80.54881 102.4026L82.07063 104.4756L82.07063 104.4756L83.59245 106.2883L83.59245 106.2883L85.11426 107.841L85.11426 107.841L86.63608 109.1359L86.63608 109.1359L88.1579 110.177L88.1579 110.177L89.67972 110.9701L89.67972 110.9701L91.20153 111.5226L91.20153 111.5226L92.72335 111.8437L92.72335 111.8437L94.24517 111.944L94.24517 111.944L95.76699 111.8354L95.76699 111.8354L97.28881 111.5315L97.28881 111.5315L98.81062 111.0468L98.81062 111.0468L100.3324 110.397L100.3324 110.397L101.8543 109.5988L101.8543 109.5988L103.3761 108.67L103.3761 108.67L104.8979 107.6288L104.8979 107.6288L106.4197 106.4941L106.4197 106.4941L107.9415 105.2853L107.9415 105.2853L109.4633 104.0222L109.4633 104.0222L110.9852 102.7243L110.9852 102.7243L112.507 101.4115L112.507 101.4115L114.0288 100.1031L114.0288 100.1031L115.5506 98.81821L115.5506 98.81821L117.0724 97.57518L117.0724 97.57518L118.5943 96.39158L118.5943 96.39158L120.1161 95.28399L120.1161 95.28399L121.6379 94.26779L121.6379 94.26779L123.1597 93.35703L123.1597 93.35703L124.6815 92.56424L124.6815 92.56424L126.2034 91.90028L126.2034 91.90028L127.7252 91.37424L127.7252 91.37424L129.247 90.99329L129.247 90.99329L130.7688 90.76263L130.7688 90.76263L132.2906 90.68539L132.2906 90.68539L133.8124 90.76263L133.8124 90.76263L135.3343 90.99329L135.3343 90.99329L136.8561 91.37424L136.8561 91.37424L138.3779 91.90028L138.3779 91.90028L139.8997 92.56424L139.8997 92.56424L141.4215 93.35703L141.4215 93.35703L142.9434 94.26779L142.9434 94.26779L144.4652 95.28399L144.4652 95.28399L145.987 96.39158L145.987 96.39158L147.5088 97.57518L147.5088 97.57518L149.0306 98.81821L149.0306 98.81821L150.5524 100.1031L150.5524 100.1031L152.0743 101.4115L152.0743 101.4115L153.5961 102.7243L153.5961 102.7243L155.1179 104.0222L155.1179 104.0222L156.6397 105.2853L156.6397 105.2853L158.1615 106.4941L158.1615 106.4941L159.6833 107.6288L159.6833 107.6288L161.2052 108.67L161.2052 108.67L162.727 109.5988L162.727 109.5988L164.2488 110.397L164.2488 110.397L165.7706 111.0468L165.7706 111.0468L167.2924 111.5315L167.2924 111.5315L168.8143 111.8354L168.8143 111.8354L170.3361 111.944L170.3361 111.944L171.8579 111.8437L171.8579 111.8437L173.3797 111.5226L173.3797 111.5226L174.9015 110.9701L174.9015 110.9701L176.4234 110.177L176.4234 110.177L177.9452 109.1359L177.9452 109.1359L179.467 107.841L179.467 107.841L180.9888 106.2883L180.9888 106.2883L182.5106 104.4756L182.5106 104.4756L184.0324 102.4026L184.0324 102.4026L185.5543 100.0709L185.5543 100.0709L187.0761 97.484L187.0761 97.484L188.5979 94.64754L188.5979 94.64754L190.1197 91.56901L190.1197 91.56901L191.6415 88.25787L191.6415 88.25787L193.1633 84.72549L193.1633 84.72549L194.6852 80.98517L194.6852 80.98517L196.207 77.05193L196.207 77.05193L197.7288 72.94249L197.7288 72.94249L199.2506 68.67517L199.2506 68.67517L200.7724 64.26971L200.7724 64.26971L202.2943 59.74707L202.2943 59.74707L203.8161 55.12937L203.8161 55.12937L205.3379 50.43956L205.3379 50.43956L206.8597 45.7013L206.8597 45.7013L208.3815 40.93869" stroke="#A60628" stroke-width="2" stroke-linecap="square" stroke-linejoin="round" fill="none" />
		</g>
		<g clip-path="url(#14)" >
    <path id=""  transform="matrix(1 0 0 -1 0 151)"  d="M56.19971 40.93869L57.72153 43.81372L57.72153 43.81372L59.24335 46.6797L59.24335 46.6797L60.76517 49.52763L60.76517 49.52763L62.28699 52.34864L62.28699 52.34864L63.80881 55.13407L63.80881 55.13407L65.33063 57.87548L65.33063 57.87548L66.85244 60.56477L66.85244 60.56477L68.37426 63.1942L68.37426 63.1942L69.89608 65.75642L69.89608 65.75642L71.4179 68.24459L71.4179 68.24459L72.93971 70.65236L72.93971 70.65236L74.46153 72.97393L74.46153 72.97393L75.98335 75.20411L75.98335 75.20411L77.50517 77.33831L77.50517 77.33831L79.02699 79.3726L79.02699 79.3726L80.54881 81.30371L80.54881 81.30371L82.07063 83.12905L82.07063 83.12905L83.59245 84.84673L83.59245 84.84673L85.11426 86.45554L85.11426 86.45554L86.63608 87.95498L86.63608 87.95498L88.1579 89.34518L88.1579 89.34518L89.67972 90.627L89.67972 90.627L91.20153 91.8019L91.20153 91.8019L92.72335 92.87197L92.72335 92.87197L94.24517 93.83989L94.24517 93.83989L95.76699 94.7089L95.76699 94.7089L97.28881 95.48274L97.28881 95.48274L98.81062 96.16562L98.81062 96.16562L100.3324 96.76218L100.3324 96.76218L101.8543 97.2774L101.8543 97.2774L103.3761 97.7166L103.3761 97.7166L104.8979 98.08536L104.8979 98.08536L106.4197 98.38943L106.4197 98.38943L107.9415 98.63473L107.9415 98.63473L109.4633 98.82722L109.4633 98.82722L110.9852 98.97291L110.9852 98.97291L112.507 99.07774L112.507 99.07774L114.0288 99.14757L114.0288 99.14757L115.5506 99.18807L115.5506 99.18807L117.0724 99.20471L117.0724 99.20471L118.5943 99.20268L118.5943 99.20268L120.1161 99.18683L120.1161 99.18683L121.6379 99.16165L121.6379 99.16165L123.1597 99.13122L123.1597 99.13122L124.6815 99.09914L124.6815 99.09914L126.2034 99.06853L126.2034 99.06853L127.7252 99.04198L127.7252 99.04198L129.247 99.02154L129.247 99.02154L130.7688 99.00868L130.7688 99.00868L132.2906 99.0043L132.2906 99.0043L133.8124 99.00868L133.8124 99.00868L135.3343 99.02154L135.3343 99.02154L136.8561 99.04198L136.8561 99.04198L138.3779 99.06853L138.3779 99.06853L139.8997 99.09914L139.8997 99.09914L141.4215 99.13122L141.4215 99.13122L142.9434 99.16165L142.9434 99.16165L144.4652 99.18683L144.4652 99.18683L145.987 99.20268L145.987 99.20268L147.5088 99.20471L147.5088 99.20471L149.0306 99.18807L149.0306 99.18807L150.5524 99.14757L150.5524 99.14757L152.0743 99.07774L152.0743 99.07774L153.5961 98.97291L153.5961 98.97291L155.1179 98.82722L155.1179 98.82722L156.6397 98.63473L156.6397 98.63473L158.1615 98.38943L158.1615 98.38943L159.6833 98.08536L159.6833 98.08536L161.2052 97.7166L161.2052 97.7166L162.727 97.2774L162.727 97.2774L164.2488 96.76218L164.2488 96.76218L165.7706 96.16562L165.7706 96.16562L167.2924 95.48274L167.2924 95.48274L168.8143 94.7089L168.8143 94.7089L170.3361 93.83989L170.3361 93.83989L171.8579 92.87197L171.8579 92.87197L173.3797 91.8019L173.3797 91.8019L174.9015 90.627L174.9015 90.627L176.4234 89.34518L176.4234 89.34518L177.9452 87.95498L177.9452 87.95498L179.467 86.45554L179.467 86.45554L180.9888 84.84673L180.9888 84.84673L182.5106 83.12905L182.5106 83.12905L184.0324 81.30371L184.0324 81.30371L185.5543 79.3726L185.5543 79.3726L187.0761 77.33831L187.0761 77.33831L188.5979 75.20411L188.5979 75.20411L190.1197 72.97393L190.1197 72.97393L191.6415 70.65236L191.6415 70.65236L193.1633 68.24459L193.1633 68.24459L194.6852 65.75642L194.6852 65.75642L196.207 63.1942L196.207 63.1942L197.7288 60.56477L197.7288 60.56477L199.2506 57.87548L199.2506 57.87548L200.7724 55.13407L200.7724 55.13407L202.2943 52.34864L202.2943 52.34864L203.8161 49.52763L203.8161 49.52763L205.3379 46.6797L205.3379 46.6797L206.8597 43.81372L206.8597 43.81372L208.3815 40.93869" stroke="#7A68A6" stroke-width="2" stroke-linecap="square" stroke-linejoin="round" fill="none" />
		</g>
		<g clip-path="url(#15)" >
    <path id=""  transform="matrix(1 0 0 -1 0 151)"  d="M56.19971 40.93869L57.72153 43.04396L57.72153 43.04396L59.24335 45.14509L59.24335 45.14509L60.76517 47.23798L60.76517 47.23798L62.28699 49.31855L62.28699 49.31855L63.80881 51.38282L63.80881 51.38282L65.33063 53.42687L65.33063 53.42687L66.85244 55.4469L66.85244 55.4469L68.37426 57.43922L68.37426 57.43922L69.89608 59.40031L69.89608 59.40031L71.4179 61.32681L71.4179 61.32681L72.93971 63.21551L72.93971 63.21551L74.46153 65.06344L74.46153 65.06344L75.98335 66.8678L75.98335 66.8678L77.50517 68.62602L77.50517 68.62602L79.02699 70.33578L79.02699 70.33578L80.54881 71.99495L80.54881 71.99495L82.07063 73.60168L82.07063 73.60168L83.59245 75.15435L83.59245 75.15435L85.11426 76.65159L85.11426 76.65159L86.63608 78.09228L86.63608 78.09228L88.1579 79.47553L88.1579 79.47553L89.67972 80.80071L89.67972 80.80071L91.20153 82.06741L91.20153 82.06741L92.72335 83.27547L92.72335 83.27547L94.24517 84.42493L94.24517 84.42493L95.76699 85.51602L95.76699 85.51602L97.28881 86.5492L97.28881 86.5492L98.81062 87.5251L98.81062 87.5251L100.3324 88.4445L100.3324 88.4445L101.8543 89.30835L101.8543 89.30835L103.3761 90.11771L103.3761 90.11771L104.8979 90.87378L104.8979 90.87378L106.4197 91.57784L106.4197 91.57784L107.9415 92.23122L107.9415 92.23122L109.4633 92.83537L109.4633 92.83537L110.9852 93.39171L110.9852 93.39171L112.507 93.90172L112.507 93.90172L114.0288 94.36685L114.0288 94.36685L115.5506 94.78856L115.5506 94.78856L117.0724 95.16824L117.0724 95.16824L118.5943 95.50723L118.5943 95.50723L120.1161 95.80682L120.1161 95.80682L121.6379 96.06817L121.6379 96.06817L123.1597 96.29237L123.1597 96.29237L124.6815 96.48038L124.6815 96.48038L126.2034 96.63303L126.2034 96.63303L127.7252 96.75103L127.7252 96.75103L129.247 96.83492L129.247 96.83492L130.7688 96.88508L130.7688 96.88508L132.2906 96.90178L132.2906 96.90178L133.8124 96.88508L133.8124 96.88508L135.3343 96.83492L135.3343 96.83492L136.8561 96.75103L136.8561 96.75103L138.3779 96.63303L138.3779 96.63303L139.8997 96.48038L139.8997 96.48038L141.4215 96.29237L141.4215 96.29237L142.9434 96.06817L142.9434 96.06817L144.4652 95.80682L144.4652 95.80682L145.987 95.50723L145.987 95.50723L147.5088 95.16824L147.5088 95.16824L149.0306 94.78856L149.0306 94.78856L150.5524 94.36685L150.5524 94.36685L152.0743 93.90172L152.0743 93.90172L153.5961 93.39171L153.5961 93.39171L155.1179 92.83537L155.1179 92.83537L156.6397 92.23122L156.6397 92.23122L158.1615 91.57784L158.1615 91.57784L159.6833 90.87378L159.6833 90.87378L161.2052 90.11771L161.2052 90.11771L162.727 89.30835L162.727 89.30835L164.2488 88.4445L164.2488 88.4445L165.7706 87.5251L165.7706 87.5251L167.2924 86.5492L167.2924 86.5492L168.8143 85.51602L168.8143 85.51602L170.3361 84.42493L170.3361 84.42493L171.8579 83.27547L171.8579 83.27547L173.3797 82.06741L173.3797 82.06741L174.9015 80.80071L174.9015 80.80071L176.4234 79.47553L176.4234 79.47553L177.9452 78.09228L177.9452 78.09228L179.467 76.65159L179.467 76.65159L180.9888 75.15435L180.9888 75.15435L182.5106 73.60168L182.5106 73.60168L184.0324 71.99495L184.0324 71.99495L185.5543 70.33578L185.5543 70.33578L187.0761 68.62602L187.0761 68.62602L188.5979 66.8678L188.5979 66.8678L190.1197 65.06344L190.1197 65.06344L191.6415 63.21551L191.6415 63.21551L193.1633 61.32681L193.1633 61.32681L194.6852 59.40031L194.6852 59.40031L196.207 57.43922L196.207 57.43922L197.7288 55.4469L197.7288 55.4469L199.2506 53.42687L199.2506 53.42687L200.7724 51.38282L200.7724 51.38282L202.2943 49.31855L202.2943 49.31855L203.8161 47.23798L203.8161 47.23798L205.3379 45.14509L205.3379 45.14509L206.8597 43.04396L206.8597 43.04396L208.3815 40.93869" stroke="#467821" stroke-width="2" stroke-linecap="square" stroke-linejoin="round" fill="none" />
		</g>
		<g clip-path="url(#16)" >
    <path id=""  transform="matrix(1 0 0 -1 0 151)"  d="M56.19971 40.93869L57.72153 42.65553L57.72153 42.65553L59.24335 44.36999L59.24335 44.36999L60.76517 46.07971L60.76517 46.07971L62.28699 47.78234L62.28699 47.78234L63.80881 49.47557L63.80881 49.47557L65.33063 51.15709L65.33063 51.15709L66.85244 52.82466L66.85244 52.82466L68.37426 54.47608L68.37426 54.47608L69.89608 56.1092L69.89608 56.1092L71.4179 57.72193L71.4179 57.72193L72.93971 59.31226L72.93971 59.31226L74.46153 60.87824L74.46153 60.87824L75.98335 62.41802L75.98335 62.41802L77.50517 63.92981L77.50517 63.92981L79.02699 65.41191L79.02699 65.41191L80.54881 66.86274L80.54881 66.86274L82.07063 68.28078L82.07063 68.28078L83.59245 69.66462L83.59245 69.66462L85.11426 71.01295L85.11426 71.01295L86.63608 72.32456L86.63608 72.32456L88.1579 73.59833L88.1579 73.59833L89.67972 74.83324L89.67972 74.83324L91.20153 76.02838L91.20153 76.02838L92.72335 77.18292L92.72335 77.18292L94.24517 78.29613L94.24517 78.29613L95.76699 79.36738L95.76699 79.36738L97.28881 80.3961L97.28881 80.3961L98.81062 81.38181L98.81062 81.38181L100.3324 82.32414L100.3324 82.32414L101.8543 83.22276L101.8543 83.22276L103.3761 84.07742L103.3761 84.07742L104.8979 84.88794L104.8979 84.88794L106.4197 85.65417L106.4197 85.65417L107.9415 86.37606L107.9415 86.37606L109.4633 87.05355L109.4633 87.05355L110.9852 87.68666L110.9852 87.68666L112.507 88.27544L112.507 88.27544L114.0288 88.81994L114.0288 88.81994L115.5506 89.32026L115.5506 89.32026L117.0724 89.77651L117.0724 89.77651L118.5943 90.1888L118.5943 90.1888L120.1161 90.55727L120.1161 90.55727L121.6379 90.88203L121.6379 90.88203L123.1597 91.1632L123.1597 91.1632L124.6815 91.4009L124.6815 91.4009L126.2034 91.59523L126.2034 91.59523L127.7252 91.74628L127.7252 91.74628L129.247 91.85413L129.247 91.85413L130.7688 91.91881L130.7688 91.91881L132.2906 91.94037L132.2906 91.94037L133.8124 91.91881L133.8124 91.91881L135.3343 91.85413L135.3343 91.85413L136.8561 91.74628L136.8561 91.74628L138.3779 91.59523L138.3779 91.59523L139.8997 91.4009L139.8997 91.4009L141.4215 91.1632L141.4215 91.1632L142.9434 90.88203L142.9434 90.88203L144.4652 90.55727L144.4652 90.55727L145.987 90.1888L145.987 90.1888L147.5088 89.77651L147.5088 89.77651L149.0306 89.32026L149.0306 89.32026L150.5524 88.81994L150.5524 88.81994L152.0743 88.27544L152.0743 88.27544L153.5961 87.68666L153.5961 87.68666L155.1179 87.05355L155.1179 87.05355L156.6397 86.37606L156.6397 86.37606L158.1615 85.65417L158.1615 85.65417L159.6833 84.88794L159.6833 84.88794L161.2052 84.07742L161.2052 84.07742L162.727 83.22276L162.727 83.22276L164.2488 82.32414L164.2488 82.32414L165.7706 81.38181L165.7706 81.38181L167.2924 80.3961L167.2924 80.3961L168.8143 79.36738L168.8143 79.36738L170.3361 78.29613L170.3361 78.29613L171.8579 77.18292L171.8579 77.18292L173.3797 76.02838L173.3797 76.02838L174.9015 74.83324L174.9015 74.83324L176.4234 73.59833L176.4234 73.59833L177.9452 72.32456L177.9452 72.32456L179.467 71.01295L179.467 71.01295L180.9888 69.66462L180.9888 69.66462L182.5106 68.28078L182.5106 68.28078L184.0324 66.86274L184.0324 66.86274L185.5543 65.41191L185.5543 65.41191L187.0761 63.92981L187.0761 63.92981L188.5979 62.41802L188.5979 62.41802L190.1197 60.87824L190.1197 60.87824L191.6415 59.31226L191.6415 59.31226L193.1633 57.72193L193.1633 57.72193L194.6852 56.1092L194.6852 56.1092L196.207 54.47608L196.207 54.47608L197.7288 52.82466L197.7288 52.82466L199.2506 51.15709L199.2506 51.15709L200.7724 49.47557L200.7724 49.47557L202.2943 47.78234L202.2943 47.78234L203.8161 46.07971L203.8161 46.07971L205.3379 44.36999L205.3379 44.36999L206.8597 42.65553L206.8597 42.65553L208.3815 40.93869" stroke="#D55E00" stroke-width="2" stroke-linecap="square" stroke-linejoin="round" fill="none" />
		</g>
    <path id=""  transform="matrix(1 0 0 -1 0 151)"  d="M48.59063 35.99688L48.59063 144.7169" stroke="#BCBCBC" stroke-width="0.8" stroke-linecap="square" stroke-linejoin="miter" fill="none" />
    <path id=""  transform="matrix(1 0 0 -1 0 151)"  d="M215.9906 35.99688L215.9906 144.7169" stroke="#BCBCBC" stroke-width="0.8" stroke-linecap="square" stroke-linejoin="miter" fill="none" />
    <path id=""  transform="matrix(1 0 0 -1 0 151)"  d="M48.59063 35.99688L215.9906 35.99688" stroke="#BCBCBC" stroke-width="0.8" stroke-linecap="square" stroke-linejoin="miter" fill="none" />
    <path id=""  transform="matrix(1 0 0 -1 0 151)"  d="M48.59063 144.7169L215.9906 144.7169" stroke="#BCBCBC" stroke-width="0.8" stroke-linecap="square" stroke-linejoin="miter" fill="none" />
    <path id=""  transform="matrix(1 0 0 -1 0 151)"  d="M222.9906 52.17719L289.5531 52.17719C 290.8864 52.17719 291.5531 52.84385 291.5531 54.17719L291.5531 54.17719L291.5531 126.5366C 291.5531 127.8699 290.8864 128.5366 289.5531 128.5366L289.5531 128.5366L222.9906 128.5366C 221.6573 128.5366 220.9906 127.8699 220.9906 126.5366L220.9906 126.5366L220.9906 54.17719C 220.9906 52.84385 221.6573 52.17719 222.9906 52.17719z" stroke="#CCCCCC" stroke-width="0.5" stroke-linejoin="miter" fill="#EEEEEE" fill-rule="nonzero" fill-opacity="0.8" />
    <path id=""  transform="matrix(1 0 0 -1 0 151)"  d="M224.9906 120.4428L244.9906 120.4428" stroke="#348ABD" stroke-width="2" stroke-linecap="square" stroke-linejoin="round" fill="none" />
    <path id=""  transform="matrix(1 0 0 -1 0 151)"  d="M254.8206 123.9628L254.8206 122.4128L254.8206 122.4128L256.6706 122.4128L256.6706 122.4128L256.6706 121.7128L256.6706 121.7128L254.8206 121.7128L254.8206 121.7128L254.8206 118.7428C 254.8206 118.2928 254.8806 118.0028 255.0006 117.8828C 255.1206 117.7528 255.3706 117.6928 255.7506 117.6928L255.7506 117.6928L256.6706 117.6928L256.6706 117.6928L256.6706 116.9428L256.6706 116.9428L255.7506 116.9428C 255.0506 116.9428 254.5706 117.0728 254.3106 117.3328C 254.0506 117.5928 253.9206 118.0628 253.9206 118.7428L253.9206 118.7428L253.9206 121.7128L253.9206 121.7128L253.2606 121.7128L253.2606 121.7128L253.2606 122.4128L253.2606 122.4128L253.9206 122.4128L253.9206 122.4128L253.9206 123.9628L253.9206 123.9628L254.8206 123.9628" stroke="none" fill="#000000" fill-rule="nonzero" />
    <path id=""  transform="matrix(1 0 0 -1 0 151)"  d="M257.9706 119.4928L264.2307 119.4928L264.2307 119.4928L264.2307 118.6628L264.2307 118.6628L257.9706 118.6628L257.9706 118.6628L257.9706 119.4928M257.9706 121.4828L264.2307 121.4828L264.2307 121.4828L264.2307 120.6628L264.2307 120.6628L257.9706 120.6628L257.9706 120.6628L257.9706 121.4828" stroke="none" fill="#000000" fill-rule="nonzero" />
    <path id=""  transform="matrix(1 0 0 -1 0 151)"  d="M268.4706 124.3628C 269.2806 124.3628 269.9006 124.0328 270.3406 123.3928C 270.7707 122.7428 270.9907 121.8028 270.9907 120.5828C 270.9907 119.3528 270.7707 118.4128 270.3406 117.7728C 269.9006 117.1328 269.2806 116.8128 268.4706 116.8128C 267.6506 116.8128 267.0207 117.1328 266.5906 117.7728C 266.1606 118.4128 265.9507 119.3528 265.9507 120.5828C 265.9507 121.8028 266.1606 122.7428 266.5906 123.3928C 267.0207 124.0328 267.6506 124.3628 268.4706 124.3628M268.4706 123.5828C 267.9607 123.5828 267.5807 123.3328 267.3206 122.8328C 267.0606 122.3328 266.9406 121.5828 266.9406 120.5828C 266.9406 119.5828 267.0606 118.8328 267.3206 118.3328C 267.5807 117.8328 267.9607 117.5828 268.4706 117.5828C 268.9807 117.5828 269.3607 117.8328 269.6206 118.3328C 269.8706 118.8328 270.0006 119.5828 270.0006 120.5828C 270.0006 121.5828 269.8706 122.3328 269.6206 122.8328C 269.3607 123.3328 268.9807 123.5828 268.4706 123.5828" stroke="none" fill="#000000" fill-rule="nonzero" />
    <path id=""  transform="matrix(1 0 0 -1 0 151)"  d="M272.7206 118.1828L273.7506 118.1828L273.7506 118.1828L273.7506 116.9428L273.7506 116.9428L272.7206 116.9428L272.7206 116.9428L272.7206 118.1828" stroke="none" fill="#000000" fill-rule="nonzero" />
    <path id=""  transform="matrix(1 0 0 -1 0 151)"  d="M278.0106 124.3628C 278.8206 124.3628 279.4406 124.0328 279.8806 123.3928C 280.3106 122.7428 280.5306 121.8028 280.5306 120.5828C 280.5306 119.3528 280.3106 118.4128 279.8806 117.7728C 279.4406 117.1328 278.8206 116.8128 278.0106 116.8128C 277.1906 116.8128 276.5606 117.1328 276.1306 117.7728C 275.7006 118.4128 275.4906 119.3528 275.4906 120.5828C 275.4906 121.8028 275.7006 122.7428 276.1306 123.3928C 276.5606 124.0328 277.1906 124.3628 278.0106 124.3628M278.0106 123.5828C 277.5006 123.5828 277.1206 123.3328 276.8606 122.8328C 276.6006 122.3328 276.4806 121.5828 276.4806 120.5828C 276.4806 119.5828 276.6006 118.8328 276.8606 118.3328C 277.1206 117.8328 277.5006 117.5828 278.0106 117.5828C 278.5206 117.5828 278.9006 117.8328 279.1606 118.3328C 279.4106 118.8328 279.5406 119.5828 279.5406 120.5828C 279.5406 121.5828 279.4106 122.3328 279.1606 122.8328C 278.9006 123.3328 278.5206 123.5828 278.0106 123.5828" stroke="none" fill="#000000" fill-rule="nonzero" />
    <path id=""  transform="matrix(1 0 0 -1 0 151)"  d="M224.9906 105.7709L244.9906 105.7709" stroke="#A60628" stroke-width="2" stroke-linecap="square" stroke-linejoin="round" fill="none" />
    <path id=""  transform="matrix(1 0 0 -1 0 151)"  d="M254.8206 109.2909L254.8206 107.7409L254.8206 107.7409L256.6706 107.7409L256.6706 107.7409L256.6706 107.0409L256.6706 107.0409L254.8206 107.0409L254.8206 107.0409L254.8206 104.0709C 254.8206 103.6209 254.8806 103.3309 255.0006 103.2109C 255.1206 103.0809 255.3706 103.0209 255.7506 103.0209L255.7506 103.0209L256.6706 103.0209L256.6706 103.0209L256.6706 102.2709L256.6706 102.2709L255.7506 102.2709C 255.0506 102.2709 254.5706 102.4009 254.3106 102.6609C 254.0506 102.9209 253.9206 103.3909 253.9206 104.0709L253.9206 104.0709L253.9206 107.0409L253.9206 107.0409L253.2606 107.0409L253.2606 107.0409L253.2606 107.7409L253.2606 107.7409L253.9206 107.7409L253.9206 107.7409L253.9206 109.2909L253.9206 109.2909L254.8206 109.2909" stroke="none" fill="#000000" fill-rule="nonzero" />
    <path id=""  transform="matrix(1 0 0 -1 0 151)"  d="M257.9706 104.8209L264.2307 104.8209L264.2307 104.8209L264.2307 103.9909L264.2307 103.9909L257.9706 103.9909L257.9706 103.9909L257.9706 104.8209M257.9706 106.8109L264.2307 106.8109L264.2307 106.8109L264.2307 105.9909L264.2307 105.9909L257.9706 105.9909L257.9706 105.9909L257.9706 106.8109" stroke="none" fill="#000000" fill-rule="nonzero" />
    <path id=""  transform="matrix(1 0 0 -1 0 151)"  d="M267.2107 103.1009L270.6506 103.1009L270.6506 103.1009L270.6506 102.2709L270.6506 102.2709L266.0207 102.2709L266.0207 102.2709L266.0207 103.1009C 266.3907 103.4809 266.9006 104.0009 267.5507 104.6609C 268.1906 105.3109 268.6006 105.7309 268.7707 105.9209C 269.0906 106.2709 269.3106 106.5709 269.4307 106.8209C 269.5507 107.0609 269.6206 107.3109 269.6206 107.5509C 269.6206 107.9309 269.4807 108.2509 269.2107 108.4909C 268.9406 108.7309 268.5906 108.8609 268.1506 108.8609C 267.8406 108.8609 267.5107 108.8009 267.1707 108.7009C 266.8307 108.5909 266.4607 108.4309 266.0706 108.2109L266.0706 108.2109L266.0706 109.2109C 266.4706 109.3709 266.8406 109.4909 267.1807 109.5709C 267.5207 109.6509 267.8406 109.6909 268.1306 109.6909C 268.8806 109.6909 269.4807 109.5009 269.9307 109.1209C 270.3806 108.7409 270.6107 108.2409 270.6107 107.6109C 270.6107 107.3109 270.5507 107.0209 270.4406 106.7609C 270.3307 106.4909 270.1306 106.1709 269.8307 105.8109C 269.7506 105.7109 269.4907 105.4409 269.0507 104.9909C 268.6107 104.5409 268.0006 103.9109 267.2107 103.1009" stroke="none" fill="#000000" fill-rule="nonzero" />
    <path id=""  transform="matrix(1 0 0 -1 0 151)"  d="M272.7206 103.5109L273.7506 103.5109L273.7506 103.5109L273.7506 102.2709L273.7506 102.2709L272.7206 102.2709L272.7206 102.2709L272.7206 103.5109" stroke="none" fill="#000000" fill-rule="nonzero" />
    <path id=""  transform="matrix(1 0 0 -1 0 151)"  d="M275.9106 109.5609L279.7806 109.5609L279.7806 109.5609L279.7806 108.7309L279.7806 108.7309L276.8106 108.7309L276.8106 108.7309L276.8106 106.9409C 276.9506 106.9909 277.1006 107.0309 277.2406 107.0509C 277.3806 107.0709 277.5306 107.0909 277.6706 107.0909C 278.4806 107.0909 279.1206 106.8609 279.6006 106.4209C 280.0806 105.9709 280.3206 105.3709 280.3206 104.6109C 280.3206 103.8209 280.0706 103.2109 279.5806 102.7809C 279.0906 102.3509 278.4006 102.1409 277.5206 102.1409C 277.2106 102.1409 276.9006 102.1709 276.5806 102.2109C 276.2606 102.2609 275.9406 102.3309 275.6006 102.4409L275.6006 102.4409L275.6006 103.4309C 275.8906 103.2709 276.1906 103.1509 276.5106 103.0709C 276.8206 102.9909 277.1506 102.9609 277.5006 102.9609C 278.0606 102.9609 278.5106 103.1009 278.8406 103.4009C 279.1606 103.7009 279.3306 104.1009 279.3306 104.6109C 279.3306 105.1109 279.1606 105.5109 278.8406 105.8109C 278.5106 106.1109 278.0606 106.2609 277.5006 106.2609C 277.2406 106.2609 276.9706 106.2309 276.7106 106.1709C 276.4506 106.1109 276.1806 106.0209 275.9106 105.9009L275.9106 105.9009L275.9106 109.5609" stroke="none" fill="#000000" fill-rule="nonzero" />
    <path id=""  transform="matrix(1 0 0 -1 0 151)"  d="M224.9906 91.09906L244.9906 91.09906" stroke="#7A68A6" stroke-width="2" stroke-linecap="square" stroke-linejoin="round" fill="none" />
    <path id=""  transform="matrix(1 0 0 -1 0 151)"  d="M254.8206 94.61906L254.8206 93.06906L254.8206 93.06906L256.6706 93.06906L256.6706 93.06906L256.6706 92.36906L256.6706 92.36906L254.8206 92.36906L254.8206 92.36906L254.8206 89.39906C 254.8206 88.94906 254.8806 88.65906 255.0006 88.53906C 255.1206 88.40906 255.3706 88.34906 255.7506 88.34906L255.7506 88.34906L256.6706 88.34906L256.6706 88.34906L256.6706 87.59906L256.6706 87.59906L255.7506 87.59906C 255.0506 87.59906 254.5706 87.72906 254.3106 87.98906C 254.0506 88.24906 253.9206 88.71906 253.9206 89.39906L253.9206 89.39906L253.9206 92.36906L253.9206 92.36906L253.2606 92.36906L253.2606 92.36906L253.2606 93.06906L253.2606 93.06906L253.9206 93.06906L253.9206 93.06906L253.9206 94.61906L253.9206 94.61906L254.8206 94.61906" stroke="none" fill="#000000" fill-rule="nonzero" />
    <path id=""  transform="matrix(1 0 0 -1 0 151)"  d="M257.9706 90.14906L264.2307 90.14906L264.2307 90.14906L264.2307 89.31906L264.2307 89.31906L257.9706 89.31906L257.9706 89.31906L257.9706 90.14906M257.9706 92.13906L264.2307 92.13906L264.2307 92.13906L264.2307 91.31906L264.2307 91.31906L257.9706 91.31906L257.9706 91.31906L257.9706 92.13906" stroke="none" fill="#000000" fill-rule="nonzero" />
    <path id=""  transform="matrix(1 0 0 -1 0 151)"  d="M266.3706 94.88906L270.2407 94.88906L270.2407 94.88906L270.2407 94.05906L270.2407 94.05906L267.2707 94.05906L267.2707 94.05906L267.2707 92.26906C 267.4106 92.31906 267.5606 92.35906 267.7007 92.37906C 267.8406 92.39906 267.9907 92.41906 268.1306 92.41906C 268.9406 92.41906 269.5807 92.18906 270.0606 91.74906C 270.5406 91.29906 270.7806 90.69906 270.7806 89.93906C 270.7806 89.14906 270.5306 88.53906 270.0406 88.10906C 269.5507 87.67906 268.8607 87.46906 267.9807 87.46906C 267.6707 87.46906 267.3607 87.49906 267.0406 87.53906C 266.7206 87.58906 266.4006 87.65906 266.0606 87.76906L266.0606 87.76906L266.0606 88.75906C 266.3506 88.59906 266.6506 88.47906 266.9706 88.39906C 267.2806 88.31906 267.6107 88.28906 267.9607 88.28906C 268.5207 88.28906 268.9706 88.42906 269.3007 88.72906C 269.6206 89.02906 269.7906 89.42906 269.7906 89.93906C 269.7906 90.43906 269.6206 90.83906 269.3007 91.13906C 268.9706 91.43906 268.5207 91.58906 267.9607 91.58906C 267.7007 91.58906 267.4307 91.55906 267.1707 91.49906C 266.9106 91.43906 266.6407 91.34906 266.3706 91.22906L266.3706 91.22906L266.3706 94.88906" stroke="none" fill="#000000" fill-rule="nonzero" />
    <path id=""  transform="matrix(1 0 0 -1 0 151)"  d="M272.7206 88.83906L273.7506 88.83906L273.7506 88.83906L273.7506 87.59906L273.7506 87.59906L272.7206 87.59906L272.7206 87.59906L272.7206 88.83906" stroke="none" fill="#000000" fill-rule="nonzero" />
    <path id=""  transform="matrix(1 0 0 -1 0 151)"  d="M278.0106 95.01906C 278.8206 95.01906 279.4406 94.68906 279.8806 94.04906C 280.3106 93.39906 280.5306 92.45906 280.5306 91.23906C 280.5306 90.00906 280.3106 89.06906 279.8806 88.42906C 279.4406 87.78906 278.8206 87.46906 278.0106 87.46906C 277.1906 87.46906 276.5606 87.78906 276.1306 88.42906C 275.7006 89.06906 275.4906 90.00906 275.4906 91.23906C 275.4906 92.45906 275.7006 93.39906 276.1306 94.04906C 276.5606 94.68906 277.1906 95.01906 278.0106 95.01906M278.0106 94.23906C 277.5006 94.23906 277.1206 93.98906 276.8606 93.48906C 276.6006 92.98906 276.4806 92.23906 276.4806 91.23906C 276.4806 90.23906 276.6006 89.48906 276.8606 88.98906C 277.1206 88.48906 277.5006 88.23906 278.0106 88.23906C 278.5206 88.23906 278.9006 88.48906 279.1606 88.98906C 279.4106 89.48906 279.5406 90.23906 279.5406 91.23906C 279.5406 92.23906 279.4106 92.98906 279.1606 93.48906C 278.9006 93.98906 278.5206 94.23906 278.0106 94.23906" stroke="none" fill="#000000" fill-rule="nonzero" />
    <path id=""  transform="matrix(1 0 0 -1 0 151)"  d="M224.9906 76.42719L244.9906 76.42719" stroke="#467821" stroke-width="2" stroke-linecap="square" stroke-linejoin="round" fill="none" />
    <path id=""  transform="matrix(1 0 0 -1 0 151)"  d="M254.8206 79.94719L254.8206 78.39719L254.8206 78.39719L256.6706 78.39719L256.6706 78.39719L256.6706 77.69719L256.6706 77.69719L254.8206 77.69719L254.8206 77.69719L254.8206 74.72719C 254.8206 74.27718 254.8806 73.98718 255.0006 73.86719C 255.1206 73.73718 255.3706 73.67719 255.7506 73.67719L255.7506 73.67719L256.6706 73.67719L256.6706 73.67719L256.6706 72.92719L256.6706 72.92719L255.7506 72.92719C 255.0506 72.92719 254.5706 73.05718 254.3106 73.31718C 254.0506 73.57719 253.9206 74.04719 253.9206 74.72719L253.9206 74.72719L253.9206 77.69719L253.9206 77.69719L253.2606 77.69719L253.2606 77.69719L253.2606 78.39719L253.2606 78.39719L253.9206 78.39719L253.9206 78.39719L253.9206 79.94719L253.9206 79.94719L254.8206 79.94719" stroke="none" fill="#000000" fill-rule="nonzero" />
    <path id=""  transform="matrix(1 0 0 -1 0 151)"  d="M257.9706 75.47719L264.2307 75.47719L264.2307 75.47719L264.2307 74.64719L264.2307 74.64719L257.9706 74.64719L257.9706 74.64719L257.9706 75.47719M257.9706 77.46719L264.2307 77.46719L264.2307 77.46719L264.2307 76.64719L264.2307 76.64719L257.9706 76.64719L257.9706 76.64719L257.9706 77.46719" stroke="none" fill="#000000" fill-rule="nonzero" />
    <path id=""  transform="matrix(1 0 0 -1 0 151)"  d="M266.1107 80.21719L270.8007 80.21719L270.8007 80.21719L270.8007 79.79719L270.8007 79.79719L268.1506 72.92719L268.1506 72.92719L267.1206 72.92719L267.1206 72.92719L269.6107 79.38718L269.6107 79.38718L266.1107 79.38718L266.1107 79.38718L266.1107 80.21719" stroke="none" fill="#000000" fill-rule="nonzero" />
    <path id=""  transform="matrix(1 0 0 -1 0 151)"  d="M272.7206 74.16718L273.7506 74.16718L273.7506 74.16718L273.7506 72.92719L273.7506 72.92719L272.7206 72.92719L272.7206 72.92719L272.7206 74.16718" stroke="none" fill="#000000" fill-rule="nonzero" />
    <path id=""  transform="matrix(1 0 0 -1 0 151)"  d="M275.9106 80.21719L279.7806 80.21719L279.7806 80.21719L279.7806 79.38718L279.7806 79.38718L276.8106 79.38718L276.8106 79.38718L276.8106 77.59718C 276.9506 77.64719 277.1006 77.68719 277.2406 77.70718C 277.3806 77.72719 277.5306 77.74718 277.6706 77.74718C 278.4806 77.74718 279.1206 77.51718 279.6006 77.07719C 280.0806 76.62718 280.3206 76.02718 280.3206 75.26718C 280.3206 74.47719 280.0706 73.86719 279.5806 73.43719C 279.0906 73.00719 278.4006 72.79719 277.5206 72.79719C 277.2106 72.79719 276.9006 72.82719 276.5806 72.86719C 276.2606 72.91718 275.9406 72.98718 275.6006 73.09718L275.6006 73.09718L275.6006 74.08719C 275.8906 73.92719 276.1906 73.80718 276.5106 73.72719C 276.8206 73.64719 277.1506 73.61719 277.5006 73.61719C 278.0606 73.61719 278.5106 73.75719 278.8406 74.05718C 279.1606 74.35719 279.3306 74.75719 279.3306 75.26718C 279.3306 75.76718 279.1606 76.16718 278.8406 76.46719C 278.5106 76.76718 278.0606 76.91718 277.5006 76.91718C 277.2406 76.91718 276.9706 76.88718 276.7106 76.82719C 276.4506 76.76718 276.1806 76.67719 275.9106 76.55718L275.9106 76.55718L275.9106 80.21719" stroke="none" fill="#000000" fill-rule="nonzero" />
    <path id=""  transform="matrix(1 0 0 -1 0 151)"  d="M224.9906 61.75531L244.9906 61.75531" stroke="#D55E00" stroke-width="2" stroke-linecap="square" stroke-linejoin="round" fill="none" />
    <path id=""  transform="matrix(1 0 0 -1 0 151)"  d="M254.8206 65.27531L254.8206 63.72532L254.8206 63.72532L256.6706 63.72532L256.6706 63.72532L256.6706 63.02531L256.6706 63.02531L254.8206 63.02531L254.8206 63.02531L254.8206 60.05531C 254.8206 59.60531 254.8806 59.31532 255.0006 59.19531C 255.1206 59.06532 255.3706 59.00531 255.7506 59.00531L255.7506 59.00531L256.6706 59.00531L256.6706 59.00531L256.6706 58.25531L256.6706 58.25531L255.7506 58.25531C 255.0506 58.25531 254.5706 58.38531 254.3106 58.64531C 254.0506 58.90532 253.9206 59.37531 253.9206 60.05531L253.9206 60.05531L253.9206 63.02531L253.9206 63.02531L253.2606 63.02531L253.2606 63.02531L253.2606 63.72532L253.2606 63.72532L253.9206 63.72532L253.9206 63.72532L253.9206 65.27531L253.9206 65.27531L254.8206 65.27531" stroke="none" fill="#000000" fill-rule="nonzero" />
    <path id=""  transform="matrix(1 0 0 -1 0 151)"  d="M257.9706 60.80531L264.2307 60.80531L264.2307 60.80531L264.2307 59.97532L264.2307 59.97532L257.9706 59.97532L257.9706 59.97532L257.9706 60.80531M257.9706 62.79531L264.2307 62.79531L264.2307 62.79531L264.2307 61.97532L264.2307 61.97532L257.9706 61.97532L257.9706 61.97532L257.9706 62.79531" stroke="none" fill="#000000" fill-rule="nonzero" />
    <path id=""  transform="matrix(1 0 0 -1 0 151)"  d="M266.5306 59.08532L268.1407 59.08532L268.1407 59.08532L268.1407 64.64532L268.1407 64.64532L266.3907 64.29531L266.3907 64.29531L266.3907 65.19531L266.3907 65.19531L268.1306 65.54531L268.1306 65.54531L269.1206 65.54531L269.1206 65.54531L269.1206 59.08532L269.1206 59.08532L270.7307 59.08532L270.7307 59.08532L270.7307 58.25531L270.7307 58.25531L266.5306 58.25531L266.5306 58.25531L266.5306 59.08532" stroke="none" fill="#000000" fill-rule="nonzero" />
    <path id=""  transform="matrix(1 0 0 -1 0 151)"  d="M274.8306 65.67532C 275.6406 65.67532 276.2606 65.34531 276.7006 64.70531C 277.1306 64.05531 277.3506 63.11531 277.3506 61.89531C 277.3506 60.66531 277.1306 59.72532 276.7006 59.08532C 276.2606 58.44531 275.6406 58.12531 274.8306 58.12531C 274.0106 58.12531 273.3806 58.44531 272.9506 59.08532C 272.5206 59.72532 272.3106 60.66531 272.3106 61.89531C 272.3106 63.11531 272.5206 64.05531 272.9506 64.70531C 273.3806 65.34531 274.0106 65.67532 274.8306 65.67532M274.8306 64.89532C 274.3206 64.89532 273.9406 64.64532 273.6806 64.14532C 273.4206 63.64531 273.3006 62.89531 273.3006 61.89531C 273.3006 60.89531 273.4206 60.14531 273.6806 59.64531C 273.9406 59.14531 274.3206 58.89531 274.8306 58.89531C 275.3406 58.89531 275.7206 59.14531 275.9806 59.64531C 276.2306 60.14531 276.3606 60.89531 276.3606 61.89531C 276.3606 62.89531 276.2306 63.64531 275.9806 64.14532C 275.7206 64.64532 275.3406 64.89532 274.8306 64.89532" stroke="none" fill="#000000" fill-rule="nonzero" />
    <path id=""  transform="matrix(1 0 0 -1 0 151)"  d="M279.0806 59.49532L280.1106 59.49532L280.1106 59.49532L280.1106 58.25531L280.1106 58.25531L279.0806 58.25531L279.0806 58.25531L279.0806 59.49532" stroke="none" fill="#000000" fill-rule="nonzero" />
    <path id=""  transform="matrix(1 0 0 -1 0 151)"  d="M284.3706 65.67532C 285.1806 65.67532 285.8006 65.34531 286.2406 64.70531C 286.6706 64.05531 286.8906 63.11531 286.8906 61.89531C 286.8906 60.66531 286.6706 59.72532 286.2406 59.08532C 285.8006 58.44531 285.1806 58.12531 284.3706 58.12531C 283.5506 58.12531 282.9206 58.44531 282.4906 59.08532C 282.0606 59.72532 281.8506 60.66531 281.8506 61.89531C 281.8506 63.11531 282.0606 64.05531 282.4906 64.70531C 282.9206 65.34531 283.5506 65.67532 284.3706 65.67532M284.3706 64.89532C 283.8606 64.89532 283.4806 64.64532 283.2206 64.14532C 282.9606 63.64531 282.8406 62.89531 282.8406 61.89531C 282.8406 60.89531 282.9606 60.14531 283.2206 59.64531C 283.4806 59.14531 283.8606 58.89531 284.3706 58.89531C 284.8806 58.89531 285.2606 59.14531 285.5206 59.64531C 285.7706 60.14531 285.9006 60.89531 285.9006 61.89531C 285.9006 62.89531 285.7706 63.64531 285.5206 64.14532C 285.2606 64.64532 284.8806 64.89532 284.3706 64.89532" stroke="none" fill="#000000" fill-rule="nonzero" />
	</g>
</g>
</svg>